<mxfile host="app.diagrams.net" agent="Mozilla/5.0 (Windows NT 10.0; Win64; x64) AppleWebKit/537.36 (KHTML, like Gecko) Chrome/135.0.0.0 Safari/537.36" version="26.2.12" pages="2">
  <diagram name="Page-1" id="d1OhfMfelL_8_7eM4aV_">
    <mxGraphModel dx="874" dy="431" grid="1" gridSize="10" guides="1" tooltips="1" connect="1" arrows="1" fold="1" page="1" pageScale="1" pageWidth="850" pageHeight="1100" math="0" shadow="0">
      <root>
        <mxCell id="0" />
        <mxCell id="1" parent="0" />
        <mxCell id="D1Pnn4vapH3yF3k0A5Gj-2" value="" style="rounded=0;whiteSpace=wrap;html=1;" vertex="1" parent="1">
          <mxGeometry x="35" y="117" width="170" height="258" as="geometry" />
        </mxCell>
        <mxCell id="D1Pnn4vapH3yF3k0A5Gj-3" value="" style="shape=image;verticalLabelPosition=bottom;labelBackgroundColor=default;verticalAlign=top;aspect=fixed;imageAspect=0;image=data:image/png,iVBORw0KGgoAAAANSUhEUgAAAeAAAAHgCAYAAAB91L6VAAAACXBIWXMAAAsTAAALEwEAmpwYAAAgAElEQVR4nO3dTWhUZ///8VGxiIi4qU1zncmExComEAjzm/O9ZhqZiriQlJaWjqEPkjRzztUiVNd240rXute9Xetabwzc+BdBAkEICiqKElz4UENIyOT+433/8sPbWvM0M9/rnPN+wWfXhb0ezuc6euacXA4AAAAAAAAAAAAAAAAAAAAAAAAAAAAAAAAAAAAAAAAAAAAAAAAAAAAAAAAAAAAAAAAAAAAAAAAAAAAAAAAAAAAAAAAAAAAAAAAAAAAAAAAAAAAAAAAAAAAAAAAAAAAAAAAAAAAAAAAAAAAAAAAAAAAAEqazs/PLUql001r7L5LdMRgaGrrpnBvWXo8AkAl9fX0fBUEw3d3d/VBE5rRLgKiNwfyxY8fuO+fujY6ObtNelwCQesaY34Mg+NebDAwMXKMAs3kIOHz48DXn3L/eJI7jU9rrEgBSzRgTBEHw53IB5/P52TAMH2uXAWn7GDyp1+uvlwvYOTc7Pj5e0F6fAJBaQRD8sVy+y9m3b98/KcBsHQK+/fbbf75Vvst3wZe01ycApFI+nx8KgmDp3QJ+kzAMb2uXAmnPGHz++eeTzrmldwv4f3NQe50CQNpsCYJg8n3l+ybd3d13rbULlGC6DwIisvjTTz9N/035vsmUc26r9mIFgNQwxpz8u/JdzuDg4D+0C4K0dgwOHTr0jw+U73JOaK9XAEiFTz75ZLcx5vlKBZzP51+JyAwlmNqDwLN6vf5ipQKO4/jl8ePHO7TXLQAknjHm4krlu5y+vr7rHhQFacEYfP311xOruPtdLuEL2usWABKtq6urGARBY7UF/Oa/DcNwihJM1yGgUqnciaKosYYCfvPfivb6BYCk2hwEwY01lO+/09PTc8da29AuDdK0MWj88MMPU6st37dy6/Tp05u1FzEAJE4QBPW1lu9bD2RNUIDpOAQcPHjw+jrKd/lOeFx7HQNAouzZs2enMebpegu4UCg8E5EX2uVBNjYGIvJqbGxsZgMFPDM6OrpLez0DQGIEQXB+veW7nP7+fn6WlPBDwPDw8Gp+drRSzmmvZwBIhHw+32+MWdhoAefz+UURmdYuEbK+MahUKnejKFpoQgEv1uv1Ae11DQDeC4Lg6kbLdzm9vb2T1tolSjB5B4GRkZHbTSjf5UzkcrlN2msbALyVz+dHmlW+yykWi3ysIWGpVqt/+djCRhNF0VHt9Q0AXvr000+3B0HwoNkFXCgUnojIa+1SIaseg9mxsbHHzS5g59yj48eP79Be5wDgnSAIzja7fJczMDBwjQJMxiHgyJEj11pQvstPRZ/RXucA4JV8Pt9rjJlrVQEbY+attfe1y4WsOAYP4ziea1UBO+fmoyjaq73eAcAbQRBcaVX5Lmffvn03KUC/DwHffffdzRaW73Iua693APBCZ2fnl60u3+WUSiVK2NMMDQ21o3yXM6y97gFAVV9f30dBEEy3q4C7u7sfisicdtmQv4zB/LFjx+63sYDvjY6ObmP7A8gsY8zv7SpfHsjyt/gPHz7csgevPvBA1int9Q8AKowxQRAEf7a7gPP5/GwYho+1S4f83xg8qdfrr9tdwM652fHx8QLbH0DmBEHwR7vLdzn79u3j5RyeHAK+/fbbpr90Yw13wZe09wEAtFU+nx8KgmBJq4DfJAzD29rlk/V8/vnnk865Ja0C/t8cZPsDyIotQRBMapbvm3R3d9+11i5ol1BWIyKLP/3007Ry+b7JlHNuq/amAICWM8ac1C7f5QwODvLJQqUCPnToUDM+NdisnGDrA0i1Tz75ZLcx5rl28S4nn8+/EpEZ7bvBDOZZvV5/4UHx/jtxHL88fvx4h/b+AICWMcZc1C7dd9PX13fdg0LKVL7++usJ7dJ9TwlfYOsDSKWurq5iEAQN7cJ9TxphGE5pl1JWUqlU7kRR1PCwgN/8mUR7nwBAs20OguCGB2X73vT09Nyx1ja0yykDafzwww9TPhTu3+TW6dOnN7P9AaRGEAR17ZJdKYODgxMeFFSqc/DgweselOxKd8Lj2vsFAJpiz549O40xT7ULdqUUCoVnIvJCu6TSGhF5NTY2NpOAAp4ZHR3dxfYHkHhBEJzXLtfVpr+/n58ltaiAh4eHffrZ0Uo5p71vAGBD8vl8vzFmQbtYV5t8Pr8oItPad4tpS6VSuRtF0YIHxbraLNbr9QG2P4DECoLgqnaprjW9vb2T1tol7dJKU0ZGRm57UKprzUQul9ukvYcAYM3y+fyIdpmuN8VikY81NKl8q9Wq2scWNpooio6y9QEkyqeffro9CIIH2kW63hQKhSci8lr7zjEFmR0bG3usXaQbyKPjx4/v0N5PALBqQRCc1S7RjWZgYOCaBwWW6Bw5cuSaByW6ocRxfIatDyAR8vl8rzFmTrtANxpjzLy19r52iSU4D+M4ntMu0CZkPoqivdr7CgBWFATBFe3ybFb27dt304MiS2S+++67mx6UZ7Nyma0PwGudnZ1fapdms1MqlSjhNZbv0NBQmsp3OcPa+wsA3quvr++jIAimtQuz2enu7n4oInPad5QJyvyxY8fue1CYzc690dHRbWx/AN4xxvyuXZatCg9krb6ADx8+nPgHr/4ucRyf0t5nAPBfjDFBEAR/ahdlq5LP52fDMHzswd2l73lSr9dfaxdlCzM7Pj5eYPsD8EYQBH9ol2Srs2/fPl7OsUIBf/vtt4l96cYa7oIvae83APi3fD4/FATBknZBtiNhGN724C7Ty3z++eeTzrkl7YJsUw6y/QFo2xIEwaR2MbYr3d3dd621C9pl51tEZPGnn36a9qAY25Up59xW7c0HIMOMMSe1S7HdGRwc5JOF7xTwoUOHkvSpwWblhPb+A5BRn3zyyW5jzHPtQmx38vn8KxGZ0b7r9CjP6vX6Cw8Ksa2J4/jl8ePHO7T3IYAMMsZc1C5DrfT19V33oPi8yNdffz2hXYaKJXxBex8CyJiurq5iEAQN7SJUTCMMwynt8tNOpVK5E0VRI8MF/Ob/XbT3I4Ds2BwEwQ0PSlA1PT09d6y1De0SVEzjhx9+mPKhCJVz6/Tp05u1NyWADAiCoK5dfr5kcHBwwoMiVMnBgweve1B+XiSO43HtfQkg5fbs2bPTGPNUu/h8SaFQeCYiL7TLsN0RkVdjY2Mz2sXnS+I4nhkdHd2lvT8BpFgQBOe1S8+39Pf3Z+5nScPDw1n82dFKOae9PwGkVD6f7zfGLGgXnm/J5/OLIjKtXYrtSqVSuRtF0YIHhedbFuv1+oD2PgWQQkEQXNUuO1/T29s7aa1d0i7HdmRkZOS2B2XnayZyudwm7b0KIEXy+fyIdsn5nmKxmPqPNVSr1dR/bGGjiaLoqPZ+BZASn3766fYgCB5oF5zvKRQKT0TktXZJtjCzY2Njj7ULLgF5dPz48R3a+xZACgRBcFa73JKSgYGBax4UZUty5MiRax6UWyISx/EZ7X0LIOHy+XyvMWZOu9iSEmPMvLX2vnZZtiAP4zie0y62BGU+iqK92vsXQIIFQXBFu9SSln379t30oDCbmu++++6mB6WWtFzW3r8AEqqzs/NL7TJLakqlUmpKeGhoiPJdfwkPa+9jAAnT19f3URAE09pFltR0d3c/FJE57fJsQuaPHTt234O7yaTm3ujo6Dbt/QwgQYwxv2uXWNKThgeyDh8+zINXGyzhOI5Pae9nAAlhjAmCIPhTu8CSnnw+PxuG4WPtEt1AntTr9dce3EUmPbPj4+MF7X0NIAGCIPhDu7zSkn379iX25RzffvstL91oUgnHcXxJe18D8Fw+nx8KgmBJu7jSlDAMb2uX6Vrz+eefTzrnljy4e0xTDmrvbwD+2hIEwaR2YaUt3d3dd621C9qlutqIyOJPP/007UFhpS1Tzrmt2pscgIeMMSe1yyqtGRwcTMwnCw8dOsSnBltXwie09zkAz3zyySe7jTHPtYsqrcnn869EZEa7XFeRZ/V6/YUHd4upTBzHL48fP96hvd8BeMQYc1G7pNKevr6+6x4U7Afz9ddfT2iXVNoTx/EF7f0OwBNdXV3FIAga2gWVgTTCMJzSLtm/S6VSuRNFUUO7oNKeOI7fjLFo73sA+jYHQXDDg3LKRHp6eu5YaxvaZfueNH744YcpHwoqI7l1+vTpzdqbH4CiIAjq2qWUtQwODk54ULj/lYMHD173oJQylTiOx7n4ARm1Z8+encaYp9qFlLUUCoVnIvJCu3SXIyKvxsbGZrQLKWuJ43hmdHR0l/Z1AICCIAjOa5dRVtPf3+/Nz5KGh4f52ZFeEZ/j4gdkTD6f7zfGLGgXUVaTz+cXRWRau3wrlcrdKIoWtO8GM5zFer0+oH09ANBGQRBc1S6hrKe3t3fSWrukWcAjIyO3PSihrGcil8tt4gIIZEA+nx/RLh/ynzEoFotqH2uoVqt8bMGTRFF0VPu6AKDFPv300+1BEDygAP04BBQKhSci8lqhgGfHxsYeaxcP+b8xeHT8+PEdXACBFAuC4Kx26ZD/HoOBgYFr7S7gI0eOXKP8/DoAxHF8Rvv6AKBF8vl8rzFmjgL06xBgjJm31t5vYwE/jON4TrtwyF/GYD6Kor1cAIEUCoLginbZkPePwb59+262q4C/++67m5SftweAy9rXCQBN1tnZ+SXl5/cBoFQqtbyEh4aGKF//M8wFEEiJvr6+j4IgmNYuGPLhMeju7n4oInMtLOD5Y8eO3fegYMiHx+De6OjoNu3rBoAmMMb8Tvkl4wDQygeyDh8+zINXCSn/OI5PcfEDEs4YEwRB8Kd2sZDVjUE+n58Nw/BxCwr4Sb1ef61dLGTVYzA7Pj5e0L5+ANiAIAj+oPySdQDYt29f01/O8e233/LSjYQdAOI4vsTFD0iofD4/FATBknahkLWPQRiGt5tVvp9//vmkc25Ju1DIusbgoPZ1BMDabQmCYJLyS+YBoLu7+661dmGj5Ssiiz/99NM05ZfYA8CUc24rF0AgQYwxJ7VLhGxsDAYHBzf8ycJDhw7xqcHk54T29QTAKn3yySe7jTHPKcBkHwLy+fwrEZnZQAE/q9frLzwoELKBMYjj+OXx48c7uAACCWCMuahdHqQ5Y9DX13d9vQX89ddfT1B+6Sj/OI4vaF9XAKygq6urGARBgwJMzSGgEYbh1FrLt1Kp3ImiqKFdHKRpBfxmLoULIOCvzUEQ3PCgNEgTx6Cnp+eOtbaxhgJu/PDDD28e3qEA0zUGt06fPr1Z+yID4D2CIKhTfuks/8HBwYnVFvDBgweve1AWpAVjEMfxOBc/wDN79uzZaYx5ql0UpDVjUCgUnonIi1X87OjV2NjYDAWYzgNAHMczo6Oju7SvNwDeEgTBecov3QeA/v7+FX+WNDw8zM+O0p9zXPwAT+Tz+X5jzIJ2QZDWjkE+n18UkekPPHh1N4qiBQ8KgrR2DBbr9fqA9nUHwH/ufq9Sftk4APT29k5aa5feV8AjIyO3Kb/MlP9ELpfbxAUQUJTP50e0S4G0dwyKxeJfPtZQrVb52ELGEkXRUS6+gJJPP/10exAEDyjAbB0CCoXCExF5/VYBz46NjT3WLgTS9jF4dPz48R1cgAEFQRCc1S4DojMGAwMD15YL+MiRI9cov2weAOI4PsPFF2izfD7fa4yZowCzeQgwxsxba+9bax/GcTynXQREbQzmoyjaywUYaKMgCK5olwDRHYO9e/f+v+++++4m5Zf5A8BlLr5AG1lrr2z0U3Uk2WMgIlx4AaDdKpVKr4jMaZcAURuD+VKpxF89AoAGETlLAWbzECAiPHwDAFqKxeJ2EXmgXQak7WPwqFqt8vMTANAkIiMUYOYOAbyAAQB8YK296kEpkPaMAa8gBABflEqlfmvtAiWY7kOAiLz5GAMv4QcAn1hrz2sXBGn5GPAZOgDwTRiGO621TynBdB4ERGSmWq3yIXYA8JG1tq5dFKQ1Y1Aul8e11xcA4O9tttbeoARTdxC49WZuWfgA4DERKVprGx6UBmnOGDRERLTXFQBgFUTkIgWYjgOAiFxg0QNAQpTL5d0i8ly7PMiGx+BlqVTq0F5PAIA1EJGTFGCyDwEicoJFDwAJU6vVtlhrJ7VLhKx7DKaKxeJW7XUEAFgHERmy1i5Rgsk7CIRheJBFDwAJJiJ/aJcJWfMYXNJeNwCADQrDMBCRPynBxBwEZsvlcoGFDwApYK393YNiIasbg1Pa6wUA0CR9fX0fWWunKUG/DwEicq9arW5j4QNAipTL5S+1C4Z8eAzCMBzWXicAgBaw1l6hBP08CIjIZRY9AKRUpVLpFZE57bIhfxmD+VKptFd7fQAAWkhEzlKAfh0CROQMix4AUq5YLG4XkQfapUP+bwweVavVHdrrAgDQBiIyQgF6cwg4yqIHgAyx1l71oHyynolcLrdJey0AANqoVCr1W2sXPCihTEZEFkVkgEUPABlkrT2vXUQZzjnt+QcAKAnDcKe19qkHZZSpiMhMtVrdxcIHgAyz1ta1CylrKZfL49rzDgDQt9lae0O7lDKUW2/GXHvSAQAeEJGitbbhQTmlPQ0REe35BgB4REQuelBQqY6IXNCeZwCAZ8rl8m4Rea5dUinOy1Kp1KE9zwAAD4nISQ+KKpURkRPa8wsA8FStVttirZ3ULqsUZqpYLG7Vnl8AgMdEZMhau+RBaaUmYRge1J5XAEACiMgf2qWVolzSnk8AQEKEYRiIyJ8elFfSM1sulwva8wkASBBr7e8eFFjSc0p7HgEACdPX1/eRtXbagxJLZETkXrVa3aY9jwCABCqXy19qF1lSE4bhsPb8AQASzFp7RbvMkhYRuaw9bwCAhKtUKr0iMqddagnKfKlU2qs9bwCAFBCRsx4UWyIiIme05wsAkBLFYnG7iDzQLrcE5FG1Wt2hPV8AgBQRkREPCs73HNWeJwBACllrr3pQcr5mIpfLbdKeIwBACpVKpX5r7YIHZedVRGRRRAa05wcAkGLW2vPahedhzmnPCwAg5cIw3GmtfepB6XkREZmpVqu7tOcFAJAB1tq6dvH5knK5PK49HwCA7Nhsrb2hXX4e5NabsdCeDABAhohI0Vrb8KAEtdIQEdGeBwBABonIRQ+KUCUickF7/AEAGVUul3eLyHPtMlTIy1Kp1KE9/gCADBORkxm8+z2hPe4AgIyr1WpbrLWT2qXYxkwVi8Wt2uMOAMCbu+Aha+2SB+XY8oRheJApBwB4Q0T+0C7HNuSS9jgDAPBfwjAMRORPD0qyVZktl8sFph0A4B1r7e8eFGWrckp7fAEAeK++vr6PrLXTHpRlUyMi96rV6jamHQDgrXK5/KV2YTY7YRgOa48rAAArstZeSdHd72WmHACQCJVKpVdE5rTLswmZL5VKe7XHEwCAVRORsym4+z3DlAMAEqVYLG4XkQfaJbqBPKpWqzu0xxEAgDUTkREPinS9OcqUJ+OhPx6SA4D3sNZe9aBM15qJXC63iQn12/LP3viZGAC8R6lU6rfWLnhQqquKiCyKyACTmbgXv/CiFAB4l7X2vHaxriHnmMFEvvqUV4UCwLvCMNxprX2agLvfmWq1uosZTOzHP/hYBgC8y1pb1y7YlVIul8eZuWR//pLPRQLAX2221t7QLtkP5NabPyMT57darbbFWjv5gXmcKhaLW7X/nADgFREpWmsbHpTtu2mIiGiPD1YmIidXmk8ROcFYAsA7ROSiB4X77gX7AhPlv3K5vFtEnq9iTl+WSqUO7T8vACT1ItqucLFO4eGNQxUArPOvEdt498tfV6bzny/4ZwUAWMeDNO0KD+yk+wE+HqwDgLX8lKRd4Scr6f8JGz8tA4DVv0yhXeGlDRl4iQsvVwGA1b1OsF3htYXZeo0prxcFgBVeqN+u8OL+DH3Igw9sAMAHPinXrvLl03WZ/ZQln5gEgPd9VL1dBczH25NBREZaMP9Htf+/AMA71torbbj7vaz9/4mVFYvF7SLyoAVr4FG1Wt3BHADAWyqVSq+IzLWwgOdLpdJeBt1/InK2hYewM9r/fwDgHS684CAGAAr4q0fwTxEAoISHb7KLh/EAQBk/P8kefo4GAB7gBQzZwwtZAMATvIIwO3glKQB4hJfwZwcf5QAAz/AZuvTjs5QA4Cc+xJ5itVpti7V2stVvQFtFporF4lbt8QAAr4hI0VrbWMPFtCEiov3nxspE5KQH5bv8hqwTzBkAvENELq7hQnqBAfRfuVzeLSLPtYv3rbwslUod2uMCAEm9WHMRTeGhqo13wRzeAGA9f13JXyOm9p8V2hX++QIA1vHADg/SpPvBunbl1ps/o/YgAUBifrIShuFB7T8fWvvTsnalXC6PM5cAsLqXNlxioNL/cpV2RURmqtXqLu3xAgDfX1s4Wy6XC9p/LrTt9aLtyjnmFAA+/OL+UwxQdj6w0ca74EURGdAeNwDw8tN1InKvWq1u0/7zoO2fmGxXJnK53CbmFwDeEobh8JswKP4TkREPynS9Oao9fgAArFmxWNwuIg88KNL15lG1Wt3B1AMAEkVEznpQohuKiJzRHkcAAFatUqn0isicdoE2IfOlUmkvUw8ASARr7RUPyrNZd8GXtccTAIAVlcvlL7VLs9nhoT8AQCJ+JqZdmC24C+ZnbwCAxLwoJW3hxS8AgES8KjRt4dWnAIDEfCwjbeHjHwCAZHwuMm3h85cAAC/UarUt1tpJ7WJsY6aKxeJW7XEHAGSciJz0oBTbGhE5oT3uAIAMK5fLu0XkuXYhKuRlqVTq0B5/AEBGichFD8pQ6y74gvb4AwAySESK1tqGdhEqpiEioj0PAIBs2WytveFBCWrn1pux0J4MAEBGWGvrHpSfFymXy+Pa8wEAyIAwDHdaa59qF58vEZGZarW6S3teAAApZ609r116Huac9rwAAFKsVCr1W2sXPCg8ryIiiyIyoD0/AICUstZe1S47jzORy+U2ac8RACBlRGTEg5LzPUe15wkAkCLFYnG7iDzwoOB8z6NqtbpDe74AACkhImc9KLdERETOaM8XACAFKpVKr4jMaRdbgjJfKpX2as8bACDhrLVXPCi1REVELmvPGwAgwcrl8pfaZZbUhGE4rD1/AIAE6uvr+8haO61dZEmNiNyrVqvbtOcRAJAw1trftUssBTmlPY8AgAQJwzAQkT89KLCkZ7ZcLhe05xMAkBAi8ocH5ZWWXNKeTwBAAojIkLV2yYPiSk3CMDyoPa8AAI/VarUt1tpJ7cJKYaaKxeJW7fkFAHhKRE56UFapjIic0J5fAICHyuXybhF5rl1UKc7LUqnUoT3PAADPiMhFD0oq1RGRC9rzDADwiIgUrbUN7YLKQBoiItrzDQDww2Zr7Q0PyikrufVmzLUnHQCgzFpb96CUMpVyuTyuPe8AAEVhGO601j7VLqSsRURmqtXqLhY/AGSUtfa8dhllOOe05x8AoKBUKvVbaxc8KKJMRkQWRWSAxQ8AGWOtvapdQsRO5HK5TdprAQDQJiIyQvl5cwA4ysIHgAwoFovbReSBB8VD/jMGj6rV6g7tdQEAaDEROUv5+VX+InKGhQ8AKVapVHpFZE67cMhfxmC+VCrt1V4fAIAWsdZeofz8PACIyGUWPgCkULlc/lK7ZMiHxyAMw2HtdQIAaKK+vr6PrLXTFKDfhwARuVetVrex+AEgJay1v2uXC1n1GJzSXi8AgCYIwzAQkT8pwMQcAmbL5XKBxQ8ACScif3hQKmRtY3BJe90AADZARIastUsUYPIOAGEYHmTxA0AC1Wq1LdbaSe0iIeseg6lisbhVex0BANZIRE5Sfsk+AIjICRY+ACRIuVzeLSLPtQuEbHgMXpZKpQ7t9QQAWCURuUj5peMAICIXWPgAkAAiUrTWNrSLgzRtDBoiItrrCgDwYZuttTcov9QdAG69mVsWPwB4ylpb96AsSAvGoFwuj2uvLwDAe4RhuNNa+5QCTOcBQERmqtXqLhY/AHjGWnteuyRIy8fgnPY6AwC8pVQq9VtrFyjAdB8CRGRRRAZY/ADgCWvtVe1yIG0bg4lcLrdJe80BQOaJyAjll7kDwNHML3wA0FQsFreLyAMPCoG0dwweVavVHew+AFAiImcpv2yWv4icYeMBgIJKpdIrInPaRUDUxmC+VCrtZfMBQJtZa69Qftk+AIjIZTYe0EbOuSvOuX+R7I5BrVa7+dlnn90MguBfJNNjQAED7eSc63XOzWmXANEZgziO58vl8n0ReRgEwZwHJUAUxsAYM9/Z2clfQQPt5pw7SwFm8xBw5MiRa8t/BTkwMHCNAszsAYCHsAANzrntzrkH2mVA2jsGY2NjT0Tk9Vv/Djjb3d392IMyIO0dg0cff/wxP0MCtDjnRijAbB0CDhw48M93H8QpFov/pACzdQDo7OzkRRyANufcVe1SIO0Zg++//37SWrv0vqdh9+zZc1u7FEh7xsAYw6soAR9EUdTvnFugBFN/EFgsl8vTH/g5yl1jzAIlmPqDwKIxho8xAL5wzp33oCBIC8dgeHj4Hyv9JrS/v/8fHhQEae0Y8DlCwCe//fbbzjiOn1KC6TwE/Pzzz89E5MUqXsrwqqura4YSTO0hYKZQKOzSvt4AeMcvv/xS1y4K0pox+OKLLyZW+2akwcHB6x4UBWnNGIxz4QM8dPr06c3OuRuUYLoOAj/++OMda21jDa8nbPT09ExRguk6BBhjbuVyuc3a1xkAfyOKomIcxw3t0iDNGYMoihqVSmVqre8HDsPwThAEDe3SIE0bg4YxRrjwAZ5zzl2kANNxCPjqq6+ur/cl/fv375+gANNxCDDGXNC+rgBYhV9//XW3c+65dnmQjY1BvV5/Za2d2cBXcp7l8/kX2uVBNly+LwuFQgcXPyAh4jg+SQEm+xBw6NChFX92tIoHsvhZUsIPAcaYE9rXEwBrUKvVtjjnJrVLhKxvDI4dO3bXWrvQhG/FLvb09ExrlwhZd/lOFYvFrVz8gIRxzg0555YoweQdBPxZNcwAAA2aSURBVIaGhm5vtHzfeiBrMgiCJUoweQcBY8xB7esIgHVyzv2hXSZkbWPwzTff/OVjCxvN/v37+VhD8sr3Ehc+IMGiKAriOP6TEkzGQaBer8+KyONmF7CIPOnq6nqtXSpk1WMw29HRUdC+fgDYIOfc79rFQlY3BocPH77W7PJdzsDAwDUKMBmHAGPMKS58QArUarWPnHPTlKDfB4HR0dGHIjLXqgK21s53d3ff1y4XsmL53isUCtu0rxsAmiSKoi+1C4Z8eAwOHDhws4Xl++8Ui8WbFKDfhwBjzDAXPiBlnHNXKEE/DwK1Wq3l5buczz77jBL2N5e1rxMAWsA51+ucm9MuG/LfYxDH8Xy5XL7frgIWkYdBEMx5UDbkv+985zs7O/dy8QNSyjl3lgL06xBw5MiRlj14xQNZiSr5M9rXBwAt5Jzb7px7oF065D9jMDY29kREXre7gK21s93d3Y89KB3ynzF49PHHH+/g4geknHNuhAL04xBw4MCBpr90Y7UpFou8nMOTA0BnZ+dR7esCgDZxzl3VLp+s5/vvv5+01i5pFfCb7Nmz57Z2+WQ9xpiJXC63iYsfkBFRFPU75xa0SyjDWSyXy9Oa5fsmInLXGLOgXUIZzqIxZkD7egCgzZxz5z0ookxmeHh4w58abFb6+/v5ZKFeAZ/jwgdk0G+//bYzjuOn2mWUtfz888/PROSFdvG+dRf8qqura8aDu8GsZaZQKOzSvg4AUPLLL7/UtQspa/niiy8mtEv33QwODl73oJCylnEufECGnT59erNz7oZ2KWUlP/744x1rbUO7cN+TRk9Pz5QHpZSJGGNu5XK5zdr7H4CyKIqKcRw3tMsp7YmiqFGpVKY8KNv3JgzDO0EQNLTLKQNpGGNEe98D8IRz7qJ2QaU9X3311XXtkl0p+/fvn/CgoFIdY8wF7f0OwCO//vrrbufcc+2SSmvq9fora+2MdsGuFBF5ls/nX2iXVFpjjHlZKBQ6tPc7AM/EcXxSu6jSmkOHDnnzs6OVMjg4yM+SWlfAJ7T3OQAP1Wq1Lc65Se2ySluOHTt211q7oF2sa7gLXuzp6ZnWvltMW4wxU8Vicav2PgfgKefckHNuSbu00pShoaHb2qW61oRhOBkEwZJ2aaUpxpiD2vsbgOecc39ol1Za8s0336h9bGGj2b9/Px9raF75XtLe1wASIIqiII7jP7XLK+mp1+uzIvJYu0jXGxF50tXV9Vr7zjEFme3o6Cho72sACeGc+127wJKew4cPX9Mu0Y1mYGDgmgcFlugYY05p72cACVKr1T5yzk1rl1hSMzo6+lBE5rQLtAmZ7+7uvq9dYkmNMeZeoVDYpr2fASRMFEVfahdZUnPgwIGbHpRnU1IsFm9qF1lSY4wZ1t7HABLKOXdFu8ySllqtlpryXc5nn31GCa+9gC9r718ACeac63XOzWmXWlISx/F8uVy+r12YzY6IPAyCYE77jjIpMcbMd3Z27tXevwASzjl3VrvYkpIjR44k/sGrvwsPZK2phM9o71sAKeCc2+6ce6Bdbr5nbGzsiYi81i7KFma2u7v7sfbdZQLy6OOPP96hvW8BpIRzbkS74HzPgQMHEvvSjdWmWCzyco4VCrizs/Oo9n4FkDLOuavaJedrvv/++0lr7ZJ2QbYje/bsue3BXaaXMcZM5HK5Tdp7FUDKRFHU75xb0C47D7NYLpentYuxXRGRu8aYBe2y8zCLxpgB7X0KIKWcc+c9KDyvMjw8nJhPDTYr/f39fLLwrwV8Tnt/Akix3377bWccx0+1S8+X/Pzzz89E5IV2ISrcBb/q6uqa8eCu05fMFAqFXdr7E0DK/fLLL3Xt4vMlX3zxxYR2GWplcHDwugfF50vGtfclgAw4ffr0ZufcDe3y086PP/54x1rb0C5CxTR6enqmPCg/1RhjbuVyuc3a+xJARkRRVIzjuKFdglqJoqhRqVSmPChB1YRheCcIgoZ2CSqmYYwR7f0IIGOccxe1i1ArX3311XXt8vMl+/fvn8jw3e8F7X0IIIN+/fXX3c6559pl2O7U6/VX1toZ7eLzJSLyLJ/Pv8hg+b4sFAod2vsQQEbFcXxSuxDbnUOHDmXuZ0crZXBwMHM/SzLGnNDefwAyrFarbXHOTWqXYrty7Nixu9baBe3C8y0istjT0zOdofKdKhaLW7X3H4CMc84NOeeWtMuxHRkaGrqtXXa+JgzDySAIljJSwAe19x0A/Jtz7g/tcmx1vvnmm9R/bGGj2b9/f+o/1mCMucS2B+CNKIqCOI7/1C7JVqVer8+KyGPtgvM9IvKkq6vrtXZJtjCzHR0dBe39BgD/xTn3u3ZRtiqHDx++pl1uScnAwMC1FN/9nmLbA/BOrVb7yDk3rV2Wzc7o6OhDEZnTLrYEZb67u/t+Csv3XqFQ2Ka9zwDgvaIo+lK7MJudAwcO3PSg1BKVYrF4M4UFPMy2B+A159wV7dJsVmq1GuW7zhL+7LPP0lTCl7X3FQCsyDnX65yb0y7PjSaO4/lyuXxf+24yqRGRh0EQzKXgzne+s7NzL1sfQCI4585qF+hGc+TIER682mAJp+SBrDPa+wkAVs05t90590C7RNebsbGxJyLyWvsuMgWZ7e7ufuxBia43jz7++OMdbH0AieKcG9Eu0vXmwIEDvHSjSSVcLBYT+3KOzs7Oo9r7CADWxTl3VbtM15rvv/9+0lq75MHdY2qyZ8+e29plutYYYyZyudwmtj6ARIqiqN85t6BdqmvIYrlcntYurLRFRO4aYxa0S3UNWTTGDGjvHwDYEOfceQ+KdVUZHh7mU4MtKuH+/v4kfbLwHNseQOL99ttvO+M4fqpdrivl559/fiYiL7TvFtMaEXnV1dU140G5rpSZQqGwS3vfAEBT/PLLL3Xtgl0pX3zxxYR2SaU9g4OD1z0o2JUyzrYHkBqnT5/e7Jy7oV2yf5cff/zxjrW2oV1QGUijp6dnyoOSfW+MMbdyudxm7f0CAE0VRVExjuOGdtm+myiKGpVKZcqDcspEwjC8EwRBQ7ts35OGMUbY9gBSyTl3Ubtw381XX311XbuUspb9+/dPeHj3e0F7fwBAy/z666+7nXPPtUt3OfV6/ZW1dka7kLIWEXmWz+dfeFS+LwuFQgdbH0CqxXF8Urt4l3Po0CF+dqRUwoODg978LMkYc0J7XwBAy9VqtS3OuUnt8j127Nhda+2C9t1gViMiiz09PdMelO9UsVjcytYHkAnOuSHn3JJmAQ8NDd3WLqGsJwzDySAIlpQL+KD2fgCAtnLO/aFVvt988w0fW/Ak+/fvV/tYgzHmEtseQOZEURTEcfxnu8u3Xq/Pishj7eIh/xkDEXnS1dX1WqGAZzs6Ogra+wAAVDjnfm93AR8+fPga5efXAWBgYOCawt3vKbY9gMyq1WofOeem21W+o6OjD0VkTrtwyF/GYL67u/t+G8v3XqFQ2Ka9/gFAVRRFX7argA8cOHCT8vPzAFAsFm+2sYCH2fYA8J+/ir7S6vKt1WqUr+f57LPP2lHCl9l0APC/nHO9zrm5VpVvHMfz5XL5vnbBkA+PgYg8DIJgroV3vvOdnZ172XgA8Bbn3NlWFfCRI0d48CohB4AWP5B1hk0HAO9wzm13zj1odvmOjY09EZHX2sVCVj0Gs93d3Y9bUL6PPv744x1sPAB4D+fcSAsevOKlGwk7ABSLxaa/nKOzs/Momw4APsA5d7VZ5fv9999PWmuXtAuFrH0M9uzZc7uJ//Y7kcvlNrHxAOADoijqd84tNKGAF8vl8jTll8wDgIjcNcYsNKGAF40xA2w6AFgF59z5jRbw8PAwnxpMePr7+5vxycJzbDoAWKXffvttZxzHT9dbvj///PMzEXmhXSBkw3fBr7q6umY2UL4zhUJhFxsPANbgl19+qa+3gL/44osJyi8dB4DBwcHrGyjgcTYdAKzR6dOnNzvnbqy1fH/88cc71tqGdnGQpo1Bo6enZ2odD17dyuVym9l4ALAOURQV4zhurLZ8oyhqVCqVKcovXQeAMAzvBEHQWEMBN4wxwqYDgA1wzl1cbQF/9dVX17XLgrRmDPbv3z+xhrvfC2w6ANigX3/9dbdz7vlK5Vuv119Za2cowHQeAkTkWT6ff7GK8n1ZKBQ62HgA0ARxHJ9cqYAPHTrEz45SnsHBwRV/lmSMOcGmA4AmqdVqW5xzk39XvseOHbtrrV3QLgjS8rvgxZ6enukPlO9UsVjcysYDgCZyzg0555beV8BDQ0O3Kb9sHADCMJwMgmDpbwr4IJsOAFrAOffHu+X7zTff8LGFjGX//v1/+ViDMeYSmw4AWiSKoiCO4z/fevBqVkQeaxcCae8YiMiTrq6u128V8GxHR0eBjQcALeSc+325gA8fPnyN8svmAWBgYODaW3e/p9h0ANBitVrtI+fc9Ojo6EMRmdMuAqI2BvPd3d33jTH3CoXCNjYeALSBc274wIEDNym/bB8A/ud//uf/GWOG2XQAAAAAAAAAAAAAAAAAAAAAAAAAAAAAAAAAAAAAAAAAAAAAAAAAAAAAAAAAAAAAAAAAAAAAAAAAAAAAAAAAAAAAAAAAAAAAAAAAAAAAAAAAAAAAAAAAAAAAAAAAAAAAAAAAAAAAAAAAAAAAAAAAAAAAci32/wGOX2aCb11H7wAAAABJRU5ErkJggg==;" vertex="1" parent="1">
          <mxGeometry x="130" y="268" width="70" height="70" as="geometry" />
        </mxCell>
        <mxCell id="D1Pnn4vapH3yF3k0A5Gj-4" value="" style="shape=image;verticalLabelPosition=bottom;labelBackgroundColor=default;verticalAlign=top;aspect=fixed;imageAspect=0;image=data:image/png,iVBORw0KGgoAAAANSUhEUgAAAOEAAADhCAMAAAAJbSJIAAAAilBMVEX///+MjIw0NDQUFBQ5OTk8PDuPj48vLy9kZGQqKio4ODcAAABnZ2aBgYGJiYmEhIT39/fj4+MZGRkdHR3p6ena2tp7e3tEREQkJCTExMTR0dHx8fEbGxmXl5cODg5zc3OwsLBZWVmsrKyjo6O6urpOTk6dnZ3KysrV1dVdXVxISEgbGxpubm5RUVDZUcRMAAAKLklEQVR4nN2da3ubOBBGF9lAMDFOQi7kYsdN3CRt0v//9xZfQTAjzWCjEX6/tk9XZy0fjTVI/Pef47y7/g+6ztffR+kh9JzsIpEeQr9ZZRf5XHoQfeZ5Gl3Ei1vpYfSYj6wkjP9ID6O/fM2CklDdnK9ssmBDqGLpgfSV1Z6wOFPZ3E6DHaE6U9nMswPhecrmaRYcCM9TNhvAPaE6w8pmmWmERSQ9oFNno5ka4fnJZp41CONf0kM6bbaaqROqm5X0oE6aPWCN8Lxks9NMgzCQHtbpsteMTqgW19IDO1nmGUh4PrL5PHwLdUL1fS6yqQHqhKqQHtppUmmmRZhk0oM7RWqaaRGeh2zmmYEw/ic9vONT10ybUOWDl82VDtgiHL5s3jILYTKTHuJxuZ4GFsKhy2YeWAnj39KDPCYNzYCEg5ZNUzMwocqlx9k9Tc0ghMlUeqBd09IMQqgWd9JD7ZioDQgTDlU2bc1ghCpfSg+2SwDNoIQqv5IebocAmsEJhygbSDM44RBlA2nGQBj/lR4wN4/gtxAnHJxsruA5aiBUN8OSzTuoGSNhci89aE4QzRgJhyUbRDNmwvhBetj0YJoxE6r8TXrg1KCasRAORzaoZmyEQ5ENrhkboVp8SQ+eFAOfjXAYsjFoxko4CNmYNGMnVCP/ZWPSDIEweZUGsOXOOEfthGrxJI1giZmPQBiH0gjmmDVDIVSF1ycyLJohEarRszSGIRbN0AiTH2kMPDbN0AjVyF/ZWPlohP7KZmWdozRCb2XzbNUMlVAt/JSNXTNkQj9lQ9AMmVCNPqVxgFA+QTJhPJHGaYeiGTqhKj6kgZohaYZB6J9sPmgfIZ0wuZRG0vNF0gyH0DfZED9BDmGspKHqIWqGReiVbKia4RH6JBuqZpiE8YU02D5kzTAJ/ZEN/RNkEvpyYJiuGTahHweGGZphE/pxho+hGT6hD7LhaIZP6MOBYdYnyCeUlw1LM10IpWXD08ya8JJJKC2bOe8jjKLXccIklL2d4ImlmSj4CVWyGDEZRWXDAYyyC6XG42RUpmAhCh4YXjIq7tmvuOTbEY4WBePrKHc7wS1VM1F0/3vLtycsGXPGzygp2RA1U+rlIZ6MxzphyXhD/UJKHRimaWajlwNfnbBkpEpHSDYUwJ1exjAhXToisiFo5qAXAyFNOhKysWqmrhcTIU06Amf4LJrR9WImpEjHvWzMmmnqxUZIkI7z2wlMgG292Ant0nF8YNigGUgvNEKzdNxehYJqBtELkdAsHaeyQTSD6oVMaJKOy9sJwHN3JR+qFwahQToODwyDBwtNemERrgNLx5lsAM1Y9MImhKXj6iqUlmbseuETwtJxJJt5k8+uly6EkHTcHBjWNWOoXo4mBKTjQjba8V6qXroSrqNLx4Fsasd76Xo5hlCXTv9XoRwOxLD0chShLp3ez/BFnfRyJGFdOn3LZqsZtl6OJqxJp98DwxvNdNDLCQjX2Uqn19sJSs100suJCLfS6fN2gutZR72cinArnR5lM++ql9MRrqVT9HY7wdciOZbvBISjUZr2dlzh9iI/GvH4zzD91Wcb43OcCBOmN30/KPV+EwsSpqmDBxaff76lVotFeuHmccWnhyOm6hGEaeLuQNRb3nmqdiZMU6dnha7ubzpO1Y6Ei/TV9Rnou9+FO8JFOpa4+GSZdJmqXQjTdCnAt0424k9VPmGaCl4Edv2r4BY5XMJF+lf2gtNVzFw5mIRp6rJvCMtszpuqLMI0hVtqvWn1DfyXefU4Z0cYqbGf73sjvH2Fn2vh1ON0whR5iuY97XHleJxG8L/+QS4AqIRYjf0ZjnqtbT6y2TtY/D7/5KfsPWE19vNPofp93vRqFmRT2G7EepxEiNXYHy8qLHr+efE1DYIsg69zItXjBEKsxn6cxGFY9P6I26ZvMfsA/0dS6nErIVZj3/4pxmEYO7gObLOrj01Vez1uIVykE9hl0cskDMOJiwsldi3gLIO/KsvCPFXNhFiNvYrLCVrmxclPjP0tO7M5vOdlrsdNhFiNffcv2fCFiaNjpfunabLpEvxzYz2OE2I19tX0e7IFnLh6fK+6SSibwVt7hnocJcRq7GWhwl36Xiiq1B5MnEXwb5sIm6oIIVZjf/1NwgOgw58Z9Zusp7x6HH6+NP0H19iv+eQAqJxe5VZ/Ziibwovw4wSaqhBhOkJq7PwwQcNw7PYyEP1+yxmjHm8Tpil8PO0zjMNavh3fi7nSn22j1+NNQqzGvr0sJnXA2PkpvcYDmOR6vEGYFnDhMP/W+MKJ+xdDtU4eEutxjRCtsZU2QcvkAgeD2g+ZkurxpD5Bf0ANX29qbC0uF4oq7ZuvKPV4UvEp2E/By6TBFyqhm7GAR6Ht9XhymKBL8G+ukuYELRcKqePO4JXIWD0+203VZMdnqbG1vIhdMwge5LbU48lmgj4gNXZ7gq4XCsH3P8O3yxvr8QSvsd8KBfCFE8lXX2CH1Q31eEKpsfU5KnpcHT6XEBjqcUqNrS8Uy14JrEHv/cDqcXiF0GpsfaGQvtUMfufRdqoG1E2VRo2tJRG/4PvOcNISqccbKWvsZglTJffgIiXTaVmsyKlnDq4Qu8RevE4XfyFJgNfj+7Rr7HomfrxJwHIiGKnHNwFqbC0vnrzB03JNOT5VM9MEXVvGm/uEbVdFZTOosIRqbH2Oit7bosWwZOynaqsev/uNlDBVCvGFoor9OqxGPX51b5mgoYs+GifwqwAbU7Va2pAaW0vs2QsDrYBBVY8/PVgnqKM+Gie0u2rW9fjza2GdoKGrPhon1jdb7KbqB1pja/FnoahCu48nuqB8gO76aJzY396xIbwkEbrro3FCunOIRiizPWoP5dUBJELl7fvXTkTouI/GifGdcnRC/xaKKivrV5FAmHhxtS4W65JhJxToo3Five3TTph7uVBUQTdQqYS+LhRVbO/OsxC6feCiW44iHHv1QgQk5iXDQuj6gYtuMV6ebCaU7KNxYtpANRJOnFw/c4KYlgwjoWwfjRPDkmEilO6jcYJvoBoIxftonOAbqAbC2KPtUXvQnhtO6EMfjROs54YS+tFH4wRZMjBCT/ponCAbqBihL300TuANVIQwGcAbx9sBlwyYUHnwspUOAZcMmFD+gYtugXpuIGHuVR+NE6DnBhH61kfjhPQZetdH46S9ZACEQ1woqrSWjDahj300TpobqC1CL/tonDR7bi1CP/tonDR6bk1Cvx646BZ9A7VB6G8fjRMDocd9NE60DVSd0Oc+Gif1nptG6Orgcv+pLRl1Qs/7aJzUNlDrhMNfKKpUG6g1Qv/7aJwcloyKcAh9NE5ahIPoo3Gy30A9EL4Moo/Gya7ntid0f3C5/0R1wsH00TjZLhk7QomDy/1ns2RsCYfUR+NkvYG6IZQ6uNx71huoa8LxsPponJRLxpowFzu43H+WWUkYO32BmutEwaWSPLjcf25nl6OzXCiqPP4bZB+NE+f7v/8D2r0D2iDVf/AAAAAASUVORK5CYII=;" vertex="1" parent="1">
          <mxGeometry x="44" y="269" width="65" height="65" as="geometry" />
        </mxCell>
        <mxCell id="D1Pnn4vapH3yF3k0A5Gj-5" value="" style="shape=image;verticalLabelPosition=bottom;labelBackgroundColor=default;verticalAlign=top;aspect=fixed;imageAspect=0;image=data:image/png,iVBORw0KGgoAAAANSUhEUgAAAOEAAADhCAMAAAAJbSJIAAAA9lBMVEX1+//////8///4/v/3/f9ze4RFT1vS2N20u8FCTFi5wMbL0ddNVWCMk5qGjpadpKpdZnBxhp6rsrmUm6KlrLItdKwmM0LX3+d6oMWBiJAvOkh4f4cQIjTDys9YYGri6vKEpsgebqnA0+Vmk73m8PiivdcAAAAAABBkbHXa5/IAFywdLTxJgrQAAB/K1+aswtlsmMApcquyx9tXirhCfrGkvdWSsM6ltMMsVHm4xdGOoLN9kaehsMBUcI1mfphAYYI1WXwbSnKFmKxAUWVQYnUKQm1gdYpwf443UGwAABgAGi8AKEcdP18AL2FJWGpObIowQlYADjLq470jAAAXTklEQVR4nO2diVfbOtbAJVksJW1DANdpKRjHToe0eU5IaMi+0Nc3y5sZ3vz//8wneYkXrY4devgO95ySA3Vk/6zlSvdeXQH4/13Ar36Avcsr4cuXV8KXL6+EL19eCV++vBK+fHklfPnySljZfWzLbw16vXa73esNWr5lP9ud930D2/9+496bjml2h/1+k0q/P+ya5C/37s133973A+yTsDO46TrOsNke+LaHEUSJQIQ92x+0m0PH6d4MOnt8in0RWm3XMd1Ry6ZgBsYY5IX8zaCodmvkmo7btvb0JPsgBK3mndnsdTBlY8gYUsKJO72medds7eVpKi9w4Drddoc+thIuhUleRqfdddxB9Q9UbXEt1xn2PFiILqGEXm/ouK1qH6lKQnt01217xSqPqUqv3b0bVTnAVkfou07TL4O3hfSbjutX9lxVEQ5Msw1K48WQoG2ag4qerBrCntkdGBXxhYzGoGv2Knm2KggJXwuhyvBCQahVDWN5whbhg0bFfFQMSBjLD6xlCTtDc4D2wRcwooE5LDujK0eIb5wRqLp9pgWBkXODfx1hy3G9CscXnmDkuU6pplqCELikl+yXL2AkPd0t85g7f3PgNPfaQBNBoOnsrh13JUT9Z6nAUGg19tHzElpm/5kqMBQE+uaOC8jdCL87vcIVmK2DogoGw57z/fkI+2ancAWiszdpOSmsQ1HH7D8ToXfvguI6Hr17byXy8bx4GzeAe+89B6HljHbRgehdHZzFAs93ICS6ceQU74yFCQekCxZ/uJDw4/tQPqKdCAEgnbGw2ihK+N3xdxtDCWHKmrgjIUB+4fGmIOHIKT7GbAm9L38L5cturTQopuOM9kl4Y3q7akFah9tydq5DUo5n3uyPsHnvsYNoVs8JxyDaD28PQrnl1aGRKUf8AgzvvrkvwuY9YAHQ+WFaLBEiJTw+CeWYU4dGLVPOhRgRg0KIBQhveIAAnV4cbcV6eyXSlITQOIq04RGHEJ3dWklB5weSVkwQCzRUfcKR6fHqB53WvLhuTuCpiBDTkeZTNKH5BM/reZ2Kzi5hXMwxOJERAuyZ+sONNuF3h9MHQ0Lr8mMo77iE1P9i2PZlZqR574GsZZwQoqiYj5fesZSQ9EV9paFLOBCpCXR6lXpyhhAjZE0X4/Wy8aOeFIDOf2+sxo92amCihEk5CkKqNHRVvyahJVT0pA5rv30O5RNThwjMx42JhyCC7zKEdbK8qD0tkwkuJfwalfNPW0VIVb/mBE6P0HN6ojvSOozFyBEa8GHzAEIXG8oS0pHGgJOfVvxHSpiIkhCgnqM3DdcjvB8J56LifoihP55uHRkcQlrF6zlMCLX7IRU4uq+OsO+K70cI7YtoyXCcIsTIXixSljguIbmq0QivoYTx0uMCaBAC5GqtF3UIv5s8RbglvAKWHYhlbwkNBB7HfnqGwyckVTFfB/YQShiVY1tYhxADU2dA1SC0nI5kwUtHmm+fQjkkhMgg2gFZjfEka6kQEZIx4+eEdGFK+CEq57N6pKFidHRGGzUhMoWjDBWY0hYInR5b/mS+HDf8vKtGSEiG08fx48S6yGiLWx1XHeqZagucmrDfl6140eJHLakrdPvHbDaf2Ih1ZYgJqb+wNp39/WMK+vjH04I/w8gIfbjShANZJyTz5cfb1PBJmiwUBGBICIN4DHh8mSa8hNbGViKSrqhU/CpC4LRkbRQt7dMMoWTmfZEqts6ZeWcIDxCyf3KicPLfajlKAsX/u02pVQZuoDbht2BZdB38/FxXEgI0mamHG9h0yxG2pG0UYHupS4i9Kyq1f9eCT6ZYlhDAta2sRNJOFZ4pOSGWt1FgTKa6hKSvUYFjGHwyj84hNHQqkbRTuX9RTnjjyi2HaD7RJgwFrkUzeJYQoLG0BUUluvLlsJSw43AXvanHmlkFCdGT4KG5hPMHjamN50gd4VLC4Ui1hll4RQkXgpfGI8Tek4b1GY2GuxIqhhkicIxQQcKGwFbFIwRwpWhEVBSDjYzQHKjaiLGCoZKPA2NvlYTzCf8KdPYxVU5kp0EPGs0UoIG5G2GvqyodA0r45prKLf1x+lVFaEzmAmvI2efTpJxPISG2dZopQF1JaJGE0GypZk24QxZ3Vmge+/2KfrB6Lv8Va8knxCAo5+ofobkt0oRwrTGaAqMlqUQxYa+rfH1GbYpCPYfwk0DPMd8ZC4qN9OUKo1Q5aCpo1FmBkkoUE6qrMN1NoOjBmYcRDaZRkdn/xlZDx8Ehq0Qh4UDZCzNvGK41vabCoSb672X2BaCxlrsZdYVrDCGheiDNDP1oKfRYZAXbC+l6c5YtB81qOoiS4VRE6JsaBaealN64TkU+eKDHLJHhP2qVa5iiqGIRodvWKBiut0+jqJo0g3Qqlh9aMN5olYvaolWUgNB2tEbpdXJ3relH8MxANigZkxz/tvljlBGmVEcQ/i4gHDU1qhB7i9REa6LXnGjXkow1hj/NFkMWaJHyvzxICeNfRE2BO0pAeOdrVEh2KEdj3Ur0JJWI7Zx6wCBsKEbt00ki54f5IrB/V4SwpaEqktcb/WatdHvibCIsPtMuAoFPwZszam9hHG90BI4YQqIw+PNvPqHWOJMfP+HjXA8Rg43YGJru2+m7UMJgzkrk7RGPUDDWcAmBauUblTnNjuxoVdPrimg+FV6YGp9DiUZpSrgVxCEkK2E+DO+Pg6HWk6JG1lJE6kZt4gy/KbYxsUvkUIFSwuvYS17jEAI05M5ruISu1I6f3HqVUymG91MP0bDybTF5zll+coTmdMFFCe1YeP0QoB63mfIIRY00q5Aw26CAYf/UsMWDoM+KLFLMvJV225Dw7CISm0coaKa8v7X46yZ08TEtHkbsqI+snzpTBXLhRtDVOUtkNCVjDSU8jyP/LB4hWUPxRlMeYZM/ksIP52eJfDsybM5iFlkbLUTDEqzeDZ8xkmKDlEkJjW0D4hKiNi+SiEd41+E+I/xggVgj2fDwCHEnxaimY+Qkpc3401NWIVLqtYEI4dcvkVxxCXGHp/Q5hJZgWUEIrz6FMVlvbikhfzmBJmu1RyWoGH47xZyJA5qMfZW2AHSBwfGYcgjbgjkp/HCUuurwCD76/BiiidYyw6gtuZdxrQXInv39Ovm7wSdEzbYWoUhX5OsQLgVKTdQA85ctLN4b4tuMMTx6qybk6QsOocPvhrQOM/0QjoUxNhu104hOVrgTWVYhhlA1NSHuODqEHVPwdITQiuNKTgghr8NED2BptVPY4FkoBIYcHUKATdaFwRIORMEzpJUexcrwnBBKzGBwsXslCmzGWoTIZSduLOGNyB1D6jAV33V4JDGaGTUNzx8pccnpidjiflePcMR62ljCrshOSurw5J9fQ3kLDy2Z2QJutBaYvGbAU4hAk9BosW4oltARNTBShwk7fDvnD/ahCF1MuSLHHCM5fwTT64e2oya0HdHbp4Q4Fvj2SbaG1DQuokdOS4erXcdSUiBrj2II/aGoarJ1eHgkW0QIOhPz2Eecy/gKUY8QDhmzKUP4XWhlK0TI70zMZZizTuQrREqY+BeFddhkgvkYwhuhiUaTMFwAgCcYrSKlAjltne9vMmqf31M99Z7+fH8gImwzgylD6A5EdaNHaFydB/Ij/FDoRR4NX+VjUKdy8d93wafAE2sMmHkbQ3gvtJTqEaKDg3oib47lS36eemfM3hFi2D5nVqiQ+eVhnwkcZghN4VvXJTxBXizwUkHIG5GEjvCgeLkawjbjg8oTSgyJ2oTWvz4E8u0bPFAR8ta7ZQhZW03+d1s079YnPE5KQ0pCwE5Ns6b0fPGKqQQ28woxT2iZ4um0bh3a16eRKOuQxqswf8o7ZzLFKwgRs8zPE/ri+AQyL01pJAkhqEX7s2pqQsQqxFJ1CLt5lZ8nbInN3fDDQWDLexf8+Cwh3LqIZITR2DiG+bFROuNT1uEwb1HMEw76wtKNk1DF/V6nP+uiCDzSSuOdlAcSQmwFhdX/Cko7T70vaYSJkrCfXyHmCXtiwmi24jWksxWqLbalSUYaVH8bIgY/T9+ngsD5ZgxdwnxkDUOocv5iTxDUFN/i4OTob9Eq8qukDlH9XcpFfpYiZNwhma+pCJsqQpEpcSsYSEPNELxMJYQguHQXBq++CSH417dQfgMX6ToUWriADmHeoFiYEHC8FVvBaL768yRZRaLLf69Xi9mDxUISwlRrThEaNVlAwHMQQlGULwVcTY30RI3WIfash+Ums5syIkz2dqfrEM34huaqCJX9kPH8pgQ+TbKDS/ALpnphslpmU0rROryqhXJlJITyYJQK+qFsLA1FHKWEJjMIWMLwW7A2nhrp0I36O4NHCGWxKFWMpRJ9uC1EYEfDmDrWBIRU18w3qf1stJXGs7u3SStVOT3K60PJnGZbCM98BGJvtJCQ/AYaKytm5I40GKp8c+XnNJJ5aSzY4zvhYeAblRASAHuxqAV5hYM6jPXml6AOMWnEM5ku1CFUz0sla4uklAZvtDP8wLwrI6SM1mwzm1jkthfv0DbyAF28g9CbzDYPqvRT5dcWkvVh8pjc+PKo8coJww3689nmPz//PEeJ3rz472q8mNYkCT80CdXrQ61gIfjEMXVE0bwqQkDH1dnSp/0wuY7Uodj4krlL6TW+xE6TesQa62/AUdwCVfLJKpJnp8F4/ACNHOF7decIryxtp5HY2lIC2REvtgEqbW3YWNPgsMKEldnaxPbSDA6zSI0jaI2rcJn8I1gov2dbBGwE3y1KiKNMYb8HIS8XgnmVjr1UbPNO346JeU42YYWrSChaRRq18KtFCTM274+3JWzeYr9FWphwdPSQNQEigYM4iP4JLihMmPZbWCX8FmLfUxYg1+Hzfm0RYTjxAbsRfopyn/zGjU0MHkPD9yT2H2YfNB9Sn1u2CgjDKLzggh0ItyKIGNLzH4p9wJn75Sx+jAVQQJgMUbsQvotzn/Aj9zR9wGI/fvZ+j7lul2u1AkK4iSPCqJ0m6Vd6hNs8Ul4pP74wFiMuJdir1pll9qqh/L4PPmFqdzaqXwfhouGPWy3CbTIwbgQtLVQrFkMYTxPf6ZjKxe8nwWc4MLLeaj5harpnHF1S+fjnx+BTubspjIIOg874UdD0rlrxNMKYqOgh35wGtpVgf8fl19CSm9+tJCDEXspLEenNNWPzFhMmUiomShjXFhOmlyeR94KdxXEJOVMh4d5uHuFhlL/mm6AONePaFHHshPA4ymH55U1EyNn6yiXkTWfVm0SxEQYnKHaU0MI0YxPlBkX4Jon9ij1QHLsGj5C3B9iwGpIZBg6S2U3mj8vFYnUNt+vJkvGlohjhLeFRnEu2HhHCDRPaxCNkeysI0nvwbheclGRYD7PVejmd+LYHNOJpdGOERXHeW0L7LBWDafDj9HiE5EVwUOxNNjN4cAwU8vx5Y71uPPiApvQxMNaIGNKO8xbF6m8JM3G0Bl04sdMgDiEnCj+40qKZsChFkEMLAnsyXY4XjxMLp/MVaRDqx+oL9lvEhNZVnMPyNiDkxstyCEVbeg3wuGk8THyaQ+txOV6RVmmj0CCXvkpNqL/fQmqrIXWYupQSojHPasMhFO13pcapyXz6OJ2TDocEiabUhAX2zEj1BVOHcMYLDmEJBY00erpQ/0syFqgJC+x7ku5dI3XobVPOwkPLaMy4AzdDSCbnehvb+KJBWGDvmqyZEkIjFgzfrsYP/BlinhAbMsenWpSEhfYfyvaQUsLkl8MjgRGXIZQ7PtWiJCy0h1S2DzhPKGh5DKF20gWBBDu7YuGt8YvtA5bs5d6V0NCKbRcL3ctNl2vhj3rZvdyS/fg7EkoDnXQE27eB/HUdfJTejy/OqbAjYdlGurV5N+xwQZn/36I5FcRjzW6ECu+8vojWk4XzYohzm+xGWLqRbssV6JziuU2E+Wl2I+T643YQXjxqcLvi+WmEOYZ2ItTM2aUWkVbdJceQKE8UmZeirV7SJRQFNxQWwfpkpzxRolxf8E09STFy9YEljHJ2NVL21MSWzwg20qJqyWTA4huad8r1JahEdB6EwFz/FXzcMiMbtsM4oD/CWKBA6QQb6gWPHEcNBVerOit65Ba0Y742Uc69UC15S4F/EB18CvKPBAn0Tj9THzD2hFWIzr6dXm/lzaV8wMU2vwp3zbknS/clGtNCP34igR8fLoW9EJ29T119IifEaMzfG71r3kRp7kso2nRP91t8jeJGw/0WyBcHctF8kPHFXy05IYYLbuaeErkvZflLhZZcQpiNNsFAkiqDECa3MKSEGC34GX5K5C+V5aAVJnsihF49zkFC6hCBjWRtT+swvrjuyQiRN57wfRVlctDK8gij6ZT/Rg9O7PNYIPllY0kqhhJur5YQ0pMyBOWUyiMszQWNnrhBaJlW6v2xfrJlfUuvlRrQXz8agl5RLhe0bLAh/WLGOamaxup/+S2Q//1n+Y8LeSgercPfIvnCH2kMhCbrpS3Y/VA2n7c0JzumZ6wYeeNmZmeXcncercPtxShPSOOnjdpsM/WE76l0TnYozauPwHQzqwWeha3uCHZ23Uai3PdE6zC++NpOCAPnBcTWw3I8q0n22laQV19+NgJ5x7XZevX44NtBQXS2o7vvaUu4vRqcXJISgnI8azKfrdaNB95BEqn7V3A2gup8C9JNIPAfZsvVeLVaLRbLxo+TZO2h3H9IW2ly9clfjcUTKWa8XjTmNMxWtVO6kvMtVGeUgMgkD+m7pjtjb3MaX0mYvKyTA8+j5SHIema4367mjBLFOTNp0iDZgjqCVkx4Gbh5tW5Gr6/onBnFWUHMM5ciLGLMqe6sIPl5T7+OsMLznqRndv0ywkrP7JKdu/arCCs+d01ydt4vIqz67DzJ+Ye/hrD68w/FZ1j+EsJ9nGEpPIeUJUzNabRmbak5jSbhfs4hhYKzZFnCeups2VMV4cVB6gTZuh7hvs6SFZwHzDxzPTr/LvyQZiIK/J6BfA0/JKcAZwD3dB6w4ExnBjG8dhF+KANjw8vG4YcO4D7PdIYFzuUWJ1XkCSc7hvDSvZ7LXeBs9UI+X8zLZisod89nq1Oloaf6C7lENc9aAYGi11YTOxIS1d/TaVHYYGNOhdcCXlgmT2BPW9HvTkgmcCONAzQBmsiyDmafeynOs58WjEa6U7VShNC7d4HGO4dLzTT78EHvXRjAvdebbJclJOtFU2O8wWg1V+1bBoFNcqXTJsgYY2qtByshJONNT/3wGC0bhupNILRc6gBi0gWLjjFlCKFl9oG6GuHDZiLV+QacbPixjfkXAfq8KPU9EkLUN1vqakRgNp4IDpcNzfUzjRdFKrBl9tVWtWoJqdpoqp8OI+9xM6thmDEOUos2pOb6R09rWAbN4kqiAkIIXJ1qDMzi48V0YgUz1uAfsCbTxXjmK1NjBgWQCnTLPObuX4Ww5bg6lUAqzJtMG6v1ZrVakJ/rVWM68aBOggHaCFxH4V3aIyHEN85IpyOFW2DoSsMz6GpC1DUZQWDk3Mj9g/slhLAzNAdalRGRFopuM9DAHEpd2M9ASJ2o3ZZyGbiLGLDVVbk/n4UQwh5hZEJaywpChE8SCKQtVRAGjAOOx3tnwcgYVMNXFSF1pJptUBEjRqBtql2fmlIVIYS+6zT1NJwCD/lNxxVF/BaX6gghtEd33bZXBpLgee3u3UgQlL6TVElIpOU6wx5R5rtAYjIx6A0dt/zwmZGKCUmBA9fptjtGsaqkYSWddtdxB9U/UNUF0jJbzTuz2etgrakLne7gTq9p3jVbe3maPZRJxWq7jumOWtGOSc5cBocxM8hujVzTcds7Lv+Usi9CKp3BTddxhs32wLe9MMBiu80dYc/2B+3m0HG6N4OyMzOZ7JMwENv/fuPem45pdof9fpNKvz/smuQv9+7Nd7/KYZMreyeM72NbfmvQ67Xb7V5v0PIt+9nu/Ez3+XXySvjy5ZXw5csr4cuXV8KXL6+EL19eCV++vBK+fPk/TgZ5so3m824AAAAASUVORK5CYII=;" vertex="1" parent="1">
          <mxGeometry x="51.5" y="119" width="135" height="135" as="geometry" />
        </mxCell>
        <mxCell id="D1Pnn4vapH3yF3k0A5Gj-6" value="&lt;b&gt;Blockchain network&lt;/b&gt;" style="text;html=1;align=center;verticalAlign=middle;whiteSpace=wrap;rounded=0;" vertex="1" parent="1">
          <mxGeometry x="69" y="242" width="120" height="30" as="geometry" />
        </mxCell>
        <mxCell id="D1Pnn4vapH3yF3k0A5Gj-7" value="&lt;b&gt;Ethereum&lt;/b&gt;" style="text;html=1;align=center;verticalAlign=middle;whiteSpace=wrap;rounded=0;" vertex="1" parent="1">
          <mxGeometry x="138" y="336" width="60" height="30" as="geometry" />
        </mxCell>
        <mxCell id="D1Pnn4vapH3yF3k0A5Gj-8" value="&lt;b&gt;Solidity for&lt;br&gt;Smart contract&lt;/b&gt;" style="text;html=1;align=center;verticalAlign=middle;whiteSpace=wrap;rounded=0;" vertex="1" parent="1">
          <mxGeometry x="36" y="337" width="90" height="30" as="geometry" />
        </mxCell>
        <mxCell id="D1Pnn4vapH3yF3k0A5Gj-9" value="" style="shape=image;html=1;verticalAlign=top;verticalLabelPosition=bottom;labelBackgroundColor=#ffffff;imageAspect=0;aspect=fixed;image=https://cdn3.iconfinder.com/data/icons/user-interface-169/32/plus-128.png" vertex="1" parent="1">
          <mxGeometry x="94.5" y="288" width="49" height="49" as="geometry" />
        </mxCell>
        <mxCell id="D1Pnn4vapH3yF3k0A5Gj-10" value="" style="rounded=0;whiteSpace=wrap;html=1;" vertex="1" parent="1">
          <mxGeometry x="211" y="117" width="120" height="258" as="geometry" />
        </mxCell>
        <mxCell id="D1Pnn4vapH3yF3k0A5Gj-11" value="" style="shape=image;verticalLabelPosition=bottom;labelBackgroundColor=default;verticalAlign=top;aspect=fixed;imageAspect=0;image=data:image/png,iVBORw0KGgoAAAANSUhEUgAAAOUAAADdCAMAAABzPkXkAAABNVBMVEX/jV3///9mGADjSAf/XBbn6/bAxM3/kWH/j1/kRgD/XxdgDQD3hVXyUw//hE7/7+v/WQ7LPwZdFAByIwhbAABgFQD/VQBYEADCv8Xo6fPKwsZZAACiRiVeAAD/TgD/i1niPwDhNQD/e0bm8f7/+PX/gExbCgD/ZCSCJQbmURP/dT7/h1X/bzX/4df/6OH/n4L/ai7rWyX/mXDvZjLVbUTqc1DoZz/yqpjx6ev/1MfrUxPu4d6iNAqIKAeYLwnBQQ64lo//yLn/uqbYxL/XSxHKsayVY1mMU0eqgXmfcWisOAv/q4v/tpt8KRHwoIztjnX5iGf0tqfAc15NAABzKBZqDADj08+ISz1/OSe0kovQubXJVCmJTUC+VC+ONxv/0L/JZD3shWnvmoTwu7Lty8j5eE/Yz9X5xdAiAAAT40lEQVR4nNWdCXcTtxbHx5Pp84ydxCaxnQYTL4mzOCYhrFkggVBoCwUCr5Buj7YQ2u//EZ40q3ZdSeMA/3PeOa/BnuiHrqT/vdIIr0Lp/n9Hla9fr54yP/Do/3z685UXl9aYKen0qPWM+RFD+X19aWbz8NIaNAXtrg7q7bfMDxnKFd9fGvdeNy6tUWXrRm/O9/3uffqnNOX9lo8xO72vNGxPO505v+37LWZg0pRPUV/6/sK41vkaw3Z3tRcEiwjSX2EGJk35fR1T+u2jWrM3+crCdnSj10whff8d/Wc05Ts/1VwQdHo/XWIbnYWCNQiCrQSSHZgU5Xk3hWxjzKBT+2rCdncbBWsB6a/QA5OifLSS9WV7EX+p2Zv9OsI2DtagdryQtb/+PfXnFOUPdZ/G/DrCNgnWoHaSQ/r+IvUJinKl+JTf3goSztpfl9pkY8UzKwvJDEyS8rzlCzCbvX++4LBNZlYM+YCEZAYmSfmI7EuEeVwLvvSwTYMVQT5fohpPD0ySkhiWsRYyzKATfJFhu5PMrAJI1JnkB0nKFeaD/sJJhvklhm0erAjyIQvpt86JjxKU+WpJYD7IML+8sH2cBasQ0l95RHyWoHzE9SVy7gUmmm1PL5tEriJYxZD0wCQof6nzn/WXnheYKGx3Lx1HqNGtPFgR5BMBJG1lC8pRS/RZf+lhgYk4v4iwJYJVCul3iYFZUJ6LKWnMoNM8vXwqWjvXe4EekhqYBeVvgmEpwAw+c9hSwYogxwuSZtd/KL5UUAqHZYJ5hcJs9m58BrpUj3sdsi21IxkktWLmlCNZV2LMJxQmMgmnnwGwwgYr0lFb3mpixcwpv5MMSyFms7f6GcJ29JoKVqQ5RZvJgZlTSodlrIUxjfk5wpaaWRPIRUVXkgMzp/xVOizFmEGnc3qZjFywBnmRR9qZ+T5BRjni7R2t9hGLGVxi2DIza6ItNSSxYmaUymGZaI77NZcWtszMCoMkBmZG+aNyWMadKcC8HJOws8cHaxAc6yD9+i8spXy1LDAXBZjTD1t+ZsUiKllytbKBmVKqVksCU0CJw3aau4H8zBpDngAg/dZ3NCVgWPpFKYgN2+nNtuJgBUL6K7/RlPphqcIMets702AUBytXyZIqH5gp5SLoW0TFiw/b8iGFM2sgKvLIlK2YCWVDt1rmWpBglj/bHm4Kg9UEMh+YCeXvoGGZYJ5IMMudbWXBKql/SJQNzIQSOCwTzAcyzBJn2xeSYDWD9Ou/kpQaE0uLLAWxYVvObCsNVgR5xQASmbxRQXkAD1gNZhmzbUMarIr6h0TpwIwpDYZlgvlQjukctvJgNYf0V34sKE2GpRYThe1je8bDmpwxqI0NIbOBGVO+03/cBNM+bBsTebBiSK1B55SsmJjyPni1JDCvqDCbvVs2YfuTIlhxJcscMh2YmPKp4bBMMJ+oMG3C9nBTxRgERxatTAcmpnxmOiwhmEFvb6dhoF1lsAa4kmXRlenWO6Z8a/NtUSmIVrM2b6A9dUdqKllydRsJpc2whGA2t0MPrHBV3ZO6SpZUrd8TSqthGUtQ8bKmXFdTaos8MsUD07MdlolENZKcctWEcqKktIZMVkzPZrXMJax45ZTrBpReX8FY01ey5GodYErrYRljCktBKeXEhNJTQcJKAxLK3zHlU4eAVWI2+yaQVekQBxZ5ZMID08tOi1pjSkpBiNKoK6ub04GMt949cMnHGLNmRBnuSZ4Cr39I1L1f8ZyGZYJ5LG7fphnldXG5zhkSH+/23IZlLEnFa8+McltEaVT/kGjlWcV75jYsE0xRxat53YxSZH7KgPT9txXPYbUsJKp4GVkfsfkpB9LvHniOU2wqQSnIyPoIzY9hJUuuUsYlFo9pZn2Q+WEpjYs8EuFxaVi/k4qrkRhaHy9sTgcSlws8yM4lSCymmfVBlPTXzStZMrWwKxAdpbQSWwoypdykIR0dTy58uNLRrVOiayRm1ocxP1aVLLESt+5s8QpRmJtVQ8rrBKXyuJKZcK3S051nMhJZIzGzPrT5saxkiRSfbfKEJ7mttVRgmlkfyvzYVrJEil+5cKjhCZWXggytD2V+SoTMa3jm2yQqtY9sKXPzY1/k4ZVslGBK2AERsJJSkKn18byMskzI9PxWvBtUZl9mFa/mvCllfwqQ6fteMaVLrZJX+lajocFLzY9bJYsTubNXcsjGmE1DxqTy41zkYZQen4gpQefTDIRLQWa1rbgvN0uHzA6PJqcnykkyCyFMU4OHzU/tQVkOPVP66kxCab9VItHCsanBw+bHvZLFKD1WkFJqTzob6+c/zCnvdUudXv3itHN6Du9/5YbswuLYrE4ZU16f2yq5M7N3vVLKkuoiqZYe2Mw+aI6tPVwo1RI8oynLqotgtX2cgNmtl7WjrRJnWfYUcGl1EdSRJ0HNyuEl5a3a86XyEugKQ1lWXaTdTjNpc7c+n76sfrRYUncWL5pmlCXVRdKODIxL62R+WcLeSKzi/pv83aAy6iLtBaKOZ1wRKWoFtbFfRnfy7waVURdZOp4j6j5O1a2gBBckes/LuS7SZgqybvXY2hPn0g9x/UTxlqljyC5sMcdiHGvrteDEsTu7DQGlW11EsE/iuhtUu+JkEbLT3DSlS5KJHB2/5+W8s1ebO3boTvHb3w51EezoeJWwF117aG8RyLtvCErbukji6HiZnisQPcPe8ZEBS1JahmxhBNiQLeUkjK1FyN/xYiit6iLttvTQs9kkG0qegiyClePrSu6EsamL0EaAoTQ7h6c4bWhjEagb8UhK47oI5eh4SqOTo/OqY/nmFiGrhfCUpnURzggwlCZ+XX0K2NwiUAFL36FmVBdhHR0vE78uObpFdGfbqDvpKxwpSpO6iMgIsC0z6UvJMbziYUYWgbmOk6I0qIssPde0KjDz66HurywwKgrltRABJbgu0va1HRmYbQix52DE3Qm2CNQNaiwlsC6CHB0A0sSva46t55xAx8dcU8neBQyZZWWOjqeELyW6VxByTFhRSH0XMCTJlDo6XnC/Lj43KhTE8a2MlJTauojC0fGC+3WxVxcK4PjIy6hElOfdulIbCkfHC+7XpafWRZjBgw11K7uaW+Ub67NqGTCa+HWpVxdrom7kPHurJkN5OgnVMqME+3WVVxc8t69uZJ+9tY+hvKFZyA0poZOs0qsLnjvRPU9NOa/7uhEl+PyW9o09hlJnquZ3VZQ7JVNC/brOq5tSTk5VlI+1oWBGCfXrWq9uSNm/oaK8pfu6ISXUr5f+2HkF5UgXsMbNAfp1iFc3o9yRUx7qAtaYEubXgV7dgHLyWE75onRK2FIC9epwyv4tOSWgPWaUQL9u4NWBlN78SEbZ0A5LY0rYJGvg1RPpKSeHMsq/tAHLvA6hF8yvm3h1KOULGeVP+i/zlHNqwfy65iEWlJ4nowQ0iKOcUSuC+PWwH2keY0E53xBT7uqHJUepad1MBJlkw3UdJYsJoJz8JaY81Q9LllLXuJnoNsDJhqtaypk5U0oq+yIodVkXT6lt28zMGEJ5W09JY4KMo5gSELA0JQByZgYQsdWbAEoKE0JJZl8FpTbrYilBkFFfj1kdgx41Z0ZJZl8FpTbroinnQC2biSB+HdKVFCaEksy+Ckpt1kVRAiFnIr1fDycD4MPmTCjJ7Ku4VR4SsDklFBJNsnpK/ULCYsIod3hKfdZFUIIhZ6Kb2kkWNMXSmCBKIvvKKfVZV0EJh4QsJVUDyhQTRElkXzkl5HsppQAyukKL+BNtxJJTrPQxhcCURPaVUQKyroxSBPl8aYHU0pP8jwZavx4Sz2nTjzkW9TKYssi+MkpA1pVSCiGZ/Zn287x5Wr9OevUrzHMWJJigthLZV0YJyLoSSsGvjQSbbQWlbpIlptiIu1+rLcKMoG/K9VlKaOF0exwhqXsSd0I+pLR+nfTq/EYzh4l++/g2kDLPvlJKSNaVtKnqrd8ek6CR6FpwonG6SbaYYqPngu309hZDuN6vQveY8uwrpYRkXTloWO0npJEMEjWuaJumTYVXj4Q74SlmFA1iQjCiR2RfKSUk62JIUZ/eRKCSNyaL+Ufn18Oj7K+DnXsKzLQPq6Hpmzg0JTRgGdL++h8vuxt10bmNxZxS59fzD56IAra+0V18b9iHubLsK6EEZV0ihdVq/877P+s8aT7/aPx6OMlHMAfZ3th4ee3OrEUfpsqyr4QSlHXJmolIvTvX2D5tn0TZJKumzBeSh2TAxn3oRIiVZV8JJSjrUjU17tNrL6k+zfpS7ddzrx5tldeHueYJSljWpVHSp+//zPp04WG2lCibmi8kydVM5fRhrjT7iilhWRdAGWncp1tZJ6kpx9my20aE9ZL6MFOafcWUsKwLqpS09XM6/2j8ehbY9W7JhFhp9hVTOo5KXiHq1PDOH0lnKv16NsVGT+7YrIdazef3rQOzLlNlyYZyks2m2GjdakHUKsm+PHjWZazUuyn9eu7VjV/8h6n/IqMEZl3GyvpJ5dfTKRZQBLNUP6Oc0vMRgt6vZ/1t/EY8VPPpXU3grMtY6YqvQki8OqDSZ6s4+/LMsi4zpROo0q9H2mnYTXH25ZlnXQZK4lHh17O/h6lBenH2hf63Pr1fkMw/iqkl+8DUAjbJvjz7rAukSD3qkpGrr2Y6CGdfnlPWpVWyUMj9ehLSkK1ca+Hsy3POupRK9rPkwy726oB9MReh7MsrJeuSK8ZQRGRSGZpqE1D25e1MM2BTByddKOIpdoqLZSyUfXkvpvsX6WHLLp1k4yl2ML3FMmnBrYp3q+omXQvx/CJdKeKeVtcSvDhhddJk5OGaqov2NDlh3F2ySRRPwfqNlG3HJg4b3ivopr5EzU3NYhcq/Hrc0ervh95e062F0b2Kdzh0ewY+0KycPeL+kpAgr64r8U1qTdiZG6kG+2i9HBjsdwsp8WvempqH1K9HGqNejV80caMcopWk8totZPEGeHNTtReCwlKy7scLiYIRRyv4/JRM0QB7nwt3SqR1edyhiVQyw6CZSWXU42h1phycYcqG28BMKZWXE0SSwYe8umLuqeavRTk1cHgYZ14mB1GklKqoRfOPeE1EsSw16iHxVpRL+6JBct/6vlPIEicdZVMMGn6RGH8sNerhZLN4L8GJ8m6SRe84hSxB2dyWLf5jiV+XGvUq9YaJS/sGb9Ia3tglZAMSc88TzzKrQq+K0jLJeGXe4XOhHGb3rZ+5hGxAYdaEfRb2B6JJNlwXG/Wwv0m/RePQvOhmVo91sj8BLXHUVm+KOi1cFVbUq9z7UA7NG7zKd4NKpBRHbbh+JOCp3hb0MButjpTDnZzyrsPAZFskjtpQ5NerY/6TXLS6UUYzxc7eG4eByTVJaN/D2yJ0Poyr84LnOVAOPhSULvZH1CrevocTwTzT5xbLqvjlPfvWDU+J0xMO9kfUqoBPOsN5QQ7PLJaZOS+TkvjX6isOqbSwWfhCBjoaq++v8aJ7PDfn5VHGxqc41WQfshJKJmqrf3fbnDaukX8TVfmdBdaNi41PcUKtfErKviNI0Qk7AlMarU6UQ+qEWuWDdchKmxYUSWf1juR2pO7fVV20ulAmxqegPLXuTBVl+vJ3OLshhswxFdHqQjn4SFOOpkKZRG04q7izrHunKrQ7pVAOD2nKyj3btUTZvAAnnbPKf9KpPiu0O+VQVhhK61Ra3b5mp7f+Un3tWX2215kOZWp8CMpd25BVNK7T6azun3+j+efCWv8evHndUZJaNm14wVJWIsuQlXdi5/XFwdraN2uaO4bfoo+sLX8625SD2lI2OMqPliErQdz8+Ak1/hss9e2XKz/Gn1pbWzvf30a9Xx5ldK/CUdqm0oI47f2zf76WIiItKylbV7PPIdKDCxy7JVEO9nlK250EQZwuF4Rx439V3X65skx9du2bT2c1NnbtKIe7AkpL+0MhXi/ilGi56irB+g/cx3HsrvbI2LVqWBRVBJSWOwkZYafzz5v7HGGsq4oLW1ceib6SxW7TgRLvHPCUlql0OtmcfVoWI+KBqfiXt1v/Sr6EY/fGXgJq1bDhoYjSMpXGcfrqnI9TssGKy7/fyb+Wxm6n07Rq2GAkpDS3P9FgMJTGKSH5tbT1Z5rvoqX04vVgaD41Du5WhJSGqXSEfveH01HlQIOI9K90YLae6r+9jJa5s8gUNEugWUqTnQSEePtj+qZ8Y1nb0EWZ3smGZcF4kPbB/r3h0CDahpKbb6A7CYhwePcN+ZD7Os6r/5Hoqu6bB8ToGl18AMdunkBzlBD7gxBnzg6Zq3YrI03YSim/VVMus7+ocvjxJgg02TkQUWqrPwjx5iv6Pr1MDSWnHWUWrIx249jVkA6pZlKUqp0EPNnQccp2p6LBVpQHXEcWv+z0g3o6SncOhJTSnQSEGJ1Rd68JOcuk5IOV0c4rReySxoelFNsfNNnc2xfHKcspa7MxpSRYGTXe3JXE7pC+85i+c5SzP3g+/XAhj1NWkrA1pVQEK6PR4Zlo3h3SD6Ap6Z0EPNl81MUp+1uFYWtGCWdMhJfSAd3yu/QnmLuAhwQhilPm4mAYp6DhJpSwYGXUePOajF3K+HCUlUE+2WDzZik+bOGUy6YdWejwLJ+Ohsp7nXEqjRDHkkURKi5swZT2jLHSpZQ2PhX+vnX1oggWE7ZASqtgZX/zBVpKPzI/ZChH9nHKiApbEKVDsDI6ZOcTT/ixMkSGLYSyNEaBpkdJhq2esoxglWualEXY6ijLC1axpkuZha2GcsqMU6dMw1ZJOd1gjTV1yjhsVZRT78jKpVCisL36n28lugzGy6FEnMT/pXUpv77yfx/bKUdpBlu3AAAAAElFTkSuQmCC;" vertex="1" parent="1">
          <mxGeometry x="235" y="257" width="69" height="66.59" as="geometry" />
        </mxCell>
        <mxCell id="D1Pnn4vapH3yF3k0A5Gj-12" value="" style="shape=image;verticalLabelPosition=bottom;labelBackgroundColor=default;verticalAlign=top;aspect=fixed;imageAspect=0;image=data:image/png,iVBORw0KGgoAAAANSUhEUgAAAOYAAADbCAMAAABOUB36AAAAkFBMVEX///8DAwQAAADo6Ojx8fHe3t75+fnZ2dnNzc3R0dH8/Pzs7Oz4+Pi0tLSFhYXz8/OPj4/i4uJRUVFMTEwPDxAyMjPIyMh9fX07OzsqKiofHyC8vLzV1dWXl5fCwsJvb2+pqakXFxienp5ZWVkvLy8lJSZiYmN3d3dAQECJiYkODg8/P0BpaWlHR0gcHB2urq4mEHEZAAAOXklEQVR4nO1d53riMBA8lmbTjAk9mF5SIHn/tzvbFK+klSWDXMjH/LojLjuSNdpdtX//XnjhhRdeeOGFwqFWabpu9QbXbVYaedtkEjWnPPdGi95gBwwm481itLaazh9gW1+PToha6Ybot69NZ1nO284HYK3feHIUztdslrO87b0D5fZegyHH9TCv5G13EpTbvVUSjhHT6f5ZmDrD4zQxRcR0cJjV8uaghOON7+UYUe0tiy2+7uhBjrc67Tp5c5HC7pkgeWV6cPPmQ8LamOJ4Jbqo5s1JQH1vrCYR0U6x3AZHr02yzp7O9dN1K29uEX5Xep6Of1X/Ak2ufv8yz5vdBdW3WGvPdHabbvt9aLvNC6r2/P23c/YiFLcvCuEwfMZYefZWvXaMaNZ/u2/xVAGWmZGRWjmQGhjYflzXNXr6huVtYpj6JZWzFK1ltgXx5CKBf9potvdfMqa+FL2nSEKF5oK2yzd3tZ83kz7ObfdKUqLd3Bzd2UTGcre+8yurd79kz+wlLjYz+CUNCjTnkT6g0Za0dugPjZmeAB3KmsBFqz/65DntNgKsTdidCM6eMCWQViN+qNWjy7Bj4uEJUKbs8D9XU/mcxvyDfMEhU9/PHVA2JFN9RX/aWvcpopsM41B3SrHsxJa0/et19t3bfxuHfcdrx1Z+mWwXvcxcv7r4eoCxXHms5eHn4qnf6sK+/LA7LG3pjUPCX4BdRjxtiqVMBKu/G+Sxgnf9/Xj9JfR6ZU5v60C8q58Jz7rwxfp+neTrq49LjK8Kq0uLrOIfg8z7m6Tzb/dFnuMM2md1LLLcy8r3na8MuKjUJ/87yDoi9yRUKGxSr09H0FiIvkQBIs1eWJ2ViTbNfw3RcYZF2glOoi5jXDuBZgnCz/tXfEqMW+GJTxmZ5sViL7xwFZdnJGgugt+JTyKiKYYic/ExXeEig+gKr/sW5KDhwe/13wRNcMOOQk7zCGuBqCB7AO30WIpNTRSf9y1ErVXkE9bDhuiRLjSDLgTGQjsQ3K7Yr/wx1FcCS77cy6FewPWborrYbatMODfTc4DqhK3CD3P4j6Sy5d89SKlbaX0oWbZ/zryusQTpSbx7BM1d2G82L/Xse0d8hTaF+lykQ/PAv2fDX4GkH44SmiWYUB7xLqhN1FsBjLhOoyl0Qss0WLY5k2HMXVBnQgrY1GiaZLonpOl+AfMT5yU3fzgDIIVh/IrAkgtIhGL4qNA0KQQfbZV/AK+m7op/g3kvgesxYcL1l12xk/huzrRpTioW0ctw/hVfauazCZzfAiU2fCI8ssB2voblNLdL0UcPGij7yXDPA5AHcXeBaxcQeQBniH7K+bIkM0nIX7nesaPQhwex4B7/yV+wMzy4eXnPkX8P51mYTfZx3gy8CVe006AJIKQkKjvuszKYpG6MuWeL8Z7DeylGaAo9syBDJp2EJfNoACqDt06DpkW8yOOKnLrmLtRK7JMP1EVNwrd5lCUpMI031hqixu8DG37BhPaZ+byHAZp0sOVy35ahkMzR+GR9lM3PJJEYxBX7wAzNz5g2764jZ2hkmuby+uTWfMQMJE5SqM4mW5l9rOCtE3ydfi9MXbPVCdNz42jZowmwzZT1C2Fngib3iTD9se+U+O5Lf3Oe3SwmBR6iGYTmzqwzDjO9bPLnqNWMkoDNNcIUR9LzaxANcGxXqEGHB1jumo1qd3zNZrPuKxvMwOlxmku2MnE7cCKPJGQ6/zFJ87Qe44w9G/ixvu3jgWfjmym3L/y3BddRG26bcVEXJxgPu0KMN8uKmhggpgr2s+2yrfNRz5aRFbaLEhLwafPsoZdz1flgdtotSSszlZgklibzeqY3J7LiibBkKxM9rJVOhBnL8wdZVmZb02NpBLY3wamZZeYsuZQl25zIcEIXTE8IX8jjcvisaRYAQKk8Vhwnj4iQJ5XtNMJLNZjqZAL5uOFHJZiEPqDJZOJobiaAAfIRmJIWs0b6aILsFbVjtp3mxQRGHao45Qm7+1PTrM6y2bxR9jz5tGmP0dr7kyWMN8dn2aQzhtNjybW/X2k3kAgOHrqBKf9nOgWdHssdP3BbZnyXSWJ+5bo19LFW+FMWP6ybKsuTOBN5z3y174HNVlWrZ6nU1/vTpCSum6AUu56ZW+uHeYQ7x/Z3Z/S3b8elG+v71ezDQLIMhs4/lXvZ8BQHdUO41OhSiFOnKlXe9rc8ZoQPumCoWZLGAZIIxJH51SCfim6P4yyWjsmYzueRRstyd/w8AeYm2BDNVByGZW8i59M77sxO3x+C/Xxu1ZvEVxjvchK5MEVvDytUMuWZPVx2F28f22nf+HJG2l4fP7vBaX9Yty2U+KnHv1xYdkUuQ8A3oDypM024PtEAmDciu1VmszyVmQAcncyy4iYxBbt1qh6NmW3iKPt5XCr5xGC0LUoBxOkrYcaheDUqwRh5ywR4lqk6hxG5NU3lSDMeHa+95U0TVdC7muZtAoGtvnYbCW3Z/HhtMmANUo9nRKsl1AOwcIo6LX4yVvZAyeea2pibb6EeycIj37O8WTLZGg2a10BU3dhwpkWYp545cBJBHQvesh4aNNEwjfk5BkmBEwUnozRRHijv/oS1Rh0JJqG5jB4sLF7IHMkKPQnNdqFoIs+zkxbNvL2DIDBrpE9T3ejTBmwyoDnKLPoiLfExQEqRGs1/rffRLh+q5x1OmNnnCWhqiDKXjKnYnVPGTMMEwn5Z5lIlCWiqtZPIObXq3odkx4kUEG5x8k5sjaFB8+pM3EUzQLCi2AwN1fuhY9EZ5gQ0NbpY2UyN9lcmPGWJWq2wY6lfIsIU/hDB6j4zPJQGANBbDCbQFWJpGn8pNRY8I3fUSAt+P0LNQFTPn7tlSdShFTHTumxkg8QE8F/XE6fFaMSb1/yORpKEX5HheNRWGinDJzrixVaD5nUugTrtgXNBAZaSDZHShk+0yyyn0jD9ljlST2uGPh4pHsYOKqULYDfMmKsrs3+9VieBiVqFaiAiZUDCPO2tvdWSeXvq/idd4OrU6AujQlmoL0Zz4tQp4HSBpwdopIKiQtFI1H5Hjza+4CQZ0G48WkIbfYfqqbEwjQQulVVv+sDTTYmtBfir0bAIMVVBuBqlgDMYh48zBSVTNRQIjURUiAW//OXL6PLM50UzhuCmqS5w2EZXN5INLzh5Nk48PaClnpfErHfQGODEQ+F5JvfwxH61GLKzLIZqu/FAbp7j1XgARW0HfOHMUSPBwJJWKaYG6CO7j2qr2VWPGnkSPMOR34QlO8AelbaGcrJZB411CHgLgvy0FndsGt09t3CD33GEugUVjGNy0VsSMJvPafQP39xWPxq3nNAtebnvjEKoJ0EIU6Y1pjrjWeA5TUBg1rxp5HZA2E9N7agyK3fyGf5jNp5Tz4kkMnUa7uEPKkqjK2+1ASgVpLEXEbFyTGMBDZOeUPdZ5sGsa9IIkvc8yX9a8ox1q5r1oFjwPtSnqfsGeo+6hjJVwjqIs8MkO6bBm749bLZGDp1eBagxMYzdJKQ1PCTZ+eh+BNv1rtll4i2NypTsfqz0hIlZ1cO0B6+Dx2/Xwr5BysqM2Q1B6SOQG0YMO7u0mAYcP9bEZqJNpTsrGd0KoFZbeplkyx4NzFdq8MSe55IDYcoAGY4xKwCrqjW2MJDcXbEORpmGa2a6ruQ8CX7HPfH2+A3D60qeS+m9jnUw9PUGHMdezKEGqoFnOCm2XaY2pmceMI1bflUzoUgQnMQUu/2Gok8A2Cg3869Jzji5PUO1Jn3YeaCXCaf9iLrKIbYqQD6Cz9p5ijNTsr6IgdW5a+JQ2B499UkqMR1f8Ii95ga9DWsxJZbSXFe76OxU2LKSau9FVzXOsKnRK33OP01GSXYhblqj3uB22Nf1qbvv3sIbap69l0R743WVQ6M67x574ylnHazGm+4s+fYHlao1XHrd42Jx7Hrr+dCql5EdlsbpLs7woHMUZ9Ae43T1xs9CNdVyZ9Zw7q07gX2e9zu03TQOERn6pml8Hw2V9qp19QLrcwU5nLNVDybReTpbngw7K5pp2NIpX454ROC+53I8XP3c5j2NqmhYHSFqC/7/pqGrgZyF7XCc09FTdh/OznW3rhYPxxqhvbm0ddW5usswzu1kuPOOAGG1dKtqAfC1d3uVxVNXvsb7Bp/jtWhgm+P5d9ftvC6Gq2/wI/EVGT8SsD+3t+pnVgNnj2gPbNDtFv4NtWTrE8tWRifayMHkpYM+uvv4rtWNUFfxc7e5H8E5E/Rz0J09sN+6r6t8OJej+kTgdyYJtfdTQ5EIIM0pGEufp5CXuWhvwqMkW3ZH5Fh6cJsug6C2Twzs/e4mOGHb/qTTvvCVe7u8gj5zQNtHCnw52Umq8FMYljHjgIHfq9DeWOceBgX5Ys+wS7IgJPRGpdrr2LFDFAVRnwhxO0GFPhKhvaSusnVZMJaU3gpMGTe2ZndUyYXLyT7FgmpYNfx6r5G49alOihVIYzE0BrCD2NibWR0lxbAuC8lSc6CeyMnR1xVLYzFsrRVjWsm+wmkshrGd9wqosRiWmRWAMC3sF3uG9pFasSyLqbEYBuZ/waTwLA1MjMotU5kMtnqaazzLQqtPhIf0tuAai/HAMQWFii9V0D7bT2C5eiKWd+ttATKVyXBXfT6JxmLcoUNPo7EYiXnyC7ifBAn9vtzHSe5FIn/oqXoSFgn0tsBRtBozaV6TZ/mM6hNBU4eenKUqr3llWZTRoPuhs1zkWTUWQ6m3hc1UJoNq9uszayxGbF7z6dUnQozePlEUrYY0r1nI0aD7IdHbP6GxGKTf9xSZymQg9PYJo2g1hLzmH9JYDE5v/5TGYljMgVjPG1+qgPJgT5apTIab3j5dpjIZLnr7JzUWww506I9qLIYVTAL/43UZwP5zHh4NvcMGX3jhhRdeeOGFF1544YUXXnjhhaLgP7EC6hyU/Ox4AAAAAElFTkSuQmCC;" vertex="1" parent="1">
          <mxGeometry x="225" y="123.82" width="90.5" height="86.17" as="geometry" />
        </mxCell>
        <mxCell id="D1Pnn4vapH3yF3k0A5Gj-13" value="&lt;b&gt;Remix&lt;/b&gt;" style="text;html=1;align=center;verticalAlign=middle;whiteSpace=wrap;rounded=0;" vertex="1" parent="1">
          <mxGeometry x="241" y="199.36" width="60" height="30" as="geometry" />
        </mxCell>
        <mxCell id="D1Pnn4vapH3yF3k0A5Gj-14" value="" style="shape=image;html=1;verticalAlign=top;verticalLabelPosition=bottom;labelBackgroundColor=#ffffff;imageAspect=0;aspect=fixed;image=https://cdn3.iconfinder.com/data/icons/user-interface-169/32/plus-128.png" vertex="1" parent="1">
          <mxGeometry x="245.5" y="217" width="48" height="48" as="geometry" />
        </mxCell>
        <mxCell id="D1Pnn4vapH3yF3k0A5Gj-15" value="&lt;b&gt;Local Blackchain network&lt;/b&gt;" style="text;html=1;align=center;verticalAlign=middle;whiteSpace=wrap;rounded=0;" vertex="1" parent="1">
          <mxGeometry x="99.5" y="381" width="170" height="19" as="geometry" />
        </mxCell>
        <mxCell id="D1Pnn4vapH3yF3k0A5Gj-16" value="&lt;b&gt;Injection provider - Metamask Environment&lt;/b&gt;" style="text;html=1;align=center;verticalAlign=middle;whiteSpace=wrap;rounded=0;" vertex="1" parent="1">
          <mxGeometry x="217.5" y="334.59" width="104" height="30" as="geometry" />
        </mxCell>
        <mxCell id="D1Pnn4vapH3yF3k0A5Gj-17" value="" style="group" vertex="1" connectable="0" parent="1">
          <mxGeometry x="366" y="107" width="120" height="284" as="geometry" />
        </mxCell>
        <mxCell id="D1Pnn4vapH3yF3k0A5Gj-18" value="&lt;b&gt;Metamask wallet&lt;/b&gt;" style="text;html=1;align=center;verticalAlign=middle;whiteSpace=wrap;rounded=0;" vertex="1" parent="D1Pnn4vapH3yF3k0A5Gj-17">
          <mxGeometry x="10" y="210.93" width="102.55" height="30" as="geometry" />
        </mxCell>
        <mxCell id="D1Pnn4vapH3yF3k0A5Gj-19" value="" style="shape=image;verticalLabelPosition=bottom;labelBackgroundColor=default;verticalAlign=top;aspect=fixed;imageAspect=0;image=data:image/webp,UklGRtAIAABXRUJQVlA4TMQIAAAvK8FKEG+gEJIV6voCxBNQ/gA9DQVt20iZBmu8x+m/OwRnKpKNex0e/o0U+vd6Ctq2YaohGfQR6UO2AHBvH0n4aoc3xzc6fL8BRaRrD4dIZCCw82zb48bVZ9OjMKQAcwWr3tg5iCv4f1By0P4Ch5MTMWR3MtfdyTzuppZHAOuVA+vhR0D1hj+zJud93ud9v68zENF/iZIk120zWASGAR1IhgLu+PAHhJ8apiJPzBZZ4h9V9SRLZfVaOSp/TAcZKrfSYWYYV9vMi7wwqfKk6S7VIjP1LOmPnVRPctIiKD8tmRmvkljkoqfEPBvLnFjPE4t82PJZjj95nQpb/LWPP7w/3EmPzwofXDrgk/tDIT0ujPiNUHfyk/iDEa7qj4ZYGvVMcFQf3xnC6SNjDmz5cKhJZ7YU1t10MkU+FdhZKzqanrMnRO4O9anHRtHzj8wZ6nQ4ZMgOxIkpjAZCB3XCZDvcomWOrNgXfWOejoes9KYV2Lq8oGReKpjAk/eMF9c8GhIZ2TPuDLdomWPQnD92L4DqAamFOROWYzUeotw/O7sDFtZMBde4YA94se0mHEOFNVUliZrvFapZoWeBHJ3qDRyjWbdh57b8kRPIP0Kz8jt4z5bfiDEzc8Ce2ocpHLFgOk0X+rnh3pklE0J5imbOKf/YCQvcOuU79A4a1rjgEM2kWfBteHEpbJh1Qx0Q/Afcxp45C2Imu1c9aw54A2rWZ9SEMQWQcQ8XrWt+tIU3IFoqZcmctIcXRk57z5BLkdkJ5kaa+cc9O/YlJtXnmHUzp31UmHEAXFT+HMmGTvvICbMKUmEaM59bcSjsYlUh6ukyo48dyLp8QrDOy8ORB6bVrswH7D6aRqA3UE7UA1JTYc6ki89P/OThuTnTqlMWA96/fx8tTBDiwG7heYx6chfFj9t0hhXmiOqZxMyn0DaZoIhOq7fQjC9pGvVs+Q0nZj42iZnPbZlIFNRAXnvA7tkyEzhgDtgL+kjeD3NqIE+YHN40ZSrfWbVz2u/IvOGHQ3Ygr204d8PCNJAPd/yybxszD/1yaJpP/TKnBvLQcXPb5dIiK5c6r5xyY2bHHMgw8yPMWfFCEVQycNpHvtAv9cS1sOcInehO+yi4gfDtuUcN5Hu+GXerR/WPg2/CKS2QZ5xifzRDqwuy0+4Jpc4D1z9OgHC2Fcjb5/APb4RjdiB/EZyhETsnQyjoA4Kb6RDq1QXNhvqDO2DqvMPPYeYM8oCJ8wi2rmPiC7MBdW7BvguYgbyWP3rCZoIkTN+X1hg9wsOYvhcuOYYzIRnhZECWKQfw7ownTn2iG5Bn6tAdm3iiyMwP7nvjRYyIRoHPwhnL+JpfnGitc7wVZ6zjlrDM7njoi01EVNi8uXjpijpGQD2jV8zmJiwblHaX+JnWOjOQmVKJqGJXOhGyRceFDfEZWJc14r+ULj8mO67IxBJhFUWNHLwL9A8yoFqBX+wMyG4QfzUhsyUt8d3C+v3heRH+URnQaHp2HS2Dhm49rdhgWko0Ll7VZQPucC3RN3rZ2gXxWsO3Zn+wwgWx7EZuN6qaAu70rdxuVHVCA3Nk+DdHfGP5wrw/sLrJBI6z74CBJb/xTGn6lxhwFk4w7OwNqafHzlYIPV0Whw7wWeyb823wWSx84NGIOYNgnf4GN6ROmKJVbcxeU/D5kQJxaLq39orO8vmr66s+VROQS+R8l+IoMi/iVrpy8KsCeHg2SFIC5hhflkyDoBaA4xBE6VCEN6V5nydb86iGesOjjUb6GyrxOAEXWVSIkaAvPf26EgDEYh29qZJARGIjEg2MzcmEFgeo20WD/31aVf8vdGBisIqIDCJ5NuGKQBs96B8K5ugmGxGv+WGgPyKYSjYTh/jQP9xRR1xewkB3NKWP4tKK26gQu7MzVtGL/ghf9LDDi8YoBx6Jz7iGEyKW9s2FHVqZNwcr1lEt47lybosXA//Q2lo2XDxpgvTsJl5TcaUp0FMglmZdrN2psbIlvpYnYmln8FImliZcX22MpPlrO3K41PRZiDvdmmsmuE8AseGys6G4joKNDmW2xPSgureztSZ8hXua67gtNoPdCyPWhL9Nd9xflFgyWCK7XMMwB/1qWs2/DjKruCsuZdiVEdSltqTGVmXokHsaI0LrkyWVDbjLrUtCBy8JrNFdbl2yccCydU0kcItfO3YDeOD7TL4Nkhyy6toPPcvOc1+UE9DTQU9QEJ534s3Ut9SrxMANpLYLd6bQK+rwBwF5AD7wIHBHRA6ADzyIoqNsoAN3KzAKugJD8sUydlWZd7W+DZBcESKwiyuclfYhw29c0QJn6RqnVj/K0HpiBSwIrQR6Ub0Pyhb1jdmooNVfzGj9EOTrJrWGW30cXPf90IpqNSw5j4r6mSm7dfU8iuA3TBvnLKOUdKxjQtowqWNCWjMJm4RUq1AfudJ3lUkdE9KaSWgTUk3lVuSlZ7U4R+ASlIyBW+rF6HVK2jCpI6D0Opek0+xZcqsd7TtZ+i1wSEWTWNHwJrCjtIqGOIH1kyoGxNl+kNRcWRJn+5eOFxaQ9Jtr6JN4eoFM4QkVDfc/tExHA+5/6LeOPSnqYV+77mwapLTOq3bX7OsWqHoW81SogWoaOgp09X1rs813Bt/KQfCdnm9l0haKIbz3dHPTt5lZQwrJRGWKrEtCn0GSxFLvH3ybJi9BbTpnyjSJjd5L7ScJqmW3y5kksqCbFakSr5RGvk0WzPimq2OS4Fqnj/75w36igAaWiaNQp6kUUWjTZSpFFFp3mUqbWOYEQfCpniIKrbomyuRpyjwRG/BGforIAp+vSBBAmUBx12GdGWIJhH1lgigU0waU/OxlmuE59oHlRohjUhScEqcmkaI4JKlMEb7JFKElkKr0JKtMUW8Y5Md4GRKWkpSlJkMG+iFPSv6uQ6ZYChJj9qQNwORJg5ABgbYykK5w8mM8F3clgZ65kLaetDsl3AHMhlrBqcuJUmznPrbwsp8XQr31wysoJ+8j3NzchJ8apgA=;" vertex="1" parent="D1Pnn4vapH3yF3k0A5Gj-17">
          <mxGeometry x="19" y="6.820000000000007" width="75.1" height="75.1" as="geometry" />
        </mxCell>
        <mxCell id="D1Pnn4vapH3yF3k0A5Gj-20" value="&lt;b&gt;Web3 JS&lt;/b&gt;" style="text;html=1;align=center;verticalAlign=middle;whiteSpace=wrap;rounded=0;" vertex="1" parent="D1Pnn4vapH3yF3k0A5Gj-17">
          <mxGeometry x="26.55000000000001" y="78" width="60" height="30" as="geometry" />
        </mxCell>
        <mxCell id="D1Pnn4vapH3yF3k0A5Gj-21" value="" style="shape=image;html=1;verticalAlign=top;verticalLabelPosition=bottom;labelBackgroundColor=#ffffff;imageAspect=0;aspect=fixed;image=https://cdn3.iconfinder.com/data/icons/user-interface-169/32/plus-128.png" vertex="1" parent="D1Pnn4vapH3yF3k0A5Gj-17">
          <mxGeometry x="36" y="97" width="48" height="48" as="geometry" />
        </mxCell>
        <mxCell id="D1Pnn4vapH3yF3k0A5Gj-22" value="" style="shape=image;verticalLabelPosition=bottom;labelBackgroundColor=default;verticalAlign=top;aspect=fixed;imageAspect=0;image=data:image/png,iVBORw0KGgoAAAANSUhEUgAAAOUAAADdCAMAAABzPkXkAAABNVBMVEX/jV3///9mGADjSAf/XBbn6/bAxM3/kWH/j1/kRgD/XxdgDQD3hVXyUw//hE7/7+v/WQ7LPwZdFAByIwhbAABgFQD/VQBYEADCv8Xo6fPKwsZZAACiRiVeAAD/TgD/i1niPwDhNQD/e0bm8f7/+PX/gExbCgD/ZCSCJQbmURP/dT7/h1X/bzX/4df/6OH/n4L/ai7rWyX/mXDvZjLVbUTqc1DoZz/yqpjx6ev/1MfrUxPu4d6iNAqIKAeYLwnBQQ64lo//yLn/uqbYxL/XSxHKsayVY1mMU0eqgXmfcWisOAv/q4v/tpt8KRHwoIztjnX5iGf0tqfAc15NAABzKBZqDADj08+ISz1/OSe0kovQubXJVCmJTUC+VC+ONxv/0L/JZD3shWnvmoTwu7Lty8j5eE/Yz9X5xdAiAAAT40lEQVR4nNWdCXcTtxbHx5Pp84ydxCaxnQYTL4mzOCYhrFkggVBoCwUCr5Buj7YQ2u//EZ40q3ZdSeMA/3PeOa/BnuiHrqT/vdIIr0Lp/n9Hla9fr54yP/Do/3z685UXl9aYKen0qPWM+RFD+X19aWbz8NIaNAXtrg7q7bfMDxnKFd9fGvdeNy6tUWXrRm/O9/3uffqnNOX9lo8xO72vNGxPO505v+37LWZg0pRPUV/6/sK41vkaw3Z3tRcEiwjSX2EGJk35fR1T+u2jWrM3+crCdnSj10whff8d/Wc05Ts/1VwQdHo/XWIbnYWCNQiCrQSSHZgU5Xk3hWxjzKBT+2rCdncbBWsB6a/QA5OifLSS9WV7EX+p2Zv9OsI2DtagdryQtb/+PfXnFOUPdZ/G/DrCNgnWoHaSQ/r+IvUJinKl+JTf3goSztpfl9pkY8UzKwvJDEyS8rzlCzCbvX++4LBNZlYM+YCEZAYmSfmI7EuEeVwLvvSwTYMVQT5fohpPD0ySkhiWsRYyzKATfJFhu5PMrAJI1JnkB0nKFeaD/sJJhvklhm0erAjyIQvpt86JjxKU+WpJYD7IML+8sH2cBasQ0l95RHyWoHzE9SVy7gUmmm1PL5tEriJYxZD0wCQof6nzn/WXnheYKGx3Lx1HqNGtPFgR5BMBJG1lC8pRS/RZf+lhgYk4v4iwJYJVCul3iYFZUJ6LKWnMoNM8vXwqWjvXe4EekhqYBeVvgmEpwAw+c9hSwYogxwuSZtd/KL5UUAqHZYJ5hcJs9m58BrpUj3sdsi21IxkktWLmlCNZV2LMJxQmMgmnnwGwwgYr0lFb3mpixcwpv5MMSyFms7f6GcJ29JoKVqQ5RZvJgZlTSodlrIUxjfk5wpaaWRPIRUVXkgMzp/xVOizFmEGnc3qZjFywBnmRR9qZ+T5BRjni7R2t9hGLGVxi2DIza6ItNSSxYmaUymGZaI77NZcWtszMCoMkBmZG+aNyWMadKcC8HJOws8cHaxAc6yD9+i8spXy1LDAXBZjTD1t+ZsUiKllytbKBmVKqVksCU0CJw3aau4H8zBpDngAg/dZ3NCVgWPpFKYgN2+nNtuJgBUL6K7/RlPphqcIMets702AUBytXyZIqH5gp5SLoW0TFiw/b8iGFM2sgKvLIlK2YCWVDt1rmWpBglj/bHm4Kg9UEMh+YCeXvoGGZYJ5IMMudbWXBKql/SJQNzIQSOCwTzAcyzBJn2xeSYDWD9Ou/kpQaE0uLLAWxYVvObCsNVgR5xQASmbxRQXkAD1gNZhmzbUMarIr6h0TpwIwpDYZlgvlQjukctvJgNYf0V34sKE2GpRYThe1je8bDmpwxqI0NIbOBGVO+03/cBNM+bBsTebBiSK1B55SsmJjyPni1JDCvqDCbvVs2YfuTIlhxJcscMh2YmPKp4bBMMJ+oMG3C9nBTxRgERxatTAcmpnxmOiwhmEFvb6dhoF1lsAa4kmXRlenWO6Z8a/NtUSmIVrM2b6A9dUdqKllydRsJpc2whGA2t0MPrHBV3ZO6SpZUrd8TSqthGUtQ8bKmXFdTaos8MsUD07MdlolENZKcctWEcqKktIZMVkzPZrXMJax45ZTrBpReX8FY01ey5GodYErrYRljCktBKeXEhNJTQcJKAxLK3zHlU4eAVWI2+yaQVekQBxZ5ZMID08tOi1pjSkpBiNKoK6ub04GMt949cMnHGLNmRBnuSZ4Cr39I1L1f8ZyGZYJ5LG7fphnldXG5zhkSH+/23IZlLEnFa8+McltEaVT/kGjlWcV75jYsE0xRxat53YxSZH7KgPT9txXPYbUsJKp4GVkfsfkpB9LvHniOU2wqQSnIyPoIzY9hJUuuUsYlFo9pZn2Q+WEpjYs8EuFxaVi/k4qrkRhaHy9sTgcSlws8yM4lSCymmfVBlPTXzStZMrWwKxAdpbQSWwoypdykIR0dTy58uNLRrVOiayRm1ocxP1aVLLESt+5s8QpRmJtVQ8rrBKXyuJKZcK3S051nMhJZIzGzPrT5saxkiRSfbfKEJ7mttVRgmlkfyvzYVrJEil+5cKjhCZWXggytD2V+SoTMa3jm2yQqtY9sKXPzY1/k4ZVslGBK2AERsJJSkKn18byMskzI9PxWvBtUZl9mFa/mvCllfwqQ6fteMaVLrZJX+lajocFLzY9bJYsTubNXcsjGmE1DxqTy41zkYZQen4gpQefTDIRLQWa1rbgvN0uHzA6PJqcnykkyCyFMU4OHzU/tQVkOPVP66kxCab9VItHCsanBw+bHvZLFKD1WkFJqTzob6+c/zCnvdUudXv3itHN6Du9/5YbswuLYrE4ZU16f2yq5M7N3vVLKkuoiqZYe2Mw+aI6tPVwo1RI8oynLqotgtX2cgNmtl7WjrRJnWfYUcGl1EdSRJ0HNyuEl5a3a86XyEugKQ1lWXaTdTjNpc7c+n76sfrRYUncWL5pmlCXVRdKODIxL62R+WcLeSKzi/pv83aAy6iLtBaKOZ1wRKWoFtbFfRnfy7waVURdZOp4j6j5O1a2gBBckes/LuS7SZgqybvXY2hPn0g9x/UTxlqljyC5sMcdiHGvrteDEsTu7DQGlW11EsE/iuhtUu+JkEbLT3DSlS5KJHB2/5+W8s1ebO3boTvHb3w51EezoeJWwF117aG8RyLtvCErbukji6HiZnisQPcPe8ZEBS1JahmxhBNiQLeUkjK1FyN/xYiit6iLttvTQs9kkG0qegiyClePrSu6EsamL0EaAoTQ7h6c4bWhjEagb8UhK47oI5eh4SqOTo/OqY/nmFiGrhfCUpnURzggwlCZ+XX0K2NwiUAFL36FmVBdhHR0vE78uObpFdGfbqDvpKxwpSpO6iMgIsC0z6UvJMbziYUYWgbmOk6I0qIssPde0KjDz66HurywwKgrltRABJbgu0va1HRmYbQix52DE3Qm2CNQNaiwlsC6CHB0A0sSva46t55xAx8dcU8neBQyZZWWOjqeELyW6VxByTFhRSH0XMCTJlDo6XnC/Lj43KhTE8a2MlJTauojC0fGC+3WxVxcK4PjIy6hElOfdulIbCkfHC+7XpafWRZjBgw11K7uaW+Ub67NqGTCa+HWpVxdrom7kPHurJkN5OgnVMqME+3WVVxc8t69uZJ+9tY+hvKFZyA0poZOs0qsLnjvRPU9NOa/7uhEl+PyW9o09hlJnquZ3VZQ7JVNC/brOq5tSTk5VlI+1oWBGCfXrWq9uSNm/oaK8pfu6ISXUr5f+2HkF5UgXsMbNAfp1iFc3o9yRUx7qAtaYEubXgV7dgHLyWE75onRK2FIC9epwyv4tOSWgPWaUQL9u4NWBlN78SEbZ0A5LY0rYJGvg1RPpKSeHMsq/tAHLvA6hF8yvm3h1KOULGeVP+i/zlHNqwfy65iEWlJ4nowQ0iKOcUSuC+PWwH2keY0E53xBT7uqHJUepad1MBJlkw3UdJYsJoJz8JaY81Q9LllLXuJnoNsDJhqtaypk5U0oq+yIodVkXT6lt28zMGEJ5W09JY4KMo5gSELA0JQByZgYQsdWbAEoKE0JJZl8FpTbrYilBkFFfj1kdgx41Z0ZJZl8FpTbroinnQC2biSB+HdKVFCaEksy+Ckpt1kVRAiFnIr1fDycD4MPmTCjJ7Ku4VR4SsDklFBJNsnpK/ULCYsIod3hKfdZFUIIhZ6Kb2kkWNMXSmCBKIvvKKfVZV0EJh4QsJVUDyhQTRElkXzkl5HsppQAyukKL+BNtxJJTrPQxhcCURPaVUQKyroxSBPl8aYHU0pP8jwZavx4Sz2nTjzkW9TKYssi+MkpA1pVSCiGZ/Zn287x5Wr9OevUrzHMWJJigthLZV0YJyLoSSsGvjQSbbQWlbpIlptiIu1+rLcKMoG/K9VlKaOF0exwhqXsSd0I+pLR+nfTq/EYzh4l++/g2kDLPvlJKSNaVtKnqrd8ek6CR6FpwonG6SbaYYqPngu309hZDuN6vQveY8uwrpYRkXTloWO0npJEMEjWuaJumTYVXj4Q74SlmFA1iQjCiR2RfKSUk62JIUZ/eRKCSNyaL+Ufn18Oj7K+DnXsKzLQPq6Hpmzg0JTRgGdL++h8vuxt10bmNxZxS59fzD56IAra+0V18b9iHubLsK6EEZV0ihdVq/877P+s8aT7/aPx6OMlHMAfZ3th4ee3OrEUfpsqyr4QSlHXJmolIvTvX2D5tn0TZJKumzBeSh2TAxn3oRIiVZV8JJSjrUjU17tNrL6k+zfpS7ddzrx5tldeHueYJSljWpVHSp+//zPp04WG2lCibmi8kydVM5fRhrjT7iilhWRdAGWncp1tZJ6kpx9my20aE9ZL6MFOafcWUsKwLqpS09XM6/2j8ehbY9W7JhFhp9hVTOo5KXiHq1PDOH0lnKv16NsVGT+7YrIdazef3rQOzLlNlyYZyks2m2GjdakHUKsm+PHjWZazUuyn9eu7VjV/8h6n/IqMEZl3GyvpJ5dfTKRZQBLNUP6Oc0vMRgt6vZ/1t/EY8VPPpXU3grMtY6YqvQki8OqDSZ6s4+/LMsi4zpROo0q9H2mnYTXH25ZlnXQZK4lHh17O/h6lBenH2hf63Pr1fkMw/iqkl+8DUAjbJvjz7rAukSD3qkpGrr2Y6CGdfnlPWpVWyUMj9ehLSkK1ca+Hsy3POupRK9rPkwy726oB9MReh7MsrJeuSK8ZQRGRSGZpqE1D25e1MM2BTByddKOIpdoqLZSyUfXkvpvsX6WHLLp1k4yl2ML3FMmnBrYp3q+omXQvx/CJdKeKeVtcSvDhhddJk5OGaqov2NDlh3F2ySRRPwfqNlG3HJg4b3ivopr5EzU3NYhcq/Hrc0ervh95e062F0b2Kdzh0ewY+0KycPeL+kpAgr64r8U1qTdiZG6kG+2i9HBjsdwsp8WvempqH1K9HGqNejV80caMcopWk8totZPEGeHNTtReCwlKy7scLiYIRRyv4/JRM0QB7nwt3SqR1edyhiVQyw6CZSWXU42h1phycYcqG28BMKZWXE0SSwYe8umLuqeavRTk1cHgYZ14mB1GklKqoRfOPeE1EsSw16iHxVpRL+6JBct/6vlPIEicdZVMMGn6RGH8sNerhZLN4L8GJ8m6SRe84hSxB2dyWLf5jiV+XGvUq9YaJS/sGb9Ia3tglZAMSc88TzzKrQq+K0jLJeGXe4XOhHGb3rZ+5hGxAYdaEfRb2B6JJNlwXG/Wwv0m/RePQvOhmVo91sj8BLXHUVm+KOi1cFVbUq9z7UA7NG7zKd4NKpBRHbbh+JOCp3hb0MButjpTDnZzyrsPAZFskjtpQ5NerY/6TXLS6UUYzxc7eG4eByTVJaN/D2yJ0Poyr84LnOVAOPhSULvZH1CrevocTwTzT5xbLqvjlPfvWDU+J0xMO9kfUqoBPOsN5QQ7PLJaZOS+TkvjX6isOqbSwWfhCBjoaq++v8aJ7PDfn5VHGxqc41WQfshJKJmqrf3fbnDaukX8TVfmdBdaNi41PcUKtfErKviNI0Qk7AlMarU6UQ+qEWuWDdchKmxYUSWf1juR2pO7fVV20ulAmxqegPLXuTBVl+vJ3OLshhswxFdHqQjn4SFOOpkKZRG04q7izrHunKrQ7pVAOD2nKyj3btUTZvAAnnbPKf9KpPiu0O+VQVhhK61Ra3b5mp7f+Un3tWX2215kOZWp8CMpd25BVNK7T6azun3+j+efCWv8evHndUZJaNm14wVJWIsuQlXdi5/XFwdraN2uaO4bfoo+sLX8625SD2lI2OMqPliErQdz8+Ak1/hss9e2XKz/Gn1pbWzvf30a9Xx5ldK/CUdqm0oI47f2zf76WIiItKylbV7PPIdKDCxy7JVEO9nlK250EQZwuF4Rx439V3X65skx9du2bT2c1NnbtKIe7AkpL+0MhXi/ilGi56irB+g/cx3HsrvbI2LVqWBRVBJSWOwkZYafzz5v7HGGsq4oLW1ceib6SxW7TgRLvHPCUlql0OtmcfVoWI+KBqfiXt1v/Sr6EY/fGXgJq1bDhoYjSMpXGcfrqnI9TssGKy7/fyb+Wxm6n07Rq2GAkpDS3P9FgMJTGKSH5tbT1Z5rvoqX04vVgaD41Du5WhJSGqXSEfveH01HlQIOI9K90YLae6r+9jJa5s8gUNEugWUqTnQSEePtj+qZ8Y1nb0EWZ3smGZcF4kPbB/r3h0CDahpKbb6A7CYhwePcN+ZD7Os6r/5Hoqu6bB8ToGl18AMdunkBzlBD7gxBnzg6Zq3YrI03YSim/VVMus7+ocvjxJgg02TkQUWqrPwjx5iv6Pr1MDSWnHWUWrIx249jVkA6pZlKUqp0EPNnQccp2p6LBVpQHXEcWv+z0g3o6SncOhJTSnQSEGJ1Rd68JOcuk5IOV0c4rReySxoelFNsfNNnc2xfHKcspa7MxpSRYGTXe3JXE7pC+85i+c5SzP3g+/XAhj1NWkrA1pVQEK6PR4Zlo3h3SD6Ap6Z0EPNl81MUp+1uFYWtGCWdMhJfSAd3yu/QnmLuAhwQhilPm4mAYp6DhJpSwYGXUePOajF3K+HCUlUE+2WDzZik+bOGUy6YdWejwLJ+Ohsp7nXEqjRDHkkURKi5swZT2jLHSpZQ2PhX+vnX1oggWE7ZASqtgZX/zBVpKPzI/ZChH9nHKiApbEKVDsDI6ZOcTT/ixMkSGLYSyNEaBpkdJhq2esoxglWualEXY6ijLC1axpkuZha2GcsqMU6dMw1ZJOd1gjTV1yjhsVZRT78jKpVCisL36n28lugzGy6FEnMT/pXUpv77yfx/bKUdpBlu3AAAAAElFTkSuQmCC;" vertex="1" parent="D1Pnn4vapH3yF3k0A5Gj-17">
          <mxGeometry x="23.25" y="137" width="73.5" height="70.93" as="geometry" />
        </mxCell>
        <mxCell id="D1Pnn4vapH3yF3k0A5Gj-23" value="" style="rounded=0;whiteSpace=wrap;html=1;fillColor=none;" vertex="1" parent="D1Pnn4vapH3yF3k0A5Gj-17">
          <mxGeometry width="120" height="284" as="geometry" />
        </mxCell>
        <mxCell id="D1Pnn4vapH3yF3k0A5Gj-24" value="&lt;b&gt;Client side communication&lt;/b&gt;" style="text;html=1;align=center;verticalAlign=middle;whiteSpace=wrap;rounded=0;" vertex="1" parent="D1Pnn4vapH3yF3k0A5Gj-17">
          <mxGeometry x="12" y="247.59000000000003" width="100" height="30" as="geometry" />
        </mxCell>
        <mxCell id="D1Pnn4vapH3yF3k0A5Gj-25" value="" style="group" vertex="1" connectable="0" parent="1">
          <mxGeometry x="510" y="119" width="210" height="260" as="geometry" />
        </mxCell>
        <mxCell id="D1Pnn4vapH3yF3k0A5Gj-26" value="" style="rounded=0;whiteSpace=wrap;html=1;fillColor=none;" vertex="1" parent="D1Pnn4vapH3yF3k0A5Gj-25">
          <mxGeometry width="210" height="260" as="geometry" />
        </mxCell>
        <mxCell id="D1Pnn4vapH3yF3k0A5Gj-27" value="" style="shape=image;verticalLabelPosition=bottom;labelBackgroundColor=default;verticalAlign=top;aspect=fixed;imageAspect=0;image=data:image/png,iVBORw0KGgoAAAANSUhEUgAAANMAAADvCAMAAABfYRE9AAAA5FBMVEXkTSb////xZSnr6+vqWifjTCbxZCfr6unr7e7///3xXx3r8fLwWw/kPwX2n4D6zsLqz8n38vHkRxvmiXbkQg7ourL849rkSiHjRBTwWADmUSbuXyjjPwjsXCjiOADwXRf30Mnq3Nn529XnZ0r308zrg23umIfzu7HysqblVzPwqJrpxL32qI71xr387uvnoJPocVnvno/rg27osqj75+Loa0/oqJzpycPlXTzqe2P4t6Ptk4L0h1/ycDvnoZT6y7vzflH1lHPmhnPqTw/4u6jyeUzybTX3rZT0jmzsbkf2ooXukHa+NsX5AAAOmElEQVR4nN3db0PTyhIH4Eb5F0KEhkAK1hQotBSltlCUiogiHjye7/99bpKWkuzs7Eyy2eTKvDxXpc9N2P66M9k2zv3Gyyr/vHHs1v0iSi73uLH74ky7jWFY94soucJhw35x18luWHW/hrJr32pY10Hdr6LUCq4j0+iFmUaR6cSr+2WUWt5JZOq9MFMvMp226n4ZpVbrLDL1X1Y48vuR6bxd98sotdqbkenoZb3pukeRafjCTMPY9MLWiNhkV/Weu2yiwE8J7MhkDapB7S+ZqH2RNLBiU7cS0/LSKxMFTN3ENK0kSBgyiT8mikaxqZpwVJWpl5jOKln4DJnERSKKRrHptJJwZMa0Ipr808RUTTgyY3ormtrniamacFSRKYpGsWnyF5veiaZwkpialeyGmTEtAVMzMVkvymTNTH9xjtgXTcHcVMlumCGTSOrOTZWEo2pMcTRKTNt/r0n8Kd723DSuIhxVY2qN56ZKdsPMmGTRKDFVEo6MmKTRKDFV0iqsxuQez02VhCMjJhCN3MncVEk4MmKSRqPEZP+1awQwtRamKnaOjJjEaBTvGs1MlewcVWPqLkxVtArNmIQfEowWposqwtHSim5Bk/gzvPuFqZJwpG2SXCewRIwXJjoceTfOqmY1bc2yvgMWMJ0uTHSr0Js6rzUrXmX16pY0+f2F6YAMEkG3fpP9SjTBaHSwMNFzVMF1/aZmRzTJo9HMxGkVrtZuGu6Jtx6IEe5wYWrS617rsHbTLm1KotHMZNHvT+7hWt2mzQ3SFFjPJjrwuVu1m+6ASR735qYr0uTv1G760gEm8TJdpUx0OPIvdRc+bdOfddEkvshZNJqbeuQi0fpWu+kHaWr1Uia6VRiFo7pNX+lodJYyMcLRRe0mbjSamw7I3bBgVLsJJHMkGs1NdKswuK593QNvudIm4cI0oXeO9us2wWgkbRIuTDZtcjVJ2iZGNArtlMmiQ6x2ONI1HdPRyLfSpgrCka6JHY2eTHQ4ar+v2cSIRqOMiRGOdAOfrukDHY0uMqYb0tT6pPkGpWt6Q5tuMiZ6N8zr1WxiR6MnEyMc3ddsYkejJxPdKtQOR7qmdTIaJU3CZxPdKlTtHDmc0iRZYCnHotGTiRGOAtTkfLrfpuu/N3oFbj0sGj2ZmnSQaKG7Yc7Y9ej6ua5XIkmyE9bMmGx658hHw5HzidFDKL9XA3eN7IxJKxytXTKmT8s3YdFoYaJbhe3PqOk9Y8DCgEn4CbMmYco00ghHa1uMvenyTeJPCKaC6V4jHK0d1nLviT8hmZ9Km+ido9ZHdDFfrWWNwKLRwsRoFW7jb1CMHncFplPBRAe+AG8VOoxJzdJNIEb454KJEY7wVqHDGEYwb0rmp9Imeo5KsRvm0CtM+SakSZgyabUKHcajOaWbkCZhymTTy7GPtgqdb/TCZ97k24LJol8VvhvGCUelm8BouWeJJjrw6YWj8k3CDwiugYleuvTCkXnTCJgY4QhtFa4d1mASf8AiGj2b6J0jRTh6TX9MNm6azU9lTIxWIR6O1mp4z0Wj0bNJq1W4Rocj46ZFNHo2Meao8N0wRjgq24Q1CdMmRqtwgJvoQ13KNsFodARMjPOoWnjgo/fbjZvCITAxWoUhHvg+kitM2SasSZg2ac1ROXQ4Mm4KLGiily7FbthO6FP1c0Oj4I4l2Am7lpjopUvRKjzcIet8U6Ng8wmPRikTvXSp5qjWyNLqazyCxqf44p6ahBkTo1WoNUelZaLnp7yexMQIR1qtQi0Td7RcMJluFWqZQJMQHrLQl5hMtwq1TPT8VHsRjVImzhxVXSYbjJajTcKMiRGO8FahYdMQND5h3FtEo7SJ3ifxdAbndUwT7mi5YGKcR4W3Cg2bGPNTjUXcS5lMz1HpmBjzU8/RKG1itAp15qh0TA/c0XLRRB+54F/WZPpAR6Pp859OmQzPUemYYDQCm7DP0ShtYrQKxzWZvpKmRZMwa6LPo9IKRzqmX/T81HPcS5sMhyMNk/0Pe35KMDHCkc5ThTomeiYsFY3SJkarcFCcpGNq0qPliyZh1sRoFQYa4UjDxIhGbuqfT5kY51G59ZgY0ShM/fG0idEq1AhHGib4JCHeJBRM9G4Y3io0amJEo1Tcy5imRp8q1DAxdo1S0ShjYoQjjacKNUz80XJgYrQKxw69kVf+/t5v+knCceqPp02MOaqTrcJ1vKuuiSh5rnzRKGNifHWN5xaun3vq+o2b6AMJ0tEoY6JbhRpF9TXW/+AmxlN3x6k/njYZPYCUMnW+oKSc0ShjMvrVNZRp4w41MaJRmF6B0iajX11DmjZR0xH7qTuJSXx3rtK0t4ua6Gi0GC0HJqPnUZGmoYWVJBpJz5+SmkyeR0WYVjr4ezL9JGEmGmVNJs+jokyvbAsr9iELMhN95II50y1KkkQj+flTUpPJwzop03fclKtJKJpMfnUNYVpXRCOwa4Q+SSgxbXKej8n9P/BMeDSy2YcsyEysOSrsjDNH/ZGSMKmiEff8KamJtXOEzueoP1JSpgfUlK9JKJpY51GhJvUcFWFSRCPGIQte5s0tY7JJkmqOSv1UIWHaO7Kwos+fCpYzfyFj4rQK8SHzHeWqSZnwj7n5moTARAe+wkPmlEknGqXmp6CJbhUWHjKnTCgpxyELUhP9fIzqCTzlR0q1aWUFN9FNwmw0Ekxa51E5OqZfuIl/yILUpHVYp6P8SKk2qaIRYycsE40Ek1ar0FGuMITpDW7iHs2JmLTOo1IPmatNnUeUZPMPWZCaGEcuKJ7AU37/A2FSRCP2+VNyE+N0dryt5ij329UmvWgUZj8jZ02cVmHBcESYji2scjYJoYneZFENmatWTbVJLxrtK02McITOUa19Vq2ahEkrGl1l/4Zg0hkyVwc+pWmlg+8a5Y5GoklryHy1uOkflJS3SQhNjPOo8HC0WngtV0YjukmYjUaiSW+OquF66O+jwrTS2VPshPHPn0JMenNUq+9vBm1ffrUQ08r6xsavxyP818nayNckhCbGkQv4E3jRMuE4h5cnDbcFL5fEFHn2bt9s4pv/SeVsEkIT46tr2upxgoj1euvbVegLt6FgWoluuI3fD4rG9LzyRyPRxAhHoZL05AK3YdoUXaDO9y94wyldnGgkvLkJJsZX1zAP6xRvwydTcsN92GRPSzCahJ7w2yiayhwyT27Dj/PbMDbFN1znxx3xC5Qt/tGcmKn0IfP4NtxJbsOlzsb6V+YNl6p8o+VSE2fIPO/M0ew2/PfxWLFiowXnp9RNQolJ5zwqNavgvBEjGm0Lf0U0seao8pteF54LyzdaLjUx5qgKDpkXNOWcn5KZGOdRFRwyL2iiR8t9IRoBE+PIhYJP4BUzcZqE4ud+0cQZMi82P1rMxGmoiQFLNA3plm7BIfOCJjoa+eJ7uGhitAoLPoFXzFQgGgETZ+eoShNjtBwQwH9gnEdV7Am8YqYHaBJejtAklJmMfXVNMVPuJqHMRM9RFRwyL2ZizE+J0Qia6HAUjHZWHSf3tSpiGt7BGAH+Lx6LfwuY6FZhI/DD7setvK68pubxh9s9sMFCzU9JTbw5qqDlNk4uD/OwcpkmD1/XN8DTaVKTuBMmMfGHzD3fHfTev+a62CZ788+rvY4cxIlG0JRryDzw2v7009Yah8Uy2btfvu8hF2hWivOnUBOnVZh1tdzBNmPVoE3Dux/RBVJ4pKYQbG8AE+M8Ksnl8t2rb/HlUrjUJvvo8VZ9geZFNQllJsZX12CXq3G/o1g1FKbJw+8OeYEwUwv8c9Ck8UXOnu93x5/X5C7EFK0It/iKAIvcCZOZ6HCkqqDVbk8vDyWrhsxErggSk/gDQTSSmPSHzL1WeH3zXlw1RNPw7g29IsACP+weCKCJbhUyKlrkvdGnLSe1amRMu4+/NnJeIMzUAwJoYoQjpqvleqlVY2Ea3v3eK3CB5kXuhMlMpQ6Zx4v8x8/JbZiY7CTEwZPn2KU6fwo30a3CfBVdriBaNRxliGOX6vwp3ES3CvNXtGoM/luPbjg9kMwEo5HElDsc8SpY0vbExYhGEhPjq2uKVEnnWYIY0Ybve9DEOI/q/8nUgA0gaNIJR+ZNxGg5ZtILR6ZNwj8LmoRyE33kQo0m8Z8FTUK5STkCWrcJbCzfsEylhaPyTW/hpycYjWQmeo6qHtO7/cYyWPUk0UhmYhy5ULnp7dL+MgQ14PwUYjIRjnRMK+8QT1ySaCQzMeaoqjO9XWrgoIakSSg3MVqF1ZiiG07yG5Qt0CSUmxhzVBWYpCsCrJZkNkZiYpzObtiErgiSkrx+2X9jfOuWQRPzAs1KFvekJiNHLrBM1IoAShaNpCYj4Yg0cVYEaJJEI6mJbhWWbnqX9wLNCzYJEZORIxdwU54VQSzYJERM/VAyS61biCnXiiBW0Aol0Uhqsg56jRAZfS9cElPuFSFTnh8Oxgey0U2pKaphfxrIRt/LMunccLM9w5M+NiuMmay4zTXulne50iatG67htcOrM9XTEApTcrnO7/1yLteTSe8Ceb7r3ZwTbVTCFNfR6VVL8cBMHpPqUwNZcU9hdEo/DcExRdU8uBmEvhZreUnzAoXXY+YwN88U1+R06urchloXyL9AVwQdkxV3WsbXbtmLPOHxXD9aEfK8ynymuIb9C6/URV5R8VsQuSKUYIrr6KzrtrVXDXXFN9yUsyKUZIqqeR6tGi1Tt2G0ZHe5K0J5prgmpyOtVUNe0QVq5VkRyjVFZR/0BiWuGoHXdrs5V4TSTXFN+ielRMMoZQ+2z3UuUHkmK46GZ92wrXG5oiU7ZGUETpVjiqt5vl3wciXDjdJPDcWqPFNcR2cjP180nH1qKOkCzatck5VEw33mJ5RoRQj1VwRYpZvimvSnZNZI5v3yZwROGTFZSTTEP1BGK0J7dJr7EVBumTLFNezLPlBGIa7ROzBygeZl0hTX0dlVatWIP9ZNS14RYJk2Wc8fKKML1B2r9hHKqgpMcU36F0U+NRSr/wELEfuAhaM0PwAAAABJRU5ErkJggg==;" vertex="1" parent="D1Pnn4vapH3yF3k0A5Gj-25">
          <mxGeometry x="17.1400000000001" y="15.359999999999985" width="61" height="69.09" as="geometry" />
        </mxCell>
        <mxCell id="D1Pnn4vapH3yF3k0A5Gj-28" value="" style="shape=image;verticalLabelPosition=bottom;labelBackgroundColor=default;verticalAlign=top;aspect=fixed;imageAspect=0;image=data:image/jpeg,/9j/4AAQSkZJRgABAQAAAQABAAD/2wCEAAkGBxASEBAQEhIQDxIQEBEQEBIVExAQERESGBIWFxUSFxUYHiggGBolHRUVITEiJSkrLi4uFx8zODMsNygtLisBCgoKDg0OGxAQGzEfHSYtLSstLS4xMC0tKy0tLS43LS0uLSstLTUtLS0tLy0tLS0rKzUtLS0tLS0tLS0tLS0tLf/AABEIAO4A1AMBEQACEQEDEQH/xAAcAAEAAQUBAQAAAAAAAAAAAAAAAQIEBQYHAwj/xABIEAABAwIBBQoJCQgDAQEAAAABAAIDBBEFEiFRUpEGBzFTcYGSocHRExYiMkFhk7HCFCMzQlRigqKyFRckY3Kj0vBDZOHxNP/EABoBAQACAwEAAAAAAAAAAAAAAAAEBQECAwb/xAAxEQACAQIBBwwDAQEAAAAAAAAAAQIDEQQFITEyUWFxEhQVI0FSgZGhscHwEyLRM0L/2gAMAwEAAhEDEQA/AMJikeTUTs1J5WbJHDsXpabvBPciinrPi/ctluahAEAQBAEAQBAEAQBAEAQBAEAQBAEAQBAEAQBAEAQG67hsGE9PI+17TuZwfy4z2qBi6vImlu/pMw0OVF8fhGA3XRZNfWN/7Ejukcv4lJw7vSi9xHrK1SS3mJXY5hAEAQBAEAQBAEAQBAEAQBAEAQBAEAQBAEAQBAEAQHYd6aG1AXa9RI7YGs+FUuUHerbcWmCXV33mhb40WTidT97wThzwsv1gqwwbvRj4+5CxStVf3sNbUo4BAEAQBAEAQBAEAQBAEBmcOpo3RNJa0k5VyR94rVnCcmpFz8ii1G7Fi5py3tHyKLUbsS45b2j5FFqN2Jcct7R8ii1G7EuOW9o+RRajdiXHLe0fIotRuxLjlvaPkUWo3Ylxy3tHyKLUbsS45b2j5FFqN2Jcct7SH0kQBOQ3MCeD1JcypPaa6tySSgO3b20WThlN97wrtsz7dVlQ413rPw9i3wqtSX3tNC32I7YgDr00TvzyN+FWOT31Pi/ghYz/AF8F8mnKaRQgCAIAgCAIAgCAIAgCAz+F/Qs/F+orVkaprF0sGoQBAEAQBAEAQBAeVWbRvP3He5EZjpRra3JQQHfNxseTh9ENNNE7pMDu1eexLvWlxZc4f/KPBGh78UVqilfrQvb0Xg/GrDJr/SS3kPHL9o8Dn6sSEEAQBAEAQBAEAQBAEAQGfwv6Fn4v1FasjVNYulg1CAIAgCAIAgCAIC2xI2ifyAbSAiNoaxr63JJS85jyIjD0H0dhkORBCzUijbsaAvMzd5Nl9FWSRoG/JF5FG/Q6ZnSDD8CscmvPJcCFjlmizmStSvCAID3oIRJLFGSWiSWOMuGctDnBt+a61nJxi5LsTZmKvJJ7Tef3dx/aJOg3vVX0lLulhzGPeJ/d3H9ok6De9Okpd0cxj3if3dR/aJOg3vTpKXdHMY94fu5j+0SdBvenSUu6OYx7xP7uI/tEnQb3p0lLujmMe8T+7iL7RJ0G96dJS7o5jHvD928X2iToN706Sl3RzGPeJ/dtF9ok6De9Okpd0cxj3jJ0e4ONrGt8O82v9RuknSsdIy7pzlk2Ld+Ue/iOzj39BvesdIy7pjoyPeZPiNHx7+g3vTpGXdHRke8T4ix8e/oN706Rl3R0ZHvMeIkfHv6De9OkZd0dGR7xPiJHx7+g3vWekJd0dGR7xPiHHx7+g3vTpCXdHRke8PEJnHv6De9OkJd0dGR7xgN0+BtpHRNa8yeEDibgC1iLcHKdil4au6ybatYhYrDqi0k73MIpJFLPFz80fW5o679iyjenrGCWxIK4Ist7Ga72s6RA7VhuybCV3Y+kl5gvzRd9+K9HC7Vqm7DHIPfZWGTn1jW75RCxy/RPf/TkiuCtCAICqKXJc1+o5rthv2LDV1YJ2dzugN8+nOvLnoCQgJQFSAkICUMEhDJUEMFzDwD/AH0oD0CAkICVkFSAkICUBUEBz3fDkvUxt1YAecvd3BW+AXVt7ylyk+sS3GrKcV5j8bPkNGl/YVlHSlpMMtjuZDc5FlVlI3TVQX5PCNJ6gudZ2pye5+xvTV5xW9H0KvNl4anvox3w2U6kkLtsrW/EpmBfXLx9iLjP8n4e5xZXhVBAEBBCGDteDTZdNTv14Ync5YLrzVaPJqSW9l7SlyoJ7i9C5nQlAVICQgJCGCQhkqCGC5h4B/vpQHoEBIQErIKkBIQEoCoIDmW7eS9bINRsbfyB3xK6wStRXiUOPd673WMCpZDMXjh8wf1H3LKOtLtMUtjsZ7cFHlYlRj+Y53Rie7sUfFu1GX3tO2H/ANY/exnd158uTA7u4srDasaIi/oEO+FSMK7Vo8TjiV1UuBwhegKYIAgCA6Dud3XUkVLDFK57XxtLSAx7hYOOTnA0WVRiMHVnUcorM95Y0cVTjTUZaVuMl48UHGSeyk7lx5hW2eqOvPKW30ZPjxQcZJ7KTuTmFbZ6oc8pbfRk+PNBxknspO5OYV9nqhzylt9GT49UHGSeyk7k5hX2eqHPKW30ZPj1QcZJ7KTuTmFbZ6oxzylt9GT494fxknspO5OYVtnqhzylt9GPHzD+Mk9lJ3LPMK+z1Q57R2+jNhw7F4pGBzRKAc4y43xk59Ds6jTpuDs7e53hUUtBdfLWaTsK0Nyfl0ek7CgJ+XR6TsKAn5fHpOwoCf2hHpOwoCf2hHpOwoCibGIGDKe/IGkiy2jCUnaKuaTnGCvJ2OZ49VtlqZpWm7Xv8k2IuA0AGx5Fe0IOFNRZ57ETU6spLQY9djiYjGz5TBoaTtP/AItkdqWgxqydTbN66LKxJh1IpX9Qb8ah492o+KJOEXW+DO0qjLYx+6GHLpKpmvTzN2xuC6UXapF70aVFeDW4+eQV6QoiUMhAEAQBAEAQBAelNTvkcGRsdI88DWtLncth6FiUlFXbsjKTbss7Nwwbe7qJLOqHtpm6otJKdnkt2nkUGrlCEc0Ff2JVPBzetm9ze8E3L0VLYxxB0g/5ZLSSX0gnM38ICrquKqVNLzbETadCnDQs+0uK03kceT9IXA7HggCAIAgLStxGGLz3gHVGd2wcHOutOhUqaqONXEU6Ws/DtMDW7pXnNE3IGsbOds4B1qwp4CKzzdytq5Rk80Fb3MLNM55ynOLjpJuVNjFRVoqxXynKTvJ3Z5rYwEBhMZPznI0DrJ7VsjvT0FisnQ3regivWTv1aYt6UjD8Kr8ovq0t5MwS/dvcdbVOWZTKzKaWngcCDzhZTsD5ra0jMeEZjyr0559ZkShkIAgCAICEBksLwKpqLeCjJbxjvIj6R4ea641a9OnrP+nSnSnPVRuWFbgIm2dUSGU6jLsZyF3nHmyVX1coSeaCtxJkMEv+3c3Chp4oW5EUbIm6GgC/rJ9J9ZUCc5Td5O5MjCMVaKsXHhlobDwyA8JTck8nuWQUoCCgMVW4/DHmafCu0N83ndwbLqXTwdSenMt/8IdXHUoZlne7+mArcdnkuAfBt0NzHndw+5T6eEpw3veVtXG1Z6HZbv6YtSiIEAQBAEBgMUPzrvVYflC2RIp6parJudH3movKrX/dgaNshPYqzKTzRXH4J2BWeT4fJ05VRYhAfOuMR5NTUs1KiZuyVw7F6Wm7wi9y9iinmk+L9y0W5qEAQEtaSQACScwABJJ0ADhR5gbDhe42qlsXgU7dL87+Zgz7SFDq46nDRnf3tJNPCVJacxt+F7kqWGxLfDPH1pLOF/UzzRsJ9arquMqz7bLcTaeFpx3veZ66ikgXKAXKAXKAXKAiaoYxuU9zWDSSB/8AVtGEpu0Vc1nOMFeTsYOt3UMGaJuWdZ12t2cJ6lOp4BvPN2K6rlGKzU1fezAVmIyy+e8kavA0cwU+nRhT1UV1WvUq6z/ha3XU4i6AXQC6AXQBDIQGu1xvK/8AqI2ZlsiTDQjwWTY6rvOx/wANUv01Ab0YmH41UZSf7xW75LHA6r4/B0BVxOCA4HuziycQrG/z3O6QD/iXocM70Y8Clrq1WXEwy7nIIAgNx3siPDziwuYmkaRZ9jbpBV2UtSPEm4HWfA6KAFTlmSANCAnJGgICQ0aAhgqyRoCAkMGgbEBIYNA2BAeoo4nAF0cbjpLGk8OkhbqclmTNXTi87SZP7Pg4mH2bO5Z/LPvPzMfih3V5EjD4OJh9mzuT8s+8/Mx+KHdXkVDD4OJh9mzuT8s+8/Mfih3V5E/s6DiYfZs7k/LPa/Mfih3V5E/s6DiYfZs7k/LPa/Mfip91eRP7Ng4mH2bO5Pyz2vzH4qfdXkWG6CigZS1DhFECIX2IYwEEiwINvWu1Cc3VirvSccTTgqUmktDOXK8PPhAazObucdLnHrW5KWgoQydj3qIrYeHa88rthDPhVJj313gi1wa6rxZuShEoIDiG+TFk4nUHXET/AO01vwlX2Cd6K8fcqMUrVWaypRHCAIDaN7h9q0jWp5B+dh7FBygup8V8krBf6+D+DpwVIWxIQFQQFQQEhASEMFQQFzDwD/fSgPQICQgKggJCyCoICQgMLuzfahm9fg27ZGhScGr1l97CJjXahLw9zl6vCgBKA1ZbksIDuO91Fk4ZSjSJH9KV7u1UGMd60vvYW+FVqSNkUYkBAce32o7V7TrUsZ5xJIOwK6ye+q8f4VWMXW+H9NLU4ihAEBn9wclq+EazZW/23HsUTHK9B+HuSMI7VV4nVwqEuCQgKggKggJCAkIYKggLmHgH++lAegQEhAVBASFkFQQEhAa5u+ktSW1pWN97vhUzAq9XwIOUHajbejnCuSjPOodZjzoa73IZWk1lbkoIDv8AuRiyaCibwfwsJPKYwT7153EO9WXFl1QVqceCMuuJ1CA5ZvxxWmpH60Urei5h+NW2TX+slwK3Ha0fH4OeqyIQQBAe1FVvhkbLGcl7CS02BtcEHMc3AStZwU4uMtBmMnF8paTM+Odfxo9nF/io3MaGz1Z353V2k+OlfxrfZRf4pzGhs9WOd1dpPjrX8a32UXcnMaOz1ZnndXaT471/Gt9lF3JzGjs9RzurtJ8eK/jGeyj7ljmNHZ6jndXaSN3NfxjPZR9ycxo7PUc7q7SfHrEOMj9kxOYUdnqOd1TM4fuxrXRtJey5yv8AjZrELV4Gjs9TjPHVk7X9C58bqzXZ0GpzGjs9TXpCttXkPG+s1mezanMaOz1M9IVtq8ifHCs1o/ZtWOY0dnqOkK27yN6wKpfLTRSPsXPblGwsOE2zcllV14KFRxWgt8PNzpqUtLMgFyOxIQGp74z/AJmFumbK2McPiVhk9fu3uK3Kb/SK3/BoKtSnPCvNon/0kbcyI2hrI11bkkpecx5Csow9B9IUMWRFGzUjY3Y0BeYk7tsv4qyse61MhAc635IvmqR+rJIzpNB+BWWTX+0kQMcs0WcvVsV4QBAEBTlDSEsYuhlDSFmwuhlDSEsxdEgrAuShkIAgM/hf0LPxfqK1ZGqaxdLBqEAQHV9zzbUlMP5MZ2tB7V5/EPrZcWejw3+MOCMkFyO5IQGk75D89M31Sn9AHarPJy1nw+Spym9Vcfg0tWRVlpip+ad6y0fmCyjenrGBWxIPWjiy5Yma8jGdJwHatZO0WzMVdpH0gvMl8EAQGkb7sV6GN2pUsPMWSN7Qp+T3aq1uIeNV6ae85CrkrAgCAh3AUMPQdroI43RROyGeVGx3mt9LQV5qbak1ftL6KTimXIp49RnRateU9ptyVsJFNHqM6LU5T2jko57vmwNbNTuADcqJwzADzX39H9StsnSbhJPaVuOSUlwNNViQggCAz+F/Qs/F+orVkaprF0sGoQAoYOvYWzJggbqwxjYwLztV3nJ72enpK1OK3IuwtDoSEBoG+LJ/ERN0Q32vP+Ktsnr9G95TZSfWJbjVFPK4sMaPzY9bx7iso6UtJhVsdzJ7l4suuo2/9mE8zXhx9y5V3alJ7mdKSvUit6PoJecLsIAgNV3zo74ZOdV8Dv7zB7iVLwLtWXj7EbFrqn4e5xRXpUhAEAQHZNzD8qipT/IjGxoHYvO4lWrS4suqDvSjwRkwuB2KggNE30481I/QZm7fBke4q0ya9ZcPkr8ctV8TQValeEAQGfwv6Fn4v1FasjVNYulg1CAh3AeREYeg7NC2zWjQ0DYF5tu7PVJWR6BYMkhAc33ePvWEasUbfe74lc4FWpeJRZQd63gjXVMIRjccPksHrJ2D/wBWUdaWkxC2OxsG99HlYnSDQ+R2yGQ+8BRsW7UZfe1HbDK9WP3sZ3VUBchAEBg928WVh1YNED39Hyuxd8K7Vo8TjiP8pcDgy9CUwQBAEB1ncPJlUFP6vCN2SvA6rKgxqtXl4exb4V3pL72meCikkqCA1vd3g81TDGIWh745MotLmtJaWEGxOa97Kbgq0aU3ytDRFxVKVSK5PYc2rsJqIfpYZYwPrFpyOkM3WriFanPVaZWSpzjrKxZAroaEoDP4X9Cz8X6itWRqmsXSwanvS0csptHG+T+lpIHKeALSdSMNZ2N4U5z1VcztDuNqX2L8iEekE5Ttjc3Wos8dTWrnJdPJ9WWtm+/e06GqcvCoICQgOXbr33rqj1Fg2RtHerzCK1GP3tPPYx3ry8PZGGUkjGJxw52D1OPu7llHal2mMWx1Nv3q4srEQdSCV/W1vxKFj3aj4ok4P/XwZ2ZUhbBAEBZY3Dl0tSzXglZtYQt6TtNPejSorxa3Hzs05gvSlEiUMhAEB1De6kvRAak0jdtnfEqPKCtW8EWuCfVeLNnChEsqCAqCAkIDHV25+jmv4SCIk8Lg3If0m2K7QxFWGrJnKdCnPSjX63e6p3XMUssJ9ANpWDmNndalwyjNayT9CNLAweq7ev3zLnCNweSxrZZ8oC/mNySfKJ4XXtsW08o92PmcVk27vKXkbFR7nKSO1og86X/OHYcw5gos8VVl224ZiVDB0YaI345zLtAAsMwHABmCjkkqCwCQsgqCAkIDkmPyZVVUn+dINjiOxegoK1KPBHm8Q71ZPeywXU4mFxo/OAaGD3lbI70tBYLJ0N83n4r1VQ/Vpw3pSA/Aq/KL/RLeTMCv3b3HWVTlmEAQEObcEaRZAfNbmZJLTwtJaeUZl6i985QWtmCAIAgOi72L/wCHnbonvtjb/iqfKS/eL3fJZYF/o+PwbkFXE4qCAkICpASEMFQQFzDwD/fSgPQICQgKggJCyCoICQgON1j8qWR2tI921xK9HBWiluPLzd5N72eK2NTBYsfnT6g0dV+1bIkU9Us1k3OlbzUX/wC1+nwDBzeEJ94VXlJ6q4/BPwK1nwOlqrLAIAgCA+d8cjyaqqbq1M7dkrgvSUnenF7l7FFNWm+L9yyXQ1CAIC8w3FZ6ckwyOjvbKAsWutwXabgrnUowqa6ubwqThquxs1BvgzNsJomSjWYTG7ZnB6lCnk6D1Hb1JUMdJayubJh+7WiksC90Dj6JG5I6Qu3aVDnga0dCvwJMMXSlpduJsMEzHgOY5r2ngc0hzTzhRHFp2eYkppq6PULBkkIYKggLmHgH++lAegQEhAVBAWlZitPD9JKxh1b3d0Rn6l1hRnPVVzlUr06es7GCrd3ELbiKN8p0m0be09SlwwE3rO3qQ6mUoLUV/QwNbuwq35mubCNDG5+k652WUuGCpR05yFUx9aWjNwNfUshhAa9iJvK/ltsAC2RJhqot1k2Osbz0f8LUO1qkt5hFGfiKp8ovrEt3yyywK/R8fhG+qvJoQBAEBwXdvFk4jWD+bldJrXfEvQ4V3ox4FLiM1WRhF3OQQBAEAQBAelNUyRuyo3vjdpY5zDtC1lGMlaSuZi3HOnY2LD93NbHYOcyduh7bOt6nNt13USeApS0ZiRDF1I6c5suH74dO6wmjkhPpI+dZ1Wd1KJPJ01qu/p98yTDHQesrev3yNmw/F6af6KaOQ6ocMscrTnGxQ50akNZWJUKsJ6ruZZjgG3JAA4STYDPpXNK+g3btnZjKzdPSR/8AJ4Q6Ixl/m83rUmGEqy7LcSLPG0Ydt+GcwdZu4ebiKJrdDnkuPRFrbSpUMnr/AKfkQqmUn/xHz+/Jgq3HaqXz5n21WnwbeSzbX51Lhh6UNCIdTFVZ6ZfHsY1dyOEMhAEAQGtVRu95++73rdEmOhHmhsdm3q4rYcw68sztj8n4VSY99c+CLXB/5eZt6hEoIAgCA4nvmxZOJTHXZC/+2G/Cr3Au9FeJUYtWqvwNWUsjhAEAQBAEAQBAEBHZwepAbJQ1D3wx5b3yWyrZTnPt5R4Llc+TGLzKxwqyblndz2WTmEAQBAEAQBASgNWcbknSSVuSiEMndN76LJw2kGljn9KRzu1UGLd60i4wytSibCox3CAIAgOQb7kVq6N2tSs2iSS/vCucnvqmt/8ACrxq6xPcaSp5ECAIAgCAIAgCAIAgM/hf0LPxfqK1ZGqaxdLBqEAQBACeZAW0tfE36wPqHlJY2UJMtJcY1W87j2DvWbG6pbS0lxCV31rDQM3XwrNjdQii1WTchAfQW5eLIoaNvpFNCDy+Dbdecru9WT3su6KtTityMouR0CAIAgOab79DI59LKyOR7Wsma9zWuc1liwjKIHk3u7h0FWmTppKSb2FfjYtuLS2/BzQFWhXkoZCAIAgCAIAgCAIDP4X9Cz8X6itWRqmsXSwanjLVRt4XAerhOwJYyotlpLi7R5rS7l8kLNjdUn2lpLikh4LN5Bn2lZsbqmi0kkc7ziXcpJWTdJIpQyEAQBAVw08kpLImPldbzWNdI7Y0LDko55Ows5ZlnPo6miyWMZqta3YLLzLd3cvkrI9FgyEAQBAEBjMS3PUdRczU8TyfrZIa/pts7rXWFepDVZznShPWRq2I719K65hllgPoBtMwcxs78ylwyjNayT9PvkRpYKD1Xb1++Zq+I721fHcx+CqB6Ml2Q/ovsPzFS4Y+lLTmI8sHUWjP9+9prFfhs8BtNFLDntd7HNaeRxzHmKlQqRnqu5HlCUdZWLRbmpKAIAgCAIC7ixB7WBjbC18/Cc5J7Vixo4Ju7PGWpe7znE+q9hsWbGVFLQeKGxKAIAgDRchozk5gBnJ5B6UG4zuHbjsQmsW072NP1pLQjls7yjzAqPPFUoaZeWc7Rw9SWheeY2jDt6t5saioa3S2Jpcem636VEnlFf8AEfP78kiOBf8A0/L78G0YduBw6KxMRncPrSuMl/wZmdSizxtaXbbgSI4SlHsvxNkp4GMaGsa2No4GtaGtHMFFbbd2SEktB6LBkIAgCAIAgCAIAgIc0EWIBB4Qc4KAwOI7jMPmuXU7GOP1o7wuvpORYHnupEMVVhol55zhPDUpaV8Gr4jvVsOeCoc37srQ8cmU21thUuGUn/1HyI8sCv8Al+Zq+I7gsRhufBCZo+tE4P8AymztgUuGNoy7bcSPLC1Y9l+BrlRC+N2RI18btV7XMdsOdSU01dZyO1bM8xQsgIAgCAglDBksOwCsnt4GnleDwOychh/G6zetcp16cNaSOkaU5aqNpw7ewq32M0sUA0C8z+cCw6yok8o01qpv0JMcFN6zt6m0Ydva0MdjJ4WoP33ZDb+prLZuUlRZ4+rLRm+7yRHB01pzm0UGGU8AtDDFCPTkMa2/KRwqJOpKes7kmMIx1VYu1obBAEAQBAEAQBAEAQBAEAQBAEAQBAeNTSxyNyJGMkaeFr2te3YVmMnF3TsYcU1Zmt4jvfYdLciN0Dj6YnFo6Bu3qUqGOrR7b8SPLCUpdluBquKb10rQXQVDHgZ8mVrmED+pt77ApdPKMXmlHyI08E1qvz+/BgsD3GVFU57WvhYI3FryS8nNqgNz7QpFXFwprOmcqeGnN9huWHb11O2xnmlmPpa0CFh97usKFPKM3qq3qSo4KK1nf0Npw3c1RU9jFTxNcOB5blydN13daiTxFSetIkQo04aEZZcTqEAQBAEAQBAEAQBAEB//2Q==;" vertex="1" parent="D1Pnn4vapH3yF3k0A5Gj-25">
          <mxGeometry x="125.13999999999999" y="15.360000000000014" width="62.36" height="70" as="geometry" />
        </mxCell>
        <mxCell id="D1Pnn4vapH3yF3k0A5Gj-29" value="" style="shape=image;verticalLabelPosition=bottom;labelBackgroundColor=default;verticalAlign=top;aspect=fixed;imageAspect=0;image=data:image/png,iVBORw0KGgoAAAANSUhEUgAAAgAAAAIACAYAAAD0eNT6AAAACXBIWXMAAAsTAAALEwEAmpwYAAAgAElEQVR4nO3dd5i1VXX38X3TBBFFLFgQBRFEBEVQLAiiBoiAQlQidswrFuwlESGxS4IFFCtKAEVBULAhIgoiXRSQYovG+Bp7N/a232ufCa+PDzPPc2bmzKz7Puvzva7fBeg/c9b57rXXuWspAAAAAAAAAAAAAAAAAAAAAAAAAAAAAAAAAAAAAAAAAAAAAAAAAAAAAAAAAAAAAAAAAAAAAAAAAAAAAAAAAAAAAAAAAAAAAAAAAAAAAAAAAAAAAAAAAAAAAAAAAAAAAAAAAAAAAAAAAAAAAAAAAAAAAAAAAAAAAAAAAAAAAAAAAAAAAAAAAAAAAAAAAAAAAAAAAAAAAAAAAAAAAAAAAAAAAAAAAAAAAAAAAAAAAAAAAAAAAAAAAAAAAAAAAAAAAICJUL9YqqgBBzjAgXwOFOQmWkBRAw5wgAMGAARg4Wm+HOAAB3I6UJCbaAFFDTjAAQ4YABCAhaf5coADHMjpQEFuogUUNeAABzhgAEAAFp7mywEOcCCnAwW5iRZQ1IADHOCAAQABWHiaLwc4wIGcDhTkJlpAUQMOcIADBgAEYOFpvhzgAAdyOlCQm2gBRQ04wAEOGAAQgIWn+XKAAxzI6UBBbqIFFDXgAAc4YABAABae5ssBDnAgpwMFuYkWUNSAAxzggAEABgCNwGbAAQ5wwBEALAeajWbDAQ5wIKcDBbmJFlDUgAMc4IABAAFYeJovBzjAgZwOFOQmWkBRAw5wgAMGAARg4Wm+HOAAB3I6UJCbaAFFDTjAAQ4YABCAhaf5coADHMjpQEFuogUUNeAABzhgAEAAFp7mywEOcCCnAwW5iRZQ1IADHOCAAQABWHiaLwc4wIGcDhTkJlpAUQMOcIADBgAEYOFpvhzgAAdyOlCQm2gBRQ04wAEOGAAQgIWn+XKAAxzI6YBNNznRAooacIADHDAAIAALT/PlAAc4kNOBgtxECyhqwAEOcMAAgAAsPM2XAxzgQE4HCnITLaCoAQc4wAEDAAKw8DRfDnCAAzkdKMhNtICiBhzgAAcMAAjAwtN8OcABDuR0oCA30QKKGnCAAxwwACAAC0/z5QAHOJDTgYLcRAsoasABDnDAAIAALDzNlwMc4EBOBwpyEy2gqAEHOMABAwACsPA0Xw5wgAM5HSjITbSAogYc4AAHDAAIwMLTfDnAAQ7kdMCmm5xoAUUNOMABDhgAEICFp/lygAMcyOlAQW6iBRQ14AAHOGAAQAAWnubLAQ5wIKcDBbmJFlDUgAMc4IABAAFYeJovBzjAgZwOFOQmWkBRAw5wgAMGAARg4Wm+HOAAB3I6UJCbaAFFDTjAAQ4YABCAhaf5coADHMjpQEFuogUUNeAABzhgAEAAFp7mywEOcCCnAwW5iRZQ1IADHOCAAQABWHiaLwc4wIGcDhTkJlpAUQMOcIADBgAEYOFpvhzgAAdyOmDTTU60gKIGHOAABwwACMDC03w5wAEO5HSgIDfRAooacIADHDAAIAALT/PlAAc4kNOBgtxECyhqwAEOcMAAgAAsPM2XAxzgQE4HCnITLaCoAQc4wAEDAAKw8DRfDnCAAzkdKMhNtICiBhzgAAcMAAjAwtN8OcABDuR0oCA30QKKGnCAAxwwACAAC0/z5QAHOJDTgYLcRAsoasABDnDAAIAALDzNlwMc4EBOBwpyEy2gqAEHOMABAwACsPA0Xw5wgAM5HbDpJidaQFEDDnCAAwYABGDhab4c4AAHcjpQkJtoAUUNOMABDhgAEICFp/lygAMcyOlAQW6iBRQ14AAHOGAAQAAWnubLAQ5wIKcDBbmJFlDUgAMc4IABAAFYeJovBzjAgZwOFOQmWkBRAw5wgAMGAARg4Wm+HOAAB3I6UJCbaAFFDTjAAQ4YABCAhaf5coADHMjpQEFuogUUNeAABzhgAEAAFp7mywEOcCCnAwW5iRZQ1IADHOCAAQABWHiaLwc4wIGcDth0kxMtoKgBBzjAAQMAArDwNF8OcIADOR0oyE20gKIGHOAABwwACMDC03w5wAEO5HSgIDfRAooacIADHDAAIAALT/PlAAc4kNOBgtxECyhqwAEOcMAAgAAsPM2XAxzgQE4HCnITLaCoAQc4wAEDAAKw8DRfDnCAAzkdKMhNtICiBhzgAAcMAAjAwtN8OcABDuR0oCA30QKKGnCAAxwwACAAC0/z5QAHOJDTgYLcRAsoasABDnDAAIAALDzNlwMc4EBOB2y6yYkWUNSAAxzggAEAAVh4mi8HOMCBnA4U5CZaQFEDDnCAAwYABGDhab4c4AAHcjpQkJtoAUUNOMABDhgAEICFp/lygAMcyOlAQW6iBRQ14AAHOGAAQAAWnubLAQ5wIKcDBbmJFlDUgAMc4IABAAFYeJovBzjAgZwOFOQmWkBRAw5wgAMGAARg4Wm+HOAAB3I6UJCbaAFFDTjAAQ4YABCAhaf5coADHMjpQEFuogUUNeAABzhgAEAAFp7mywEOcCCnAzbd5EQLKGrAAQ5wwACAACw8zZcDHOBATgcKchMtoKgBBzjAAQMAArDwNF8OcIADOR0oyE20gKIGHOAABwwACMDC03w5wAEO5HSgIDfRAooacIADHDAAIAALT/PlAAc4kNOBgtxECyhqwAEOcMAAgAAsPM2XAxzgQE4HCnITLaCoAQc4wAEDAAKw8DRfDnCAAzkdKMhNtICiBhzgAAcMAAjAwtN8OcABDuR0oCA30QKKGnCAAxwwACAAC0/z5QAHOJDTAZtucqIFFDXgAAc4YABAABae5ssBDnAgpwMFuYkWUNSAAxzggAEAAVh4mi8HOMCBnA4U5CZaQFEDDnCAAwYABGDhab4c4AAHcjpQkJtoAUUNOMABDhgAEICFp/lygAMcyOlAQW6iBRQ14AAHOGAAQAAWnubLAQ5wIKcDBbmJFlDUgAMc4IABAAFYeJovBzjAgZwOFOQmWkBRAw5wgAMGAARg4Wm+HOAAB3I6UJCbaAFFDTjAAQ4YABCAhaf5coADHMjpgE03OdECihpwgAMcMAAgAAtP8+UABziQ04GC3EQLKGrAAQ5wwACAACw8zZcDHOBATgcKchMtoKgBBzjAAQMAArDwNF8OcIADOR0oyE20gKIGHOAABwwACMDC03w5wAEO5HSgIDfRAooacIADHDAAIAALT/PlAAc4kNOBgtxECyhqMI4D3zqn1FOO7E9+dJHvbbbv6Xvnl/r1s0q98vRSLzul1LOPLfWMt83UrP2z/XfLRe8t9ctnlPqDC0r949VqaQBACDZgzWcIDrQNpJSuN7n4pPiaROUnl5R65jGlHv7cUp/6913dc+eubr15V9dbd+H1vPlNu7rDNl19+O5dfd4Tu/qOl88MEL++PP7zTnMKchMtoKjBOA4YAOI8+eqZpR59aKmP3aerW96hq123fIPWmmt2dZstuvq0R3X15NeV+t3PWC8GAEwMG7CGMgQHDADLV+s/X1vqpe8r9ZCDunqXO8YfbVk597hLV1/57FK/+NF4L4eegtxECyhqMI4DBoCl9+Tbny71JQeXusnG8Zv8uNl2y250dOKnl1pHBgDMGxuwxjEEBwwAS1fbc44r9RG7d3XtteI39IXmhut29R8e3o1OV0S7OqQU5CZaQFGDcRwwAEzek3OPL3Wn7eI370lfM/C4h3ajOwz0FgMAVoNFolEMwQEDwORqec2HS33kHvGb9VJmrTW7etD+nds1HQHAqohu7KIGBoDlceDnny2jTXGNNeI36OXKLTfq6nGvssbmcqIgNzZgzWEIDjgCsLj6tYfvbHrr+A05Knvs3NXvnBfvcd9SkJtoAUUNDABL58AvPz/zsJ7lvHe/z0cD2tMI9RwDAP4Xi0FDGIIDjgAs7La+He8av/H2KW0Qarc6tmcdRDvdhxTkJlpAUQMDwOQdaA/yufUt4jfcvuaAvTqPGf6iASA9NmAb8BAccARgfrVazHP5s2SXHbvRhZHRbkemIDfRAooaGAAm58D7jyqjW+CiN9ehpL2A6IcX5l2DBbmJFlDUwAAwGQdOe2MZ9NP8orLdVl398cU512FBbqIFFDUwACzegY+8pdR11o7fTIea+92jq79K+OrhgtxECyhqYABYnANXfbDU9deL30SHnr127eofrs61HgtyEy2gqIEBYOEOtLfgbbFp/OY5LXn6AV2qnlSQm2gBRQ0MAAtzoN3Lvt+D4zfNacs7X5FnTRbkJlpAUQMDwMIcOOIFpRcb5rRl3Rt09XOn5liXBbmJFlDUwAAwfwe+flapN3Sv/5INAXe4bY5nBBTkJlpAUQMDwPwdaBesRf9SnvY8Yd/pvx6gIDfRAooaGADm58CJRzj0v1xDQHuq4jT3qILcRAsoamAAGN+B315Z6m03jv91nCW32KirP7hgetdoQW6iBRQ1MACM78Bb/sWv/+UeAg7cb3pPBRTkJlpAUQMDwHgO/P6qMro4LfpXccZXCJ97/HSu04LcRAsoamAAGM+Bdn969GaYNdts0Y0GsGnrVwW5iRZQ1MAAMJ4Dd9sqfiPMmDXWmHlC4DS+K6AgN9ECihoYAFbvwNUf8us/YvO/0+27es5x07tGC3ITLaCogQFg9Q48/8D4X8Lzya1v0dV7bdvVh+zS1cc/rKsH7d/VR+/d1X126+qu9+zqrW4e/zeuKu3Nii85eOaui2nuUQW5iRZQ1MAAsGoH2hvqhrBhPnz3rr7niFK/c954Tn/3M6V+/JhSX3BgVzfp0a2N992+q9d+JMe6LMhNtICiBgaAVTvQrkCP3hTnSnsc8Yue3NXvnb84j/90TamfPqHUh+4W91lufKOuvumwmb8lS18qyE20gKIGBoBVO/AvT4/f6GfLbjt19RtnT97f895VRqcPlvOztFMT3zon31osyE20gKIGBoBVO7DLjvGb/cp5zuO7+serl87d9iv8pQeX0RX4S/k5Nr5ZV9/3+rxrsCA30QKKGhgA5nbg15eXeoN14jf8FfPig5bvyXgfe3upG91kaR7u86S/6+pPLsm9/gpyEy2gqME4DrSXskRvfCvm4pNynv/ff8+u/vna5b8F8mYbTu4zbLFpVz81xbf2zScFuYkWUNRgHAeyDgBHH9qfz93uRPjppTG+XnHa4o8ErLVmV5/12K7+8vPWnAEAI2zAmsEQHMg6ALQNK/qzXpfjXhXrwIXvWfjpkB226UZDRLTHfUtBbqIFFDUYx4GsA8CeO8d/1pZ2n34fnoXfbtOb722Kr33hzLMUov/2PqYgN9ECihqM40DWAWDz28V/1pZ2r39f1uoj9xjvb/6b+3b162fF/719TkFuogUUNRjHgawDwNprxX/WlvNP7I+nP/9sqZttMvff2i4YPOHw+L9zCCnITbSAogbjOJBxAPjNFf34zO2Wufa39GmtnvG22WvT3jfw/Qvi/76hpCA30QKKGozjQMYB4IcX9uMzt1/UfVynf/c3f/kbb3PLrp72xvi/aWgpyE20gKIG4ziQcQBoj9mN/pwt22zRzwGgPbq3Pb+/vWnwF5fF/z1DTEFuogUUNRjHgYwDwDUf7sdnvs/d+zkAXHeUJPpvGHIKchMtoKjBOA5kHADaE/CiP2fL9lv3dwAQAwAWgQWkiQzBgYwDQLuFLfpztmx6awPAtKYgN9ECihoYAGZ34Dvn9WMAaG/k++2VPJ3GXlWQm2gBRQ0MALM78LNL+zEAtFxyMk+nsVcV5CZaQFEDA8DsDvzuC/0ZAA5/Lk+nsVcV5CZaQFEDA8DcDrTb3KI3/5Ztt3QdwDT2qoLcRAsoamAAmNuBu94pfvO/Lp86jqvT1q8KchMtoKiBAWBuB/baNX7jvy47bdfVP13D12nqWQW5iRZQ1MAAMLcDTz8gfuNfMa/7R75OU88qyE20gKIGBoC5Hfi35/fnQsCW9nbCc4/n7LT0rYLcRAsoamAAmNuBjx/TrwGg5SYbdPWi9/J2GnpXQW6iBRQ1MADM7cCPLy6j1/FGb/orZ4P1u3rqUdwdev8qyE20gKIGBoBVO7DFpvEb/lxpb+L7/VUcHmofK8hNtICiBgaAVTtwwF7xG/2qcr97dPXaj/B4iL2sIDfRAooaGABW7cDbXtq/6wBmuzjw+Qd29ReX8XlIPa0gN9ECihoYAFbtwLc/3c/rAGbLbW7Z1eNfXeofr+b1EHpbQW6iBRQ1MACs3oH2EJ7ozX0+2WyTrr79paX+wSDQ6x5XkJtoAUUNDACrd+DVz+n/aYDZcqfbd/WEw4sLBXu6zgtyEy2gqIEBYPUO/MfHh3MaYLZssnE3eqjRTy/le596XkFuogUUNTAAjOfAHjvHb+SLzY1uOHPr4JfP4H0fel9BbqIFFDUwAIznwIffPMzTALNlzTW7ut+DvWEwuv8V5CZaQFEDA8B4DrQ38bWL66I370lnyzt09ahDSv2fz1kLBgAsKzZgTWcIDpxyZL9+/V58Ukwd3nRYv+owyWy4QVef98Sufu2seN+ypCA30QKKGozjgAFgpg7tsbt9fjTwJLLGGl3d+wFdPesdpf75WuvDAIAlwwaswQzBAQPAX2px8uum9yjAbLcRttMDv7o83sFpTEFuogUUNRjHAQPAX2rRfhXf867xm/Ny5uY37eqhT+lGT0XUMwwAmBAWk4YyBAcMAH9djytPL3WdteM35uVO+8wH7tfVL3003slpSEFuogUUNTAALMyBlz8zz6mAua4TiLoYc1pSkJtoAUUNDAALc6A9Z3+HbeI34+g86N5d/cy7rSMDAOaNDVjjGIIDTgHMXpevfKyMbp+L3oT7kN3v19VLTo53dUgpyE20gKIGBoDFOXDmMWX0ZL3oDbgv2We3rl5xmnVlAMBqsQFrFENwwBGAVdfnNS/Mez3AbGkvTnrkHl395qfi3e1zCnITLaCogQFgMg48Zf/4jbdvWX+9bnSx5K89R8AAgOtjA7YBD8EBRwDGe1fAE/aN33T7mNvdqqsfeEO8x31LQW6iBRQ1MABMzoE/Xl3qY/aO33D7mnbroNMCBgD8LzZgG/AQHHAEYH63Bz5xv/jNtq+58Y260UuV2hGTaK+jU5CbaAFFDQwAS+PAvz6vjC6Gi95w+5rddurqf5+be/0V5CZaQFEDA8DSOXDsK0tdyy2Cq3zHwIfenHcNFuQmWkBRAwPA0jrQnpJ3m1vG/+Lua9pRkoMf3dXffSHfWizITbSAogYGgKV34IcXlrrHzvGbbZ9z3+27+r3zc63HgtxECyhqYABYvjsEXvaMUtdeK36z7Ws226Sr13w4z5osyE20gKIGBoDldeDyD5S63Vbxm22f7xI46x051mVBbqIFFDUwAMTcKtjuElhn7fgNt49pdTn96OlfmwW5iRZQ1MAAEOfAl89wbcCqhoBpf3pgQW6iBRQ1MAD040FLm946/pd339KulzjtjfHfjwEAS0K0gKIGBoB+OPCry8voxTntHHj0xtunrLduVy8+Kf77WYoU5CZaQFEDA0C/HPjxxaX+0/+Z2fiiN98+PTDoa2fFfzcGAEyUaAFFDQwA/XTgW+fMvGL4BuvEb8B9yDZbdPXnn43/XiaZgtxECyhqYADotwPfv6DUlxzs1EAbAh67Txf+fRgAMDGiBRQ1MAAM52mChz21qzfbMP7XeGTe9/r472JSKchNtICiBgaAYTnw2ytLPeHwMjokHr0ZR2TDDbr6zU/Ffw8GACyaaAFFDQwAw3Tgz9eWesbbSt39fjMv1InemJcz++w2HacCCnITLaCogQFg+A589cyZOwdueuP4zXm5cvax8XVfbApyEy2gqMG4D6qJbvgrZlrvC19sfnFZqW9/aY7TA3fbqqt/uia+5otJQW6iBRQ1GMcBA8DwTg+ceUypD9mlq2usEb9ZL1WOf3V8rReTgtxECyhqMI4DBoDhevIfHy/1mY/p6o1uGL9hTzpbbdaNhp3oGi80BbmJFlDUYBwHDADD96Q9ROeoQ6bvnQMfe3t8bReagtxECyhqMI4DBoDp8eT3V5X6niNK3X7r+M17Evnb+w/3joCC3EQLKGowjgMGgOnzpB06/8hbSt1pu/hNfDFpt0B+5WPx9VxICnITLaCowTgOGACm25PzTyz1QfeO38wXmpceHF/DhaQgN9ECihqM44ABIIcn7Xz6nTeP39Dnm7vfeZinAQpyEy2gqME4DhgA8njyh6tnniXQXsEbvbHPJ18f4OuCC3ITLaCowTgOGADyefKji0o9YK/4jX3cHPmi+JrNNwW5iRZQ1GAcBwwAeT155ytKveG68Rv86rLXrsM7DVCQm2gBRQ3GccAAkNuTaz9S6l3uGL/Jryq32MgAgIERvbBFDQwAHBjHgZ9eWup97h6/0a8q//mJYX2XBbmJFlDUwADAgfk8TXC7reI3+rnyvtcP67ssyE20gKIGBgAOzKcP/N9z+nuHwAufNKzTAAW5iRZQ1GAcB9qjY6Ob+4rxOuBYb089ql8+XJdH7G4AwICwAduAh+DAv7+qXw3fABDvxIPvE+/ByrnXtgYADIjoRSxqMI4Db32JAcBa+WsnLnxPv5xo2fhmBgAMCE3FBjwEB179nH41+6EdAbjslFK/NsAn1a0u22wR78LKLwb6zRXxdRk3BbmJFlBiavCNs0t9y78Mp/7Pe2J8cx/iAPDbK0s95KCurrVmVx+4Uzd6A1/03zTJvOTgfg2GQ7sVsCA30QLK8tbgd1+Y+TXdnqy2xhrd6DDqEL6Dx+wd39hXTPtFHV2T1eXS913/F/Jxr4r/uyaZc4/v3wBw1Qfj6zJuCnITLaAsXw3Oe9f1N4Rtt+zq76/q//fQt3fGtyfTRddkrrRD0O2X8dprXf/v3ugmXf3+BfF/4yQfDhTtwsppg1d0XcZNQW6iBZSlr8H3zi/1sfvMnJ+crWG99oX9/x7axhXd2FdMO4USXZPZcsnJpW69mtfpNhei/85Jpm/PBGhHJaJrMm4KchMtoCxdDf50Talv/udSN9xg1Q1r3Rt09YrT+v3gl+imvnLaUBVdl5V/9beH0Ky55nh//+lHx//Nk8rqBp7lzhlvi6/JuCnITbSAsjQ1+Nyppd7zruM3rTvdvqu/uKyf38fJr+vfANCnWl303lLvvPn8X1zTtyFmodlxHp4vRz7whviajJuC3EQLKJOtwc8uLfUZjxn/l+CKedRD+nlo+GmPim/qK+cPV8fX5deXl/r8Axf2Xbfs/YB+ft9DHwA+9vb4moybgtxECyiTq8GJR5R6q5svrnm94ln9O42x2M806bRTJtF1ueDEUre8w+I/y9tfGv8dLzaTqMMkc/6J8TUZNwW5iRZQFl+DL320jO7xnlQDe9Nh/flePvHO/h3+v+Pt4gaAX11e6nOfMHML5yQ+y/rrdfULp8d/z4sZENstrdFOrJgrB1TPgtxECyiLOwR86FO6us7ak21gbXNpRxP68N08ZJf4hr5ydtspZgBovyzbtRqT/jybbdLVH14Y/10vJO2hO9E+rJyvD+iJiwW5iRZQFlaDj761jBr3UjWxdl75qEPiL26b69bFyDxh327Zf/U/+3GT+9U/11DTh+sahv6SqJYfDOg5CwW5iRZQ5n9L3H4PXr5m9pT9Yx4U1J5YePc7xzfz2fLPT+uW9eFN7ZTDcnyuZz4m/tqG+WY518I4aQ9fGtIgVZCbaAFlvBq0TfiIF5TROdvlbmrt1+E3P7W831Ufr/y/Lse8bOk//y8/X0Yb8lL+6p8tR75oOGuyPdFw0qe/Fpt2O2Z0XeaTgtxECyirr8Fn3l3qXe8U29ja4NGeGLgcv27adQ3RjXxVaRcmLuXnb0+S23yZfvWvnHbK5R0vH8a6bLdARruwcvZ9kAEAAyJ6EcvcNWjnEp+439yP8I1IOyx/9rFL91z3v//b+M8YdY73fz5X6sGPjv++21GH9gTJPq/Nr3ysjG7HjHZh5bzoyQYADIjohSyz39rU7s/u2/PvV8y9tu3q8a+euUBtEnczHH1o/+73ny3twsulcPZTxy3tRZ0LycufWXr5+uB2fci97xZfn9nS1kR0feaTgtxECyh/XYP2TP6+NrfZssH6XX347l195yvK6A15bXgZ5zv9znmlnnpUqU9+ZLfadxX0KfvvOdkBoD1SuF3vEP2rf660IzLteoS+rNM2kLS7MKLrMlfaI7ijazSfFOQmWkD563P9ay3wsa59SbtWoL1yeK9dZzbLg/afuW2unRttDyu6x11mXkkb/XcuNJN+c+IQhr12/UkfXhb1x6tnBsboesyV5nX7G6PrNJ8U5CZaQPnrQ5t3uG18I5O5a9Buy5uks299Sf/uY5/r9raXPWPmrYNRV/zvuXN8HVaVR+4xrPP/1QCAaAHlr2vQDqVHNzKZvQbrrdtN5JqHFdPuqujbs+xXldvfpqvvfc34p3omcci/nVff+Gbxn311GcrdEwYA/H+iBZTr3++/xabxzUyuX4OH7rY0v/Def9Twhr72SOJ2p8BSXR/QBqM2aGy/dfxnHTfL/awMAwAWTbSAcv0afOjNw9sQMuTYVy7dr9xd7xn/+RZ6zUc79H3KkaX+6KLF3w3S7oZoD0C65Ubxn20+2XbL4R3+r04BIFpAmb0GfT/fmS3t3QhL+Yz3dgdF355qN9+0Oxm23ryrB+7X1Vc/p9STXjvzPof2tsH2gpx250f7Z7uHv/3vpx9d6hteXEaPm77v9jOvWY7+DAtN9HszDABYENECyuw1+PIZw98Qpin332Hpf+G1h8hEf05Z2LUhP754mL2sIDfRAsrcNXjFs5wK6MuG9MZDl97VdoFh3x4GJKuvweMeOszD/9UAgGgBZdUXQrUn7mnC8Q87+tmly+PqBSeW0ekG3/lwatC+s6H2sYLcRAsoqz83PORzo9OQ5X5N7gufFP+ZZbwa7HyP4f76rwYARAsoq6/Bmw5zKiDyxTjtorXl9PS3V5a63VY24SFc9HjxScPuYQW5iRZQxqvBAXvFN7yMecguMb/wvvDvKl8AAAgVSURBVPjRMjr1EP35Ze4aPGL3Yf/6rwYARAso478q9i531JCX+xfehe+Jc7Q9IKivLwnKnvZo5K+eOfz+VZCbaAFlfrcGDvlFOkPLox4S/wvPrYH9zD/+Q7wbBgAsmmgBZX41aC+jucE68Q0ww73d//XJeD/b2+XaaYjoeshfatAeT9yu04h2wwCARRMtoMy/Bu97fRldnKYpL10NDntqf37htUfktifl+b7ja9DuyLnqg/FOGAAwEaIFlIXVoL2XProZTmvaw3jaNRd9cvOHF5a61Wbxtcme9gKkaBcMAJgY0QLKwmtw+HMNAUtxcVdfb+36xtml3u5W8Ztg1jx672704qZoDwwAmBjRAsriavAaRwIm2uT/9Xn9drK9cvaOt4vfDLPlgTtNz3n/FVOQm2gBZfE1aJuW28UW3+R3v19X/3RN/5381jmlbnmH+E0xS3bYpqu/uCz+e1+KFOQmWkCZTA1OOLyMDl9HN8uh5k637+r3l/B1v5POdz9T6t08LZAXBgAshuhGJpOrwSf/vdSbbBC/mQ4tt924q//5ieG5+MvPl7rvg+LrN61pj2P+73Pjv+elTEFuogWUydbgC6c7RzyfJn/zm3ajFy4N1cN2yqI9lCZ6s5y27Llz/+4EWYoU5CZaQJl8DX56aan77BbfRPuem964q589ZTocfM8Rpd74RvE1nYY8cb+u/v6q+O90OVKQm2gBZWlq0G5XeuWzvVt+ria/xaZd/dJHp8u/r59V6r3vFr+BDvnpj+0+/2m71W9VKchNtICytDVo97TfefP45tqn7HrPrv7ooul07w9Xl9FTDNdaM77OQ8rd79yN3sAY/f0tdwpyEy2gLM+jZJ9/4My77aMbbXQO2r+rv/vC9Ht35ekeHzyOD21NvODA6bzHf5wU5CZaQFm+Glz03jK6pzl6E47IbW7Z1Y+8JZdv7VD2sa8sowsdo+vfxzzgXl294rT47ykyBbmJFlCW/6rxtinc6ubxDXi58oR9u9GFkVld+/HFpR5yUFdvdMP476IPaU9SPO2N8d9LH1KQm2gBJaYGP/9sqS8+qKsbrB/fkJcqO961q594J8dWfKHQC5/U1fXXi/9uol7y9IYXl7SH+2dLQW6iBZTYGvzkklJf9oxSb7ZhfIOeVLbdsqunH53rau75pD3x8BXPyvNioXZnxClHlvrHq+Nr37cU5CZaQOlHDdpDT17/T8O+Y+D+O3T15NfNnOaIrucQ0jbENii1dyBM27sk2jMRHv+wrl5wYnyd+5yC3EQLKP2rwedOLaOr5Ydwzrg9zKf9rVd9ML5uQ057wdBRh5T64PsM9xbCG6zT1b0f0I3ei9Eekxxd0yGkIDfRAkq/rxM46bVl9B70jW4S3+Cvy+a36+rTD5i5qj/DLX3LnW9/utQ3HVbqwx7Yr+99tmy9+YwLpx5V6s8SX+i50BTkJlpAGc7h4vPeNXPh4G47Le/Fg23Df/ju3egX6pfPiK9FprTTKe3oyhsPLXX/PWfemrhm0BGC9qKr+92jq097VFff+5pSv3NefH2GnoLcRAsow90Yrv7QzC2Fz31CN3orXXua2oYLfBthu1e9vX1tr127+pT9u3rki0r99Al+1fUxv7mi1Ms/UOq7/63UFz25qwfs1dVdduzqVpst7g6Ddh1Cuz11+61nDuU/+ZFdPfy5ZXSk578+Gf+5pzEFuYkWUKavBu2e+/Zc+rZJtIcPnX1sGd13/f6jZv793ONnrjNoby78xtkzG0r03yyTq0E7/96+//Y0wvY9t++7fe/tgsN2Nf6Zx8z89yUnz/z/7ahOe+1ulhfw9CkFuYkWUNSAAxzggAEAAVh4mi8HOMCBnA4U5CZaQFEDDnCAAwYABGDhab4c4AAHcjpQkJtoAUUNOMABDhgAEICFp/lygAMcyOlAQW6iBRQ14AAHOGAAQAAWnubLAQ5wIKcDBbmJFlDUgAMc4IABAAFYeJovBzjAgZwOFOQmWkBRAw5wgAMGAARg4Wm+HOAAB3I6UJCbaAFFDTjAAQ4YABCAhaf5coADHMjpQEFuogUUNeAABzhgAEAAFp7mywEOcCCnAwW5iRZQ1IADHOCAAQABWHiaLwc4wIGcDhTkJlpAUQMOcIADBgAEYOFpvhzgAAdyOlCQm2gBRQ04wAEOGAAQgIWn+XKAAxzI6UBBbqIFFDXgAAc4YABAABae5ssBDnAgpwMFuYkWUNSAAxzggAEAAVh4mi8HOMCBnA4U5CZaQFEDDnCAAwYABGDhab4c4AAHcjpQkJtoAUUNOMABDhgAEICFp/lygAMcyOlAQW6iBRQ14AAHOGAAQAAWnubLAQ5wIKcDBbmJFlDUgAMc4IABAAFYeJovBzjAgZwOFOQmWkBRAw5wgAMGAARg4Wm+HOAAB3I6UJCbaAFFDTjAAQ4YABCAhaf5coADHMjpQEFuogUUNeAABzhgAEAAFp7mywEOcCCnAwW5iRZQ1IADHOCAAQABWHiaLwc4wIGcDhQAAAAAAAAAAAAAAAAAAAAAAAAAAAAAAAAAAAAAAAAAAAAAAAAAAAAAAAAAAAAAAAAAAAAAAAAAAAAAAAAAAAAAAAAAAAAAAAAAAAAAAAAAAAAAAAAAAAAAAAAAAAAAAAAAAAAAAAAAAAAAAAAAAAAAAAAAAAAAAAAAAAAAAAAAAAAAAAAAAAAAAAAAAAAAAAAAAAAAAAAAAAAAAAAAAAAAAAAAAAAAAAAAAAAAAAAAAAAAAAAAAAAAAAAAAAAAQJkE/w8oACd6FN+hAQAAAABJRU5ErkJggg==;" vertex="1" parent="D1Pnn4vapH3yF3k0A5Gj-25">
          <mxGeometry x="8.82000000000005" y="118" width="77.64" height="77.64" as="geometry" />
        </mxCell>
        <mxCell id="D1Pnn4vapH3yF3k0A5Gj-30" value="" style="shape=image;verticalLabelPosition=bottom;labelBackgroundColor=default;verticalAlign=top;aspect=fixed;imageAspect=0;image=data:image/jpeg,/9j/4AAQSkZJRgABAQAAAQABAAD/2wCEAAkGBw0PDQ0NDQ0NEA4ODhAQDQ4PEg8PDQ8OFhEXFxURGRYZISggJBsmGxUWIzEhJSkrOi46FyAzODMsNygtLisBCgoKDg0OGBAQGy0lHyMuKy0tKyswNSsvKysrLSstKystKyswLSsrLSstLS0uLystKy0vLS0vLS4tKy0tLS0tK//AABEIAMgA+wMBEQACEQEDEQH/xAAcAAEBAAIDAQEAAAAAAAAAAAAAAQcIBAUGAgP/xABLEAABAwEDBwUMBgkCBwAAAAABAAIDBAUREgYHITFBUpETIlFhgSMyNFVxcnSTobGz0RQWJFRiohUXM0JDU4KSwmOyZHODlKPT8P/EABsBAQACAwEBAAAAAAAAAAAAAAABBQMEBgcC/8QAOxEBAAECAgUHCwMEAwEAAAAAAAECAwQRBSExUZESMkFxgaGxBhMUNFJTYXLB0fAiI+EWM0KiYoLxQ//aAAwDAQACEQMRAD8AzigICAg87lbldT2c0NcOUqHi+OBpuN2+47G+/YNBuscBo25i5zjVTG2fpG+WxYw9V3q3sT2xllaVU446l8TNkVOTEwDoJHOPaSutw+i8LYjVTnO+df8AEdizt4a3R0Z9bo3zPJvc95J1kucTxK3oppjVEM2UPnG7edxKZQZGN287iUygMbt48SpyhGSY3bzuJUZQZGN287iUygyTlHbx4lTlBkY3bzuJTKEZGN287iUygyhMbt48SmUGRjdvHiUygygxu3ncSmUIyTG7ePEplBkY3bx4lMoQY3bzuJTKDIxu3jxKZQJjdvO4lMoRkY3bzuJTKA5R287iUygyc2htutpyHQVdRHdqAkcWdrDzT2hYLuFsXYyroiez67XxVboq2xDIuSWcwPc2ntMMYXENZVNGGMk6uUbs84aOkDWuex+guTE14fX/AMens39W3rad3C5a6ODJa5ppCAgICAgICDrsoLWZRUk1U/SI281urHITcxnaSFsYTD1Yi9Tap6e6OmWS1bm5XFMNf6+tlqJpKiZxfLK7E93X0DoAGgDZcvQbVqi1RFFEZRC9ppimIpjZDjrIlEBECkFAiApQiAgIhEBARAgIIiBARCICCIgQZczS5SOmifZ87r5KdodTuOkugvuLP6SR2EdC5LTuBi3VF+iNVW3r39vj1q/FWsp5UdLIi55qCAgICAgIMcZ5awiKiphqfJJK7+gBrfiHguk8nbUTXcuboiOP/iwwFOuqpi1dUskUAiBSCgRAUoRAQEQiAgIgQEERAgIIiBBEQICDu8iK0wWrQyD96dsTutsvczf/AHA9i0dJWouYW5T8M+Gv6MV6OVbmGwq8/VIgICAgICDFuecd1s8/gqPfGup8nObd66fqssBsq7PqxuukWAgIgQRARCKQQEERAgIgQEERAgICIRARCICCIOfYA+3UQ/4un+M1YMV/YufLV4S+LnNnqlskvOFOICAgICAgxbnoPdLP8yo98a6nyc5t3/r9VlgNlXZ9WN10iwEQKRFAIgUiICCIgQEQICCICIEBEIgIIiBBEBEOfk+ft1D6ZT/GasGK/sXPlq8JfNzmT1S2SXnCnEBAQEBAQYozzP8AtNE3ohlPF7R/iur8nY/auT8Y8FngI/TV2MeLom8KQUCIClCIPqONznNYxpc57g1jWi9znE3AAdJKiZimJmdkImctbs/qzafi+s9TJ8lq+n4X3lPGGPz1v2oT6tWn4vrPUyfJPTsL7ynjB5637UH1atPxfWepk+SenYX3lPGEeet+1B9WbT8X1nqZPknp2F95Txg89b9qD6s2n4vrfUyfJPTsL7ynjB5637UPl2TlpDXZ9d2QTH3BTGNw0/8A0p4wedo9qOLgVVLLEbpopYidQlY+Mn+4BZ6LlFeuiYnqnPwfUVROyX5L7SIhEBBEQICCIgQcqypMNVSu3aiF3CRpWK/GdquPhPg+a+bPU2XXmynEBAQEBAQYazuS4rTY3+XSRtI6y+R3uIXZ6ApywszvqnwhbYKP2+37PFK7bYoEQFKEQEHPye8PofTKb4zVr4v1e58tXhLHd5lXVLY1ecqMQEBAQEHzJG1wLXta5p1tcAQewqYqmmc4Hj8oc3VBUgugaKWbY6IdxJ6HR6uFxVvhNNYizOVc8qn47eyfvm2beKrp264Yjt6xKmhmMFSzC7Wx7dMcjd5p2j2jautwuKtYmjl25+8dawouU1xnS65bL7RECAgiIEBB8uJAvGsaQegqRs/BKHsY8anta4eQi9eZVU8mqY3KWX6L5BAQEBAQYEy8qhNa1c8G8NlEQ6uTYGEcWld9ou35vCW4+GfGc11hqeTaph0C32dEBShEBARDn5PeH0PplN8Zq18X6vc+Wrwl8XeZV1S2NXnKjEGOH52YQSPoM2gkftGbCujjydrmM/ORwluxgp3p+tqD7jN6yNT/AE5X7yOEnoVW+D9bUH3Gb1kaf05X7yOEnoU74cqkzq0DiBLBVRA/vXMkaPLcb+AWK55PYiIzpqpnufM4OuNkw9hZNr0tXHytLMyVm3Cec09DmnSD1EKnv4a7Yq5NynKfzZva1dFVE5VQ5ywPl02VmT8VoUj4H3CQXugl2xy3aD5DqI6CtzA4yrC3YrjZ0xvj82Mlq5NurOGvc0T2PfHI0tfG5zHtOtr2m5w7CCvQKaoqiKqdk64W8Tnrh8L6BBEBECCICIbDZEVfLWVQSX3n6OxjjtxxjA72tK8+0lb83irlPxmeOv6qq9GVcw7xaTGICAgIPwr6psMMs79DIo3yO81rST7lktW5uV00RtmYjimmmapiIa3zTOke+R5vfI5z3n8TiSfaV6RTTFERTGyNXBfxERGUPzUpEQKREBBEQ7DJ7w+h9MpvjNWvi/V7ny1eEvi7zKuqWxq85UYg1kl79/nu95XplOyF7GyHwvoEBBzrEteeiqGVNO4hzTzm38yVm2Nw6D7Na18ThreItzbrjV4Tvh8V0RXGUtiLPrGTwQ1EfeTRskZfrwuaCL+vSvPbtuq1XVRVtiZjgpqommZiXIWNDBOc6jEVr1GEXCZsc13W5tzva0ntXdaFuTXg6c+jOPzitMNVnbh5VWjOiAiBAQRECDMOZq0cdFPSk86nmxNH+lILx+YPXIeUFnk36bkf5R3x/GTQxVOVUTvZBVA1RAQEBB4XO1bAho20jT3SqdzgNYgYQXHtOEdd5V7oHDcu9N2dlPjP5nwbmCt8qvlbvFh5dgtRECkRAQRECDsMnvD6H0ym+M1a+L9XufLV4Sx3eZV1S2NXnKkEGskvfP8AOd7yvTKdkL2NkPhfQICIRBn7N8Hfoegxa+R0ebiOH2XLgdK5emXMt6pv/wByp6FV7CwhnYna+13tH8KCFjvO0v8Ac8LttBUTThImemZn6fRZ4WMrbxyuGwiIEBBEQICD0+be2hR2nEXuuiqByEt+oYiMDuxwAv2BxVZpfC+fw05badcdm3uYL9HKo6me1witEBAQcS1bShpYJKioeGxxi8naTsaBtJ1ALNYsV364t0RnMvqiia55MMBZRWzLXVUlVLoxc2NmsRxC/Cz23k7SSu+wmFpw1qLdPbO+emfzoXdq3FumKYdYtlkFKEQEBEIgIOfk94fQ+mU3xmrXxfq9z5avCWO5zKuqWxy85Ugg1jm79/nO95XplOyF5GyHyvpIiEQdrk3YM9oVDYIQQ28GaW7mQx7XHr13DbxI1MZi7eFt8uvsjfP5tY7lyLcZy2Eo6ZkMUcMYujiY2Ng6GtFwHALz+5XVcqmurbM58VRMzM5y/K1rRipaeWpndhjibid0k7GjrJuAHWvqxZrvXIt0bZTTTNU5Q1ztSufU1E1TJ380jnuGsNvOho6gLh2L0Wzaps26bdOyIyW9NMU0xEOKsiRAQRARAgiICFIzdm2ytFbAKad4+mQNuN50zxDQJB16g7jtXE6X0dOHuecoj9E907vsrr9rkTnGx7VUzAIPAWlnTo2AimgnmdsL7oYuJvd7Ff2fJ+9VP7lURHGft3t2jA1zzpyY5yhyiq6+THUyc1v7OFnNhj8g6es3n3Lo8JgrOFp5NuOuemfzc37Vmm3GVLqVtsopQiAgIhEBARDn5PeH0PplN8Zq18X6vc+Wrwl8XeZV1S2OXnKkEGL35pHEk/pFukk+Dnaf+YunjyjiIy83/t/DfjGx7Pf/AA+f1Ru8ZN/7c/8AsU/1HHuv9v4PTY9nv/hWZozfzrR0dVPcfiKJ8o91r/b+Eem/8e92ln5q7PYQZ5aie7W28RRn+3nfmWtd8oMRVGVERT3z36u58VYyudmp7SzrPgpoxDTwxxRj91gDRf0npPWVTXb1y7VyrkzM/Fq1VTVOcuHbmUVFRMLqqdjTdzYgcUz/ACMGnt1LLhsFfxE5W6c/j0cX1Rbqr5sMM5aZYTWlIG3GKljdfFDfeS7+Y87XXbNQ69Z7LR2jaMJTntqnbP0j4eKys2Ytx8XmVZMogIIgIgQEQiAg/SCd8b2yRPcyRhvY9hLXtPSCFFdFNdM01RnE9CJiJ1SyNYGdeRjRHaEBluF3LwYWyO86M3Nv6wR5FzmK8n6ap5VirL4Ts47fza1K8L7MvTMznWOQCZZwTsMMl46tGhVs6Cxm6OMMXo9bDC7VdIgIhFIICIRAQEQIOfk94fQ+mU3xmrXxfq9z5avCXxc5lXVLY5ecqQQEBAQEEc0EEEXgi4g6iOhTE5a4Hl7Tzf2TPiP0fkXm/ukDnRuv6btLeIVnZ0xi7X+Wcbp1/wA97PTiLlPSx3lVm7q6Nrpqcmpp26XYRdPG3pc0awOkcAF0OC01axExRX+mrunt+k8W3bxNNeqdUvFq5bAgiAiBARCICAiEQEBEMzWlmsongmmnnhfsDiJouBud+ZchZ8oL1M/uUxMcJ+3c1qcdXHOjNjjKLJ2rs+QMqWc1x7nMznRSeQ7D1G4+9dHhMbZxVOdudfTE7Y/N7ft3qbkZ0uoW4yCAgiIEBECAg5+T3h9D6ZTfGatfF+r3Plq8JY7nMq6pbHLzlSiDW+W16zE/7XVd87+NL0+VejU4azlH6KeELmKKctkcHz+l6z75V+um+an0az7FPCE8indHBP0vWffKv183zT0az7FPCEcindHB+0OUVosILK+sF2wzSubwJIXzVgsNVGu3TwhE2qJ6IeksXObaELgKkMqo9t4bHMB1OaLuI7VW4jQOHuRnb/TPGOE/dhrwtE83UyvYFt01dA2opn3tOh7XaJI37WOGw/8AwvXK4rC3MNc5FyPtPxhoV0TROUuyWs+GH86mSraZ7a+mZhhmfhnY0c2OY6Q8dDXae3yrr9CaQm7T5i5OuNk743dnh1N/DXeVHJlj5X7bRECAgiIEBEIg/SngfI9scTHPkecLGMBc5zugAKKq6aKZqqnKI6UTMRrlkiwc1D3ta+0JzHeL+Qgwue3qdIbxf1AHyrnMV5QU0zybFOfxn7bePBq14n2YelbmxscAAxTnrM0l54KtnTuM3xwhi9IrezVOwOJatmw1UElPUMD45BcRtB2OB2EbCsti/XYri5ROUw+qK5onOGAcorGloauSll04edG+64SRG/C/2XEbCCu/wmKpxNqLlPbG6emPzoXVq5FymKodYtpkRECAiBAQRB2GT3h9D6ZTfGatfF+r3Plq8JY7nMq6pbHLzlSiDWKbv3+c73lemU7IXcbHyvpKIgQEHrs1lqOgtSOK/udWDFINmINLmO8t4I/rKqNN4eLuFmrpp1x4T+fBrYmnOjPczkuIVrrcpbOFVQ1VMRfykLw3bdIBex3Y4A9i2cHemzfouR0T3dPc+7dXJqiWtwOgFejLdVCBBEQICIRAJUjN+bbJFtFAKmdg+mTtvN+uCM6ox16i7hsXE6X0jOIuebon9Ed87/sr793lTlGx7VUzAICAg8JnbscS0Taxre6UrucRrMDyA4dhwnq5yvdA4nkXptTsq8Y/MuDcwdzKvk72Hl2KzRAQEQICCIhz8nvD6H0ym+M1a+L9XufLV4S+LnMq6pbHrzlSiDWKbv3+c73lemU7IXcbIfC+gQEERDvMhoXPtaz2t1ioDuxjS4+xpWjpOqKcJdmd3jqY785W6mwq8/VKHVpQavXjZq2eTYvTlyIIiBARAgiD1ObaxRWWnFjbfFTDl5eglpGBva4g3bQ0qs0vivMYacttWqO3b3MN+vk0dbPa4RXCAgICD8K+lbNDLA8XsljfG7zXNIPvWS1cm3XTXG2JieCaZmmYmGtk0Lo3vjeLnxvcx4/E0kH2hekU1RVTFUbJ18V9ExMZw+F9AiBAQRECDn5PeH0PplN8Zq18X6vc+Wrwl8XOZV1S2PXnKlEGsU3fv893vXptOyF3GyHwpBBEAlEMtZrMkpYCbQqmFkj2YKeJwuexh76Rw2E6AB0X9K5PTekabv7Fqc4jbPx3NDE3oq/TDI651qOmywtIUtnVc99zhE5sfXK/ms/M4Lc0fY89iaKPjr6o1z3MlqnlVxDXYBehrVFCBAQEQiAgzFmZs7BRT1RHOqJsLT/pRi4fmL1yPlDe5V+m3H+Md8/xk0cTVnVEbmQlz7WEBAQEBBgLL6lEVrVzALg6USjr5RjXk8XFd9ou5y8Jbn4ZcJyXOHqztUvPqwZRAQRECAg5+T3h9D6ZTfGatfF+r3Plq8JY7nMq6pbHrzlTCDG780sBJP06bSSf2bNp8q6OPKKuIy83HFuemTuT9UcH36b1can+o6/dxxk9Mncn6o4Pv83q40/qOv3ccZPTJ3P3gzS0YPdKuqcOhvJM/wASviryivf40U98/VE4urdD0li5G2bRuD4aZplGqWUmWQHpBdoB8gCrcRpPE34yrq1bo1R3be1hrvV17Zd+tBiEGFc52VbK2ZtLTOxU1O4lzx3s0912IfhaLwDtvJ1XFdnobR84eibtyP1VdG6PvP50rDD2uRGc7ZeHV22EQEBEIgIBUjYfIakENk0Ed119OyRw1HFIMbva4rz7SVzzmLuT8Zjhq+isuznXLvVosYgICAgIMMZ3osNqMd/MpInE9YfI33ALs9AVZ4WY3VT4QtMHP7fa8SrttCCICIEBEOfk94fQ+mU3xmrXxfq9z5avCXxc5lXVLY9ecqYQEBAQEAlB0Fs5Y2ZSB3K1Ubnj+FCRLLf0XN1dty38PozE3+bROW+dUd/0ZaLNdWyGL8rs4NTXNfBA009K7Q4A3zyt6HOGgNO6O0kLp8Boa1h5iuv9VXdHV954Q3LWHijXOuXjFcNhEQICIRAQEQjgSLhrOgDrUwltDBEGMYwamNa0eQC5eZVVcqqZ3qh+i+QQEBAQEGJs9Ef2mif0wyt4Paf8l1nk7P7VyPjHgscFP6auxjtdE3RBEQICIRB9RSOY5r2OLXMcHMc03Oa4G8EHpBUTEVRMTslE63Z/Wa0/GFb66T5rV9Awvu6eEPjzVHswn1mtPxhW+uk+an0DC+7p4Qeao9mD6z2n4wrfXSfNPQML7unhCPNUezB9Z7T8YVvrpPmo9Awvu6eEHmqN0H1ntPxhW+uk+an0DC+7p4Qeao3Q+X5SWkddo13ZPMPcVMYHDR/86eEI83RuhwqquqJtE088o6JZJJB+YlZaLVujmUxHVEQ+opiNkOOAsqRQIiBARCICAgIhyrJZiqqVm9UQt4yNCxX5ytVz8J8HzXP6ZbNLzZViAgICAgIMWZ6h3Sz/ADKj3xLqfJzm3f8Ar9VhgtlXZ9WNV0reRECAiEQEERAgIIiBAQRARAgiIEBECCICAiEQc/J4fb6H0ym+M1YMV/YufLV4S+K+bLZZecKwQEBAQEBBivPUe62ePwVH+6NdT5Oc2710/VYYLZV2MarpW6ICCIgQRECAgiAiBBEBECAiEQEBEIgICIRAQc6wDdXUJ6Kun+M1YMV/YufLV4S+K+bLZdecKwQEBAQEBBjbPRRkw0VSBojkkid/1GhwP/jPFdJ5O3Yiu5b3xE8P/W7gqtcwxUuqWAgiIEBEIgIIgIgQRARAgIhEBARCICAiEQEBSO7yIojPatBGBqqGSu82Luh/23dq0dI3Yt4W5V8MuOr6sd2cqJbFLz5WiAgICAgIOuyhsllbST0smgSt5rteCQG9j+wgLYwmIqw96m7T0d8dMPu3XNFUVQ16tCilp5pKedpZLE7C9vXsI6QRpB23r0K1dou0RXROcSuKaoqjOHHWRKICCIgQRARAgIIiBAQRECAiEQEBECCICkRQMv5osmnQxOtGdpElQzDTtOgtgvBL/wCogXdQHSuS07jouVRYonVTt693Z49TSxFzOeTDI655rCAgICAgICDzeWGR9PaTQ5x5KpYLo52i84dx42t92w6TfZaP0lcwk5RrpnbH1jdLNZv1W+piS2cjLTpXEPpZJWA6JacGaMjpuHOHaAusw+lMLfjVVETunVP2nsWFF+irp4uifC8G5zHgjWC1wI7Ct6KqZ1xLLnD5wO3TwKnODMwO3XcCmcGaYHbruBTOEZnJu3TwKZwZmB267gUzgzMDt13ApnCM0wO3XcCmcGZgduu4FM4RmYHbruBU5wZpgduu4FRnBmYHbruBTODMwO3XcCmcIzTA7ddwKZwGB267gUzhGZgdungVOcBgduu4FM4M0wO3XcCmcGZybt13ApnCM3OoLCrqggQUdTJfqIjeGdrjzR2lYLuLsWozrriO36bXzNdMbZZHyQzYBjmVFplr3NIcykacUYOzlHfveaNHSSNC53H6d5UTRh9X/Lp7N3Xt6mtcxGeqlk5c01RAQEBB/9k=;" vertex="1" parent="D1Pnn4vapH3yF3k0A5Gj-25">
          <mxGeometry x="120.00000000000011" y="126.94999999999999" width="75" height="59.74" as="geometry" />
        </mxCell>
        <mxCell id="D1Pnn4vapH3yF3k0A5Gj-31" value="" style="shape=image;html=1;verticalAlign=top;verticalLabelPosition=bottom;labelBackgroundColor=#ffffff;imageAspect=0;aspect=fixed;image=https://cdn3.iconfinder.com/data/icons/user-interface-169/32/plus-128.png" vertex="1" parent="D1Pnn4vapH3yF3k0A5Gj-25">
          <mxGeometry x="75.31999999999994" y="84" width="48" height="48" as="geometry" />
        </mxCell>
        <mxCell id="D1Pnn4vapH3yF3k0A5Gj-32" value="&lt;b&gt;HTML5&lt;/b&gt;" style="text;html=1;align=center;verticalAlign=middle;whiteSpace=wrap;rounded=0;" vertex="1" parent="D1Pnn4vapH3yF3k0A5Gj-25">
          <mxGeometry x="17.319999999999936" y="84" width="60" height="30" as="geometry" />
        </mxCell>
        <mxCell id="D1Pnn4vapH3yF3k0A5Gj-33" value="&lt;b&gt;CSS3&lt;/b&gt;" style="text;html=1;align=center;verticalAlign=middle;whiteSpace=wrap;rounded=0;" vertex="1" parent="D1Pnn4vapH3yF3k0A5Gj-25">
          <mxGeometry x="128.5" y="84.99000000000001" width="60" height="30" as="geometry" />
        </mxCell>
        <mxCell id="D1Pnn4vapH3yF3k0A5Gj-34" value="&lt;b&gt;JS&lt;/b&gt;" style="text;html=1;align=center;verticalAlign=middle;whiteSpace=wrap;rounded=0;" vertex="1" parent="D1Pnn4vapH3yF3k0A5Gj-25">
          <mxGeometry x="18.460000000000036" y="186.69" width="60" height="30" as="geometry" />
        </mxCell>
        <mxCell id="D1Pnn4vapH3yF3k0A5Gj-35" value="&lt;b&gt;Bootstrap5&lt;/b&gt;" style="text;html=1;align=center;verticalAlign=middle;whiteSpace=wrap;rounded=0;" vertex="1" parent="D1Pnn4vapH3yF3k0A5Gj-25">
          <mxGeometry x="129" y="187" width="60" height="30" as="geometry" />
        </mxCell>
        <mxCell id="D1Pnn4vapH3yF3k0A5Gj-36" value="&lt;b&gt;Frontend development&lt;/b&gt;" style="text;html=1;align=center;verticalAlign=middle;whiteSpace=wrap;rounded=0;" vertex="1" parent="D1Pnn4vapH3yF3k0A5Gj-25">
          <mxGeometry x="40" y="216.69" width="140" height="30" as="geometry" />
        </mxCell>
        <mxCell id="D1Pnn4vapH3yF3k0A5Gj-37" style="edgeStyle=orthogonalEdgeStyle;rounded=0;orthogonalLoop=1;jettySize=auto;html=1;entryX=0;entryY=0.5;entryDx=0;entryDy=0;" edge="1" parent="1" source="D1Pnn4vapH3yF3k0A5Gj-23" target="D1Pnn4vapH3yF3k0A5Gj-26">
          <mxGeometry relative="1" as="geometry" />
        </mxCell>
        <mxCell id="D1Pnn4vapH3yF3k0A5Gj-38" value="" style="group" vertex="1" connectable="0" parent="1">
          <mxGeometry x="744" y="41" width="120" height="440" as="geometry" />
        </mxCell>
        <mxCell id="D1Pnn4vapH3yF3k0A5Gj-39" value="" style="rounded=0;whiteSpace=wrap;html=1;fillColor=none;" vertex="1" parent="D1Pnn4vapH3yF3k0A5Gj-38">
          <mxGeometry width="120" height="440" as="geometry" />
        </mxCell>
        <mxCell id="D1Pnn4vapH3yF3k0A5Gj-40" value="" style="shape=image;verticalLabelPosition=bottom;labelBackgroundColor=default;verticalAlign=top;aspect=fixed;imageAspect=0;image=data:image/png,iVBORw0KGgoAAAANSUhEUgAAAgAAAAIACAYAAAD0eNT6AAAACXBIWXMAADsOAAA7DgHMtqGDAAAAGXRFWHRTb2Z0d2FyZQB3d3cuaW5rc2NhcGUub3Jnm+48GgAAIABJREFUeJzt3Xe0XlW19/HvSSEECIGEXkJCKAJJkF5UihQLKCoqWEBERNSreMtrV2z36r1XQAQUFRXsFBXBQpVeRekBREPvhEACpJ/z/rHOc0lOzlPnXGvt8vuMsYZD4Ow9117P3nvtNmcfIiJSV9OB3YGdgM2ATYHVgDWAPqd1DADPAfOA+4F/ADcB1wF3Oq1DRERE2pgOnAg8QDg552z3AycA28TssIiISJ3tB1xF/pN+s3YlsE+03ouIiNTMVsBl5D/Bd9ouBV4RZUuIiIjUwAjgs8BC8p/Uu20Lgc8M9kFEREQ6NAG4hPwncmu7eLAvIiIi0samwD3kP3l7tbuBKa5bSEREpGI2oRhv93u3hwkTGxERERlifap58m+0WcC6XhtLRESkClai2J/4ebVrgTFO20xERKT0vkX+k3OqdrzTNhMRESm1vYGl5D8xp2pLgT1dtpyIiEhJjSLk0899Uk7dZg72XUREpJY+Sv6Tca52jMP2ExERKZ3RwIPkPxHnag8NbgPpkdIsioiU0zuBSbmDyGhj4ODcQYiIiKR2KX5X04uBs4BDgKnAWMc4xw4u8xDg7MF1ecV9kWOcIiIihbcBfm/+X06oGJjKVsAVTrEvAdZLGLuIiEhW78PnBPp98rxNPxr4QQ/xDtcOTxx7ZegzChERuy2BVwO7AFsQbnlPAFYZ/PdLgCeBR4C7gFsJV9539rCulYG3GeMFuIDwJn2/w7K6tXhw3esDBxiXdTDh0cKCHv52OrAXsB2wDbARsA4vnxtfAp4F/gn8HbgBuBq4zxSxiIiU2lTgP4F76f3q9RFCZrvpHaxvBnASMNuwvkZ7DpjYe9fdrA08j70/zwLfBrbtYJ0zgBOARw3ruwf4GqpSKCJSKzsC5+Offe9SYJ8h6xoNvBu40XldX/TaGA6+hG/fbgTew4qfCO4HXOa8rqXA74AdnLaFiIgU0IbAOYRb5p4nkaHt98BOwKcJdwhirGNz521jsSVx+vgIYRvuDPwx0joarR/4FeHlTBERqZAjCbfNY55EUrWHnLeNh1gTndRtDnCE76YREZEcxgI/Jv+JxbNd77qFfFxP/u3i2X5IeFmz0JQJUERkeOMJiWaOyByHtydyBzCMJ3MH4OxI4ELCb6iwNAEQEVnRRMJneq/JHUgEj+UOYBhFnJRY7Un4DRXha4thaQIgIrK8iYS3xbfLHUgkN+QOYBhFfCzhYTvCb6mwkwAREQnWBG4m/zPkWG0exbwtvQbwAvm3T6x2K7CW29YSERFXEwkH6twni5jtq25by9/Xyb99Yk8CdCdARKRg6nDy/yu+Vf68rQLcQv7tpEmAiEhN1OHkfysh737RbQjcTv7tpUmAiEjFVf3kv5iQI3+c1wZLYHXgFEIBpdzbT5MAEZEKqvLJ/y7gOEJ1u7LamNCHmeTfnpoEiIhURBVP/v8EvgxMc9xORTEN+Aqhj7m3syYBIiIlFfvk/0dC9sAphHSwKwGTgHcBv8a3iuB84OfAa4E+x21UVCMIFRN/Qei713ZcCpwLHEK48zAaGANMJoxlzGJCmgSIiCQQ8+Q/E9i9gxheCdxkXNejwGep94ljLeBzhMyGlm15AzCjg/XtTrzHEZoEiIhEFPPkfyHh5bVOrUy4cu92PXcChxHuKkiwEnA44b2Hbrfnz+iuaM94wlhrEiAiUhIxT/6/J9wu7lYf8BlgQQfruItwe1rp25sbARxKZxOBBcCn6e2xyRjCmGsSICJScOOJl2Cm15P/sjYHTiVUxBt6kroYeBs68XdjBGGbXcKKk6snCJ8YbmZcR8xJwN8oZrpmEZFSGQtcRXFP/kNtDGwPvIJiZ+0ri7GEbbk9Ydt6ijkJuILuHk2IiMgQPyLOAfpP6AAt4f2D3xHnN/bThP0QEamUIynPlb+UV8w7AUek64aISDWsD8xBV/6SRqw7Ac8R6iOIiEiHzkZX/pJWrDsBv0zZCRGRMtsB6EdX/pJejDsB/YSXGEVEpI3z0ZW/5BPjTsB5SXsgIlJCU/HNta8rf+mF952ApYTaEiIi0sR/oit/KQbvOwFfThu+iEi53IOu/KU4PO8E3JM4dhGR0tgCnwPthejKX/yMwa+A0NTEsYuIlMJR+FxlrZE6cKm8cYRKjtbf5xGeQY3yXJiISEY7OyzjCELylTobB2xLuKOyMTAJ2GiwrTz470cRJkp9wEvAwsH/fWawPQY8MNjuA24Hnk/XhcKZBxwDXG1czs7AGeZoREQq5kpsV1d/TB9ydiMIeRM+CZxDOFl751BotPuBXwP/CuxCPS9ArY8C/pw+ZBGR4nsI28H1felDzmIi4XHJ2YSr9Rgn+07ac4RJx5HAhKg9Lg5rfYoHkkcsIlICL2I7uE5OHnE6Y4F3ABcQbtfnOuk3awsHY3sH4c35qpqKbTvV+TGKiMiwRmE7sPZTzTf/pwM/IDyfz32S77Q9DZwMvDLC9shtZey/UxERWcYI7AfW0cmjjqMPOIjwvDj3ydw6Jn8AdvfdPFmNwfaOxZL0IYuIFN8ibCecjdOH7G5f4Gbyn7y92zXAmxy3Uy6TsW2HF5NHLCJSAo9gO7i+K33IbvYEriX/iTrFRKDMlfEOw9b/WelDFpG6mA6cREha8sJguxP4FjAtY1yduBHbwfXc9CGbrQv8hHif7hWxLR3s80SH7Zfab7FPgEREXI0BvkPrSnpLgFMo7lvaP8R+YinLi2d9wOHk/Ywvd3t8cBv0GbdlKttir1R5WvKoRaTSxtDdC2OXUcxJwMewn1RuInwyV2STgKvIfwIuSrsEWN+0ReMbC/wFe18/nDpwEam279L9gejkLJG2Ng2fE8rPKO5V5duA2eQ/6RatPQW83rBdY+oDfo5PP1+ROHYRqbDp9HZbcgmwTYZ4W+nD/iJgo30mceztjAVOJ/+JtshtKfAVYGSP2ziWz+HTv/tTBy4i1XYSvR+QTsgQbzvH43OwXQBsnjj2ZtYDbiD/CbYs7XLCy5FFsCV+mRe/kTh2Eam4u+j9gHRHhnjbmYHfieTUxLEPZwYh/3vuk2rZ2iyKMYH7Hn592jpx7CJScfPo/YA0N0O8nbgUnwPuk+R9F+AN2Man7u0JYLuut7qfPvy+0rgwVoBSH+sAuw22rQlZqTYg5KdeNV9Y0sKLhCvASwnPgO90Xv6A8e+LeAzZh7C9PGxCqDKY2luAs8j3tUU/cA/hDtFM4F7gUUKe/qcJ74A8N/jfjgXGA6sTjjFTgE2BLQilhrcg3+9kLvBW8pTRnYzfc/u9gSucliU1si5wLCFLWJ2ShVSxxfgO3xpTUf0Bn22e4wryndjTGvfS7gC+DhwArOHYn/HA/sA3CZOJ1P1aQJhQpbZTj/EObRekDlzKbxtCYpQFpN/h1OI2z+/wrbEU1c74bOstE8d9KGGil+q3dBfwSWCzFJ0bNIXwZvw9jv1o1xYAr03RuWVs7RT7TonjlhJbh/DiScqDiFr65vUdvjWOovoM9r4tIG1SoNfi98Z4q7aQkEr31Wm61dJuwC+AxcTv9/OkvaOzCj7j+emEMUuJvRuYQ/6Tk1r85vUdvjWOIhqNTz6AixPGPIPwTD3mb2Y+4RHSpER96sZkQr2J+cTdBk8AU9N0CfB5IfVhqlOqWiJYBb9MU2rlaR7f4VtjKKL34rN935Yo3o3xS2A0XOsnXPFvmKg/FpOAn2LPmd+q/YN0eQLe5hRzmStVSkTrEfKX5z4ZqaVvHt/hW2MoIo/94S5gRIJYx2CvYtiq3QTskqAf3nYE/ka87XI5aTIGjsCWa6PRrk8Qq5TMxoSEF7lPRGp5msd3+NYYisYrEdAhieI91SneoW0RIXNcmW8djwI+RbwXmb+cqB/vcop320TxSgmsC9xN/pOQWr72PHbWGIrmZOx9SnX173ViGC7+Kp0sZhDyEHhvp6XAvgniH0G4W2eN91sJYpUSGEvc22Nq5Wh6BLC8lfGplHdYglg3JU6Wv18D4xLEn9rqwDn4b68nCI9RY3ufQ6yzCb9xqbkfkf/ko5a/HY+dNYYi2IBwgP0d9v48Svzse32EXA6ev4V+wrf1RczM6Ok4/Peji4m/3cYAjzvE+jvCb339yPFKQXm94axW7rYEn+Ig1jhyGQ28h/CZlecb459NEPuHHONt/BY+mCDuongf/pkS350g7i84xrsUuGQw7jK/5yFdWAe/4hJq5W4n4cMaR2qjgI8CD/YYb6s2H5gYOf6N8P3efyFwcOSYi+gt+E4CHiekLI5pbeK80PgA8GHCviEVdjr5Tzxq+dsl+M36rbGktBdxc8n/PEEffuUY7xJC3YC6ehu+GQS9JtWt/NIx3qHtLmDPBH2QDDYnTbpMteK2JYSDlOctP2tMKYwhvAEdu5hV7Fzxuzj2oR84MnK8ZXA4ftt0CfFTBe/rFGuztpTwblCuKpISyZnkPwGppW/zCG/7H4/PM/+hrPHFtjZwpUOc7dos4n/6d5VjvJ+LHGuZfAW/7XpN5Fj7CJkIY/+eryXN1w2SwET8c2TfBHwc2B5Yk+q/PSzDK/IEYCrh+Wbsg+UA8ZPCvNUx1l+j/XVZfcDZ+G3f2HeCvuoYa6s2i1BjQUru3/D7UdwD7J02fCmwok4ANiVufvyhbVrEvgDc4hTnXVTzO3+r1fBLFnRZ5FinO8XZSXsQTQJK71p8fgy/BFZNHLsUWxEnABNIWyv+7kj9aNjfKc6FVCvDn7ft8Sun/KrIsXrUB+i0zSTsU1JCEwgvp1h/BL9Gn4nIioo2ARhBSMyS6uA4AHwxQj+W5dWfFDkKyu5T+Gzr30eO8zinODttF5ImvbU4Oxj74N+DUkjK8Io2AfisQ0zdtMWEb/NjeaVTnDeRpnpd2Y0CbsW+vfuJe7dlEj4Xdt20T0bsj0TyNewDv2fyqKUsijQB2IJ4ld+atW8792Go7zvE2E85S/rmshs+2SFj/za+4xBjN20B8IrIfRJnF2Ab9L+kD1lKYhVsv61FzvF458dv124l7gt1Y/HJ+veTiDFW1Y+xb/eniJtmd3Xgdoc4u2kXReyPRGAtI/nR9CFLSeyC7bf1mGMs+xlj6bb9jfgFVTzK/c4HNowcZxVNxueFwDdHjnMD/L4Q6bTtFblP4uhJbIO9Y/qQpSQ+ju23dZtjLFcbY+m0zSV8hz3WMfZmLnKI95QEcVbVqdi3/9kJ4hwL/CdxykMP1/7cWLGSSRTfYmxv768KvOQUi1TL37ClPj2PkODGajrhVqi3R4CHCZPoR4EbCI/Uno+wrqHWIdwhsby4t4iQAvwhl4jqZ2NCMhzL8XMB4Sp9jktErY0n3HHYlXDXZ21CHzaOsK5tCJ8HSsFZZ3siw9kH+2/LK3veiQ6xNNpzhM/6NneKrVeHYe/Lmcmjrp6zsI/DYcmjXt7mwJfwrSJ5fMoOSO80ARBvY4H7sP+2PK7++/BL93s+8cv5dsqj6lvsZDR18Crs4/Cj5FEPby1CfgKPfWVW4tilR5oAiKeR+FwVLQbWcIjHKy3q9ylOopORwGxs/bkredTVZS0h/WD6kJsaiV9Z+BjFxcSZJgDiZTV8Tv4DhAp9Hj7kEMvlFCvL5a7Y+6SkLX6+gH08NksedXOj8amQeVTqwKV7mgCIh/3xLUP6cae4rFczi4GtnGLx8u/Yt+8WyaOurqmEZEqW8fhg8qhb2wZ7JsHvJ49auqYJgHRrFKHE886ESpJ/w+/EP0D4qmRNp1ivMMZyllMcnqzP/+9IH3LlWfOp/DJ9yG2dg61Pfy7SbTMph+mEW0f7EJJtqLpg/fwKv8+iJhv//jceQTjb2fj3sQvR1NGl2Eo+W8c0ht8Abzf8/WSnOCSiotwBGEPIXe2RY1utvG0R4ZaqF+unTZs6xuJhLey3mw9IHnX1HYBtTPqJmza6F1Ox9SlFbgMxsh6wPYwhZI/KffJRy99Ow9diYzwpMvp14zXY+rMUv8cr8rLx2CdmuyWPurWx2PqzuCifzUixfQvYO3cQkt1TwOedl2l9DDnfJQo/1jsS96Arsxiex/7te9FezLT+9kdpAiDtTAeOzh2EFMKxwDO5gyi4Kca/v9MlChnOLca/n+wRRJFoAiDtHIV+JwI/Jbz8J61Z7wDc7RKFDMf6dYV1clc4OrBLO/vmDkCy+wu6C9SpjYx/f49LFDIca0a/2OWjk9MEQNqZlDsAyeo+4CBCVTRpb4Lx7x9ziUKG84jx79dyiaJANAGQdgZyByDZzAJeCzyeO5ASsX4q9rRLFDIcTQCG0ARA2nk4dwCSxQ3A7tgPmnUz3vj3T7lEIcOZa/z71VyiKBBNAKSdS3IHIMmdQbjyfzJzHGW0uvHvi/ZZY5W8ZPz7MS5RFIgmANLO6YTkJFJ9zwLvBN6PTkS96jP+/RKXKGQ4mgAMoQmAtHMn/tnfpFiWAKcQEp2ckzmWsrOewDXZjsd6vtP7UJKcNXWrh5UIxTRyp6FV820vESZ3OTOcWftQNC9g68/K6UOujbWwjc1z6UNuy7T/6A6AdGIR8EbCVaKuUMqtH7gK+BfCJ57HAH/PGlG1WO8AWF8ilOasX2hYHyEUjsoBS6cWAR8jXDF+ANiPkBqzcm/GVsTzhDF7hJAAZSZwHXA94Vm/xDEP20l8DfTyZSzWCYDei5Hk5tL7LZ7nM8Qr0o2qPQL4K7b+vDp9yLWxB7axuS19yG3pEUDFWb7Df8gtChHphPXqvXL55gtkM+PfP+oSRYFoAlB8lu/wL3aLQkQ6YU3kYy0mJM1tafz7yiVF0wSg+Hr9Dn8p8EPnWESkNWva5M1dopDhWCcAlcuKqQlA8fX6Hf6phBe/RCQdazW/HV2ikOHoDoCUUrff4V8CjM4SqUh3FmN7kWls+pBb2hlbf/oJXwKIrwmEu6KWsdk1edStjcXWn8XpQ5ZerQScTPjOuNmALgFOQid/KY/nsB3EpqYPuaVxhJO4pU/7J4+6+t6GbUyWAKsmj7q1qdj6NEePAMqj8R3+tsCJhEcDLwy2O4ETgBnAsWhmJ+Vhza62k0sUfuZhv1WsCYC/vY1/fx/wokcgjnYx/v0clyhERHp0BbarmLOSR9ze2dj6dFf6kCtvJrYx+Xn6kNs6B1uf/qw7ACKS033Gvz8Y2MojEEdXG/9+a5QPwNNmwCuMy/irRyCOpgFvNS7jPk0ARCSnvxj/fiTwXYr13ss1Dst4l8MyJDgMe5nmyzwCcTKa8JsfaVyOdd8TETGZhu02ZqP9APsB0ctI7C83Wj8nlKAP+Ce2sXgS+wTCy0hCbhiPfaZod85EpIbux+eA9ntCydciOBd7f3ZLHnX1vBr7OPwiedTDWxv4Iz77yj8Txy4iMqwT8DmoDRAKYH0Je9IXq/dSnRNPmf0M+zi8P3nUy9sS+Arht+21n3wTinNbQ0TqaxpwR4TlPkYohfwU8AShFPLvsH962IlGWd+VDMtYCmwBzHKJqH6mEh6lWMreLwLWJ00J7TWAgwh3ftYD1gEmARs6r2cA2Aa423m5IiI9uRK/q5tW7QXg68AqCfp0sUO8JyWIs6o8npWfnyDOVYBvEPIMpNgHLk3QJxGRju1DmoNfo92C/5XVUO93iHM+4SpQujMJWIh9+8f+GmMj4FaHOLtpe0buk4hI17qpd+HR7gBWj9ifVbF/DTAA/DRijFXl8ex/HnHT/44nZHFN+Zu/MGJ/RER6tgWwgLQHxJMj9+k7DjEuRVUCu7EX9noMA4Sxi+m7DjF20xaQ/+VYEZGmPkPag+ISYOOI/ZnhFOetFCvZUVGNAm7Hvr37ifud/CRaF3aL0f5fxP6IiJiNwOfluW7acZH7dJVTnJ+NHGcVeE0gL4oc53FOcXba/oS++hOREphA+EQp1cEx9udQr3OKcwHhjoIMb1fCZ3se2/qAyLFaixN10+4C1ozcHxERN1OAh0h3kJwWuT83OcV5H+HlMVnemoR8CR7b+GbiXi1Pd4qzk/YAsEnEvoiIRDEFv4N6u/aVyH05yDHW89Dt3GX1Ab/Fb/vuHznerznG2qr9A538o5tGeJN4JiHJSKqZXaz2AuGW0bcJ2aJEcloLuJz4v/tZhPcPYukjZCL0ive4iLGWzdfx265XRI7VozhRJ+0aYN3Ifam1MYTPOJaS/6Qdqy0FThnsq0guKwHHE39f2ydyP3bG5/O0RvtA5HjL4Fj8tmc/sHvkePdzjLfZMft/0BcjUY0B/kz+E3SqdhmaBEh+exI3cUqK4jtnOMa7GHhLgpiL6lB8J4VnJIj5V47xDm23A69J0IfaO5X8J+XULXbCFJFOjAKOwa+E8LJtPvHLCa8PzHWMeRHwzsgxF9Gh+KT6bbTZhHK7Ma1NnERXs4APAiMjxy+Ez3CqfNu/WVtC/DelRTo1inASuBDfhCqfSxD7hx3jbeybhyeIuyiOxf8YfHSCuL/oGO8Swrf9h2Crdihd+jb5T8a5miqTSRGtSzgB/g77b/wxbCV8O9FHSDTjuW/2A1+l2l8H9OH7wl+jXUHcF0AhPEJ93CHW3wGHoRf8srmD/CfiXO02h+0nEsvKhFu51t95iqvpjYA5DrEObWcDqyWIP7UJ+EzwhrbZxE0F3XCEU6wrJ4hVmugjfbGSIrUFVPsKQ8rP4w7dTOJfEQK8xyHW4dq9wA4J4k9lV0JCmxjb6q0J4h+JT2bLbyWIVVoYT/6TcO4Ws3yqiJVXlrVDE8V7ilO8Q9tC4FOU+/nwaEJuf6/0vkPbdxP1491O8W6bKF5pYlPyn4BztynmrSgS1w3Yf+d3keYuwGjCM+hY++ttxP+2PYY9iPu49VrSfNo8Ap+8/9cniFXa2JH8J+DcrUq3FqWavK643pYo3vWAR5xiHq4tBX4MTE7UH4tJwM/wTZg0tM0i/id/DQc7xfyuRPFKC/uT/wScu+1n3ooicY3G54R6ScKYtweec4i5VVtIeOSQ4qW3bm0GnI7vt/3DtedJ+znzpQ4xP4wy+xXCu8h/As7dUj0bFbHwqAu/ABibMOY9gZcc4m7XFgNnAa9K062m+oBXE674PXM5NGvzgX2T9CxYBZ8JzacTxiwtfJT8J+Dc7SPmrSgS3074/N63TBz3gcR76W24NhP4ErBFgr41TCK8oHifUx86aQuBN6Xo3DK2dop9p8RxSxNfIP8JOHf7vHkrisR3AT6/9+1SB06407i4x3gt7Q7gRMIkxPNrnwmE9ylOJrxcmbpfi8hTM8FrEnp+rADL/IlIDhNyB1AA2gZSdHsTTmIeZjstpxu/JJTlPou0jyCmDbZPEE48s4BbCBODBwnvVTxKeFdhIeF5+ihC4qE1gHGDbUvCHYUtgK2AzUnzRcVwFhDyLZyXYd1POy3nTYTHQ1c6LU96dCa2mdyH04e8go9g68MZySMW6c7F+Fx5PUHexFd7EP/FwCq3OYPbMJc+wiTAoy9/ihFgrllZWVmvfnNcTQxljUF3AKTIpuH3pcq5hINvLlcR7mY8mjGGsnqY8ILhVRljGAB+7bSs1xHuprjSBKA7E41//6xLFDbWGKzbQCSm9zktZyHFSL16CyH3xtW5AymR64HdCO8b5HYC4R0Eqz7qVfGxkO7Bdhtn+/Qhr2AHbH24O33IIh17CJ9brkX79GoU8A3y31Yvevse8as5duuz+PRtVurAZXlPYRvAyckjXtEUbH14Mn3IIh3x+uzqZxS36NW7iVNFsOzteeDthu0aUx/wc3z6mfqzVBnUh/3TnHHJo17R6tj6sJjiHhyl3qwvuA4AN1L8kqvr4feZYxXaRcAmpi0a31jgJux9PSZ14BJYKwEuojgnTmuiEVUElCL6Abbf9VLKU3Gtj3AymEv+E3CuNgd4P8U5rrYzg/Abs/T5tORRC2CvBPhE+pCbehJbX1QRUIroWmy/63PSh2y2PqHQj/XEUqbWT3hMs4HD9kvtN9j67vpVg74C6Jz187cifAHQYI1FnwJKEW1k/PtzXaJI63HCVfDOhAlQ1V1P+LzvvcBjmWPphfWzwA1dopCuWSsBFukznmuw9UUVAaWI5mP7XRexSl43+ghZ424g/1W6d7sZv+yOOU3Gth1e8AxGdwA6V4UcAA3KBSBVZPn8a4BiPabrxQDh5cBdCRcsVUgdezGhgt+OwO8zx+LhccI49cr1E0dNADqnRwAv0yMAKZo+7C+DVel4eAmwF+GlxlMIKYXL4nnCC53bETLgXZY3HFfW36nrb7RKP/jYqjQBUDpgqRrr7dE+yvlSWTu3Ax8jPDs+gvDJnEdmOm9LgD8ChxI+czwauDVrRHFYn+HPc4likKoBdq5KE4A5xr/XBECKaDa2XBt7Avc7xVI0LxGKmZ1J+KT5jYQSufsTKvnl8DRhQvJHwq3+ItRKiW0v499bj93L0QSgc1WaAOgRgFTRLGzZNg+hHtUunyeUHP4l4S7wNoSqea8mvD+wCf7f1vcDfwf+MthuAP46+M/r5J3Gv3dNB6wJQOeqUAmwQY8ApIruBV5r+PvXE4rIXO8TTin0A3cMtlMH/9mqwCuWaRsCawPrEPIOrLbM3686uIy5hInFXMLx5VHgn4QT1ixCDZG5cbtSeK8h3HGxuMcjEOneddg+39g3fchN7YetL3X43ljK5/3YPze7h3y3xKW6xhGqE1p/n4d5BqWXADunRwAv0x0AKSKPLGlbAr8CxjgsSwTCb+lcQrEqqyLlk6kVayXATdKH3NRkbH1RRUApqpn4JJ75E8UvCiTFtxLwO3x+k7cljl0GVaUSYIMqAkpVfQWfg+0AIfGM7gRIr8YQfkNev8cvpg1fGqpUCbBBFQGliiYRvin3OujqToD0wvPKf4Dwm94kaQ/k/1SpEmCDKgJKVZ2H34F3AN0JkO54X/kPYC8iJAY7Yhu8melDbutubH3aIX3IIh3ZFv/yuLoTIJ3wvvIfIPyWXxkjWH0F0Jkq5QBoUC4AqarbgLOdl/l6wpvcuhMgzYwBfgO82Xm5v6CaaZFL4134zuhZFTXXAAAgAElEQVSq0A41bVGRuNYjfO7q/bvXnQAZTowr/wHChdq6sYLWHYDO6Gp3RdomUmRPAP8aYbm6EyBDxbryBzgWfXad3RfIf8VdtPZ50xYVSeN04vz+dSdAIN6V/wBwWsJ+SAsnkv+EW7R2gmmLiqSxMnAFcfYB768D+ghJunYgZI1bxXHZdbUKYVvugH+Roxhv+zfa5eguU2GcSf4TbtHaGZYNKpLQeOBvFHcSsCXwPeCZIcteCFwKHIwe13ZjBGGbXUrYhstu06cJV9ZbGNcR8+T/N8JvVgriAvKfcIvWzjdtUZG0JhLepC7SJKAP+BwrnqSGa3cRXkbWRKC5EYRt1EnRnYXAZ+ntjkDMk/+thN+qFIi1EmAVmyoCStnEnARcSHdXbWOBn/ewnpnAEej28LLGELZJL7lNfkZ373KMBy7qYT2dNJ38C+oe8p9wi9buNm1RkTxiTgLuBl7VQQzbAX8xrutxwsvJa/e2GSphbcI2eBzbtryJzhLtvIZ45wKd/AvMWgmwik2fpkhZxZwEDBDuBhxJSCG+MuEKdRPgPcBvgX7HdS0AfgnsSz0eD4wA9iOUbF6A33ZcSviU7z2EsRpDGLupwAeId9U/gE7+heZRCbCKTRUBpcxiTwJytFnAV4HpjtupKKYDXwPuJ/929mw6+RectRJglZsqAkqZVXES0GgzgeMI1RHLahKhDzPJvz1jNJ38S8BaCbDKTRUBpeyqPAkYIJSRPZVyTdbHA9/Ft6xz0ZpO/iVhrQRY5aaKgFIFVZ8EDAC3Axt4bbCINgLuJP/2itkKc/Kvw0sjVsp535y2jVTBbGAfQhXBqppO+HZ9bO5AWliFEOM2uQOJ6DbCb60QFWI1AWivEDO1gtK2kaqowyRgO4pdw+OLwLa5g4ioUCd/0ASgE7rKbU7bRqpkNrA3cHPuQCL6BLBm7iCGsQbwL7mDiOg2wqeahTn5gyYAnbCe5E4gfC5XxHaisW+aAEjVzCGU/K3qnYBVgANzBzGMg4BVcwcRSePK/5ncgQylCUB71pPcsy5RxGGNTRMAqaLG44BbcgcSya65AxjGbrkDiOQWCnbbf1maALSnCUBzmgBIVTUeB1yZO5AIivg1wHq5A4jgCsJvqJAnf9AEoBOaADSnCYBU2fOExwE/yh2IsyKebNfNHYCzHxB+O8/nDqQVTQDas77pXuUJgL4CkKpbQMgFfwTwXN5Q3GyUO4BhlDlj4bLmAIcDRxNKDkvJWas/bZ8+5I7tgK1vqggodbI+ofCOZzGf4drvgZ2BTwMPR1rHFs7bxuIVxOnjw8CngJ0I2zTmmC0llHcu4t0VMbBWApycPOLOTcHWN1UElDraHjgP/1S1FwF7DVnXaOBdwPXO6zrOaVt4+DK+fbsOOJSw7Za1N3Cx87qWECo8dlJOWErGoxJgkXNwWwsdqSKg1Nlk4CvYitU8AHyDzrLfTQdOIrxUZj1xPQes1WvHHa1NeE5u7c9s4FvAtA7WuQ3wP4Rt3+v67gS+RCgdXFo6eLc2Httzv8WEutIDPuG46yM8pxo6U+7GeGCuTzgipTUVeA2wC7Al4e7aBF6+AFgIPAE8AtxFyAd/OeERY7dWBs4C3mwLmT8MLqPfuJxejQQuAN5gXM75wCGE9zW6tRXhzsC2hMnDhoTb+GMG//1cwrtSs4B7gRuBqwf/v1SctRLgE+lD7tqT2PqoioAi6b0P+1XzAHA6tguAXo0GfthDvMO1wxLHLjVhrQQ4M33IXbsbWx9VEVAkvfXxewfhStIW4NkGuMop9iVU7xPCZPQZYGtVzgHQoFwAIuXzOOERgoc9COlqzyG8cLgZvlUDxwKbDy77nMF1vcZp2Zeil5F7Nip3AAVX5RwADdYsVcoFIJLHjwkFZjyMBN4+2Mrkx7kDKDPdAWjNenVb2BSQy9AdAJFyOht4MHcQGd0P/Dp3EGWmCUBregTQniYAInksAf47dxAZfZ2wDaRHmgC0pglAe5oAiOTzfeCO3EFkMBPd/jfTBKA1TQDa0wRAJJ+lwMfI9y1/Dv3AMejq30wTgNY0AWhPEwCRvK4kZMGri+MJyXjESBOA1vQVQHv6CkAkv08TJgJVdy3w+dxBVIUmAK3pK4D2dAdAJL/FhHS49+cOJKJ/Am8FFuUOpCo0AWhNjwDa0wRApBieJFQTfCBvGFE8DOwHPJ07EKmHqlcCbFBFQJFqmYytQmHR2l2UvOqelI/1xLiIcpwY+wixVn2iI1InawIXkv/kbW1/GuyLSFJ1qATYoIqAItXTB3wSmE/+E3m3bT7w/yjHRZRUUB0qATaoIqBIdW0OXET+k3qn7cLBmCUyvQTYXB1eAGzQi4Ai1XUf8Dpgb/wqCHobAC4D9gReT4hZIlM1wObqkAOgQbkARKrvisG2NfABwid1uR/fzQJ+C5wO3JM5ltrRBKC5OuQAaNAdAJH6mAn8+2DbGtgd2BnYjDAhGD/YvO4Q9wPPD7b7gX8ANwLXER4/SiaaADSnRwCd0wRApJxmDrbTcwci6ekdgOY0AeicJgAiIiWjCUBzmgB0ThMAEZGS0QSgOU0AOqcJgIhIyWgC0Jy+AuicvgIQESkZTQCa01cAndMdABGRktEEoDk9AuicJgAiIlIJdakE2LA6tr6qIqCISMnoDsDwVseWI2ExMM8plhTmEWLu1ShgnFMsIiKSgCYAw/N4AXDAI5BEBoA5xmXoRUARkRLRBGB4dXr+36D3AEREakQTgOFpAtA9TQBEREpEE4Dh1SkHQINyAYiI1IgmAMOrUw6ABt0BEBGpEU0AhqdHAN3TBEBEpEQ0ARieJgDd0wRARKRENAEY3prGv7d+UpdDXSYAM4BTCDXQ5w+2mYP/bEbGuETKYAZwKnAPsICw/9w9+M+2zRiXiJvzsWXGOzR9yGaHYOvz+elD7spY4HvAUpr3YSnwHWDlTDGKFNVY4DTa7z/fHfxvRUrrWmwnw/3Sh2y2H7Y+X5s+5I6NBa6g875cD6yVI1CRAup2/7kRWC9HoCIe7sZ2MtwhfchmO2Dr893pQ+7Yd+m+P/cCm+YIVqRgTqP7/edB9EhNSupJbCfDKelDNpuCrc9Ppg+5I9vS+rZlq/YEsFP6kGut8Yz5blZ8xqwTSnqW/Wcu8Mb0IYv0rg9YhO1kOD551HbWioCLKGZFwFOx9esF4IDkUddPp8+YT0XPmFOy7j9LgI8lj1qkR3Utjesx8SliCWTr45zGmB6VOvAa0TPm4vLYfwaAk4GRiWMX6VpVb4V3ooqPPl7C5wA2AHyFck7uik7PmIvLc//5I8W8SBD5P1V+Ga6dKr786HXwarQfAaOT9qDaXontGfOB6UOuFe/953Zgk6Q9kKaUCGhFdcwC2FCXZEAW7wcuAMblDqQijqb349A44DzgE37hSGTTgRuAXXIHIpoADKfOEwBrEaM6TAAAXkd4Zq3n0HavNf79SOBEwqeeo+zhSALrAZcD78gdSN1pArAiawKYZ1yiyMM6ealTSeDtCQmDtsodSMl53Q4+BvgTsIbT8iSuscBZwJfQezXZaAKwojrfAdAjgO5MJmRA3CNzHGXmmXZ5X+AmYAvHZUo8fcBxwC9Q+u0sNAFYkSYAvavbBABC4aiLCbUUJL/NgeuAPXMHIh07FLgMWDt3IHWjCcCKNAHoXR0nAABjgF8Cn8wdiADhUdTFwOG5A5GO7U54pPaK3IHUiSYAK6rzBEAvAfauD/hv4CS0XxXBSsCZaDzKZCrh7o31xVCRntWxEmCDtSLgNelDbsv7O+ZO2rkoXW2nUo3HKqk6VDE59p/FwIdTdE5kqHuw/Xi3Tx+ymyomQcpxABsgXMnU6auIXqUaj1uAjRL1qUpy7T8D6O6NZPAUth/t5OQR+6liGuScB7C7gEnxu1hqKcfjEco9Qc8h5/4zAPwa3b2RRPoIt58sP9gy57quYiGk3Aewx4DtoveyvFKPxzzgzUl6Vg25958B4FZg49gdFRmP7Yda1JK43ahaRcDcB6/GSef1sTtaUjnGYwnwqRSdq4Dc+06jPYru3khkm2L7kT6RPmR3VasImPvA1WgLgfdG7msZ5RyTH6DCTu3k3m+Wbbp7I1HtiO0HOjN9yO6qVhEw90Fr2dZPSH0qL8s9Jpeg9MGt5B6foU13bySa/bH9OIv4GVy3rsG2DYr2GWTuA9Zw7XRUuKYh91gMAH9H6YObyT02zdr30d0bM31isbw6JwFqUDbA+D6Avk0vEqUPLp8PAn9Ad29MNAFY3prGv5/jEkVemgAsb0Gk5R5EyH9urT4pPiYCFwGH5Q6kYv4Qcdn7Ee5YTo64jkrTBGB5dS4F3KCSwMvbG3g60rJ3BW4kXIFKfmOAn6AENJ4OIqTIjmUb4GbgNRHXUVn6kS9PjwB0B2CoGwiFSv4RafmbEoqg7B5p+dK9jwNno0c0HpYCnwaOJuQJiWEi4WVOfWXTJU0AlqcJgCYAw/kH4Qrjr5GW36hed2Ck5Uv3DibUBVH6YB8/AA4Ano+0/Mbdmy9R/lwsksn52N5MPTR9yO4OwbYNzk8fckvWt42XNQ640GGZzdpi4CjX3hefdZud7bCMVu1BYEa03hef5/4DMA2432G5rdpPCRMCka7UuRJgQ9UqAnofwEYC33NYbqt2EvW5irFuqz7CVV+/w7KatTonoPHefyC8a3WVw7JbteuAdTw2gNRHnSsBNlStImCMAxiEZCQxD2BnUo/vnL3G5xBgvsPymrW6JqCJtf+MAX7msPxW7Z/AVtYNIPVR50qADVWrCBjrAAZwBPbaCa3aJRSvtoI3z/HZDXsq63atbumDY+4/Ke7ezAXeYOi/1ETdKwE2VK0iYMwDGIRHJnMd1tOs3U61X0TzHp9NCWWYY43HAPVKHxx7/4H4d28WAx/pqfdSG6oE+LIqVQRMcQDbkVAIKtYB7H6qeyszxviMIySgiTUeA9QnfXCK/QfCZ7Cx794ov4M0pUqAL6tSRcBUB7Ap2N8hadWeBfbouvfFF2t8RgEnOyy/VXuG6qcPTrX/QDgGz3RYZ6v2R8IEUWQ5qgT4sipVBEx5AJsAXO2wzmZtAeF2aZXEHp9GAppYY7IQOLzn3hdfyv0HQjr2yxzW26rdBmzcQ2xSYaoE+LIqVQRMfQAbA5zlsN5mrR/4ZA9xFVWK8Xk9IQFNzJNKVW8vp95/INy9OdVh3a3aoxTrQkUyOxTbD6poCXAsrAmRinSVmuMANhI4xWHddTjhpBqf6cADDutr1apY4THH/tNwLCGVcKzxeoFQq0CEj2L7Mf04fcjRnIFtWxTpjdsqH8DOBcYaY8wt5fisTyi+FGs8BoBbqNZXGzn3H4C3Ai86xNGs9RM+RZSa+wK2H9Lx6UOO5nhs2+Lz6UNuKvcB7O3E/cTpOspdgTH1+KwM/Nxhva3aI1QjKRjk338AtgUecoilVatbfgegGrcQvagQ0MvmGP++igWBenUu8EbiFUHZjZBWdVKk5VfNAkLVuC/jd4IaakPgSuqbPtjbbYTS2bGKcUGowfFH6pPfQYY4E9sM8sPpQ47mI9i2xRnJI26uCFcwEIqgxLyKeQzYzjHeVHKOj9IHt1eU/QdgVeA8h5hatbrkd5AhLsD2wynSi29WVaoIWKQD2AaEZ8SxDl7zCG+8l0nu8VH64NZyj89QjfTBMcfrGaqZc0NaUCXAl1WpImDRDmDjgIsc4mrWFhJucZdFEcZH6YObK8L4DOco4tbhWAAcFjF+KRhVAnxZlSoCFvEAthJxX0Qr05vNRRkfpQ8eXlHGZzj7Et5XirkffYPqpHiXFlQJ8GWTsW2LIlUELOoBLMWtzNMJSVWKrEjjo/TBKyrS+Axnc8LEKuaYnU35P7eVFlQJcHlVqghY9APYx4ibK+A8ip2cpojjo/TBLyvi+Aw1kfDVRazxGgCuB9ZN1B9JTJUAV1SVioBlOIC9BXjJIdZm7UZgnUR96VZRx0fpg4Oijs9QY4CfOsTbqs0Ctk7VIUlHlQBXVJWKgGU5gO2K/TFUq/ZPwu3Soiny+Ch9cLHHZ6g+wmeX/Q5xN2tzCXk9pEJUCXBFVakIWKYD2FTgPoeYm7VnCHXXi6To41P39MFFH5/hvJO4d9QWE1LHS0WoEuCKqlIRsGwHsPWAmw3xtmsvAAcm6017ZRifOqcPLsP4DCdFfoeTCIW/pORUCXBFVakIWMYD2KrA77uIsdu2BDgmWW9aK8v4NL7aiHl7eR7FSx9clvEZzhTi53f4E8V530l6pEqAKzoD2zYpSkXAsh7ARgLfaxGXRzuJ/C+vlm186pY+uGzjM1SK/A63oVocpaZKgCuqSkXAsh/APkXcg9eZ5E1TW8bxqVP64DKOz1CjgFOIO16PEd4lkxI6Edvgfy59yNF9Hts2OSF9yMOqwgHsCOKmPb2EfLcxyzo+dUkfXNbxGc6xxM258QLhk14pGVUCXFFVKgJW5QC2H+ETpFgHr9vJ8yZ6mcenDumDyzw+w3kDcfM7lCkNtwxSJcAVVaUiYJUOYDsSck7EOnjdD2yVrDdB2cen6umDyz4+w5kBPEjcMfshxXiEIx1QJcAVVaUiYNUOYFOwF65q1Z4lbSnUqoxP7PTBC8iTPrgq4zPUBsBfiDdeA8Cl5H+EIx1QJcAVVaUiYBUPYBOAq4l7skl1V6tK41PF9MFVGp+hVgV+S9zxug/YMlWHpDeqBLiiydi2SVEqAlb1ADYGOIt4B65+4JMJ+lG18ala+uCqjc9QKapyzqZcFSBrRZUAh1eVioBVPoCNJP7nTbGvOKs4PlVKH1zF8RnOB4j7pU2uRzjShioBNleFioB1OIDF/rzpXOLVQ6/q+FQlfXBVx2c4+wBziDtmZagAWSuqBNhcFSoC1uUA9nbiZqi7jlB33VuVx6cK6YOrPD7D2Ry4l3jjNQCcQ7wJtXRJlQCbm4lt2xShImCdDmB7A88R78B1F/4pT+swPmVOH1yH8RlqInAF8cZrALgeWDdRf6QFVQJsrgoVAet2AJsGPES8A9djwHaO8dZlfMqaPrgu4zPUGOAnxB2vh4FXpuqQDE+VAJurQkXAOh7ANiC8JBbrwDWP8MmbhzqNTxnTB9dpfIbqI9xZifl+zVzggFQdkhWpEmBzZ2DbNkWoCFjXA9g44CLiHbgWAu91iLNu41O29MF1G5/hvAN4iXjjtQT4l2S9WYbeRgxJVSyedYmimGYb/966baV384A3Ab+ItPyVCLdIvxRp+VU1DziI8PlmLJsTXtrcM+I66uQc4LXEy20ykpBO+nuE1NKSkCoBNleFioB1v4JJkejkdHo/cNV5fMqQPrjO4zPUFOI/wrmQYnw+XRuqBNjch7FtmzOSR7wiHcCCjxH3WeZ59Jadru7jU/T0wXUfn6HGAb8n7njdjv/XNtKEKgE2V4WKgDqAvewtxH2WeSOwTpcxaXzSpA8+B03QvDRu2cccr8eAnVJ1qM5UCbC5KlQE1AFsebtir33Rqv2T8Ay6UxqfYD2KmT5Y49Nc7Ec48wlfqUlEqgTYXBUqAuoAtqKphCplsQ5czwC7dxiLxudlRUwfrPFpLfYjnH70om1UqgTY3GRs26YIFQF1ABveesDNxDtwvQAc2EEcGp/lFS19sManvenAg8QbrwHgR4Qvb8SRKgG2VoWKgDqANbcqcV9oWgIc0yYGjc/wipI+WOPTmfWBm4g3XgOER6prpepQHagSYHtlrwioA1hrIwnfH8c8cJ1E8/1E49NcEdIHa3w6tzLwS+KO133Alqk6VHWqBNhe2SsC6gDWmU8R98B1JsOfaDQ+reVOH6zx6U6KvBuzgb3SdKfaVAmwvbJXBNQBrHNHYL/j0+5EM/SOkManvZzpgzU+vTmSkC471ngtBN6XrDcVpUqA7ZW9IqAOYN3Zj1CgJNaB63aW/xRN49OZUcT/9vwZVkwfrPHp3auBp4k7ZpYkT7WnSoDtlb0ioA5g3duR8Hgr1kHrfmCrwXVpfLqTOn2wxsdmM+yfmrdr59JbkqfaUyXA9s7Ato1yVwTUAaw3U4h74HoW2MNhOXWUMn2wxsduAnA5ccfrBsKnvV2p+62DNY1/P8climKzVjtURcByup9wC/P6SMtfk1CuWLp3IWHy9HDEdXyc8Ea72D1LmLT9NOI6diFMAqZ380d1nwBMNP69tVxuGWgCUF/PAHsDZ0da/sqRllsHtwE7E749j+WdEZddNwsJj1Y+QUjyFMMmhDLQnSTgAjQBsJ6crCfHMrBOcjQBKLeFwLuBU3MHIit4gvDS3i9yByIdO4nwXtRLkZa/GqEy58cjLb9SVAmwvbJXBNQzTD/HEreksManNynSB2t8fO1C3BdtBwgJvkal6lAZqRJge2WvCKgDmK+3EzdFrcand7HTB2t8fG0E/I242/8iQsZbGYYqAba3PbZtlLsioA5g/vYGniP/yUXjs6IU6YM1Pn5Ww34nul27g/B+gAyhSoDtTca2jXJXBNQBLI5pwEPoBFNEKdIHa3z8jAS+TdxxeJzw0qgMUiXAzpS9IqAOYPFsANyCTjBFlCJ9sMbHV+wkT/MJL/QK5T+xpdJHuSsC6gAW1xrET3Ki8enNKOA08o2Nxqd7BxA3FXc/8OFkvSmwKdg2ZO5b2ymVuSKgDmDxjSF+GVSNT+/+FViCxqcsZgAPEm9MlgIHQ70/EVASoM7NBtYx/P0EQma5MtJBrNg0PsWm8SmeEYS8HpfVORGQkgB1TtkARUSqY13g8DpPAFQHoHOaAIiIVMvb6jwBWMv498+4RFEO1scd1sctIiLia8s6TwB0B6BzugMgIlIt69R5AqCXADtnnexoAiAiUiwj6jwB0EuAnVNFQBGRitEEoHd1mgDoEYCISMVoAtA7TQA6pwmAiEjB1HkCoHcAOqevAEREKqbOEwDdAeic7gCIiFRMXScAfdg/A9QEoHMTqEfhJBGR0qjrBGB1bHUQFgPznGIpg7mEPvdqFKE8qYiIFERdJwDWZ9LPUr8iF9ZcAHoPQESkQOo6AdDz/+4pF4CISIVoAtCbOk4A9CKgiEiFWJ6Dl5kmAN2r6wRALy+KSFGZHkXX9Q6AcgB0T7kAREQqpK4TAN0B6F5d7wCIiFSSJgC90QSge5oAiIgUiCYAvdEEoHuaAIiIFIgmAL3RBKB7mgCIiBSIJgC90QSge5oAiIgUSF0nAPoKoHv6CkBEpELqOgHQHYDu6Q6AiEiF1HECoEqAvVFFQBGRCqnjBECVAHszF1hk+HtVBBQRKZA6TgBUCbB3qggoIlIRdZwA6Pl/7/QegIhIRWgC0D1NAHqnCYCISEFoAtA9TQB6pwmAiEhB1HECoBwAvVMuABGRiijrZ1ljgE2BzZdpmwBrA6sAY4HxwGrA6Ewxig/rb9T6wqb3PjIdOArYB5gMrOq8/G69CDwAXAqcDtwZeX3qf737L75q8UL6OGBf4BvANcBCQsfVqt+scq+/YQzwHWCpQ0yx2hLgFGAlx36r/+q/xGMd88LaBvgacDvQT/6dQy1Ps8q9fggH/z87xJKqXYbvSUD9r3f/JR7rWBfKJOBYwlV+7p1ArRjNKvf6Ab7rEEfqdrJT39V/9V/isY5zIbwauABd6aut2Kxyr386xb7t26wtIdyFU//Vfyku0zjn/ApgBPAm4HrgauBAyvtSokgzR1HOr21GAh9wWI76X+/+S4FZcuJbHAz8NzA10/pFUtk3dwAG+zksQ/0vL4/+S4GlvuLeCjgReF3i9Up5lf0zwHmEz1HLaB6heJZ1Gep/OXn0X+IyHd9STQAmAl8HjiTcWhLpVNknANb156b+29S9/xKX6feV4hHAvsCPgY0SrEtEREQ6EPPllJUJiXsuQid/ERGRQol1B2Aa8Cv0GYmIiEghxZgA7A+cTcjFLyIiIgXk/QjgaOAP6OQvIiJSaF4TgJGE5/3fI19uAREREemQx8l6JHAG8F6HZYmIiEgC1glA7pP/U8AtwL3LtKcINa7nDP7vokyxiXjQd+g26r9IE5YJwAjgdNKe/F8CLiGU1rwcuBP9wEVERJL6PmmqUi0lnOyPAMal6JhUivX3p/Vr/Vq/FFWW8f0PhxW3a/OBU4EpvQYpQv4DoNav9dd5/RJX8vF9PaFWtHXFzdqLwP8C6/cSnMgQuQ+AWr/WX+f1S1xJx3cLwst11pU2axcAk7sNSqSF3AdArV/rr/P6Ja5k4zsOuNthhcO1+4EDu+66SHu5D4Bav9Zf5/VLXMnG93sOKxuu/RZYs/t+i3Qk9wFQ69f667x+iSvJ+O4D9DusbNm2ADi2x06LdCr3AVDr1/rrvH6JyzS+nSSZGA/cAWzsGPRswi3/GxyXKTIc60EsdyIWrV/rL/P6JS7T+HaSCOhEfE/+DwOvI7xPICIiIhm0m93tClzXwX/XqXsI5YIfdlqeSDu5r4C0fq2/zuuXuEzj264a4H/h9wN4lJBDQCd/ERGRzFpNAN4M7O20ntnAfsCDTssTERERg2ZX9yOB24GtHdaxENgLvfAneeS+Bar1a/11Xr/EFeURwHvxOfkD/Ds6+YuIiBRKs9ndrcC2Dss/F3iHw3LaWZdwl2FXYCtCAaG1gVUJ1QRnD7Yngb8SXmy8fvCfVUHd+99K7isgrV/rr/P6JS73XA17YU8eMUBI7zveO7hlTAA+CtxIb0mK+oFrCGWGV40YZyx173+ncidC0fq1/jqvX+JyH9/fOCx0AHiTc0cbNgBOAF5winMAeJ6Q72BCpJg91b3/3cp9ANT6tf46r1/ich3fTfAp9fvbCB0dRUgdPNchvmbtWeBTwEoR4reqe/97lfsAqPVr/XVev8TlOr5fdVjgi4SJhKfNgb85xNZp+0uEPljUvf8WuQ+AWr/WX+f1S1yu4+tR7vd/nDt4EOEWtTWubtszhKyFudW9/1a5D4Bav9Zf5/VLXG7ju7XDwhYQnlF7OQqfRxK9tqXAkY796Vbd++8h9wFQ69f66xhwZ5sAAAuTSURBVLx+icttfD/vsLBTHTt2FP4liHtpS4B3OfarU3Xvv5fcB0CtX+uv8/olLrfx/atxQUsJ3597OIi8V75D22JCauRU6t5/T7kPgLnHTv1X/3P2X+JyGd8NsF9t/tmpQ5uR55l3u/YcaV6Mq3v/veU+AOYeN/Vf/c/Zf4nLNL6NVMC7Y8/49FPj3wOMBs4GVndYlrfxwE9oX0HRou79FxGRRBoH812My5lPSCBk9QlgO4flxLIH8G8Rl1/3/ouISGJXYbuVcJ5DDBsA84xxpGhzgDUc+qv+p5H7Fmju8VL/1f+c/Ze4TOM7gnDbeQdjEB7P//8DWM1hObGtQbhS91b3/ouISEJ9wCuBW4zLmQHcYfj7CcBDlKcozfOELx7mOC2v7v2PyXoVk7saW27qv03d+y9xmX5fI4BNjQE8BdxpXMa7Kc/JD8ILcW93XF7d+y8iIomNwP5p1y3YZ7mHGf9+WbcRyuRuBaxCuK0+jXDb2jpRWdbBjsuqe/+rbF7uAAzmOixD/S8vj/5LwX0L24sEJxnXvy4+Ge9eAo6h9WdqIwknx4UO61uET/ncuvc/ttwvQd3lEEOuZnmsp/6r/xKfaYxHAJOMAdxr/Pu9sD9nmg+8ATiNcDJtZikhXfEbCCcwi9HAa43LAPW/6i7JHYDBxQ7LUP/Ly6P/UnA3Y5tF7Gtc/4nG9Q8AH+phvf/isN4v97Deoere/9isfbSaRrHSOnfalhAKhKn/6r8Ul3WcmWVcwDRjB/5kXP9t9HYFPRL77blf97Deoere/9jMO4iDUxziSN2sj/bUf/Vf4rOOM48YF7CJsQP/MK7/o4Z1/5tx3Xcb1t1Q9/7HZt5BHKwEXOoQS6p2CeERjxf1v979l3isY83TxgVYXwR7xrj+LQ3rnmZc92OGdTfUvf+xmXcQJysBJ1Ps28FLCFd+MQ7+6n+9+y9xWMfcXHluJWMHrG+kjzGse3Xjup8xrLuh7v2PzbyDONsGOIHwhnURUj/PG4zleNI881X/691/8WUa/z7CG+QrGwIYg+2N8peAsYa/X5lwEu3FKsCLhnXPJSTFsah7/2OznsSVCU1Eisp0fBuB/QA3zvj3s41/PyXT34L9UzpQ/0VEJIMRwHPGZVgL2FhPgJZv0a3fsT9k/HtQ/0VEJIMR2E9A1jsATxr//kO0zn7XzAjgaOO6HzT+Paj/IiKSwQjgWeMy1jP+/V+Nfz+D3hLhfBh7DoNZxr8H9V9ERDI5D9ubhB8xrv9A4/oHgAXA3l2sc5/Bv7Gu98099Xh5de9/bNY+iogUlfn49kPjAr5t7MBEfIrhLCBc1ba6HT6CkDhnvsP6FmF//AHqf2yaAIhIVZmPb58xLuBCh05c49CRRrudkOd+a8IncqsRvr39GOF7V6/1XOHQb/U/Pk0ARKSqzMe3NxkX8BT2Twnf79CR1M36Ap36n4Z5BxERKSjz8W2qw0KmGzuxKvaMhCnbbEISHS91739M5h1ERKSgTMe3EcD92LLBgf178hcJ7yKUxWmEDH5e6t5/ERHJ5C/YZhK/c4hhAuHKMvfVbbs2B1jXob/qfxq6AyAiVeVyfPu2cSEv4ZMT/mMOHYrdYj77rnv/Y9AEQESqyuX4Zn0RcAA40qEzo4GbHGKJ1a6mt6x7nap7/2PQBEBEqsrl+DaO8F23ZUGXO3VoE0KZ2dwnu6FtNrC5Ux9bqXv/vWkCICJV5XZ8u9q4oKXApk6d2gdY4tA5r7ZoMKZU6t5/T5oAiEhVuR3fjnNY2HccO3YkxTgJ9gPvc+xXp+refy+aAIhIVbkd37ZxWNgCYAPHzh2C/dGEpS0k78mv7v33oAmAiFSV6/Htrw4L/KZzB99M+PQs9clvNrCXc196Uff+W2kCICJV5Xp8+7jDAl8EJjt3chIh93yqk9/VFOuFt7r330ITABGpKtfj21qE277WhZ4foaMjgP8g7tXwHOBD2GsbxFD3/vdKEwCR4pgOnATcCbxAvGNZUdoLg339FjDNYfsN5X58+63DQgeIVyt+DeDLwHNOcQ4QPrv7T8qR4a7u/e+W+w4iIl0bQ3hJfCn5T8q52hLgFGAl47ZclvvxbQ+nzj5IOFnFsibwQUI54l5elFtEuK1+NDA2Ypyx1L3/nXLfQUSkK2OAP5P/BFyUdhl+kwBTLM1u9V4FvMYhuN8CBxP/QDqBUJBoOuFrhq0H/1ljIy8GHiFMSmYRnnH/GZgXOa5U6t7/Vqy/vSo9DhHJ4bvAMbmDKJhTCKnfraKcW1+H32zn4zECFOmQ7gCI5DOdet/2b9aWEC7WrKId36wVAhttAbC7Q0dFeqEJgEg+3yL/ybao7QTDdm2IdnzzKBDUaLPxme2IdEsTAJF87iL/ibao7Q7Ddm2Ienz7g1NHBwjPoDcxd1ekO5oAiOQzj/wn2qK2uYbt2mCKod0LTpsTZiljHAIFuBfYH3jIaXki7VhP4noJUKR3mkS3Zj2+mLZvu9ru9wH/a1nBEFsCNwAzHJcpIiIiEawC3I/vrY/Z6MVASUOPAETyyX2bvejNyrT+dncAAF4iVIRb6hBswwTgSuBT6BariIhIoX2ZODOg8whZ7URiyD1DF6mz3FfYRW9WydY/knDVHmMjPEC82gFSb7l3UJE6y32CLXqzSrr+jQiFY2JtjAuAKd0GJdJC7h1UpM5yn2CL3qySr38ffEoGN2svAScCG/YSnMgQuXdQkTrLfYIterPKsv73Av0OK2/VFgCnAVN7DVKE/DuoSJ1Vff/L3b9s6/+Mw8o7bTcDxwITLQFLLeXeQUXqrOr7X+7+ZV3/dxwC6KbNB34P/CvwStonMhLJvYOK1FnV97/c/TOt3/oN/gjgVPLVen4GuAX4O3APIdXwU4T8088BLwCLMsUmxWDdyZSnQqR3Vd//cvfPtH6vjfsl4DinZYksK+sO4rB+kTqr+v6Xu3+FmABAyOr3DcfliYAmACJlVvX9L3f/CjMBAPgQ8G1gJeflSn1pAiBSXlXf/3L3r1ATAIAdgXOBTSIsW+pHEwCR8qr6/pe7f6b1x3iL/mZgJ+CyCMsWERERB7E+o3saeD3wv4SEQSIiIlIgKW6vbAecDmyfYF1SPXoEIFJeVd//cvevcI8AhroF2BX4NKGGgIiIiGSWena1FfBN4I2J1yvlpTsAIuVV9f0vd/8KfwdgWXcDBwC7AZcmXreIiIgMypVL/wZgP2Bf4NpMMYiIiNRWUW6vbA0cDhwNrJk5FikWPQIQKa+q73+5+1e4REAWqwHvBj5AyCVQtPgkPU0ARMqr6vtf7v5VagKwrLWBNwAHAq8DVs8bjmSiCYBIeVV9/8vdv8pOAJY1BtgD2IWQV2B7YHLOgCQZTQBEyqvq+1/u/tViAjCcNQkTAX1NUG2aAIiUV9X3v9z9q+0EoCH3AEix6fchkk/V97/c/StVHgAREREpAE0AREREakgTABERkRrSBEBERKSGNAEQERGpIU0AREREakgTABERkRrSBEBERKSGNAEQERGpIU0AREREakgTABERkRrSBEBERKSGNAEQERGpIU0AREREakgTABERkRrSBEBERKSGNAEQERGpIU0AREREakgTABERkRrqc1jGesCHgAOATYGJDssUERGRiKwTgI8D/wWs6hCLiIiIJGKZAHwT+HevQERERCSdXicAhwNnegYiIiIi6fQyAVgVuA9Y3zkWERERSaSXrwDejE7+IiIipdbLBGAf9yhEREQkqV4mAJu4RyEiIiJJ9TIB6HePQkRERFKa28sE4GH3MERERCSlh3qZAFziHoaIiIikdHEvnwGuQvgMcAPnYERERCS+pcCMXu4AvAR80jkYERERSeNUYObIHv/4DkJCoFf5xSMiIiKRXQq8D+jvdQIA4V2Ap4E9gDEeUYmIiEgUS4FTCCf/xeBTDngdQjngAwnlgNdyWKaIiIjYvAA8AFwM/BCYuey//P/Knndr8gcFJgAAAABJRU5ErkJggg==;" vertex="1" parent="D1Pnn4vapH3yF3k0A5Gj-38">
          <mxGeometry x="25" y="13.999999999999993" width="70" height="70" as="geometry" />
        </mxCell>
        <mxCell id="D1Pnn4vapH3yF3k0A5Gj-41" value="" style="shape=image;verticalLabelPosition=bottom;labelBackgroundColor=default;verticalAlign=top;aspect=fixed;imageAspect=0;image=data:image/png,iVBORw0KGgoAAAANSUhEUgAAAgAAAAIACAYAAAD0eNT6AAAACXBIWXMAAA7DAAAOwwHHb6hkAAAAGXRFWHRTb2Z0d2FyZQB3d3cuaW5rc2NhcGUub3Jnm+48GgAAIABJREFUeJzt3Xe4JUWd//H3HSaQhjgzBAnDIIiIAmIgJ0GCYkBFxbiyrpgwEVwDwq6i6G/FnHXNuyIGQECCKJIETKCCgEgQJA9pgMn390fduwwz986c01Xd1X3q/XqeethFus+3+5x76nO6q6uGkNSLFwCvAXYCZgCT8pYjDbQFwF3ArcClwKnAhcCinEUNmqHcBUgttx7wA2CP3IVIhfsb8D7gFGA4cy0DwQAgjW868BtgVu5CJP2fc4FXALNzF9J1E3IXILXYt7Hzl9pmX+Ay4Im5C+k6rwBIY9sD+FXuIiSN61pgR+D+3IV0lVcApLG9MncBkpbrScB3chfRZQYAaWzPyF2ApBV6PrBf7iK6ygAgjW167gIk9eSjuQvoKgOANLaVchcgqSfbA1vnLqKLDACSpK57Ue4CusgAIEnquh1yF9BFBgBJUtdtmLuALjIASJK6br3cBXSRAUCS1HUO2q3AACBJkiSNuJWw4liV9oQM9XbZRVQ/17s0WOeREXV+osE6u2oTqp/fmzPU23leAZAkqUAGAEmSCmQAkCSpQAYASZIKZACQJKlABgBJkgpkAJAkqUAGAEmSCmQAkCSpQAYASZIKZACQJKlABgBJkgpkAJAkqUAGAEmSCmQAkCSpQAYASZIKZACQJKlABgBJkgpkAJAkqUAGAEmSCmQAkCSpQAYASZIKZACQJKlABgBJkgpkAJAkqUAGAEmSCmQAkCSpQAYASZIKZACQJKlABgBJkgpkAJAkqUAGAEmSCmQAkCSpQAYASZIKNDF3AZIUYSqwdkOvtUpDryM1wgAgqcvOyl2A1FXeApAkqUAGAEmSCmQAkCSpQAYASZIKZACQJKlABgBJkgpkAJDGtjDTtiUq4XyVcIzqGAOANLY7K263ELgnZSEFqHquu+SO3AVISzMASGP7TcXtLgMWpSykAJflLqABl+YuQFqaAUAa2/ca3q5kPwTm5S6iRtcCV+QuQpLUux8Aw320a4DJWSrtvhPp71x3qb0g4XkaZJtQ/RzfnKFeSQNsDeAqevsCugfYKk+ZA2EScC75O+vU7SMpT9KAMwBIapU1CZeol/flczmwea4CB8hk4POEMRS5O+7Y9hDw1rSnZ+AZABo2lLsAqSN2Bl4z8s8ZwGzC1YEfAKcSvoSUxjbA64E9gQ2BlXMW04c5wI3A2cDXKePphpQ2oXpHfguwacJaJElSQ7wC0DCfApAkqUAGAEmSCmQAkCSpQAYASZIKZACQJKlABgBJkgpkAJAkqUAGAEmSCmQAkCSpQAYASZIKZACQJKlABgBJkgpkAJAkqUAGAEmSCmQAkCSpQAYASZIKZACQJKlABgBJkgpkAJD6NzV3AZIUywAgrdhKwOuA84CHgQeBecBvgaOB1fOVJkmS6jAT+D0wvJz2T2DXTPVJg2ITlv93trx2c4Z6JQ2wjYDb6O0LaC6wW54ypYFgAJDUGhfQ35fQ7Tg+QKrKANAwxwBIY9sP2L3PbdYH3l5DLZKUnAFAGtshFbd7edIqJKkmBgBpbNtX3G4bYFLKQiSpDgYAaWzTKm43IWJbSWqMAUAaW8zfhn9XklrPLypJkgpkAJAkqUAGAEmSCmQAkCSpQAYASZIKZACQJKlABgBJkgpkAJAkqUAGAEmSCmQAkCSpQAYASZIKZACQJKlABgBJkgpkAJAkqUAGAEmSCmQAkCSpQAYASZIKZACQJKlABgBJkgpkAJAkqUAGAEmSCmQAkCSpQAYASZIKNDF3AS23JnAAcBCwBfAEYJWsFakpa0Zs+xdgcapCErsPuB34LXAqcCGwMGtFktQiqwPHAA8BwzbbALd/AP8GrISU1yZU/xzfnKFeDaC9gLvI/8VsszXZLgU2RMrHANAwxwA83r8CZwPTcxciNWxH4HJgu9yFSGqGAeAx+wNfAiblLkTK5AnAWcBGuQuRVD8DQLAFcDLeB5XWB36MfwvSwDMABCcCU3MXIbXEM4HX5y5CUr0MAOHL7kW5i5Ba5nhgcu4iJNXHAACvAYZyFyG1zBOAvXMXIak+BoAwyY+kZb0wdwGS6lN6AFgfmJm7CKmlnpW7AEn1KT0AbJC7AKnFnBhIGmClB4AZuQuQWmwGfkdIA6v0P24XQ5LGNwEHyEoDq/QAIElSkfwFXN05wCtyF9Gg7xOmS67iUODnCWsB+ARwWMVtjwK+nrCWtrsbZ/aTtBQDQHULCGurl2JBxLZzSH+u5kZs+yhlvXeStAxvAUiSVCADgCRJBTIASJJUIAOAJEkFMgBIklQgA4AkSQUyAEiSVCADgCRJBTIASJJUIAOAJEkFMgBIklQgA4AkSQUyAEiSVCADgCRJBTIASJJUIAOAJEkFMgBIklQgA4AkSQUyAEiSVCADgCRJBTIASJJUIAOAJEkFMgBIklQgA4AkSQUyAEiSVCADgCRJBZqYuwAV4a3A8xPvc5fE+5OkohgA1IT9chcgSXo8bwFIklQgA4AkSQUyAEiSVCADgCRJBTIASJJUIAOASjScuwBJys0AoF49kLuAhO7PXYAk5WYAUK9uyF1AQoN0LJJUiQFAvfpZ7gISuQO4IncRkpSbAUC9+i1wXu4iEvg4sDh3EZKUmwFA/XgLMDt3EREuBD6fuwhJagMDgPpxPXAg4TJ611wIvBiYn7sQSWoDA4D6dRmwHfBF4OHMtfTiNuCdwHOAezPXIkmt4WqAquJOwu2A9wDPAjYGVs1a0bJmA38H/oDP/UvSMgwAivEocEHuIiRJ/fMWgCRJBTIASJJUIAOAJEkFMgBIklQgA4AkSQUyAEiSVKDSA0DM8+E+Wy5J6qzSA0DMvPb3JKtCkqSGlR4ArgcWVdz2rykLkSSpSaUHgHuBX1fYbhg4NXEtkiQ1pvQAAPCfFbY5Ga8ASJLUef9F+FXfS7sJmJGlSqmahfT++V66rZShXpVpE6p/Tm/OUG/nuRhQcDRhLMBRK/jv/gy8ELir9oqkdjgaWJxgP48C/wQuBm5PsL9+DQFPB7YmBHi/+9pnrYht1wCOSVVIAncRfixeBCzIW4p6tQtwJjCPx6fLa4F3A1PylSZVFnMFIHVbRPgbe1qtR/yYIeC1wA01HpPNNl6bDRwLrII6YyqwDbAj8ITMtUix2hQARtujwKF1HjQwCfheC47VZvstsAGS1LA2BoBhwqXRfWo87i+14BhtttF2ObAyktSgtgaAYeBG6rm1tlsLjs1mW7q9lxbxMUBJOc0EXlLDfo+sYZ9SrHfRoidrDACScjsw8f4mAfsm3qeUwgzgGbmLGGUAkJTbrMT72wBHXau9Un/eKzMASMot9ffQUOL9SSmtmbuAUQYASbmlnsXtDmB+4n1KA8cAICm3nyfe3zzggsT7lAaOAUBSTncBp9Sw30/XsE9poBgAJOUyDLwVeKiGfZ8B/KiG/UoDwwAgKYfFwHuo59f/qNcB59W4f6nTDACSmnYl4Tn9k2p+nYeBAwizr91f82tJnePjMtLgW0j12cc+TrhUH2sxYXT+RcDvE+yvX6sAzyEs8hWz7OxY9ge2rbjtzwmBKKWdCVMhV3EJcGHCWgbVfsB2Fbd9M2GdCkmqXcxaAK2ZtrTFvkL18/vGGur5YEQ9/1FDPYPoi1Q/x4dnqHdM3gKQJKlABgBJkgpkAJAkqUAGAEmSCmQAkCSpQBNzF9BCOwEHAU8GpgC3A+cDpwJzMtYlSVIyBoDHzAK+Cuw9xv/2BuBO4Gjg200WJUlSHbwFEGwHXMbYnf+o9YBvAR9upCJJkmpkAAizgp0GTOvxv38/cGh95UiSVD8DABwDbNznNp8gTC0qSVInlR4AJgCvr7DdhsCBaUuRJKk5pQeArYD1K267R8pCJElqUukBYMOIbZ+QrApJkhpWegCYkmlbSZKyKj0ASJJUJAOAJEkFMgBIklQgA4AkSQUyAEiSVCADgCRJBTIASJJUIAOAJEkFMgBIklQgA4AkSQUyAEiSVCADgCRJBZqYuwBJKtjBwOaJ97lz4v1pQBkAJCmf/Uea1DhvAUiSVCADgCRJBTIASJJUIAOAJEkFMgBIklQgA4AkSQUyAEhSnAdzF5DQA7kLUHMMAJIU58bcBST099wFqDkGAEmKcyYwnLuIBOYCv8hdhJpjAJCkODcCp+QuIoEvMVi3M7QCBgBJivdu4I7cRUS4Djg+dxFqlgFAkuLdChww8s+u+StwIHB/7kLULAOAJKXxR+DpwBeARzPX0osHgY8BzwZuyFyLMnA1QElK527grcBRwG7AxsC6WSta1p3AzcAlwLzMtSgjA4AkpfcIcHbuIqTl8RaAJEkFMgBIklQgA4AkSQUyAEiSVCADgCRJBTIASJJUIAOAJEkFMgBIklQgA4AkSQUyAEiSVCADgCRJBTIASJJUoK4uBjQRmAGsHLmf9SO2XRWYFfn6kiRl0ZUAMATsBRwMHAhsSv6rF3vhGtqSpI7qQgDYCfg4sGvuQiRJGhS5f0UvzxBwHHAxdv6SJCXV1isAE4GTgRfnLkSSpEHU1isAJ2HnL0lSbdoYAF4OvC13EZIkDbK2BYDJwAm5i5AkadC1LQAchs/WS5JUu7YFgENyFyBJUgnaFADWwcf9JElqRJsCwFa097FESZIGSpsCwAa5C5AkqRRtCgDr5i5AkqRStCkAtKkWSZIG2qDcc38QuCd3EQNufcISyFXcATySsBaAacAaFbe9h/CZKYWP1kpqtcOB4YrtixnqLc1pVH9/Dqqhns9F1PPWGupps4VUP1crZahXarsvUv1v6vAM9Y7Jy+6SJBXIACBJUoEMAJIkFcgAIElSgQwAkiQVyAAgSVKBDACSJBVoUCYCkiTFWRVYjzDJ1jTC9OyjbfLIf7MWMARMAlYGHlpi+znAw4RJth4E7gPuBu4Cbh/5/9UiBgBJKsc0YFvgScDMJdpmI/9bneYCtwE3AH8f+ecNwJ+AG4FFNb++lmIAkKTBtBmwE6HD3xZ4KrBhxnpWBjYfaUt7FLga+DNwBXA58EdgQWPVFcgAIEndNxHYHthlpO1M3s6+X6sAO4y01438u7nAH4BfA78CLiLcZlAiBgBJ6qYNgP2BA4B9gLXzlpPcyoQrGDsBxxDWtLgC+DlwJvA7wtz6qsgAIEnd8TTgZcDzCZf1h/KW06iJPBYIjiesMnoG8BPgXGB+vtK6yQAgSe22NXDISHty5lraZH3gsJF2P2HF0h8CZ+PYgZ4YACSpfdYBXkPo3J6auZYuWAt47Ui7C/g+8E3gyow1tZ4TAUlSOwwBewDfJTwu9yns/KuYAbyT8BTB74E3AqtlrailDACSlNcqwOHANYTR7q8iDIBTvO2BrwC3AicBW+Qtp10MAJKUx3TC6PYbgC8SJudRPdYiXBX4K3A64THJ4hkAJKlZM4EvA7cAHyM8zqdmTCA8QXEx4WrLvlmrycwAIEnN2Aj4NOFS/7/hZf7c9gDOIUwwtFvmWrIwAEhSvaYRfulfBxyBHX/b7EKYbfBcwjwLxTAASFI9JgPvINzjP4Yw2E/ttQ9h6uGTgVmZa2mE8wBIUnovBT5OWJCnSx4E/gHcO9LuISzp+yBh2t37R/67BYSZ90Yfr1sVmEK4urEujy0nPJ2wxPAGdGPWwgmEmRZfAHyWMOPgwK4/YACQpHSeBnyGcH+5reYCfwGuIqzA93fgppE2u6bXXBnYlBCIZgJbEs7VttS/DHEVU4AjCbMvvo3w5MDAMQBIUryVgQ8CRwGTMteypIWE2fAuBn5DmBzn+pF/36S5wLUjbWkbEMLAswnz/O8MrNFcacu1CWGK4VMIt3P+mbectAwAkhRnN+CrtOM5/sWEVfLOAi4ALqf9l7BvH2lnj/z/E4BtCOd1X+A5wOp5Svs/Lx2p5X3AlzLXkowBQE3YnLDOd0ozEu9P6tfqwCeAN5H3/vb9hOVxzyQ81nZ3xlpSWEy4PXEV8HnCYMrdCEsfH0S+oLXmSD2vof2hqicGADXhpNwFSIk9E/ge+aaWfQQ4H/g24RL1vEx1NGE+8IuRdhTwFMJAvVcSxhI0bccMr1kLHwOUpN6tBHyAcE+96c5/MeHS/ksJI+wPIix/O8id/1j+AhxHuBLwTMKv8vuXt4HG5hUASerNpoSV+nZt+HVvA74BfB24ueHXbrvfjrSjCVcF3kiY2Ec98AqAJK3YvoTBdU12/pcDLycEj2Ox81+eR4BvEd6fbQm3RuZnragDDACSNL4hwix+ZxEuu9dtMfAzQuB4NmFWukUNvO4guQp4HeERvuOpb26DzjMASNLYphI64I8R7v3XaZjQ8e9AuLd/Xs2vV4I7CWMFNgXei+MElmEAkKRlzSRMnPPSBl7rdB7r+P/YwOuVZg5wIuFx5I8yII/wpWAAUK8W5C4gIe8NanmeRej8t675dS4nzHr3AsIiNKrXbMJEPpsDX8FbKwYA9ez23AUkNFDTeSqpFwG/JCxgU5fbgNcSnie/tMbX0djuIkzetAPwq7yl5GUAUK8uyl1AIgvxS1djO4Iw5/uqNe1/AXAC4fn17xDu+yufK4G9CLd5bs1cSxYGAPXqDMLSoF13Go4K1rKOBT5NfYP9Lif84nw/8HBNr6FqfkSYXfALhKcwlMHhhERcpX0xQ70lehPV36M2tDm0Y8GWpi2k+jmre/R7G5xIvZ+5d1HGeRwEuwLXUO/30OGNHU2HGAC64Qvk78irtPnAwTWcjy4wAIxtCPgc9X3mLiUMOFO3rAx8knA1oI7PxTXA+o0dTUcYALrjncCD5O/Ue23XAbvXcia6wQCwrCHga9TzeVtImIDGqda77bmEAcN1fEaupt6Bpj3xA6oqPkVYCe2VwN7ABrSvo5gL/J0wucpPGKzHGBXvs8BhNez3JuDVhMWC1G3nEKYV/hrhUc2UnkxY3XBvwlMJxfMKgFQPrwA8Xl33/M8C1mnwONSM0emgY/6OxmtXAdOaO5T2MgBI9TAAPOZDpP8SX0wz0wUrrz2AO0j/+bkCWL3B42glA4BUDwNAcATpv7wfIP3lYbXXJoTlh1N/js4EJjV4HK1jAJDqYQCA55H+Eu5twPZNHoRaYTXgp6QPAd8j3G4okgFAqkfpAWAHwvP4Kb+srwI2bvIg1CorEW77pA4BJzR5EG1iAJDqUXIAmEn6+7Zn4j1bBe8gLCqU8vP1hkaPoCUMAFI9Sg0AawB/Ie2X8w8o/F6tlvFqwmPGqT5jc4GdGj2CFjAASPUoMQAMAT8kbef/PZw7RWM7CHiUdJ+1O4CNGj2CzAwAUj1KDADvI23n/yVcPE3Ltz/wCOk+c7+nvpUpW8cAINWjtACwL2lH/H+Bgkdnqy/7Ei7hp/rsfaPZ8vMxAEj1KCkAbEpYtjrVF/A38Ze/+vNCwuJjqT6Dr2q2/DwMAFI9SgkAE4Bfku6L90d4z1/VvIR0AwMfooBlzA0AUj1KCQAfIF3nX/zMbIr2RtJ9Hn8LTG62/GYZAKR6lBAAnkW6y66/B6Y2W74G1EdIFwI+2XDtjTIASPUY9ACwGnAtab5kb8MZ/pTOEPBt0nw2FwP7pCzOwS2Suu4TwJYJ9vMgcADwjwT7kiB03G8ELkywryHC46irJdgXYACQ1G07AW9KsJ9h4F8Ic/xLKc0DXgTcmGBfmxNuKwwcbwFI9RjUWwBTSDfV7380XLvKsx1pJgpaBOzecO21MwBI9RjUAPBh0nT+Z+HVUDXjX0nzmb2WEIAHhgFAqscgBoCnkmbU/43AOg3XrrJ9lTQh4H2xhTjJhaQu+izxz+kvBl4PzI6uph4rAzsC2xImgtmEMDf8GoTpZh8mLBpzLfBX4CLgriyVqh9vB55NCLEx3k9YoOrm6IpawCsAUj0G7QrAS0nzC+q4huvuxRrAYcB59L+63GLCIMbjCIPF1F7bEwYHxn6Gf9B04XUxAEj1GKQAMAW4nvgvzito10x/mwKfI/yqTxFuFgPnAHs2eAxdsQGwK+Hc5Jxi9yjSvNd7N114HQwAUj0GKQD8O/FfmHNozy/kqYQZ3lIuHrN0+wWwVVMH1GIvBi4nhKMlz88twHtpfundCcD5xL+/VzEAg1gNAFI9BiUArEdYGCX2C/NdTRc+jv2AW6mv41+yzQOOpV3vZ1Om0NtsfH8CZjVc2+akuerzmobrTs4AINVjUALAScR/UV5O/mNaCTiB8Dx3E53/ku18QpAqxWTgdHo/PzcC0xuu8eg+6lte3Z1eLMgAINVjEALABsRPorKAMPgqp8mEgVtNd/xLdxYppk5uu5UJczz0e36+1XCdEwmr/cW+r29puO6kDABSPQYhAHyB+C/I3FOoTgHOJm/nP9ruYLDHBVTt/IcJfy8zG6736cT9nQ4D/yThOgFNMwBI9eh6AJhJ/CNTt5L3y3EC+X/5L93+QZhbYNDEdP6j7W2NVw1fiah3tB3ZeNWJGACkenQ9AHyZ+C/G3IOkTiD+GOpov2OwppTt957/eO1zTRcOzADur1jvaLuVjo4FMABI9ehyAJhB/L3/3xCWUs1lb+Iv79bZcnR2dUjxy3+0fb3h2ke9p48ax2tvaLzqBAwAUj26HACOp3rto22nxqt+zFSae9QvpnV9MpmUnf8w4XOXw2TiJ7q6hg7OC2AAkOrR1QCwKnD3OHX12k5rvOrH+yRx9TfVury6XKrL/ku2PZs8gKW8epya+mkvarzqSAYAqR5dDQAx3wnDhBnfcj72tzFp5ntvqr25ntNQqzo6/7+Sd6G8lYCrx6irn3Zh41VHMgBI9ehiABgiXMqM+RI8pfGqH+9zxNXfdLuZbg0gS33Zf5jwt7JPkwcxjkOIP5bY1QYbZQCQ6tHFALB7HzWO1RYBT2m86sesQdqFfS4GjgFeQFhKdj/gjcAPCWsbpOoAD6njZNSgjs5/GHhnkwexHBOAK4k7lk4N7jQASPXoYgD4bh81jtV+0nzJj3MYcfWPtvMJk8QszzTCNMkLErze6ZHH3YQ6LvsPA+9v8iB6cChxx3M/HZoYyAAg1aNrAWAt4n8979p41Y93HnH1DxPmDuhnNPdzgfsiX3M+sHalI25GKZ0/hHEINxF3XIc1XXRVBgCpHl0LAEdE1DsMXNZ8yY+zMvAo8Z1/FTsDcyNfu60jyEvq/Ee9i27/LfTMACDVo2sBIPbeZ+772HsSV//5xD3H/Y7I1/9MxGvXpcTOH8I8ErFXdbZovOoKDABSPboUALaOqHWYML99zke4IK4DXgzsEPn6E4l7jOxXka+fWqmd/6jYZbCPHW/HnZstSNJAe3nk9t8gBJ6cnhSx7SWE+fljLAS+FrF9TP2pTQZ+BDw/8X4/QP7VIXs1uhZGVa9MVUidvAIg1aNLVwBifrkuAjZtuN6xxPxaPSZRDU+MqGGYdswHUPov/yVdTNwxbzfWTr0CIKktngo8OWL7cwiT2eQ2NWLbaxLVcANhFsKqYo4hBX/5P95XI7cf8yqAAUBSW8QO3ou57J1SzLPXdyWqYZiwjkJVqyeqowo7/2WdDDwUsf2YT3YYACS1RcwX/kPAGakKiRTzy3uNZFWE+RSqmpusiv7Y+Y/tEeDUiO23JNwWehwDgKQ2WB/YNmL7n5Kv01pazC+1VGMY1iHuV/ycRHX0w85/+U6O3P7Apf+FAUBSGxxAWACoqh+kKiSBmEvvz01Uw34R284h/OJskp3/ip0NzI7Y/nlL/wsDgKQ2OCBi2/uBc1MVksC1EdvuT5jbP9arI7a9jrjHzvpl59+b+cBpEdvvwVKDOw0AknKbSNwSrGcQvhzbImYk/+rEP6a2O2Nc7u3D1ZGv3w87//7ELHI1hRACWsl5AKR6tH0egGdF1DcMvKqBGvsxgzCjX9XjWUj1Dnwd4PqI1x4mLDPcBJ/z799qxK31cGLzJffmX6l+UJ1a91hqWNsDwDsj6lsETG+gxn5dRVwndh+wS5+vuS5wUeTrDgOb93+4fbPzr+5cqp+fSzLU25OD8E2X6tD2AHBKRH1tXe3sOOI7s7mEdQUm9fB6uxMm/4l9zSsjjrlXdv5x3kP1czQfWLX5kldsA0Kar3JQ+2aoV+qKtgeA2yLqO76B+qrYnLjbAEu2a4F3s+yqbusAryCMgUjViR6Z8ByMxc4/3lOIO1d7Nl5xj86j/4O5lXbMWy21VZsDwGYRtQ0Dz6m5vhjnkL6jmwfcQphrIPW+HyaMX6iLnX8aQ4QZI6uerw82X3JvngUsoL+DeV2WSqXuaHMAODSitgXknbJ2RfYkfWdXZzuplrMQ2Pmn9ROqn7OYGQVr91Z6v3T25Uw1Sl3S5gBwYkRtv625thSqXNXM0R4k3Iatg51/ekdS/bzd1Hy5/XklYcaj8Q5gLuE5z5iZw6RStDkAnBVR26drri2FLYl7bKup9u6ajt/Ovx47Uf3cLSZunYhGrENYG/vXhEFCdxIS/wnAzHxlSZ3T5gAQMwBwzCVOW+hY8nfwy2uXEyZjSs3Ovz5TiAuWuzdfsqQc2hoApkXUNQxsVWNtKU0g7tntOtt9hIGYqdn51++PVD+Pb89Qr6QM2hoA9o6o69Gaa0ttfdI8p5+yLSBuDYbx2Pk349tUP5dfzVCvpAzaGgDeElHXFTXWVZcnAneQv+MfJtwHfl0Nx2jn35yjqH4+z89Qr6QM2hoAPh5R19drrKtOWwE3k7fzX0iYej01O/9m7Uf1c3pjhnolZdDWAHByRF3vqbGuum0E/I48nf99eNl/UGxMXAjsZYppSR3X1gBwRURdB9dYVxOmEBYxa7LzvxwH/A2SCcQ9CTCr+ZIlNa2tAeDuiLqeXmNdTdoD+DP1dvxzCIsT1TFlup1/XtdR/Rzvk6FeSQ1rYwBYLaKmYcI8IYNiMvBmwgxtKTvRh4FP4Qx/g+xsqp/nwzLUK6lhbQwAsyJqeqCmmnKbBBxC6FT7XRNlyXYlYYyEC/sMvi9T/Vy/t47ZnyRpRdaN2PYfyapolwWEgZEnA2sTFhPaC3ga4emB9cbYZg5Ws7qmAAAU3klEQVThMvDVwIXALwjzDdRpMvAj4PmJ9/sB4COJ9znoYv4WpiWrQlJrtfEKwAERNf2qpprabjLh1scsQhhYLVMN/vJvj8Opfs7/2ysAknKIuQJwT7IqumU+YZG02Zle31/+7XNvxLbTJiQrQ5J6F3P5sdQAkJOdfzvF/C0YACRlsWbEtrl+AZdqCnb+bRUTANY2AEjKYeWIbQf1KYA2mgKcgp1/Wz0Yse0UA4CkHGImpZmfrAotj51/+82L2NYAICmLKRHbGgDqZ+ffDTF/C5MNAJJy8ApAe9n5d4dXACR1jgGgnez8uyXmb6FTAaBLtUpavqGIbRcnq0JLsvPvnkUR267U5k51E+C/gGsJlznmA7cAXwW2z1iXpHhzI7atY1W70tn5d1PMWJqY2we1egfwKONPYbgI+Axh8QxJy9fGqYA/HVHTm2uqqVRTcHrfrlqT6u/PfRnqXaFj6f0AfkjcpUSpBG0MACdG1PSOmmoqkZ1/t82g+nt0Z4Z6l2svwv29fg7i7VkqlbqjjQHguIiajqqpptLY+XffRlR/n27JUO9yXUL/B3E3sEqOYqWOaGMAeG9ETcfVVFNJ7PwHw5Oo/l5d36ZBgJsCO1XYbhqwT+JaJNUrZhBgzEqCcsDfIIn5W3ioTQEgZmS/TwVI3fJIxLYGgOrs/AdLzKqa97YpAEyP2Ha9ZFVIasLdEdvGfOmVzM5/8MSE4XsmJisjXsy9xjYFGUkr9s+Ibb0C0L+ud/4TgR2AbYEtgY2BtYBVCbeT5hCWxr0WuIYwnqyVj7klFvPDuVUBQFI5bo/Ydv1kVZShq53/KsCLgFcQnhCb2se2i4A/Aj8BvkMLR7wnEnP1e3ayKhI4nOqjGb+YoV6pK9r4FMBk+n/kd7QtBlauqa5B08XR/usR5om4P1Gti4AzgF1qrDmXH1P9vLTqEXoDgFSPNgYACOMAqta1ZY11DYqudf6rAP9BGCCauubRdjaD9dn5A9XPxQsz1DsuA4BUj7YGgKsi6tqvxroGQdc6/12Bv9VQ71ht7shxDMLYsfuofh6elqHecRkApHq0NQCcHVHX4TXW1XVd6vyHgH8HFtRQ74raeYSpdLtqbeKOf41BSECSuumGiG0H6TJuSl0a8LcS8GXgBMIo/6Y9B/gNsEWG107hSRHb3gs8aACQlMs1Edu26vJlS3Sp858InAy8MfF++7UZcCGwVeY6qoj5G7gRBuMeiKRu+kvEtgaAx+tS5z8EfAk4OPF+q1oPOBfYJHchfdomYtsbwAAgKZ+YKwDTgQ1SFdJxXer8ISwEdVgN+42xEfBTuvV46bYR216VrIpEHAQo1aOtgwAhTEZStTafBOjWgD+AHYH5NdSbqn2+puOuw71UP86DwCsAkvK6OmLbZyWropu69st/FeB7wKQa9p3KW4D9cxfRgy2BdSK2vwoMAJLyigkAgzizW6+61vlDeNxvVk37TukzhPPbZjGf/QcYmRrZACAppz9EbLsjZX6HdbHzXw84sqZ9p7YF+Z9OWJGdI7b9M+E2QJF/PJLa4+KIbdckbiR0F3Wx8wd4N+EWQFccTVivoq12jdj2stH/w9UAJeX0Z8IlyTUrbr8bLRzRXJOudv6rAG9KuL/fEwY+XgPcAaxBeIRvX+C5pAkaGwMvBb6fYF+pTSduEqBLUhWSkk8BSPVo81MAAGdF1PfTBuprg66N9l/SKxPV+htW/Mt3OuEefsxnfrSdFXncdTmUuONq5XLaBgCpHm0PAB+IqG8O7R+wFavLnT/AaQlq/Sz9XbHej7iFcoYJfzfTKh1xvb5D9WO6LkO9PTEASPVoewDYM6K+YWDvBmrMpeud/0TCLZ7Yzr+KnQkr/8W89ssqvnZdJgB3Uv14/rv5kntjAJDq0fYAsCpxk8N8ooEac+h65w/hSY2YWi8lbqza2yJfv219yzOJO543LLmzsU7sM4BXjLzQDJobCblGxLaHEgZ/SFpWTCfe1CXDoYhtDwKOSlVIS3R1wN/SYqarhfC+LozY/ovAm4GtK24fW39qMZ+HYcIS3GNai7A6U+q0abPZbHW3tn1RxxiEX/6jPhlR7+8S1fD2iBruTVRDKtdQ/ViuXHpno/MArEt4NKBt9zskqReH5C4gkUH55T8qZoW90xPVcFrEtusAUxPVEWtb4pYtXuaphtEA8F3gyRE7lqScXp67gAQGrfOHuM4zZrnoJd1MeFqkqtUT1REr9jP+86X/xQTCwgddWPxAksazOWH8UlcNYucPsFrEtnclqyJuX224AjBE3FWuBxhj1s0JwOsidipJbfH63AVUNKidP4SnO6qKGRiecl9zk1VR3e6EkFvVacCCpf/lBMpeUUvS4HgV4ZHCLhnkzh/goYhtY8YPLGk1wji3qmJuH6RyWOT2J4/1LyfQ0mkBJalPa9GtgcyD3vkD3B2x7b6JatiX6o+ZziNcPs9pbcK6BFXdB5wz1v8wAZgUsWNJapO2L+M6qoTOH+DaiG2fS5jbP9ahEdveACxKUEOMVxG3wNFPGOdWjMsBSxokuwBPy13ECpTS+UN4br2qVYAPRr7+M4j79RxTfwpDhFlyY4x5+X9U7gk8bDabLWX7Fu01SJP89GIdwi/oqse1EHhexdeeCvwp4rWHgSMqvnYqzyOu/n+ygqmUc/+x2mw2W8o2n7Cee9uU1vmP+h1xx3cfYWGffqwBnBv5usPANv0fblK/JK7+/1zRC+T+Y7XZbLbU7UTapdTOH+KWex5tcwkL+/SyMNAzCJMIxb5m7qVzdyCu/sX08Ohg7j9Um81mS93uA9akHVYmzMKW+hiPafIgIswkdEYpjvkawtz+Sz8iuCrwIuCHCV8rdvxBrP8lrv5xF/5ZUu4/VJvNZqujfYh2+Drpj60Lv/yXdCbpz8HDwN+BO2vY9zxgo1rORG+eQtzYiWF6GPw4NPIfVhUzM5EkLc/RwJsitn8AmAXMTlNOJQcDP0q8zzaO9l+RnQgLznXFV4j77MU6BXhJxPa3Ej77y8z+t7SYhCFJddmU8AUW8x11QuNVP97lxNW/dOvKZf+xnE36X+p1tEcIty1y2Z742xhH9vpiBgBJbRV7H/QhYEbjVQfrk+5+dNc7f4AtCIP5cnfwK2q57/3HDhZ9gD7GvxgAJLXVM4j/Qv9y41UHu/VR44pa1+75jyfFEwF1tj8RntjIZe9x6uqnfaKfFzQASGqzC4j7nloIbNt41Wm+zIfp/i//JU0gzEufu6Mfq80Btq7v0FdoJeCqMerqp/U9B4YBQFKbPYf4L/dfNl41bBlR7yB2/qPWI8yxn7vDX7ItIm7K4BTeTPxxfL3fFzUASGq72KsAw8SNqq7qpoq1DjM4l/3HMgu4nfwd/2h7R72Hu0JrE1ZOjDmGeVQYvGgAkNR2uxL/JX8bYcngJv17xVoHufMftRVwM3k7/sXAe+o+0B58lfhj+XyVFzYASOqCX5DpSzLCqvS/IM0gXvYfz0bA78nT+c8h/2V/gD2If1rkUSpOXGQAkNQFOxL/RbmIcDWhSbPo7Z73QuCdDdfWBlOAT9Ns5381+Rf6gbDk8XXEH89JVQswAEjqiv8h/svyGsL8/E1al7BM8XjTu/4F2KfhmtpmT9Is4rO89ghwHM2//+P5KPHHNBuYVrUAA4CkrtiIMAd87JfmJ5sufMRMwqp2nwW+ARwP7EV4BEzhasDbgVtI2/HPI0zvO7OxI1mxXQhXfWKP7YiYIgwAkrrkBOK/NBcDBzZduHo2GXgVcBZxneR1hJn9ci7sM5Y1CQsZxX6OrwYmxRRiAJDUJVNJ8wjZP4m4dKrGTAcOAb4AXArcy/i/8v9CWBL4CNpxj3883yX+8zsM7B9biAFAUte8nDRfoKcSVkVVt6wBbEgYYLkZ4Tn6rtxGeTVpPrunpyjGACCpi2IXTRltJT12p7yeSnj8MPYzO4cQfKIZACR10aak+TJdRIJLqdIKTCU8gZIitEYN/Bs1RFxH/owURUhSRW8DXp9gP/cAOxBGn0upDQE/BV6QYF+XATsTBrJGiQ0AkjQofkeYle3h3IVo4BwHfCjBfuYTguqfE+yLCSl2IkkDYAfge3RnMJm64bXAsYn29WESdf7gFQBJWtqXgcNzF6GBsDtwDmGCo1gXE65QLUqwL8AAIEljeSdhfnqpqq2BiwiPKMZ6ANiOsLx0Mt4CkKRlnQQclrsIddbGwJmk6fwB3kLizh+8AiBJ41lImHDox7kLUadsCPwa2DzR/r5DGEeQnAFAksY3HzgYOCN3IeqEacCvgKck2t+fgJ2o6cmUCYT5kyVJy5pMmFv+ubkLUetNIwz4S9X5308In7U9ljqBsKiGJGlsqwCnkWYSFw2mDYELgO0T7W8x8Brgb4n2N6YJhKIlSeObApwCvCJ3IWqdmYR7/lsn3OeHgZ8l3N+YVgJmA/9S9wtJUsetBLwYuIMwa6C0NXA+IQSkcjLwdhoYn7cScDPhIFLdt5CkQTUBOIgwNuCXmWtRXnsBZwPrJdznxYT7/gsS7nNco+tgrw78AnhWEy8qSQPgfwhXTx1IXZ7XAl8lBMFU/kYY8X9Pwn0u1+hEQHOAPYEvEJ59lSQt3yuBc4HpuQtRY4YIC/t8k7Sd/z3AgTTY+cNjVwCWNAt4GWGp3w1JM4fxWNYBNovY/gbCYxJN6FKtksa3HrBR4n3eArwUuCLxftUuawLfJv3TIA8B+wCXJ95vqx1JGORQpS0ghJOmbEZYgKFqvW9qsFZJ41uT0FFX/Vser80F/q3B41CztgKuJv3n5hHC1ffifI3qJy3HrFy/jqj3UxnqlTS2dYGrSP9lPky4L7xqc4eiBryacJs89WdlHrB/g8fRKhdT/cQdkaHe90fUe3aGeiWNbwb1/KIbHtlvqglhlM+awHep5zOygDDav1g3UP3k7ZKh3v0j6r0yQ72Slm8D4Frq+YKfR7jN6Yqr3bQLcCP1fTaK7vwB7qL6CUz53GWvNo+o98YM9UpasfUJAb2OL/phwiQxqVaFU/1WAT5KeBqujs/DwxR82X9J86h+ElM+ftGrdSPqbfTRDkl9WQu4iPpCwCOER8cmNXQ8qmZX4Brq+xzMAZ7T2NG0XNcCwDoR9c7OUK+k3q0KnEV9X/7DhOmDn97UAalnaxMGby6mvvf+Hpxo73HuofrJzDHxxqyIem9qvlxJfZoM/C/1hoCFwFcIgxCV10rAm4G7qfc9vx7YoqFj6oybqH5Cn918uewbUe9VGeqV1L/Rmd7q/DU4TJj85Tjqm2hNy7cX9Y79GG2XYtgb02+oflLfnaHeD0XUe26GeiVV9yrgUervIK4nPGfu0wLN2B44nfrf12HgB8DKzRxW93yL6if2ggz1/j6i3s9lqFdSnJ0IS/820VlcDRyCQaAu2wCnUP+VnWHCrLHHM/ZU+xrxPqqf4IU0e1llZkStw4S1nSV1z6bUM3XweO1K4FBgYhMHV4AdCOM6YqZy76fdBzy/kSPruP2IO9Efa7DWz0fWunODtUpKawrhKl5TIWAYuBl4FzC1geMbNEPAAYQl7pt8z64EntjA8Q2E1Yh7FPARYOMG6twSmB9R54P4/K80CF5O+HtuslO5HzgJ2LqB4+u6tYC3AX+m2fdomLBK4Gr1H+JguZC4k34K9d5nmUD8s8E/q7E+Sc3akmZGj4/VLgJej4sNLWkI2J3QAT9C8+/J/YRbNqrgXcS/Ae+rsb4TEtT3hhrrk9S8KYRbkHVNF7ui9iDwHeAgyn2McFvC93PMmjKx7ULC+DBVtB5hVaSYN2ER4dJcam8gfsToI4QVpSQNnp2B68jXAQ0TBp39N/ACBvsS9ATgmYTR9X8l7zmfD3yAMJGQIqV4JnMR4UpAitsBE4APk+Zxke8nqEdSe61KGCDYxONlK2pzCXOOvAd4Sp0H3ZDphMvr3wHuJP/5HSZM7LNNnQddmj1I9+acQtzAwFmEe/YpalmM835Lpdgd+BP5O6gl213ATwnLEu9MnjVU+rEFYYzD1wjzIrQhVI22h4AjcJ6GWsQOBlyyPQKcSH/zBGwIfIq4pxKWbmf0eQ4kddsk4CjCqm+5O6yx2jzgD4QBc0cBzyX8YGq6U1ubMJ37G4HPAr8iLJiW+/yM104nzAcxcNoyU9FehHWzU1oEXAKcBlwM/J1wv2yI8LjIFsAuwIsIqzSl/CNYTPiA/zbhPiV1w8aEHxQH5y6kR/MI8w7cBNwI3ArcS1gk556R//thQrBZQPh+e2Bk21V4bLrbtQhXGdYdadNG/rkhYbDcTGCzkf+uC64hTDv/89yFlOD75E96qdoXEp8bSd2zM+HRvdzfR7b+2n3AMbT/lslA2YDwTGXuNz+23Qmsk/jcSOqmIeAVwN/I/91kW357lDDp0rQx30nV7qXk/xDEtEWEKY4laUmTCYPImlpcyNZ7m0e4avuEcd89NabpObdTto/UcD4kDY5VCNPV3kz+76vS23zg6ziZT6tMBs4j/4ej33YqTgwhqTeTgH8BriX/d1dp7QHg/9HMWjKqYCphBH3uD0qv7SJCspekfkwAXkJYua5Nz70PYvsH4fFHZ2ftgOl0IwRcRHiuVZJiPBn4DIMxGLotbRFwNvAyXJW1c6bS7tsBp+Ivf0lprQ78G+HHhVcFqrVbgf8kzDugDptMmC0q9wdqybaYsBrYxBqPW5I2Iyw8czX5v/fa3mYD3yA8ieV4rAHzEsIEDbk/ZHcDB9Z8rJK0tB0IPzz+TP7vwba0BwhTGz8fJ+4ZeOsT3uwcl8UWj7z29NqPUpKWbybhNsHphFUAc3fETbYbgE8D+2CnX6Q9gAto7gN3DrBjI0cmSf2ZChwAnEAYN5ByUbM2tOuBbwJvwMl6tITdCIv9zCf9h24e8CPCoj6S1BWrAnsDHwR+TFgILXcn3mu7nxBiPklYTGn9xOdGS2jLaoCxZhDm2z6Y8Et9SsX9zCWsHPhj4H8Jg0okqevWBLYDtgW2AWaNtE3IM2DuXsLKg38HrgT+NNJuylBLsQYlACxpVcIyvzsATwK2IgSEtQiP1wwTlrV8ALidMBPXtYQ5By4hhABJKsEkwlr3s4CNCN+V03lsKd9pI22Ix5b+HV1SHcICOqPfmfeN/PNBwmDpe3lsOeF7gVsInf5NI/+NMvv/bCy6rCdfyZkAAAAASUVORK5CYII=;" vertex="1" parent="D1Pnn4vapH3yF3k0A5Gj-38">
          <mxGeometry x="25" y="124.5" width="70" height="70" as="geometry" />
        </mxCell>
        <mxCell id="D1Pnn4vapH3yF3k0A5Gj-42" value="" style="shape=image;verticalLabelPosition=bottom;labelBackgroundColor=default;verticalAlign=top;aspect=fixed;imageAspect=0;image=data:image/png,iVBORw0KGgoAAAANSUhEUgAAAgAAAAIACAYAAAD0eNT6AAAABHNCSVQICAgIfAhkiAAAAAlwSFlzAAAL0AAAC9ABdzF0jwAAABl0RVh0U29mdHdhcmUAd3d3Lmlua3NjYXBlLm9yZ5vuPBoAABtqSURBVHic7d17sPR3XR/w9+fJkzQmEiLhJiRNBEfuJCZEcESjYAE7gmiU8Q5xREGt2o4OFIqignFalSBFWikGtaJSii32Ii1awz3mQkLAqIMYx8gtKteQJ/CEb/84+4RAkudc9rf7/e35vl4zOzA8Zz/7Xvac/bzP/nZ/p1prgU1UVV+S5ClJzllc7tc3EYN4b5IrFpdXt9b+unMe2JNSANhEVfXMJP8uyYm9szC0G5P8ZGvtZb2DwG4pAGyUqjouyeuSPL53FriN1yd5UmvtU72DwE4d6B0AdunfxPJnfh6fre9N2BheAWBjVNXZSS5NcrB3FrgDh5M8srV2Ze8gsBNeAWCT/Gwsf+brYLa+R2EjeAWAjVFVNyS5e+8ccBR/31q7R+8QsBNeAWAjLD7yZ/kzd3dffK/C7CkAbIozeweAHfK9ykZQANgUx/cOADvke5WNoAAAwIAUAAAYkAIAAANSAABgQAoAAAxIAQCAASkAADAg51VnJH+U5Ft7h2DWXpPksb1DwDooAIzkcGvtI71DMF9Vdbh3BlgXhwAAYEAKAAAMSAEAgAEpAAAwIAUAAAakAADAgBQAABiQAgAAA1IAAGBACgAADEgBAIABKQAAMCAFAAAGpAAAwIAUAAAY0MHeAYCdqapTkzwmybmLy737JrrVB5Jctrj8cWvt+s55gB1QAGDmqupAkh9N8sIkJ3SOc0dOT/LIxX//ZFU9J8lLWmuf6ZgJ2IZDADBjVXWPJJckeVHmufw/3wlJLkpyySI7MFMKAMzbryV5dO8Qe/DobGUHZkoBgJmqqu9J8uTeOZbw5MV9AGZIAYAZWhz3v6h3jglctLgvwMz4wYR5emCSu/UOMYG7Zeu+ADOjAMA8ndM7wIT2032BfUMBgHk6q3eACe2n+wL7hgIA83Ri7wAT2k/3BfYNBQAABqQAAMCAFAAAGJACAAADUgAAYEAKAAAMSAEAgAEdXNXgqnpAkq9Mcm6SL89m/ClT5uvk3gE20K8kuXjJGRck+dEJsozkF6rq2b1DsNE+meQdSS5L8rbW2l+s4kYmLwBVdVKSX0zy9KlnA7vy/tbaVcsMqKr3TxVmIKcvLrCMrzzyX6rq5Ul+orX2sSlvYNJDAFX1VUmuieUPAFN5epJrFjt2MpMVgKq6W5LXJPmnU80EAJJs7dbXLHbtJKZ8BeAlSe494TwA4LPuna1dO4lJCsDiZYnvnGIWAHCnvnOqQwFTvQJw3kRzAICjm2TnTlUAzp1oDgBwdJPs3Kk+BnjORHNgo1XVfZM8KMv/bJ02QZy5OK2qnrDkjMNJrm2t/d0UgWDDTbJzpyoAJ000BzZOVT0myY8neUSSL+4cZ47++eKytMV5CS5PclFr7Y+nmAkbaJKd61TAsEdVdWJVvTTJG5I8MZb/Onxxtv6/fkNVvbSqTuwdCDbVyk4FDPtZVR2f5G1JHtY7y6AqyQ8l+eqq+orW2qHegWDTeAUA9ubnY/nPwcOy9VgAu6QAwC5V1Vcn+bHeObjVjy0eE2AXFADYvR+Mn505OZCtxwTYBU9isHtn9w7A7XhMYJcUANiFxbvOH9A7B7fzAJ8IgN2Z06cAnpbkg71DMFvnJXl27xBJ7p/NKc5T/O3wSf/++AodyNZj887eQZL8QpJLeodgtu6V5JW9QyTzKgCXtNau6x2Ceaqqk3tnWNiU5Z8kV8xkxrrM5bG5urX2h71DME9VdUbvDEfM5QcGmNank1w1wZyrFrOAfUYBgP3p0tbazcsOWcy4dII8wMwoALD/HM605yn4scVMYB9RAGD/ubC1duVUwxazLpxqHjAPCgDsL69M8oIVzH1BZvLOZWAaCgDsD+9L8o2ttQtaa5+aenhr7VOttQuSfOPitoANN6ePAcIoPp3kz5ac0ZL8bZI/TXJZkre01j6xbLBtb7S1/1lVD0jyVUnOTfIVSU7L1l/nW8aDkxy75AxgFxQAWL/3tdbO6h1irxZF4/WLyySq6rokp081D9ieQwAAMCAFAAAGpAAAwIAUAAAYkAIAAANSAABgQAoAAAxIAQCAASkAADAgBQAABqQAAMCAFAAAGJACAAADUgAAYEAKAAAM6GDvADCgg1V1xpIzWpIPttYOLR9n76rq+CT3SlJLjvJcBGvmhw7W775J/nqCOYer6t1JrkzyX1pr/3uCmduqqm9I8m1Jzk7ykHgegY3kBxc218EkZy4uF1TVxUn+ZWvto6u4saq6a5IXJblgFfOB9fIeANg/LkhyTVWdOvXgxcxrYvnDvqEAwP5yWpKXr2DuyxezgX1CAYD95wlV9X1TDVvMesJU84B5UABgf3ruTGcBM6EAwP50v6o6Zdkhixn3myAPMDMKAOxfj5jJDGCGFADYnZt6B9iFh85kxrps0mMD3SkAsDvvSfLJ3iF26NiZzFiHT2brsQF2SAGAXWit3ZLkqt45uJ2rFo8NsEMKAOzepb0DcDseE9glBQB278IkN/QOwa1uyNZjAuyCAgC71Fq7IckzeufgVs9YPCbALigAsAettddm67fO1jvLwFqSCxePBbBLCgDsUWvtOUm+Nsl7O0cZ0XuTfO3iMQD2wJ8DhiW01t5YVQ9P8k3ZOmnOuUkelOV/tr4gyXFLzpiLT2X5z+gfTnJtksuSXJ7kv7fWblw2GIxMAYAlLRbRqxaXSVTVf0jyg1PN6+zi1pr3TMDMOAQAAANSAABgQAoAAAxIAQCAASkAADAgBQAABqQAAMCAnAcA9q8nVNXJS8541CRJgNlRAGD/Om9xAbgdhwAAYEAKAAAMSAEAgAEpAAAwIAUAAAakAADAgBQAABiQAgDz9L7eASa0n+4L7BsKAMzTFb0DTGg/3RfYNxQAmKcreweY0H66L7BvKAAwQ6219yf50945JvCni/sCzIwCAPP1tCSHeodYwqFs3QdghhQAmKnW2rVJntc7xxKet7gPwAwpADBvv5Tkx5Pc1DvILtyUrcy/1DsIcOcUAJixtuXFSc5K8sYkrXOko2nZynhWa+3FrbU5Z4XhHewdANhea+0vk5xXVScl+fIkZye5V99Ut/pgtt7p/47W2sd6hwF2RgGADbJYsJcsLgB75hAAAAxIAQCAASkAADAgBQAABqQAAMCAFAAAGJACAAADUgAAYEAKAAAMSAEAgAEpAAAwIAUAAAakAADAgBQAABiQAgAAAzp4Z/9QVQeTPCzJmUmO32bOcRNk+a6q+ocJ5rA/PWKCGadV1TMmmMP+ddoEM76+qk6eYA770ykTzDhuB89lh5JcneSa1trhO/qCaq197v9QdV6SFyY5J9svfgBgvg4luSLJc1trl9z2H24tAFV1YpILk/xIklp3QgBgZVqSf5/kX7fWbkwWBaCqDiS5JMmje6YDAFbqzUnOa6195sibAP9VLH8A2O8ena2dn0rygCRXxfF+ABjBoSRnHUhyfix/ABjF8UnOP5Ctd/sDAOM4p5Jcl+T0zkEAgPX5m8rWRwMAgIE4FTAADEgBAIABKQAAMCAFAAAGpAAAwIAUAAAYkAIAAAM6ONGc1yb59ESzAIA7d2ySb1l2yFQnAvqi1tpHJpgDABxFVZ2c5MPLznEIAAAGpAAAwIAUAAAYkAIAAANSAABgQAoAAAxIAQCAASkAADAgBQAABqQAAMCAFAAAGJACAAADUgAAYEAKAAAMSAEAgAEdnGjOY6vqxolmAQB37sQphlSSNsUgAGBzOAQAAANSAABgQAoAAAxIAQCAASkAADAgBQAABqQAAMCADiT5eO8QAMBaffxAkqt6pwAA1uqqA0mu6J0CAFirKw4keVPvFADAWr2pWmupqtcneVzvNADAyv2f1trjjxSAU5O8K8lde6cCAFbmo0ke2lq7/kCStNauT/JtST7QNRYAsCofSPJti53/2fMAtNb+b5KHJHlVp2AAwGq8KslDFrs+SVKttdt9VVU9NMmjkpyb5Mwkx28z+GFZ/qRC1yb51JIzAGDOjkvyoCVnfCbJNdt8zaEkVye5LMnbW2vv+vwvuMMCsFtV9ZEs//6BL2mtXbd0GACYqao6I8lfLznmo621k5fN4lTAADAgBQAABqQAAMCAFAAAGJACAAADUgAAYEAKAAAMSAEAgAEpAAAwIAUAAAakAADAgBQAABiQAgAAA1IAAGBACgAADEgBAIABKQAAMCAFAAAGpAAAwIAUAAAYkAIAAANSAABgQAoAAAxIAQCAASkAADAgBQAABqQAAMCAFAAAGJACAAADUgAAYEAKAAAMSAEAgAEpAAAwIAUAAAakAADAgBQAABiQAgAAA1IAAGBACgAADEgBAIABKQAAMKCDvQPwWVVVSb4syTlJHpTk2L6JWJGW5G+SXJHkna21mzvnma2quk+2fh7OSnJi5zj0c0uSP09yZZI/b63d0jnPvqAAzEBVHZPkJ5M8J8ldOsdhvQ5X1WuS/Ehr7R96h5mLqnpikpckOb13Fmbnk1X1kiQ/1Vr7VO8wm8whgM6q6suSvDnJhbH8R3QwybcneXdVPal3mN6q6q5VdXGS18Xy546dkORZSS6rqjN7h9lkCkBHVXVKkjcmeVTvLHR3ryT/raoe2ztIZ69O8rTeIdgID0/yJ1V1au8gm0oB6OtXs/XED0lSSV5RVUO+ElRVT0/yuN452CgnJ3lF7xCbSgHopKq+OclTeudgdk5P8sLeIdatqu6d5Bd752AjPa6qLugdYhMpAP08uXcAZuubewfo4LFJTuodgo3l+XQPFIB+zu4dgNk6dfEb8UjO7R2Ajeb5dA8UgA6q6oRsfc4f7sxoC3G0+8u0Tq2qe/YOsWkUgD7umeSY3iGYtfv2DrBmo91fpnef3gE2jQIAAANSAABgQAoAAAxIAQCAASkAADAgBQAABqQAAMCADvYOwJ7dnOSi3iG4Q0+KEz31cHGSD/UOwZ48M04FvXYKwOY61Fp7du8Q3F5VnREFoIdfaa1d1TsEu1dV3x4FYO0cAgCAASkAADAgBQAABqQAAMCAFAAAGJACAAADUgAAYEAKAAAMSAEAgAEpAAAwIAUAAAakAADAgBQAABiQAgAAA1IAAGBAB3sHYGxVdWySByY5Lsm7Wms3d44EMASvALB2VXVMVf1EVb0zyY1J3pnk8iQfr6p3VNXzFsUAgBXxCgBrVVVnJnlFknPu4J+PTXLW4nJ+VT21tXb1OvMBjMIrAKxNVX1rkstyx8v/852Z5LKq+rrVpgIYkwLAWiyW/+9k67f8nTo2ya9X1V1WkwpgXAoAK3eb5b+XQ05nJPnFSQMBoACwWksu/yO+v6pOnCgSAFEAWKGJln+y9X365csnAuAIBYCVmHD5H3H2RHMAiALACqxg+SfJyRPOAhieAsCkVrT8k8T5AAAmpAAwmRUu/0QBAJiUAsAkVrz8r22tXbeCuQDDUgBY2oqXf0vy9BXMBRiaAsBSVrz8k+RXW2tvWdFsgGEpAOzZGpb/m5M8a0WzAYamALAna1r+39Bau3FF8wGGpgCwa2tY/m/J1vL/xFQDq+q4qnpwVTmfAEAUAHZpTcv/CVMs/6q6e1W9tKreleTGJO9O8uGq+quq+r2qcnphYFgKADu2Ycv/u5Ncm+SHkjwkn5v5fkmekuTSqvrpqlrV/QGYLQWAHdmU5V9Vx1TVbyX5rSR33+bLj03y/CR/VFXHLHO7AJtGAWBbm3LMf7HEfyPJd+/yql8TnzYABqMAcFRrWP5vzdby//gyQ26z/L9rjyN+uqoetkwGgE2iAHCn1rT8nzCD5Z8kxyX58WVyAGwSBYA7tEHL/0CWX/5HnDPBDICNoABwOxu2/H8z0yz/JHlIVR0/0SyAWfPxJz7Hhi3/qX7zP+JgkpOTfGDCmazP71XVTb1DsCf36R1gRAoAt1rD8n9bpl3+u323/3ZuaK1Z/pvry3oHgE3iEABJkqr65qx++T9+xss/Sa5ewUyAWVIASFU9PMl/ztjLP0nesKK5ALOjAAyuqo5N8l+TnLCim5j7y/5H/HmSi1Y0G2B2FADOT/KlK5p9ZPl/bJkha1j+LckPtNZuXtF8gNlRAPj+Fc19e6Zb/q/M6pZ/kvx0a+1NK5wPMDsKAA9fwcy3Z+uY/1TL/3umCHUnfqa19nMrnA8wSwrAwKrqC5PcY+Kxm7b8n7/C+QCzpQCM7VCSWyacZ/kDbAgFYGCttcNJrp9o3KWx/AE2hgLAFJ99vzTJ4yx/gM2hAPAfl7z+lMv/4lj+AGuhAAyutXZZkt/d49WnXv7fu8ycbVj+ALehAJAkT0/yZ7u8zpRv+LP8AdZMASCttU8k+eok/2uHV7k4yde11j66zO1a/gD9KAAkSVpr/5jkG7N1xr233smXvSHJE1tr39daO7TM7Vn+AH2t6q+/sYFaay3Jbyf57ao6Ncn9k9w7yd8l+cvW2oemuB3LnxX54STv7R2CPfmNJPfsHWI0CgB3qLV2faY7R8CtFsv/12P5M723ttau6h2C3auqm3pnGJFDAKzNbZb/U1d4M5Y/wA4oAKyF5Q8wLwoAK2f5A8yPAsBKWf4A86QAsDKWP8B8KQCshOUPMG8KAJNbLP9XxPIHmC0FgEndZvk/bYU3Y/kDLEkBYDKWP8DmUACYhOUPsFkUAJZm+QNsHgWApVj+AJtJAWDPFsv/P8XyB9g4CgB7cpvlf8EKb8byB1gRBYBds/wBNp8CwK5Y/gD7gwLAjln+APuHAsCOVFXF8gfYNxQAduq5sfwB9g0FgG1V1WOS/MwKb8LyB1gzBYCd+Kms7nvF8gfoQAHgqKrqwUnOW9F4yx+gEwWA7TxiRXMtf4COFAC2c/8VzLT8YQNU1Sm9M7A6CgDb+fTE8yx/mKmqOqWqfq6q/rCqbkjy91X1j1X1hqq6sKru3Tsj0znYOwCzd92Esyx/mKmqemKSX0vy+Uv+i5I8dnH5gar64dba7647H9PzCgDbeWuSNsEcyx9mqqouTPK63H75f767JfmdqnrZ6lOxagoAR9Vae2+SNyw5xvKHmaqqr0/yrF1e7RlVdf4q8rA+CgA78fwkh/d4XcsfZqqqTkry60lqD1d/WVXdc+JIrJECwLZaa2/N7n9DSJLnW/4wa9+b5LQ9XvceSX5gwiysmTcBsiOttV+uqpbk32b775tDSZ7ZWnvlyoMByzin8/XpyCsA7Fhr7UVJvibJHyS55Q6+5HCSVyd5pOUPG0EBGJhXANiV1trbkjypqu6TrbMEnpGtIvmeJFe01t7fMR6wOw9a8vqnVdUXttY+MUka1koBYE9aa+/L1seGgM01xQ6wRzaUQwAAMCAFAAAGpAAAwIAUAAAYkAIAAANSAABgQAoAAMuY4q+F0oECADCu65e8/scWFzaQAgAwriuWvP47WmteAdhQCgDAuK7sfH06UgAAxvX7ST69x+u2JK+ZMAtrpgAADKq1dk2SF+zx6he11t46ZR7WSwEAGNvPZ/fvBfiLJM9dQRbWSAEAGFhr7XCSf5bkt3Z4ldcm+ZrW2k2rS8U6KAAAg2utfbi19r1JnpTk3bn9Z/tbtn7r/47W2vmttQ+tOyPT83ecJ1JVxyR5YJKzF/95zFG+/K4T3OTxVfULE8xheg+fYMaTq+qMo/x7y9ZnuK9IcrXfxphCa+0PkvxBVZ2U5JwkD0ryl0kub619pGs4JqcALKmqjkvys0n+RZIT1njT/yTJs9Z4e6zX4xeXnbilqv5Hkme21t6/wkwMorX2sST/b3Fhn3IIYAlVdWaSy7K1iNe5/OG2jknyTUneVVXf0TsMsBm8ArBHVXVqkj9JcnLnKHDE3ZK8qqpubq29tncYYN68ArB3r4jlzzy9rKru3jsEMG8KwB5U1QVJHtc7B9yJeyb55d4hgHlTAPbmyb0DwDa+qaqqdwhgvhSAvTm7dwDYxklJHtA7BDBfCsAuVdU9k5zaOwfswLm9AwDzpQDs3n16B4Adum/vAMB8KQAAMCAFAAAGpAAAwIAUAAAYkAIAAANSAABgQAoAAAzIXwPs42NJXtY7BLP2+CRn9Q4B7F8KQB8fbq09u3cI5quqTo4CAKyQQwAAMCAFAAAGpAAAwIAUAAAYkAIAAANSAABgQAoAAAxIAQCAASkAADAgBQAABqQAAMCAFAAAGJACAAADUgAAYEAKAAAM6GDvAAAT+daqelTvEOzJXXoHGJECAOwXz+0dADaJQwAAMCAFAAAGpAAAwIAUAAAYkAIAAANSAABgQAoAAAzIeQD6OLWqrusdglk7pXcAYH9TAPo4JsnpvUMAMC6HAABgQAoAAAxIAQCAASkAADAgBQAABqQAAMCAfAxw927pHQB26HDvAGv2+iQf6R2CPXlikhN6hxiNArB778lWCTimdxDYxrW9A6zZs1trV/UOwe4tTozm3Chr5hDALrXWbsp4T6xspst7BwDmSwHYmyt7B4Bt/G1r7YO9QwDzpQDszUsy3vFVNsuLegcA5k0B2IPW2uVJXtg7B9yJNyV5ce8QwLwpAHv3gmw90cKc3JDkgtbaZ3oHAeZNAdij1trhJI9J8jNxOIB5+P0kD22t/VXvIMD8KQBLaK0dbq09P8lXJvnNJO+K8wSwXn+TrcX/Ha21b2mtfah3IGAzOA/ABBbvCXhqklTVFyT50jhPAKvVklzfWvuH3kGAzaQATGxxnoBreucAgKNxCAAABqQAAMCAFAAAGJACAAADUgAAYEAKAAAMSAEAgAEpAAAwIAUAAAakAADAgBQAABiQAgAAA1IAAGBACgAADEgBAIABKQAAMCAFAAAGpAAAwIAUAAAYkAIAAANSAABgQAoAAAxIAQCAASkAADAgBQAABqQAAMCAFAAAGJACAAADUgAAYEAKAAAMSAEAgAEpAAAwIAUAAAakAADAgBQAABiQAgAAA1IAAGBACgAADEgBAIABKQAAMCAFAAAGpAAAwIAUAAAYkAIAAANSAABgQAoAAAxIAQCAASkAADAgBQAABqQAAMCAFAAAGJACAAADUgAAYEAKAAAMSAEAgAEpAAAwIAUAAAZ0sHeA2zipqk7uHQLoYopfRu7iOWRjjfT4n9Q7wBHVWlt+SNVHktx1+TgAwDY+2lpbuuw4BAAAA1IAAGBACgAADEgBAIABKQAAMCAFAAAGpAAAwICmKgCHJpoDABzdJDt3qgJw9URzAICjm2TnTlUALptoDgBwdJPs3KkKwNsnmgMAHN0kO3eqvwVwIMklSR699DAA4M68Ocl5rbXPLDtokgKQJFX1pdk6LnHCJAMBgNv6ZJIzW2vvmWLYZB8DXAR6RpKbp5oJACTZ2q3PmGr5JxO+AnDrwKoHJ/mNJI+YdDAAjOnyJE9trf3ZlEMnLwBJUlUHk3xnkkcmOSfJmUmOn/yGAGD/OZStQ+pXJLk0yataa4envpH/D4IOiVS3ttCfAAAAAElFTkSuQmCC;" vertex="1" parent="D1Pnn4vapH3yF3k0A5Gj-38">
          <mxGeometry x="25" y="340" width="68.5" height="68.5" as="geometry" />
        </mxCell>
        <mxCell id="D1Pnn4vapH3yF3k0A5Gj-43" value="" style="shape=image;verticalLabelPosition=bottom;labelBackgroundColor=default;verticalAlign=top;aspect=fixed;imageAspect=0;image=data:image/png,iVBORw0KGgoAAAANSUhEUgAAAgAAAAIACAYAAAD0eNT6AAAABHNCSVQICAgIfAhkiAAAAAlwSFlzAAAOxAAADsQBlSsOGwAAABl0RVh0U29mdHdhcmUAd3d3Lmlua3NjYXBlLm9yZ5vuPBoAACAASURBVHic7J1nuF1V1bbvVBJCIKFXA6FJ79gQQlPAhiKidFCxgL1gBwvlszcsKBJERLGLIIoKIvjSlI4UkdAh9HRIcs73Y5xDTsJpe89nrraf+7rGlfeVs8cac7U51pyjjMAYY0wrrAWs0/PvusCaff5dAxgJrNTn31HAij2/nQUsBrqAp4H5wOM98hjwKPAQMAO4u0fm5R+S6URGlG2AMcZUlNWArYAtgC17/t0CmFSwHTOB24AbgZuAG4BbgDkF22Eahh0AY4yJd+FmwK59ZJ1SLRqcLsIJuAL4Z8+//yvVIlM77AAYYzqVDYDXALsBLye++OvMg8CfgIuAi4EnyzXHGGOMqQ7bAicC1wPdDZZFwD+A4wlHxxhjjOk4dgC+RgTUlT0xlyVXAR8E1ks8l8YYY0ylWQk4BvgX5U++VZIu4PKeczO+7bNrjDHGVIgRwDTgbCK9ruzJtuoyE/gysEkb59oYY4wpnZFEMN/VlD+p1lEWE0GDr2n1xBtjjDFlMB54N5H+VvYk2hS5CngT4VQZY4wxlWIF4BPAI5Q/YTZVbgYOwKnixhhjKsBI4HAi373sCbJT5CbgQOwIGGOMKYm9iBK4ZU+InSpXAi8e8ioZY4wxIrYHLqX8CdASwYI/IBoeGWOMMVmYAHyVqGhX9sRnWVqeBt5HdDk0xhhjZOxLZ1ftq4v8m1ihMTXFgR3GmKqwOlGy9+CyDWmDWURWwuPAYz3/PkOsYMzu83cjiSqFABOBVYhxr0I0IxpXkL0qngVOBU4mxmtqhB0AY0wVeB1wBjERVpU5RHrcjcCtxCrFjB6ZJTrGWsD6PTIV2BrYCtgYGC06Rg5uAA4hWhQbY4wxQzIO+BZRo77sJe2+soiY1E4jJraNKLc4zjhgJ+C9wM+BByj/HC0r84Dj8IelMcaYIXgh1WrLey/wfeD1LFmmrzJTgXcBvydWJ8o+f71yAbGdYYwxxjyPo6nGpHULcAKwZd7hZmc54BXAD4n4g7LP673AzllHbIwxplaMAb5HuZPT/cBJxN56ExkD7AecQ7ldERcAb888VmOMMTVgZeBvlDMZLQLOB15LtYPp1KwMvJ9Y6SjLEfgBMDb3QI0xxlSTjYH/UPzkM5vY13fPe9iFcILKCLi8HFg1/xCNMcZUiVcAT1LshPMwcDwwqYDx1Y0tgDOBhRR7TW4l0huNMcZ0AIdS7ETzGDHxTyhicDVnI+BsosZ/kY7ZTkUMzhhjTHm8g+Iml7nAicCKRQysYWwO/IbinIBZwG6FjMwYY0zhHEcxe81dwHnAlGKG1Wh2p7iWywuIgExjjDEN4gSKmUSuA15S0Jg6hVHAscBT5L9+zxBFl4wxxjSAU8g/ccwHPk7ku5s8rAP8lvzXciF2AowxpvZ8jPwTxuU4pa9IDgRmkveaLgBeWdSAjDHGaHkn+b8UTySWqE2xrE7UD8h5fecB0woajzHGGBEHkTfa/05cV75sRgDvI29p4VnADkUNyLhtozEmjb2APxDNaHLwB+AwIiitaowmKhxuBGzQI2sTFe9WASYCk3v+dhThJEGsZswmmvb0yow+8h/gwfzmt8V2wK+IsebgYeDFwD2Z9BtjjBGwLfk6+i0CPkF1PlJGAJsBbwXOAP5F3q/hx4C/Al8C9ieW4avCqsCfyTf2m6lHO2ZjjOlIViO+VnNMAE9RjaCwNYDDgXOJCTnXhDdc+Q/wVaK08riM4x4Oo4Avk2+sf8FZHsYYUznGAJeS58V/D7BlYSN5PqsQk/75FF8rvxWZ12Pj4cDyWc7E8Hgn+c7TdwochzHGmGHwHfK88G8A1i1wHL2MBl5HxBssasHeqsgTwDeBrdQnZpjsDTw9hI3tytEFjsMYY8wgHEWeF/1lFF/Hf2UizuCBRNurJFcAb6T4dMkdgEcTbe9P5gM7FjgOY4wx/bA9Ub5V/ZK/iGKXsdcDvkW+AMYqyH+BdwNjRedsOGxFRPGrx3I3sTVjjDGmBJYngtDUL/ffki+FcFlWA04l9s/LnqCLknuJ/P2izvGmwH0ZxvGbguw3xhizDN9H/1L/E8VMTOOB44lCM2VPyGXJHURZ3yLYGHgowxjeXpD9xhhjetgf/cv8H8CEAmx/I5FZUPYEXBW5iGJ6KWyFPnVyDrHCYIwxpgDWRh/c9X/ACpntXgv4pdjupsh8oq9C7viAnYmKh0rbr8X1AYwxphAuRPsC/y+xF5+TIymmn33d5Tpgi/ZO8bB5FfrUyk9kttkYYzqeg9C+uB8n7xLuSsBPxDY3XeYT8REj2zjfw+XtYpsXEGWZjTHGZGAloiGN6qX9LLBbRnt3JiLey55Q6yq/J2/9/a+K7b2U6vSJMMaYRvFttC/s4zLaejidldqXS+4kXzXB0URzI6W9x2Sy1RhjOpYd0e7b/iSTnaOA04R2WiJo7zWtXIQWWIUo6qOy9XFcICgJL6E0k9WBdYg0qxWIvuQr9fz/I4ivJYAngZlElPfDRE1xU3/GE9d6ReK6jwQmseR5X5H+S8XOIyr9fZHo+67geuClxF6zkhWILn2vFutNZSHwP+KZmkNMqE8Dc4no9RWIa7MS8VyuQzn9DwZjMfB+YhVIzc5ECqgqA+GbRKEj0wZ2AOrNmsTLddMeeWHPv5Pa1PcEcBdRNOQ64N898nSypSaFiUT52nWItLy1iEj6VXtkFcLpm8SSCb8KzCNqxN8m1rsKkc9edo34B4FLCCfndmKcdxOrJ62wAvHcbkI8wy8BXka5Xf4gqiZ+PIPejxBOpoKFwLbArSJ9xlSWlYE3EHXMb6GYJcHFhBPwVSKlZ3z2UXYe44DNiaXX3i+vPxLXuM7V696lPEk9rAHcWNJ4ZgO/IGrsvzDD2PoyFtgVOAG4HOgqeKy98i30H4ojgb8IbbxIbJ8xlWFl4oXzT2IyLvulPocosHIw5X+h1I0ViK/WI4H/B1xALBeX9XLPKb9HP3GsSXxlFzmOxcCfgUMppnLhQEwBPkWsNBR9LX+A/lqug7ZS4B5i+4wpjbFEf/JfETmvZb/MB5KngTOIbQizNJOBPYnlzp8R2ypNnOj7kyeIyVrJqsDNBY7hEeCTxERVNV4MnEUsfxd1Pr6ZYRyHCu27IoN9xhTKisSe2yOU/xJvVa4BDqHY9qNVYTSx1/0e4BwijqLs61GmHJ12Op/HSsC/CrL9XuC91GN1awPguxT3kXByhjH8UWjfPhnsMyY7qwKfI6Lyy355p8o9wDtotiOwPLA38AUiCKzJfeVblb+gXS4eA1xcgN0PERXr6njfrk3s1atL7vYn6riOKej6BVyNA9tNjViJiIZVN8yogtxDFGhpwgPZG5B1IvB3IlWu7PNbRVkAbNjeKR6Q72a2eTHwY5qRT74NsRSe83wtIrYnlXxIaN9+YtuMycIh5OmZXTW5mnrGCKxPfO2cT+Rwl30e6yCntnOiB0E5MfQnVwHbi20um5HA29C34u0rs9DW4h+LLrjxr0K7jJGzGfA3yn9ZFyldxJdczlrjqYwCdge+RHEplk2Sh4h6BSp2J1+Q22LCWemvGFJTWI1Ij8t1vW9H+zy/Wmhb05w60wBGA5+ls5eP7wf2TT2RQpYjahucgb7nfafJW1s894OxDvkCYR8knItOYCTwGfLFBvxSbK/KYTlHbJcxSaxD7B2X/ZKugnQBXyeK35TBOKKY0rnUu8hOleQ/6L6m1UVi+srFRMXETmN38m03KhvybI8mVXYhUTnTmNLZh6i3X/ZLumpyHZHGVASjgL2AHwFPZRxTp8pBw78UQ/LhTDaeRWQUdCpTyFNEaS7aqoi/Etl1gtAmY1pmFJE32ynFX9qRx4h0ulxsS6w2KPvaW5aWG9D1HticPDntp9KMbJRUViOCctXn9yp0K0Bboql4eo/QJmNaYjmiZnjZL+c6yCK0ucWTgWMprnBMp8sbh3dZhmQkUfNeaVsXUYnRLGECcCH6++ADQhvPE9lUpXgj0yGsSKSilP1irpucRPtfaSOIWuDnEG1nyx5Lp8h/0X1lvSeDfceJbGsaY4n+BspzPYdInVWws8imX4vsMWZYrI6/PFPkdFpbTl6R+Nq/tQK2d6KoJtjV0cdmfFZkW1NZnmgwpjznyglXETT9LNFMzQyA98V0rEuUhd2oRBseJ3LYbyeaz9xBNGaZSzTumUUEQk0gcnhXJF6+mxKBPJsQdQrKrIM+nUgp6xrkbzYnOiQejjb3vE7MJ1LlHiJSGB8mYipmES++ucA8Iu10NrHV8mTPv58nWg+n8ATwgp7jpHI6UYZXxelEOWozOKsC/0AbxPdKYnUhldcQHSVTeRuR5mtMNlam2E5lvfIk8BuiecmWaBy6scDLiSjassre/miAsewF/InmB1Y+Q0Rsnw98lfjSfgOwC+GkrdDPuRkuy6HpOfHlBBv6sjXaPPXf4uCvVtgAbc2FG9Gc/5HA3QJ7FM6IMQOyPPnrb/eVZ4mX3BuIl3luViEmoKsKGl+vfLHn+KOBg4F/F3z83NIF3MmSSf7dREbEBuSdwBQV17qIVSMFvxfY0ysz8JJvO+yO1gk7RGTXpwS2LCSyH4yRMxr4A8VMGA8BHyWW7crihcB3KC7Q7mzipV7EsXLKYuKL/hyivv00YvulDM7qx75W5VKRLTugW815FnixyK5O5Avo7vc7iXdjKuugKQft7SCThR+Rf/KYQQS6jS9mSMNiLeAruA3uQHIX8BMiNWpXqhOnMIqIE0kd36Eie5TpaO8R2dSpjEJbrfRIkV2/E9hyvsgWY57jGPJOInOAj1Ht/uRrEK1Um74nP5TMIIIXjyAC46rKy0gf61zSYhB62RLdfXM+DmhWsA66bIyb0VyTgwS2zKGY7VLTIWxJ3hax56PLqS2CXYGbKH8iLkoeIoqVHANsITh/RaFY5v25yJYzBbZ0E5kORZWU7gSU9Rj2E9izPJqVxpwVR00HsQJ5amp3E6l6bypuKFLGEIF7TVwNWESkS32IiMKvK4oaFYrKf2ugK/n7cYE9Zgmj0NUyuVhk088FtnxVZIvpcH5CnknmX5RbQ0DFq4h89LIn7VSZT0Sov5VmRBGvSrpzNgdNLMrxiXb0yu14aTcHO6Gpx9+F5p32RoEtNwvsMB2O4kbsT35As15k6wHXUv4k3qo8TsQ0HEAUS2oS+5N+fhTBVCOIKHHF9XqFwB7TP2eguUYnC2xZkcjySLGjC6eImgRWAO5DP+l8rshBFMhEYgmw7El9KJkPnEs0DlGkLlWVr5F+rt4tsGOawI5uooytycdUNCl4D6Kpa3GpwJZXC+wwHcqX0E48XcAHCx1B8YwlJteyJ/n+5FrgfUSho05Asa+7ocCO7wns6Ca2mkxezkZzrXYX2PIxgR2nCOwwHciWpC9BLTv5H13oCMpjJPniJlqVu4kmMU2ItWiF5Umv9HaHwI7RaMrOXo/T/opgMzSxAN8T2LKdwI5/COwwHYiyQEY34c12EmOAP1LOpL+AqH63G507abyU9PP4I4Edewrs6CZyw00x/IL06zWT9G2AUaTXKJgnsMN0GPuinZC+Xaz5laHongkPA6cSxU06HUVut2LF6qsCO2YSDqUphr3RPI87C2y5SGCHqoeF6RD+gW5S+gOd+xUKkf/9IHkn/quJZiRVrqBYNGeSfl4VLWP/I7Dj6wI7zPAZCdxL+nU7QWDLpwV2HCiww3QIu6GbmO6l+ICzscDmRG/tNxOV695GPAR7E9UGRxZs0zS0nce6ifiMc4GXFDeMWpHaSfFx0h3XKYk29MoOiXaY1vl/pF+3/xPYsZfAjqZmXZkM/BnNS2shUYc9N2OJVJdvEH25hzPRziNSbE4gCoAUgcKT75W/4mX+wRhJetnqSwR2HJZoQzdwi8AO0zqbo3kHpvaQWE1gx28TbTAdws7oJqkTM9s6lZj0HxXYeivwEfK2qx0JXC6wtZuI7Hdgz8BMIf0cf0Ngx3cEdnxKYIdpD0WvD0U6YOoW4n8ENpgOQNXq905gXCYb1ydydRUFO5aVJwjHZflMtitTK1+XycYmsA/p51cRAHiDwA5v8ZSHopCUwoH7U6IN8+nsOCwzDJYHZqGZnPbJYN8Y4BPk7UjYKzOA12YYA8BXRDb+MZN9TUCRAfCiRBuWI91JnYWj/8vktaTfR78S2KF4Z6wtsMM0mEPQTEyKG35Z1kO3fN6K/Bj9asBENFkBi4C1xLY1hS+Sfn5TmyHtILDhD4k2mDQmku7E3Smw49hEG7qJuhiG4iPA68LhAh3d6Pf+dyGqoBURULgshwGXEal8KmYTJZZTGQUcLNDTRNZL/P1cIrYkha0Tfw+aQETTPrOJctIpTCU9EHBG4u8htk4NdgD6Y22iYlkqvycCZ1S8mshKKLOj1Q5EMZ+pQp3fJ32CgUhzNM8nNUPiboENmwh0XCXQYdJIvQYjSb8XFPejs4Z6sAPwfF6PJqr8JIGOXvYAfommF3sqGxJpg6lflr3MIwKMUtkBP9j9kXpO7hHYsIFAx20CHSaN2wU61k/8/QyBDZ3SAGxI7AA8nz0EOi4DrhHogWiC8VsikKoqrEfsyaYu5/XyHcIRSGEE+YIV60zqy26mwIb1E3//BPCYwA6TRhUcgHnAnEQdqyb+vjHYAViakcCuAj1nCXRATLDnEgE4VWNr4IciXU8DvxPoeaVAR5MYTXo9B8X2TOpqkWLiMekorsMUgY5UZ9ArAD3YAViabUn3Dueji/4/nWo3rzgIOFKk62yBjt1wUaC+TCY95/lxgR2pz5QdgGrwANX4+k69J+0A9GAHYGkUlap+Q3zRprI38BaBntx8hfQ0MYCLgYcSdUwCthHY0hQmCXQ8kfj7FUlvzPRA4u+Nhm4ibTcFxeSbugKQs8pprbADsDTTBDp+LdAxBjhNoKcIVga+INCziMicSOXFAh1NQRE0Ojfx94qsldSvTqNjduLvFQ5A6j3pTqE92AFYmtSvxy7g7wI7DgY2FugpiqPQ5NYqcr23E+hoCooX3TOJv1cUj5ol0GE0pDoACqf02cTfVymgulTsACxhedJTpm4kfXlqBPCxRB1FM4ZoIJTKJcQyYwrbC+xoCorSuakOgOJl6xWA6pDqACjuh9R70isAPdgBWMImpJ+Pvwns2A14oUBP0RxK+tfeTODmRB2b4WYfvShedKlfWwobUicdo6MJDoBXAHqwA7AERbT9tQIdhwl09OUW4JNEeuPGRG/vfVnSPljFimjy8K9O/P143OyjF0VGxGKBjlS6yjbAPEfq/aBwzhcm/n60wIZGYAdgCQoHIDVdaSS6YjaziRS9rYGTgX8A/yX6YV8EvB/YCPgq6cvuvSja8t4h0LGRQIfRkPqyBl3BKZNOak2S1K938AqfDDsAS9gw8ffdpE9eW6LJk51JdLw6i8G/nmYBHwKOGOLvhsvupD+cipxvVZniuqOYfMcl/j51CwGqWQirU0lNoVPcD6n3pMIJaQR2AJaQmjOtKJKxS+LvIdLpDqC1vfSzgc8Kjr0G6dkLCgdAUZegCSwS6EiN65gvsMEOQHVIXY1R3A9VsKER2AFYQupNdZ/Ahs0EOn4EXN7G704mtgdSSQ1gvFdggx2AQPG1lfpcpBYSAjsAVSJ1BUBxP6Q6pQsENjQCOwBLSH3JKCKVFW1Tv9Lm7xYB3xYcP9UBmEf6l6uiAl4TUDgAqS/bp0i/nqsn/t7oSL0WitLSExJ/7xWAHuwALKEKDkDqw3U7aXEIikp8ipd16lZK6h5hU1Dkz6e+bLtJ/+qrcj+MTmI10is7KhwAbwGIsAOwhCo4AKk2pO6f3096mU1FxHYVco2bwFMCHYpKfqm1/O0AVAPFdVBslXoFQIQdgCWkThqKfaVUGxQlU1MbGSlKfaY+oIoKeE3gadKzOxT77zMSf78WbuBSBRQOwAyBjtSPDJeW7sEOwBJSJ50qNF5JXX4fKdChWAlJ/eqcJ7ChCXSRfj0UKZV3C3Qo4mNMGgoHIPVeGEU4hCmkdh1tDHYAlpDqACiWSlNf1tuRVv1tW9KrZCkcgNQlvlRHqknMTPz9+gIb7hTo2EGgw6Sh6LORei+sS/oKX2pL48ZgB2AJVdj7Tt0fW420lsYHJh4fqrHH5xWAJaTuv68vsOFGgY7dBTpM+4wjioulcD/pAaHrJ/4evALwHHYAlpA6aSjqzyuK4LRb0GcN4FjB8VPHsBrpDWS8ArCEVAdgddIdsptILzetqDJp2uelpG9zKhzBDQQ6vALQgx2AJaQ2xpkisOEmgY6XAR9t8TejgOmkB3x1k97NT3EelU2O6o7iZZd6TWYDdyXqWJ0olW3KQbECc4NAx/oCHXYAerADsIR7En8/CVgpUcffE3/fyynAccP823HAj4F9BMf9D/BIog6FA5B6LZvEDIEOxVfXPwU69hDoMO2hOPeKe2B9gQ47AD3YAVjCDIGOLRJ//wBwm8COkcC3gF8xeG3+vYn2uwcLjgnwV4GOzQU6Zgh0NIWqdFe8QqDjAIEO0zrrAC9K1NGNxgFIvRcfRVOMqBG4L/ISFF+NO5J+k58HfEZgC8AbgP2Bq4jVhQeJCNqpxBd/agfEZTlPoGNngQ6vACxB4QDsKNChcAB2Ie7Z1O0E0xqHkZZdBHAL6QGAo4lMpVQ7jHke2xJeaoqcLbBjQyJ/O9WWouVuNEFaDyba4f3/pRlJBEWmnFOFEwHhmKXeZyeIbDHDpzeIM0W+LLBD8Y4+TWBHY/AWwBJuJb1P9MsEdtwF/FGgp2i+QTxgKUwlvcjH9Ym/bxpdpG8rbUR6DXiAPwt0HIGzAYpkRzTBlxcJdChWB28V6GgMdgCW8CzpUfgbkN4ND+DzAh1F8hjwQ4Ge/QQ6rhHoaBqpTtEIYCeBHRcKdGyAawIUydECHXOAfwj0vFigw1sAfbADsDSKyUMxiV0JnC/QUxSfRdN5bl+BjmsFOprGdQIdiq+vP6G5Tz4m0GGGZk3gSIGe80lfXQWNE+oVADMgR5O+x3SpyJYXEC/Lsvb0hyv/Ij1ACKIGwTyBPS8Q2NI0diH9vKoc0nMFtnSTXpXODM2X0Vyr1wlsmQgsSrTjboEdpsFsQvrN3oUmbxrgfQJ7csp8ov+AgrcK7HH0f/+sACwk7dw+gSZraP9EO3rldwJbzMCsiuYD5Cmi1kgq+wps+YnADtNw7iT9RjtBZMsI4NcCe3LJu0XjBLhcYM93hfY0jWtIP7/TBHaMBR4W2NIFbCOwx/TPyWjeEd8T2fMdgS3vFNliGkxvNHuK3I1mWRyiuuD1ApvU8n3R+AA2Q5P6+FqhTU3ja6Sf36+IbPl/Alu6icAyZwTo2ZBY3VNcI1UXR0UK6VYiW0yD2QfNjf9moU1rEemBZUz0/clv0Dk4AD8S2LQATUfGpvJG0s/xf0W2bISu1sXhIpvMEi5Ac23+LbJHkf//JA56N8NgHNG8JPWGux7t18laVGMl4Cekd+vry7pEhHCqXX8S2tREVkcz6W4qsud8gS3dRO+JySKbTFQPVb0rVM7ZpwS2XCCyxXQAZ6J5ANRL0pOBi0W2tSpdwEnol1y/KbLvMLFdTeRfpJ/nD4tsmSawpVe+I7Kp01kBzVJ7N3A/ug+FKwX2fFBki+kAdkXzENxG1N5XMhL4NOlR3a3Io2jqGyzLpkQBplT7ngaWz2Bf01AEdl0mtOdqgT3dhHP6aqFdncqP0b0zPiKyaU1gscCewZqiGbMUI4j9TsWD8IFMNm5DNFjJOfF3ES+F1TON4UKRnadnsq9pTENzTyi6A0JM2qp79Qk0rWI7FUUabq88SuTtK/iowB4X/zEt82k0D8OTwNqZbBwJvAm4QWRr35f8b9FF8PbHa4T2uijM8BhDTJSp5/skoU3/J7CnV65CG5/SKWxBesOovqJabh8B3C6w54sie0wHsQaaynTdRBOUnOlKI4C9iW6EKQ/y/cTDsnlGWyGKjDyUYGdfuQ6ngrXCWaSf84fQbW3tJbCnr3xVZFensCLxhaw6//cD40W27SayaReRPabD+C66B+NdBdk8nnipnkR0FbyL/vfQFhDNj35JBHZtT3FpMuf1Y0+7ckBBNjeF16E578oAV1VGQK844Gt4jCU+TpTn/lChfT8R2PMY2pRl00FMRRdsN4f8X9aDMQlYjwiqKTNfXtFvoVduw7m9rTIeTZqrslnVhoRDqrovuoi2wWZgRqJ1xLuJ7RzVatxkNCuwii6lpoNReKG9cjMwoVjzK8WWaPcaFa1KOxHFPb0QWEdo06kCm/rKM8ArhfY1DUVp3b6yCNhRaN97RHa9XGiT6UBeiCZVrVfOLNb8yjAB7V7jHTjgq11egeYanCK0aTyaPhx9ZQ5R2dMsYSTwdbTnuRtt7MUoNMF//8XxQUaA+oE5oljzK8F0tOfwNYVa3yxGAveRfg1mEwGdKqahKxHcKwvxSlEvY4Gfop/8Z6DdVjxEZNenhTaZDmYykduqemDKjgcomqPQvnD+XKz5jeSLaK7F58R2fVtkV1/pIvLJO5kJRFCw+twuBvYQ2jkSuEVk1/pCu0yH8260D87NdEb1OnWO8SLc1UvBRmgqrD2Fthb/eOLZUE9U3UTZ6U7cNtoATRno/kS5DQRR10Rh19/EdpkOZzRRaET58JxZ6AiKR73v3w18qdARNBtVCph6qXUbdO1ol5WriQmxU3gDUYwsx7m8Cm2p8xHoipq9RWiXMUDUrld+zXbT7HiA6WjP1S1Et0ajYX801+VxdKVfezlUZFt/8jTxpdlkRhOZFeqYil55DL0j9XqRbfeh78FiDKBLT+mVpsYDqPf9nyWKFRkdo9B1f/tsBvvUqWp9pQv4EbBaBrvL5iXkbR2+CNhTbPNo4EaRfaqOlcY8jxHog2maFg+g3vfvJnqCGz0fQHN9FqDvuDaW2MvNNZF1E6sX76AZBaVWAX6AJrZjMHlvBtvfJ7JtFrBSBvuMeY51gJloH6ozCx1BPnLs+/+d+EIwFLKu0AAAIABJREFUelYgJkHFdVJWB+xlMvr7qT+5kvhyriNjCCfmMfKfp69nsH9NIphUYZ97QZhC2BO9p31EoSPIw3S052Qm2opz5vl8Ft31enUG+9YHHhDaOJj8Bdg9wxhyMA44lsjDL+Lc/Io8KyU/Ftm3iCjfbkwhnIz2Aat7PIB6338xLudaBKuh6Q/QTTSfyhGouTn6VbfB5Aqi2FQVG8lMBj4EPEhx5+Mi8qRQ7oIuUHF6BvuMGZBRwF/RPmh1jQfIse//hUJH0NkondkTMtm4HfCE0M7hyIPAV4CtM41puIwhOjD+Am3jpOHI38nzThpFtPNW2PgM/vo3JbAR+lSbMwsdQToT0FTvWval433/4piMLl98PvmKNW1LsSsBfeUG4DPEV2sRaWYrE3n830VbibQV+TP5Gph9XGjntzLZaMygfI48D94RRQ4ikelox+59/3L4DLpreAtR1S8Hm1FcTMBAMofIBvoIsDfwAtIaz4wlVtHeQBS7+hf5o/mHkt8CyyWMaTB2IL7aVddizUx2Nhp3SkpjI+Am8ux5zgV2JiKgq8xRRD61ii5gP+BPQp1meEwkurCtJdL3HSJILQdTgAuISbMqzCO6VN5OZFbMJqLb5/TIGCLrolcmAesBmxCBjlWKNziduHaLMuieCPybeH8qOAX4hEiXMcMmR3ONvlL1eIAc+/4nFToCsyzKQM4uYt86FxOBC4X2WuKandjCNWiH6UJ7n0Hbi8KYYXEAxTyQyq9rJd73byYjgWvQXdNHgbUz2juGaPJT9sTZBHkKeF1rp79l3pjB7oMy22zMUkwA7qW4B/OIYobVEmehHaP3/avDy9EGtv6F/JX23kIss5c9idZVbiNiK3KyPrqCP33lHvLFmxjzPNT5/0NJ1eoDON+/+ZyJ9hp/vgCbNyP2lsueTOsmPyZiEnIyDrg24xhOyGy/MUAE7aj3vYcjVYkHcL5/Z7AK8Ai6a9xFRLjnZjkib7/sCPo6yKNEB74iOCPzWOYRgaHGZOVcyntgy44H8L5/Z3EE2ms9i/zLzL28FP292iQ5D1i97bPbGu8saEw/LWg8pkN5Efn6aw9Xjsg+yoHxvn9nMYIoAau85jeRr7DMsixHRLTPE4+hzvJfIs22KF5EcZULu4giTcZk4R+U/wCXFQ9wdJv2DiTe968Ha6PrFtgr5xY6AliX2Ocu23kv+71xInlqlgzE6sB9wjEMR67C9W1MBg6k/Ie4V4qOB/C+f2fzFvT38AcKHUHwMuCSNu2tqywg0iSLrpQ3iigjXMaY9y9gfKaDGAPcSfkPc185M+uIl+B9fwP62JeFwK6FjmAJexL3YNnPcE6ZT/QQWE90zlrly8OwMZfcSrWqKpqacwzlP9D9yRE5B93DdLHN3vevJxOJXHHlvfAwsTxfFjsTwXCL0I6rTHmMSLlcQ3ieWuX1lL/dcnT2UZqOYBy6oj/qYJjc8QDO9zd92Y74slTeE/8kT5/5VlgLOB64i3InrRS5lvhQKTtVeAuiB0LZ5+M+XBzICHgfupvytegDCXPFA7jOv+mPd6F/WZ9W6AgGZiSwB/B9ymu/24rcCHwKXVOdVFZEv0qUIh/JO1zTdCYQy5SKm/GvPTrXRf9yUdcH8L6/GYwz0b+sjyp0BEMzmogV+BLhZJc9mXUTK4h/AT4MvDDf0NtiBPBLyj9HfeUxYuvKmLb4BJobcRGwVR+9+6KvVHaEcNzTxbZ5379ZjCP61SvvkflEj/iqsg7RdOabRLOkInLbHyfaYn+GcEaKqp/QDqp3pVq8CmDaYiK6/OfT+9F/qkh3r6jiAbzvb4bDhsATaO+V/wErFzmIBEYTz9tBxDL8GcQq323ECt9wguAWAA8QS/m/B75BpEfuQ70c5r3RB1LOEul5hPLjIkwN+TC6G7m/iNzRVC8ewPv+phX2Q7+S9Ufydw4sghFEn/o1ganLyCrkb75TFFOIpXblPTCD2OJ4WqSvjJoTpsYsR3jmipvvxEGOkyMe4Iw2x+x9f9MOJ6C9Z7oppnOgSWccsR2ivPbzgR179H9GpPMhnBFgWkAV6fwEMGmIY1UlHmC62Abv+3cGI4Bfo713iuocaNLI0eHvrX30r4AuCPs98tGbRjIaXT7wR4d5zLLjAbzvb1KYTDSZUd5DTwEbFzkI0xLvQD/5f7+f43xApPteoqKrMYNyGJob7kGGvx9fZjyA6/wbBVsRjqfyPvoPTuOqIjk6/F1JbL0uy1giOFRxjENVJ8A0lxvR3GzHtXjcMuoDeN/fKDkE7b3UTfGdA83g5Ojw9wiD9yxQrTZclzx602j2QnOjPUh7bTeLjgeYLj6W9/3NN9A7Ae8vdARmIHJ0+FtEpBEOxhgiM0BxvD0Txm8azh8o/4VVVDyA9/1NDkaj77S3ENityEGYfsnR4e9Dwzz2e0THu7C9oZumszGar+9HScvxLSIewPv+JidrAPejvb/K7hzY6eTo8PcbIotkOIxDl5q9TTsnwDSbb6O5uT4msCVnPID3/U0RvAx4Fu19VoXOgZ3I5ug7/N1C6x9KHxQdu91aKaahTEYTwfwE0RFLwb7oPe7D8b6/KQ7Vsm1fqUrnwE4hR4e/p4FN27BlApqqg/OId74xQOxDKW5sddlbdTyA+ovM+/5mKM5G7wQcXugIOpcRxDK98tp1EdsJ7fJ5kR0uD2ye41Y0k6t6jzJHPIBSvO9vhqITOwc2hRwd/lI/klYnrn+qHXcy/PgD02Cmobmxp2eyL0c8gEK872+GyxTyNIxZtcAxdBp7ou/w9xcilTCVH4rscUqg4adobqZtM9qYoz5Ainjf37RKjpaxF6OZUMzSvAD9R8c96By2TdG8D38pssfUlFXRlLT8WwG2quMB2hXv+5t2OQH9/fi5QkfQfMYB16K9Rjm2bC4Q2PUssLbYLlMjVGklryvA1qrEA6gDHU3nMBI4H+392AW8pshBNJwcHf6OzmDnviLbPp7BNlMT/kP6DXQPxS1Dlh0P4H1/k8okIgBLeV8+iTsHKiiqw5+CkWi6tt6WyT5TcXZGc4N/smC7y4oH8L6/UeHOgdWjyA5/Kj4qsvPFGW00FeVbpN84Ze0hFR0P4H1/o+Yt6O9Tdw5sj1wd/nKXbl4FTUrgdzPbaSrGaKK2eF1fOEXHAzjf3+TAnQPLp6wOfyrOEtj7FDC+IHtNBXg1mht996IN70NR8QDe9ze5GANchvZ+fRbYtchB1JwvoX9nfLhA+18msvlNBdpsSubnpN8w/6P8SlK54wG8729ysybwINr79iGc3jUcDkTfb+Q8in0vjgBuF9j9hwJtNiWyEpp9oxMLtnsgTiHP5O99f1MUOToHXoE7Bw5GVTr8Kfh4m/b2lWdwg6CO4DDSb5YuYGrRhg9ArngA7/ubIjkO/T387UJHUB8mom8JPotwKspgHTRVJo8q2nBTPL8l/Ua5pHCrB0cdD+B9f1MGZ6J3AvxSX5oRRAlc5TnuAt5Y5CD64SLSx3Fh4VabQlmB6AWdeqMcWbDdw0EVD+B9f1MWywPXo52c5pG3T0fdUCyXLysnFzqC/nkz6eN4Fli5aMNNcRxE+k0yn4gjqCKp9QG872/KZgruHJiLKnf4S2V5NDENOcoWm4pwHuk3yK8Kt3r4pMYDeN/fVAF3DtRT9Q5/ChSdXf9YuNWmEMaj8RAPKtrwFmk3HsD7/qZKfAbtZNVN53YOrEuHv1ReR/q4nqW6K7wmAUXxnznAhKINb4NW4wG872+qRo7OgYvpzM6Bdenwl8pyRFW/1LG5KFAD+S7pN8ZPC7e6fYYbD+B9f1NVcnQOnAW8sMhBlEyODn/fK3QErXEm6eM7q3CrTXZmkH5jHFC00QkMNx7gpLIMNGYYbI2+c+CN1GMlL5U6dvhLZT/Sx/gonR0v0ji2JP2mWED92o0OFQ/gfX9TB9w5sHXq2uEvleWIVZ7Usb6saMNNPo4n/Ya4oHCrNQwUD+B9f1Mnvo7eCWhq58C6d/hLRVHoqAq1DYyIS0m/Id5ZtNFClu0XsBjYp1SLjGkNdw4cPnXv8JeKotz7jYVbbbKwErCQtJuhi3p/LS8bD+B9f1NH1gQeQDuxNa1zYBM6/KWyCpp3/lpFG270vIb0B+Dawq3W0xsP4H1/U2fcOXBgmtThL5VLSR/7wUUbbfR8lfQboSkV8vak3isZxoA7B/bHisBtaM/J08CmRQ5CyEdIH/8ZhVtt5FxH+o3w8sKtNsYMxpnonYC6dg4cAfwC7bmoQoe/FLYl/RzMKNpoo2Vl0jvkzSICkIwx1aFTytsOhxwd/uoeJzQCeJD08zC1aMONjjeQfgP8tnCrjTHDYQr6BjczqFaDm6Focoe/VM4m/Vy8rXCrjYxvkX4DvLtwq40xw2U/0lf5lpULiV4EVccO0OAo0gHrVP7dLINi/7+uQTDGdAqd2DlwHHAN2jHXdQtkINYkPSVyRtFGGw0TSM8Ffahwq40xrTIC+DXaybCL2EKsKj9E7/S8tdARFMN/SD8vVS9/bPphD9Iv/M8Lt9oY0w4T0bzs+0pVOwd2Woe/FE4n/dzUORuiY/kE6Rf+uMKtNsa0y1Y0v3PgznReh78UFHEAXyncapPM+aRf+K0Lt9oYk8Kb0X8dV6Vz4CrA3WjHVocOfymsT/o5+r+ijTbpzCTtoj9BPSKBjTFLk6Nz4PsKHcHzGQ38Fe2YFgK7FzmIkriXtPO0gAi6bBxNrQk/FVgtUcfVRCCQ6UxeRjSSapeZpPeQeAkwOeH3jxH3cQo7k5YW9iTFf0F9BNgebQXPLwH/JppqlcHJRFyTko8Dl4h1VpHLgbck/H45orLglRpzTG7eSLp3/NnCrTZV4t+k3T8XCmz4Z6INfxPY8LdEG/4psKEd1gDuH6aNw5WHKaeXxv7oO/z9hnp1+Evh/aSfr3cVbnUBNHWJexuBjmsEOowx5fAI8SHwrFDnGsAvKbZz4KbAWWgn69uBI4iJrRNQvMu3FeioHE11ABQXyw6AMfXmSuBDYp0vJjqMFsFEor7BikKds4n6BrOEOqvOdUS55BS2UxhSNewA9M8M4gvCGFNvvk10DlRyLPk7B44AfgRsLtTZDRwN3CrUWQfmkT7mrWhgzFwTHYBVSE9r+bfCEGNMJTgOuF6s8zTyLgsfj74AzanEFkYnkrqiO44GloVvogOgeChvFOgwxlSDecABREaCivHAr4iW42r2Ar4g1nkx8GmxzjrxL4GOxm0DNNEB2EKgww6AMc3if8AhaFN7pwI/QfsenUIUHlK2470HOJjomtip3CTQsZVAR6VoogOgqN1tB8CY5vFH9Om9+wIniHSNA36Bth3vAmIr4TGhzjpyE+lZD5soDKkSdgCez1yi3KYxpnl8noisV/JpNJ0Dvw3sJNDTl+NIL0jVBJ4GHkjUUcXGUEk00QFI9dJuwhUAjWkq3UTb2/8KdY4AzgA2StBxDPp2vKcTdpkgdWV3Q2CMwpCq0DQHYCKwdqKOTkuRMabTeIr4Yp8r1DmJWFlop3PgzsA3hbYAXAW8V6yz7tyc+PsxRNxHY2iaA7Ap6RWz7lQYYoypNDcRX91KtiK+ulthNSI1T9mOdyZwIPCMUGcTUHzcNWoboIkOQCp3CHQYY6rPT4FviHUezPA7B44GfgasJzz+IqIl8n1CnU1Bse3TqFoATXMANhDosANgTOfwYeDvYp1fBnYbxt+dgr7D38fojA5/7aBY3d1QoKMyNM0BmJL4+y60wUHGmGqzCDiI9AjxvowGfs7gnQP3R9+n4LcU16egjswksgFSeIHCkKrQNAcg9eLcR+TNGmM6h0eAN6HvHHge/XcO3Az4MdoOf7cCh9E5Hf7aJfUDL/Ujs1I0rblB6sWZoTDCNIIjgRUSfq8oO3sMaZ3gUr92AN4DrJTw+7p0nfsn8EEiF1/FS4GvEOewl4lE0N9E4XFmE0F/c4Q6m8p/gR0Sft8oB6BJjCBqfncnyI8Lt9oYUyV+TNo7pD85rEf3CCJVUKm7C3i9/jQ0llNIP+fKSo1GxOqkX1h1Aw5jTL0YR1TOU07S84mvzo+L9XYDJ+U5DY3lWNLP+faFW22GZAfSL+w7CrfaGFM1pgKPo52oHyACDpU6/4y2aVAn8FrSz3tjVlyaFAS4pkDHPQIdxph68z8il17ZPW9ttJP1vbjDXzvcL9CRWm22MjTJAVhNoENxcxhj6s/F6DsHqlhAlDLu9A5/7aB4xyvmmkrQJAdAsQLwiECHMaYZfAF950AFxwH/KtuImvIo6SWSV1cYUgWa5ACkemWLiX0/Y4yB2O9Vdw5MxR3+0ugm/UPPDkAFWSPx94/iNsDGmKXJ0TmwXdzhT0Pq1okdgAqS6gDMlFhhjGkaNwFvK9mGmcAbcYc/BY8m/t4OQAWZnPh7OwDGmIH4GfrOgcOlt8Ofg5Q1pG71OgiwgqSUKwXv/xtjBidH58Dh4A5/WlJXACah7eNQGk1yAFJqpkN9apYbY8ohR+fAoXCHPz2pH3sjgQkKQ8rGDsASFI1TjDHN5hFiL17ZOXAgbgeOICLXjY6nBDqUzZxKoykOwFiihncKXgEwxgyHK4nOgTmZTWQf+L2kR9E10Q5AhUj9+gevABhjhs9pwJmZdHcDRwO3ZtLf6dgB6GF0iceeCGzQ8+/4RF2pKYAALwD2EugxpkrMJr4i76KYZetO4lhgO2Bbsd5TgV+KdZolKBwAxUdnRzEaeBVRxeou9G0xLRbLwLIQuB74MrAjRoW6c6A7/OXn5aRfp9cWbnVNGUtUr7qX8l+CFosl5Br8ElOxL1FKPPWazABWLdb0jmQ70q/Vmwq3uoa8FPgP5b/sLBZL/3IRsB4mlU+Tdh3mAzsUbnVnshnpz80hhVudgZxBgB8kima8MOMxjDFpvBK4Dse/pHIScH7C74/FHf6KYqFAR5nxczJyOQBfBL5CQ06SMQ1nFeACIr/dtEcXcDjtdQ48HfiR1hwzCIsEOsYIdJRODgfgk8BHMug1xuRjLHAOXglIoZ3Oge7wVzwKB6ARH7dqB2Af4HNincaYYhgLnAdMKduQGtNK50B3+CsHOwA9KB2AFYEfinUaY4plMrEkbdrnZ8DXh/ibxcChuMNfGShiALwFsAyfAtYR6jPGlMMrcIpgKh8FLhvkv38MuLggW8zSKOa9LoGO0lE5AKsA7xLpMsaUz6fLNqDmLCQ6Bz7Yz3/7BREkbcphOYGOBQIdpaNyAA4FVhDpMsaUz47A9mUbUXMeBg5g6RLMtxMxAt2lWGQgvXEc2AFYijeL9BhjqoOf63T6dg6cBbwOd/grGzsAPSgiGVfEtcWNaSJOCdRwGrAT8DtiBcCUi8IBmC/QUToKB2AbkR5jTLXYikgNdBfBdI6mIYFjDUCxXa3oKFg6ii2AjQQ6jDHVYzSwftlGNARP/tVhokDHbIGO0lE4ACsLdBhjqsnksg0wRsyKAh2NcAAUS/eK/ZRX4WVGgJ+T5lBdRDPSi84AXpDw+3/gipQA2wJfStSxvMIQYyqEYgtghEBH6SgcAMWJ+BsNiapMJLUk6APAXxSGlEwrtdT7YybNOA+pKJadG/GiMx3L8kSc2vZ9ZAuB3luBe4AbgBt7/r0auFeguzAcvGeMMaZJTCUyWF5DVLUcm+k4U3qkb9XM/xEfH38B/kjFgwXtABhjjKk7WwFHEZPxhiXaMRU4pkfmE+WezyTabSt6EEixA2CMMaaOjAdeTUy2VaxZMZ5wSF4LPEmUgP4ucH2ZRvXFnfuMMcbUiXWBbwOPEO2rqzj5L8tkwlG5DrgU2LNUa3qwA2CMMaYOrAGcCtwJHIsmn78MdiNiBP5JxCmUFmhrB8AYY0yVWRX4FhF1fzya1PMq8BLg90T2wMvKMMAOgDHGmCoyAjicSLk7Dk0b3yqyI1G75MfEKkdh2AEwxhhTNbYBLgfOAlYr2ZYiGAEcBtxGbG+MKuKgdgCMMcZUhVHAZ4FrgZeWbEsZTCICHP8GrJf7YHYAjDHGVIE1iOI5n8Ep6rsCNwEH5TyIHQBjjDFlsy8x4e1dtiEVYiXgZ8SKQJbARzsAxhhjyuQzRKW8Ttjrb4djiS0B+fmxA2CMMaYMRgHfI/b83XRqcF4CXAlsqlRqB8AYY0zRTAB+B7yjbENqxFSieNCuKoWdHmhhjDGmWFYBLiLy36vCXKJz31yibj9EK+EVemQS1VilWBn4E/AGImAyCTsAxhhjimJFyp38ZwOXEQ15bgNuB+4Anh7id2OADYAXEsvwmxNf4lOzWTow44BfEY2Q/paiyA6AMcaYIlge+APFT/5XAucTk+W1wKI2dCwkHIU7lvnfpwB7ENkLryPGWATjiS2UVxLbAm1hB8AYY0xuxhLtcF9e0PHuB84BfsTzJ20l9wBn9khve+LDibTG3NX8ViC2AfYCrmlHgYMAjTHG5OZMYL8CjvNv4ADiy/xj5J38l2U+4eS8htgimE6sHORkRWJ1o62qgXYAjDHG5OTDwMGZj3El4WDsAPwa6Mp8vKG4AzgK2Bj4LnkdgTWIMbdcLMgOgDHGmFzsCZySUf8TwPuJdrrJUfEZuAd4N7Al8JeMx9kR+EGrP7IDYIwxJgcbAD8nT6xZN/B94gv7G5T/xT8UdwCvAI4AZmY6xqGEMzRs7ACY4TIJOAG4DjiaSIsxxpj+GE1M/qtk0P04sc/+TmIFoC50Az8GtgUuyXSML/boHxZ2AMxQTASOB/4HnEjcXGcAdwLvA5YrzTJjTFX5CLBTBr1X9+i9IIPuoniIiNz/GLBYrHsMcBaRdVEInyI8mxTJ0umohjxI2nn8odCW3i/+J4c45l3oVwRuHeKYQ8kvhbbUmT1Ifzb3KNxqU3c2AxaQfu8tK6fTvNT1/YgKhOpz9bmiBmAHQEcVHIDeL/4nWjz2DHQrAnYANNgBMEUzErgc/YR2KtUoxZuDnYi4AOX5WsgwVmC8BWB66f3iv5d42Ca3+PspwNeJydsxAsZ0Ju8hIvJVdBMfFh/r+b+byDXAbsS7V8VootPioHO8HQCz7B7/pER9U3GMgDGdyCTg02KdHwa+KdZZRf5DrLY9ItS5PUPUX7AD0Ln0Tvz30N4X/1D0rgjcjh0BYzqBj6ON+j8F+KpQX9W5i0gVHKoxUSucwiD9CewAdB6pS/2t4q0BY5rPesB7hfp+BHxSqK8u3AgciK5y4LrAcQP9RzsAnUPvxH83mqX+VundGrgNOwLGNI3PowvmvgZ4F83d8x+Ki4mYBxUfZ4APvaalVJjnM4lYgn8/xU/6/dHrCHwSOAk4m/wNM0z7fIl6FVupCvOJVLjHidW2/xI57PeUaVQm1gMOEel6Cngz8KxI31CsQETLbwpsQkyUE4gty7k99txDVPK7jsh2KoKvEYGBrxXomgS8nSgSJMdpgDqUaYDDzeMvW/qrI+A0QA2KNECLVu4nSti+guaswJ6C7vwcUIC9U4h565/Ex0cr9t1N1NyfRv7rtzLhcCjO671k+uC3A6BD4QDUZeJfVvo6AnYANNgBqLbMAD5KfIXWleWBx9Ccj3My27oH8Gei+p7q+r2fQYLsBOwtsrUbOCiHgXYAdKQ6AHdRv4m/vzG0WoRoWbEDENgBqIc8RmzT1XFL9u1ozsFTwJqZbNyePMWJemUmEbOQa0Xg5yI7/y+HcXYAdKQ6AJYQOwCBHYB6yfXA1v1eyepyA5qxvyeDbeOIToGLRDYOJVcDW2QYxzrALJGN2/dV3JQ9KGOMqTvbAFcRX5N1YHM0DsstwHcEevqyKXAlkZo4Sqx7IHYinIAjxXofAE4W6VpqG8AOgDHGVIdxxGT4bYqbuNrlQJGek9F2xXsRcAXhUBXN8sCZxMqDcn49DU02zoH06algB8AYY6rHscBPqXZcwJsEOu4CzhPo6WUf4BK0FQnb4b1EULZqjp2NpiTyBsCOvf+PHQBjjKkmbyIaulSRzYgtgFROJfboFbyIiP8ZL9KXylHAt4T6vknEAqTy3MqNHQDTCo8BPwOeKdsQYzqEtxKpglVjf4GOp4CfCPRAFBi7kCjiUyXeja5E8pNoUiVf1/t/2AEww+Fx4LPARsBbgBcA/4+odmaMycspROGZKrGbQMfPiWqJqYwhHImVBbpy8GXgJSJdZwt0bAKsJdADOA1QSdXSAB8lOgYOVKhkXSJYaUEFbO0rTgMMnAbYHJlBdQoGjSS+3lPH9DKRPScJbMktd6Kb524X2HMAeAXA9M9jRDOKDYgv/TkD/N39RKepjYgoVW8NGJOHKcTHVhXYClgpUcddRCneVDYGPiTQk5uN0DX4UWyb7AJ2AMzSDHfiXxY7Asbk5wOEI1A2uwh0XEh8iabyNaJxTx04nlg1TeUCgQ47AOY52p34l8WOgDH5GIu2TWy7vFig4xKBjm2B/QR6imIc8GGBnutJrwmwLbCcHYDORjXxL4sdAWPycCTlB7ttkvj7LuBSgR3H06eoTU14O+nXrwv4e6KO0cDUKheZMPl4jIhMPQ3dpN8fvY7AqYSj8Tbqs1xngjuIIiSmNcYBawCrZtB7CNr88lbZMPH31xMpbSlMRpOKuCwLgIeBeUSk/GSx/uXR1He4BHh9oo6NEn8POAtASe4sgKGi+nNTVNaAswACRRbAHoVb3Sw2JaLUlV06ryh0BEszeRC7hitnCuw4RmBHX7mQ2E5Y9gNlS6JU8RzhsRTXb1eBHR8Q2GEHQEguB6DsiX9ZcjsCdgACOwDVYW3gL2ju70XAasWa/xw7DtPGwUQRx/BrgR3dRDrjq4dxvLWAf4iOuYj0lYU1BXac5hiAZpNrjz8VxwiYTuNB4gtTEcE9CthLoKcdUpf/IfLYUxiJphDR7B49fxjG3z4E7AlcLDjuKNLtf5hwXlKYagegmVR14l8WOwKmk3gWOBS4T6BrmkBHOyj2xO9I/P2GaAIh3wbc0MLfP0u0031QcOydBTpSz+NkOwDNoi4T/7LYETCdwlPACQLE1ib4AAAgAElEQVQ90wQ62kFRa39m4u83FdhwBe11IXwSOFFwfMUYUs/jCnYAmkHfWv11mviXpdcRcK8B02TOJb2r2yZEXEHRTBToSB27Inr9jITfnkNkCaSgGENqdo4dgJrT+8W/PuGVPl2mMUJmEuPaBK8ImOaxAPirQI9iH7xVlk/8/ULSn2fFNsSfE347D7g88fiKMaQ6UnYAakpTvviHwisCpqmkFnKBchyA1EwiRU2J1FWIhURQXwr3JP5esZLiFYAOo6lf/EPhFQHTNC4R6NhdoKNVUueMxQIbUqv/dRFpcCmkjkMx9ybbYAegHnTKF/9QeEXANIWbCIc+hTLiAFL3vlO3ECD9y3c50is0pjb1UayEpAZkzrUDUG16J/4N6awv/qHoXRFYHzsCpp50E4VlUil6G0DhAKR+wSvegykFrsYCL088fmoOP6Q7APPsAFSTTl3qbxVvDZg6c6lAxzSBjlaYm/j7EaTvf/8v8fcARyT8dn9gpcTjK8aQaoNXACpGXfP4y8Z1BEwduVSgY5pARyukOgAQW3gppFYSBNiX9lYBxgNfEBxfMYb1En+vuJbuBSDEnfI0+DwG7gVQbUYSTn/qNSoyDuCNAntflWjDaCIFLtWOh2jNGRkB/ERw3G7gzW2Me1keSbThAq8AVAt/uWrweTR1QNHXHYqNA0hNf4PY2kxhEZr4iTWJfP7th/G3E4CfEa2YU+kmPQtkAukNoWbYATDGmPLoRAdgG4GOlEI+fVkPuAr4DrBFP/99MvAOYsn+TaJjXk98vaewLenBlPeMTlRgjDFVY00iSnsLYnl8UrnmDMrqAh1F1gN4lMgESEnn20lgx8+BLxPbAamMBt7VI/cAM4j4q3WJe0g9T54j0LGjQIcdAGNMI1geOLJHFBNMneitB6DoUjcU3cB/ga0TdGxBBNOlpO8+DFwEvDpBR39M6ZFcLAR+KtCjuMfv9BaAMabOjCIyQGYQGSCdNvn3Mq3AY/0r8fdjgF0EdnxFoKNoziG9DPEI0q/3M8DNdgCMMXVlfSKI61ukB0TVnSLjAK4R6NhPoONS0pvyFMli4BSBnq2BdRJ13Ag8awfAGFNHXgxc2/OvKXYF4FqBDoUDAPABNP0FiuA04A6BHsW5uwY0DQmMMaZIXgz8BVilbEMqRJF9AW4Enk3UsQmwlcCWa4EfCPTk5mHgMyJdBwh02AEwxtSODYALSK+D3kSmFXScZ4ArBHqOFOgA+Ahwm0hXDrqIsSpKum8F7CDQcwnYATDG1IfRRDGWlcs2pKIUGQdwoUDHIURAYCpziMp6VW0KdgrwJ5GuowQ6bqGnnoMdAGNMXTgO2LlsIyrMtAKPpXAA1gBeL9ADcANwEFElsEr8HN3S/wTgMIGePwp0PId7ARhTTZrUC2ACUYRGUYe9yVJkX4C7BPZeR3pFu74cSTgBZV+HbmKiHSsc2/tEdj1XOMorAMaYOvA2YNWyjagB0wo81vkCHdsCrxDo6WU6ESS3QKizHX5FrG6kBkv2Mgb4oEDP4/RJnbQDYIypA4q9z05gtwKPNV2k5wS0qwC/A/YE7hPqHC6LiSX/A9E6IW8lvY0yRBXChQI9z+EtAGOqSVO2AF5A+cu5dZGio+GvE9l9cAbbViG+xIs693eTZwVmRSKNUGHjtn0VewXAGFN1divbgBqxKcXGAUwX6TmVtAZD/fE4sR3wGiJeIRcLgJOJHgeXZtB/AhEwmcoNRCfC57ADYIypOpuXbUDNmFbgsc4h6gKksh7wOYGe/vgDsBmxjXS7UO9c4GvAhsAniS6JarYD3iPS9SORnqXwFoAx1aQpWwA/ofyl9TrJ99s7zW3zfZHdi8m/2jOCaET0PeD+NmycS3QhPBxYIbOt44Cb27CxP3kcmLjsAdwO2BhTdZ734mqRZ4AHFIYUwEiiyVEK09LNaIkvEkFqoxL1jCS2FLYBZiXqGohuIgq+NxJ+U+AlPf9uCkwi9txHE5P9LGJv/3Yi3uEqNCsew+HzxLaCgtOA2SJdS+EVAGOqSVNWAC4gbQyp7WuLZASaegdFxgEAnCuwuVfOK9j2KrInsSKiOJ9zGaBbpmMAjDGmOnQDlwn0TBPoaIVTCdsVHAi8S6SrjqxDOFSq+fkHhFP5POwAGGNMtfi7QMeuAh2tcAMxaan4GrC9UF9dGAX8mAG+2NtgNuGc9YsdAGOMqRaXCnRME+holY8Sy80KliPq6K8k0lcXPo922+1zRA2BfrEDYIwx1eIm4LFEHUXXA4AItPySUN9GxPJ1p7AncLxQ313Atwb7AzsAxhhTLeoaBwDhANwr1Ncp8QDqfX+I3gGDZizYATDGmOpRxzgAiGI4b0MXEAjNjwdQ7/sD/Ab4/VB/ZAfAGGOqx6UCHdMEOtrhYrTFiJoeD6De958JvHM4f2gHwBhjqocqDmAdgS3t8CHgDqG+psYDqPf9AY4mnIAhsQNgjDHVQxUHsJtARzvMI2rvLxLqbFo8QI59/x8ShbOGhR0AY4ypJoo4gLIcAIB/AieKdTYlHiDHvv8dRODfsLEDYIwx1eRSgY5pAh0pnAL8SaivKfEAn0O7778AeBMt1vu3A2CMMdVEEQewCeXFAQB0AYehbcZU93iAPdDv+7+LqMbYEnYAjDGmmtQ9DqCXR4GDcTwAwJrAOaR3TuzLuUQXxZaxA2CMMdWl7nEAvVwGfFass27xAKOIyX9Noc47gHe0+2M7AMYYU10uFeiYJtCh4GQ6Ox6gEvv+fRmts8UYY7LQlfj7Dahvj/kRAh2bEH0BHhToSqGLqE+vZCOi6NCbxXrVvBL4mFhnW/v+aj5F7FWlyLjCrTam+exB+rOp/GJpl3NJH0eny8Etn3U9+xJOQI7xVTkeYE3gIbTj/anCMG8BGGOqzkNlG9AAdiv5+GsTee+KFY3++CqwXSbdKYwmtimU+/63Am9XKLIDYIypOreVbUADmFbisUcCZwOrZjzGOGKiXTHjMdrhs2ibMs0l9v3nKpTZATDGVJ0ryjagAZRZD+B4itlK2pgohVsVcuT7HwfcolJmB8AYU3VuBWaUbUQDKGMb4EXo0/8Goyr1AdYBfoY23/8s2sz3Hwg7AMaYqtNNLCGbNIp2AFYkgtXGFHzcsuMBRhPjVtb5vxU4VqgPsANgjKkH3wHml21EzZlW8PG+A0wt+JgQ8QDnUV59APW+/wIii0Oy798XOwDGmDrwMHBa2UbUnN56AEVwFHBIQcfqj976AEXT2Hz/gXAdAGOqSVPqAPSyAhELUHZOfZ2liHoAOxGrNWWPtZti4wHWAWaK7Z+e02CvABhj6sIcouLbwrINqTHTMutfE/g11fmoKyoeoDb7/n2xA2CMqRNXAkeQXh64U9kto+4xRC7+uhmP0SpFxQPUZt+/L3YAjDF141zCCfBKQOvkrAfwbbSToIqNgB9k1J8j37+QfX87AMaYOvIT4BW4THA75FgFeAdwTAa9KnLVB6hFvv9A2AEwxtSVS4GtiOpv3hIYPtPE+nYBvinW+TfgM2Kd6niAWu77q3EWgDHVpGlZAIPxQmKZ92nKjzyvutze5jnuj3WJFE2lfQ8TwYQjgYvEuu9A1y/gJLFtc4AtRLYNi9FFHswYYzJxG9Eh7b3EPvSuwObAekQAWJNWO9cFxib8vrcewIOJdiwP/AZYI1FPX7qAQwknAOAw4Dp0cQsbA6cT2SQp5Mj3l9b5LwqvABhTTTppBaCT+BXp1zW1HsAoYvJXr06c2M+xdiUCPpXHSYkHWJOIPVHa89MEe0rFDoAx1cQOQDN5D+nX9fSE448AzhTYsKz8jYGD6T4pPtZ82osHGA38XWzLLcCENmypBHYAjKkmdgCaydakX9eUOIBTBMdfVh4E1hrkmDniAe6k9foA6n3/+cA2LdpQKewAGFNN7AA0kxHAo6Rf23b21d8lOO6ysgDYeRjHXg24X3zs81oY+x7AIvHxj2zh+JXEDoAx1cQOQHMpIw7gIGCx4LjLyttasKGseADv+w+AHQBjqokdgObyXtKvbSvd8qYRX+rqyf+7LY9cM+f0lQXA9oMcbxTwV/ExbwcmtjH2ymEHwJhqYgeguRQZB7AteeorXEF76YwjgT+JbRmsPoB6338uBef758QOgDHVxA5Ac1HFAaw9xHE2Q7/03Q3cTVr9gNWBB8Q2/ayf47wS/bbHkQnjrhx2AIypJnYAmk3uOIBN0U+y3cAsYgUjldzxAI3f929SdSxjjOkk/i7QsdsA//sLgUsYeoWgVRYDhwA3CnRdRrThVfI1Ih5gFHAO4QSouINomtQovAJgTDXxCkCzyRUHsCXwiEB3f/Je2eiDXPEAXxfrbNS+f1/sABhTTewANJsccQBbATMFOvsTdcfAXnLEA6jlyExjT8JbAMYYU0+6iWXwVKb1/Ls1ke6mbG/by++BD2TQC+GwvIUo0lNFzgWml21Ef9gBMMaY+qKKA9iGfJP/ZSwpIpSLHPEAChq5798XbwEYU028BdB8FHEADwKPCfT0JzcBk7ONfmlyxAOkSOX3/b0CYIwx9eUmYvJOYS1gFYEty3IfsC/wZAbd/dEFHEY4NFXgWKLTX2UZXbYBZikmAesCLyAadaxMVKca1fPfRgDPEp7lgp5/HyYetAd6/l1QuNXG5GUCsEGPrEpMVqsSVeR626guJvLLFwJziH3hB4jmMff2/G9NpDcO4A1lG7IMjwB7E+e/SGYStQ3+ysCthYvgLCq6798XOwDlsTmwE7H3tjVRblPhhf8PuIHIs70B+CfxMBpTB1YjgtJ2JJ6JrRi8TexweZh4Hq7v+fdq4C6B3ipwKdVyAJ4AXkFay+EU/g6cAHyhpOPfSnz9dwSOARgeaxGpIGcTS1RF7UN1Ec7A14BXA+Mzj9NUhzrEAKwAvAr4CjE5dwlsHq7cDfyQiCDPsQReFIo4AJXMYnitfXNTVjxA5ff91dgBGJg1gHcTHnqONprtyGyiHOX+NPe8m6CqDsBY4ov198SWVtnPRHePHX8knPRJGcacE1U9gFSZy8CVBcugjPoARxYxsCphB2BpRgL7AOcTeallP5SDyVPAt4iyn6Z5VM0B2IEoBpMr4lwlzxC527sIx54bRV+AFJlH7PlXjd0o7j08vZghVQs7AMEE4H1E3mfZL7BWpQu4GHgN8TVhmkEVHIARxH11tcCWMuQ64K2017a2SN5DeedoHrBX/iG2jWKOGkpuYUlAakfR6Q7AcsAxFLuvn1NuBA7EjkATKNMB6J34rxHYUAW5l3Dwl2vzfOSmrDiAqk/+kD8eYD4RzN2RdKoDMBo4jjy9sqsgV7OkRKipJ2U5APsT+ell38M55H/AoVTPQS4jDmAusGcRgxOQMx7gyOKGUT060QF4GRGxXPbLqAj5KfqWoKYYinYAphCxL2Xfs0XIZWh62ispMg5gNrB7McOSsRv6eIDpRQ6ginSSA7AyccGLTFWqgswiGnm4cmS9KMoBGA18hCi2U/a9WqQsJNJrq7L3W1QcwOPAiwoakxplPEDH7vv3pVMcgFcQVa3KfumUKZcSX3mmHhThAGxHFNYp+94sU26nGrnvRcQBPAhsWdSAMqCKB+i4fP+BaLoDMJ5Ileu0r/6B5Cng8KQzaooitwNwDBEAVfY9WQVZCJxIudVVc8cB/A/YsLDR5EMRD3Bk0UZXlSY7AFOAf1P+y6WK8n2qnxrV6eRyACYQFS3LvgerKH8l+hSURa44gJuJ/iRNYTfajweYXry51aWpDsDLifrhZb9QqixXoKnTbvKQwwHYlEgVLfveq7LcS/QyKIP3DtPGVp/zOpdKHohP0/q5uB2YWIaxVaWJDsDbqU6J0qrL/XRwDmzFUTsALye2gMq+5+ogc4DXDXZxMqGOA/gZ1a19kMpI4M8M/1x4378fmuYAHI/3+1uVJ6lX2dROQekA7Ee8AMu+1+oki4C3DX6J5CjjAL5B8zN/WokHOLIcE6tNUxyAEURHsrJfGgPJk0SbzaqmWs0lurqZ6qByAN5MdVfEZhHPxdMVsKU/6QI+NNSFEqOIA/h6wTaXyW4MHQ8wvSzjclJmxGrV+DbRua8s7iGq790B3EbsNd1HTPhzlvnbEUTHsonARsAmxN7sZsCLgZWKMXkplgd+AxxAFIMxzeCthANQ1pfgY8CVLHkm7gDuIhzOp/r5+xWJFsNTiCZXm/bIiygnXmUE8GUiYPaUgo55KdFtMYXlBXbUhb8TGRyfH+C/3wocW5g1NaMJKwAnkz6GVuVJ4BziBTtVOJZRRE7y8cT+1sKCxzWf/D3kzfBQrAAULQsIB/L9xH62suTuZsSL/JeUs51R1CSiiAO4oyBbq8JA8QDe9x+CujsA7x/ELrUsIrruHU5xHvbKRL725ZnG1J/MxTEBVaBODsC1RLOd1bKciecznmh6VWTb7i7C4c+NKg6gSWl/w6G/eIAjyzSoDtTZATiYYgL+niaW/9YsZlgDsgPx9bOY/GN+FNigmGGZAai6A/AscCbxZV4m6xNbgEUUNVpIMQ10FHEABxdgZ9WYxhKHcHqpltSEujoAOxGtLHM+7I8DnwEmFzSm4bI5Ucgl95fPTThntkyq6gAsAE4jJt4qsSbwJfIH2j5O/op6ir4Ap2e2sap8Ctf5HzZ1dADWJm9d/8XEw1P14hnbEQFWOV92v6X5qURVpYoOwEXAxjkHLWBdYqUs53m4hQhYzIXjANpnJPCCso2oC3VzAEYB/xDYPJD8m4jErwsjicJHj5PvnHy8sNGYvlTJAbif2HOvE/sAd5LvnJyX0XbHAZhCqJsD0E75x+FIF1E4o6718VentapYrchC6ts+tM5UxQH4HRGMWkfGEc91rnNzVEbbHQdgslMnB2BH8hQ0eYxmFMEZReTD5ogN+C+OByiash2AhUQ6qjKVrywOA2ajP0dziDoeOVD0Bfh+JttMQ6iLAzCe2NNSP8A3AOsVYH+R7EOel913ixyEKdUBeISoR9EkNgfuRn+u/kmeOBnHAZjs1MUB+JzAzmXl/6h+oF+77Ei8xJXnazHwkiIH0eGU5QDcTb6v2rJZC7gO/Tk7JoOtjgMw2amDA7Ax+hzf3xOrCk1mKvogqBtxCeqiKMMBuJmIom8yk4DL0J63J4g4HDWOAzBZqYMDoA5uO5/OmcSmoE+ZfG+hI+hcinYAbqW5K2LLMoFYAVSev+kZ7HQ9AJOVqjsA+wjs6ytX0nkFIrZAmyb4/9s79yi/quqOf2YmkzSZvJhEAgGE8DDhkRIkGMAUMYlCRV2tUEWoCrHQ+ugKwlJRWaWtmEUXCFJSXkolUaE1iLyWSEMIjQqhvEUhSip5gzQkYfKYycDM9I+dYSZZM8n8fnufx72//Vnru5I/5p579rn3nN+55+yz90bkK8oJS8wJwFpkslhLjEEmPVZt2AlMMa6jhR/A74zr5JSInCcAdcATBvXr1vPkF9UvFtOxjZz4T3GrX5PEmgBsQBzkapF3Ilk7rdryXuP6uR+AE5ScJwB/aVC3brVQXsemgfJZ7NpzC2H2PJ0eYkwAOoDTYhmUKScAO7BrU2tHWfcDcPqkmn3ssUhQl0lI5q73GdRjHjKQWPMBw7JmE/dIzH5IkpSJSJsPR7YetiGphNchS3PLkR/TGNyKPO9PGZQ1HFiI1N8Jw/gI97gSeDDCfboZjfSLSUgfGUVPv2gBXkP6xQvItlUMnkDiHVxrVN73kOydVhxsUMapwO0G5TgFZDSSqvMJ4mTPy03z9E24VwYBHwa+iwTNGWjd3kT8EuYCx0aoZxO2+56u4mopcZxhTwauQY7fVZLJ8rfA9cD7CZ+Pog74aQV1K5o8HkANMhS4HElnm/oFTPnih3RSHIekCn7VqL7PIkv1IUMSH0+8HOquPLWNsE5/w4CLkK95i/quAr6OrBiEYgw2++25yv0AaoiphE2EURR9UNuQ/TAS+DbhUhKvAs4jXBjWeYHq7SqGLiUMg4AvIUv5Ieq9CfFbCjWpnx2o3jnI/QBqhHOwdWopqkJl6zoLWB/Jhl8ge6bWjMZu1cJVLL1AmBWmaUho7Rg2vATMDGBDHfCrSDbElucFqAFmU9k+W1m1HfuIZqEzi+3JlguMbQFZYUj9nFzxZelcC/KjOYf4Hx3dGTwbje2ZQjl9pZ60bCQnP07H93a7db2yLXdnLPB4YpuuwXZLYBCVOSy6ii9L73SQlYTbE9v0M+yDe92V2KYQaqV2IqDWHOMptwNLJWpHAnxYcSDwYgZ2dQE/QNL+WnFBBja54ulD2DEU+HkGNnUhYX0tg3xNzcCmEJpk2EZORiwk/cuVi25VtmVvxiDHkVLb1FvzsVsJaEQcDlPb5AqvZ7B7bxqwCVBjKesw37lMbix1qmH7OJlwEulfrJw0WdecbzOYfB2CLjOyEeBrGdjjCq9PY8ctGdjTl36C3STHOg9JDvoLo7ZxMqLMASwq1dPKtuzNtRnY0586sHPmOgh3HC27tiDRGy04OwN79qSLjexsQCJ2prbHUp8xahsnE/ZF9rxTv1i56CJdc77NaeTvCfwKdvueizOwxxVO87FhAjKZSG3PntSOXVTNqzKwx1KfNWoXJwPqkfCz1sdgispbwB0G5QwB/pVwQXis2A+4wqisBUblOHnyA6NyrsNuJSEUjUhIbovwwd4vnGypxyaZT1l4HPijQTkXU5zMgX+L5AzXcj+y4uGUjxbgEYNyTgc+YlBODE4AzjUo53lgpUE5jmNOPXYOb2XgYYMympBQpkWhAfiGQTmvA782KMfJj6XI6pgWS8fTGPwDNkdmLcYVxzGnnrAJPYrGEoMy/gZJk1wkzgKOMCjHB7pyYtEvTgHea1BOTA4HPmZQjkX7OY45g4ARyjLakAhRqRmBLkpVGxIMREtIJ5lt2EcsA5kInod+JWAJeg/qXN6nsjAM8UnRYPEDVsR+ARIafaGyDIuJ8ZvAVmUZ9YTNhugUEK1X6DfjV7lPtJkLLY7/Haesw+5ag2RdO4qe5CtNSDCOf0N+KK3utQq90+IBBvX4jrIOzq78GN3zaEfvJNyEred/C+JdPw2JJgiSZ+M44J+BDYb3egvYX2k/iG+Rph5LDeowQVmHLvwUQOnQvhA5TADq0P8YWnj/X6asQ29dRc/g1h8HIwOD1T21zoB1yOCsqcNdyjo4u7IM3fNYblCHM5R16K272fsW22jgNsN7nqewvRttP11pUAefADi7YHHMJQfGoc/v/TuDepxqUAbAF4Avs/el8FXALOAeo/vOUF7fhazEaDhIeb2zK9qcFhb94v0GZYAczfsYkrNkT2xGfrTnGt1X2y9A347jsc3h4TilmQBYJO7RdtA64ESDetwI3FDB37cDf43NQH2SQRnaelgmYap1BiOTYw0W75VFv/gl8HkqO2p6GXCfwb1z6BeNSNwOxzGjLBOAsQZlrFdefxB6R6TNVHdUaiuyYqDFItOXth3Hkn8ApaLQjL6Pa58n6N+rLiRCZ6VHEbuAOcAO5f0noHektGjHop0ucjKnLBMAi8hiWg9bi2N0PwI2VnntfciWgAYLG7Yor69Hv53jCDn0i2YkI6aGx4Cnqrz2ZeAB5f0bgEOVZWj7BYQ76eDUKGWZAFh0DG0HbTaog3ag0l4/FDk2psFioMs9VGxR8H5hcz3oJzHeL5zs8AlAD9oOqo2nAPCHxNeD3o4Wgzr4l44N3i9srgfvF04JKcsEQBMAqBttqFOLOmj3Ki0C6GjPfL+ZQR0cIYd+YfEs25TXe79wnD4oywRgm0EZ2uU17V4p6L18xxvUQfvFN9KgDhZt6eTRLyyWvrWBeLxfOE4f+ASghxyW+P5Mef105fWd6AcZiyVfi+fp5NEvLCYA2vdaez3o+7f3Cyc7fALQg7aDrjSow9lUfwTuEOBk5f3XAB3KMnygy4cc+sUr6Le2PoRE96uGIcCZyvuDnCbQYNEvfAXAMaUsE4DNBmVovZVXoP/xnAJ8osprv4U+UphF0Jd9lNdvRd+OjvCGQRna59mB9A0NI4GvVXnt3yM5KjT8H9Ufz+3G4jSExSqj47xNWSYAaw3KOFx5fRs2P6A3UPl5/POBcwzu/axBGe9SXr/GoA6O0IJ+EmARG8LivboEOL3Ca6Zhk6vEov7aduzC+4ZjTFkmAGuoLERoX0w0qMcSgzL22VnOCQP8+wuBmwzuCzZpS7XtuNqgDk4P2va06BePGJTRANzJwJfzT0GCY1kElbLo19p23ICnyXaMKcsEoB1Jt6nBYqB7yKAMkCXLpcDV9O8BPRX4GXAzPamCNbQi8dY1jEDvse0TAFu0X41W/aLLoJwmYCGSufPIfv5mApI06GHsQucuMijDJ8ZOdgxCvpw1E4EZ5HE+Vbv/fZRBHR4ANqHfNwX5crkE+BLwJLK9sBk5KjgVGegsuRe909iR6OP4HwNcqSzD6UGbXXEUMiFdpyhjJfAo8F5lXUDer7N3ajnwDPJ13AxMRp/SendeQvqfhqHo+2sz+n4xSnk96FdanczYgl3e7KLLIhnOjRnYUY3OMLD9yxnY4bLXJ9FzYQZ2VKNqknPtzswM7LDSWQbt4WRCPfBq6kpkhEXe7+so3iz5RWzipVvlfXfywqJf/BB4zaCcmGwHbjEop0z9QrvV6mREPTae62XBoqMuB35iUE5M5qKftDSiD2Tk5IlFv9gOfMegnJjchM2kxWIClQv+e1Eyvk76ZaVctAEbf4bDEae61PYMRE+i958AeF8GtrjC6TD0DEMC6qS2ZSB6HRsnwn2QPACp7bHQSwbt4WREPfBg6kpkxBgqP2vcFyuAqwzKCU0n8EVsAu9YxCFw8uVcgzK2AxcblBODS5EAQFo+jk1Sphz4eeoKOGH4Lelnl7loobItuxkCPJWBPXvSXCNb/wQ5/ZDaHlc4vYT+hEc3CzKwZ096ALsj0r/KwB4rnWjUJk5mFNVDN4RasTnGB7IV8EYGNvWlpdh9mXw8A3tc4aXNNaBTbqQAAAitSURBVNHNcMRXJrU9fWkNdvEDDkdW2VLbZKFlRm3iZMgQZNk69UuWi+bomnMXZiBhglPb1FsrgHGGNi7KwCZXeN2GHYchiYJS29RbLcC7DW38lwxsstIsw3ZxMuQ0yjNb1WoNNtH1uvkE8FYGdnUhAV0ONbRtWgY2ueKoHck6acW7yWfraDu23vrNyIQitV0WusOwXZyMuZb0L1suukDZlrvzEWSQSWnTCvRJj3bn3sQ2ueLqBmw5Gplwp7RpE/ZHWP8xsU1W+gN2W6JO5gwC7if9S5eDVmDvvXsy6Qa7/wLGGttzLL5qVGtqBcZjyyHIcdQU9ryATRjw3oxE0genflZabUQmaE4NMQyfBHTrImVb9sVY4n41tyPhTEMkfloc0Q5XPlqAPUOQQEEdEe34PpJgyJqrI9oQSq8hOUecGmQQ8G386+4N7L92ujmT8KsBD9N/1jQt5wSuuytfdSKBn0IwjfDHZ18kXHS+Y5BJd+pnpNFT2PoJOQVlFhL6MfULmVIhHWAGI0cwVxvX+ZeIz4HVue3dGQWsN66zq1j6DeGygNYj7+8TxnX+X6S/hQrMU4ccr039bKpVK3A5shrjOIB08vORtJupX9BU+qi6FfdMIzLgLQS2VlnHtcA1wHGB6wqSbz31M3Gl1+WEpQ5JIXwzEpWvmjpuQo4vziTMNlhvPldlHVNrAzJ2HGDfJE7OVPqFeDRyXPBkYCJylnwEEgmuzGxEflhXR7jXYGQZdDqyfD8R8RsYjQxgO5AUzquR1ZnngUeQZc0YnAP8KNK9nLzpAD4ALIlwr3rgT5Gth6OBdwEHIeNPI3LMtgXJbrocce5bCjyNTajrvTEFeIy8x8JOZFtzE+Ld/xzwELJV2J6wXo4ThCuwmyU/jm1sgCJyBLaRDa0iyzmVcSZ2z/BVYP+41c+O4cgE3KpNvxC3+o5TTkZjexznurjVz4qRyBeDVVveF7f6Ti/qsD12t5janRzXA3di15YvU7tt6TjmWKc7/krc6mfBYCRrpFUbdhLHV8Hpnz/Htl/cQfg99hyxDp52XtTaO07JGY6tx3ontdVJ64H/xHaQcx+CPPhvbJ9rra2QWX9c/AZoiGqB49QAn8S2o76JZMArOw3Ye/yHjK3gVMZk7M+sfzOqBen4IrZxUkLGVnCcmuchbAe6TuDiqBbEZQj2X/5dhImu6FTPVdg/438n3Fn7HPgq9m02P6oFjlNjHIEEurDuuFfGNCISw5HcAdZt9WvCBY9xqmMY4nhm/azvBoZGtCMGDcBN2LfVZvwkheME5yvYd94u5Et5ZEQ7QjIZ2yNN3WrDHf9y5YOECfv9OLbpg1MyDvtVxG6dG9EOx6lZ6gmXwGYlEsCnyHwa2EaY9rkkoh1O5VxDmOf+BvBXEe0IwanAOsK0z4/jmeE4zoHA64TpzK3ID13R9j/HIce4QrRJF7CI2jwiViSGAM8S5vl3AvMo3irZUGAuEmUwRLu8jOTVcBwnIh8lbNrR55BQvrnTAHweCQ0aqi3W4V7/RWEStpEed9d65EROEfgwEi43VFu0ASdGs8ZxnF34BuE6dxfy1XMb+abVnIl9trXd1Urxt0VqjTMIOznuQrbh3hPLoAqZDNxDWPu7qK1YIo6THXXA7YTv6B3IPt9RcczaK7OARwlvdxcwO5JNji0hjrn1pe601TlwLLCA8JOfLuDqSDY5jrMHhhHvx7ADuBdJxBI73/a+wBxsY/nvTVdEscwJxa3Ee1ceAy5AcnfEpAn4FOEcg/vSPXi0P8fJhtGEc37qTxuBG5FUqsMC2bUfcrzoPiRyYUz7rg9kkxOPBmAhcd+bVuRI7ZlAcyC7RiKrDvORtNox7XuIvNMFOzVGXeoKZMK+SO7wiQnu3Q4sQ3Jy/w/we+RIYSU5zIci+dEnIc6HM0i35TAfOB8Z8JxiMxj5Yj09wb07kYn5EmSVbjmwgsry1jcCE4AjEV+UGcDxpDmlswyZ8G9NcG/H6ROfAPRwIHJcbVLqigA7kMFuLdCCRArbigx+TUikvhHAGCTQysHk8Sx/iDg3VTJ5cfJmGHAXcFrqiiDv1UpgFXKUd+tObUe+rIcjX/ijkT4xgTwiTy5Dsi9uTl0Rx3H6pxnZj4y5LFgWzcPP+peVwcB/kP4dK6IWI5N1x3EKQKg4+GVWGfMhOLtSB1xL+netSPopvufvOIVjMHAL6QeQ3NWG7Pc7tcOF2KcQLps6kUmxr4g5ToG5ENmPTz2g5Ki15BvMxQnLKcAfSf8O5qgtwFnVN63jODkxHVhN+oElJy1CTk44tcuhhI8kWTS9AByjaVTHcfJjFHAz6QeY1GpFosT50qYDcpzuq/iWQCcyPjTpmtNxnJw5m3CZBHPX0/jXjdM3JyHxK1K/oym0ljyOSDqOE4Fm4DrCpQjNTZuQMMJFS3HsxKUReU9iR9dLpXZkHChaimPHcQx4DxK5L/VAFEodwPfxvX6nMg5BAgelfn9DahESXdBxnBpnFvAU6QclK3Ui+QOOs2wkp+aYhrxHqd9nSz1KPtkLHcfJhDrk6M/TpB+kqtVbwJ1IWlTHsWI68CAysUz9jlerX+D7/I7jDIDjEY/gVtIPXAPRJmQv85AAbeE43RyBBMfZSPp3fiBqAxYAU0I0huM45WZ/4BLy9BNoA+5GTjUMCdUAjtMHI4DZyKpA7DTVe1MH8AjwOWCfQPY7jlNjHApciqQcThVZcCPinPUZJK6B46TmHcDfAfeT7vTAdiT3xxxgfFhzHScvckghW2s0IfuiM4GpyBJjiK+NlcBziOPSYuAZZB/WcXJkEOI4OAOJK3AsYX6QX0P6xTLgYST7544A93Gc7PEJQB68ExnwDtv5/wOAA4H9kPPVw4GhSGaxLYjD3iZkCXU9sGan1gIvIgOc5x53is47kH4xCekPBwAHA+OQhF2jdv7bhHzJ70D6RzvwKtIn1u389/dIv3glqgWOkzH/DwiOLkhKIt/OAAAAAElFTkSuQmCC;" vertex="1" parent="D1Pnn4vapH3yF3k0A5Gj-38">
          <mxGeometry x="25" y="230" width="68.5" height="68.5" as="geometry" />
        </mxCell>
        <mxCell id="D1Pnn4vapH3yF3k0A5Gj-44" value="&lt;b&gt;Manufacturer&amp;nbsp;&lt;/b&gt;" style="text;html=1;align=center;verticalAlign=middle;whiteSpace=wrap;rounded=0;" vertex="1" parent="D1Pnn4vapH3yF3k0A5Gj-38">
          <mxGeometry x="34.25" y="85" width="60" height="30" as="geometry" />
        </mxCell>
        <mxCell id="D1Pnn4vapH3yF3k0A5Gj-45" value="&lt;b&gt;Pharmacy&lt;/b&gt;" style="text;html=1;align=center;verticalAlign=middle;whiteSpace=wrap;rounded=0;" vertex="1" parent="D1Pnn4vapH3yF3k0A5Gj-38">
          <mxGeometry x="25" y="408.5" width="60" height="30" as="geometry" />
        </mxCell>
        <mxCell id="D1Pnn4vapH3yF3k0A5Gj-46" value="&lt;b&gt;Distributor&lt;/b&gt;" style="text;html=1;align=center;verticalAlign=middle;whiteSpace=wrap;rounded=0;" vertex="1" parent="D1Pnn4vapH3yF3k0A5Gj-38">
          <mxGeometry x="25" y="298.5" width="60" height="30" as="geometry" />
        </mxCell>
        <mxCell id="D1Pnn4vapH3yF3k0A5Gj-47" value="&lt;span style=&quot;color: rgb(0, 0, 0); font-family: Helvetica; font-size: 12px; font-style: normal; font-variant-ligatures: normal; font-variant-caps: normal; letter-spacing: normal; orphans: 2; text-align: center; text-indent: 0px; text-transform: none; widows: 2; word-spacing: 0px; -webkit-text-stroke-width: 0px; white-space: normal; background-color: rgb(236, 236, 236); text-decoration-thickness: initial; text-decoration-style: initial; text-decoration-color: initial; float: none; display: inline !important;&quot;&gt;&lt;b&gt;Wholesaler&lt;/b&gt;&lt;/span&gt;" style="text;html=1;align=center;verticalAlign=middle;whiteSpace=wrap;rounded=0;" vertex="1" parent="D1Pnn4vapH3yF3k0A5Gj-38">
          <mxGeometry x="30" y="192" width="60" height="30" as="geometry" />
        </mxCell>
        <mxCell id="D1Pnn4vapH3yF3k0A5Gj-48" style="edgeStyle=orthogonalEdgeStyle;rounded=0;orthogonalLoop=1;jettySize=auto;html=1;entryX=-0.022;entryY=0.473;entryDx=0;entryDy=0;entryPerimeter=0;" edge="1" parent="1" source="D1Pnn4vapH3yF3k0A5Gj-26" target="D1Pnn4vapH3yF3k0A5Gj-39">
          <mxGeometry relative="1" as="geometry" />
        </mxCell>
        <mxCell id="D1Pnn4vapH3yF3k0A5Gj-49" value="" style="rounded=0;whiteSpace=wrap;html=1;fillColor=none;" vertex="1" parent="1">
          <mxGeometry x="23.5" y="107" width="319" height="300" as="geometry" />
        </mxCell>
        <mxCell id="D1Pnn4vapH3yF3k0A5Gj-50" style="edgeStyle=orthogonalEdgeStyle;rounded=0;orthogonalLoop=1;jettySize=auto;html=1;exitX=1;exitY=0.5;exitDx=0;exitDy=0;entryX=-0.017;entryY=0.526;entryDx=0;entryDy=0;entryPerimeter=0;" edge="1" parent="1" source="D1Pnn4vapH3yF3k0A5Gj-49" target="D1Pnn4vapH3yF3k0A5Gj-23">
          <mxGeometry relative="1" as="geometry" />
        </mxCell>
      </root>
    </mxGraphModel>
  </diagram>
  <diagram name="Page-2" id="QZwmQs92s57OqC2DKhhW">
    <mxGraphModel dx="874" dy="465" grid="1" gridSize="10" guides="1" tooltips="1" connect="1" arrows="1" fold="1" page="1" pageScale="1" pageWidth="850" pageHeight="1100" math="0" shadow="0">
      <root>
        <mxCell id="0" />
        <mxCell id="1" parent="0" />
        <mxCell id="VUEsKkJWjvx7QiZlZ50j-1" value="" style="shape=mxgraph.signs.tech.video_camera;html=1;pointerEvents=1;fillColor=#000000;strokeColor=none;verticalLabelPosition=bottom;verticalAlign=top;align=center;" vertex="1" parent="1">
          <mxGeometry x="650" y="150" width="98" height="40" as="geometry" />
        </mxCell>
        <mxCell id="VUEsKkJWjvx7QiZlZ50j-2" value="" style="points=[[0,0.5,0],[0.19,0.02,0],[0.59,0,0],[0.985,0.02,0],[1,0.5,0],[0.985,0.98,0],[0.59,1,0],[0.19,0.98,0]];verticalLabelPosition=bottom;sketch=0;html=1;verticalAlign=top;aspect=fixed;align=center;pointerEvents=1;shape=mxgraph.cisco19.camera;fillColor=#000000;strokeColor=none;" vertex="1" parent="1">
          <mxGeometry x="400" y="50" width="90" height="50" as="geometry" />
        </mxCell>
      </root>
    </mxGraphModel>
  </diagram>
</mxfile>
